<svg width="16" height="16" viewBox="0 0 16 16" fill="none" xmlns="http://www.w3.org/2000/svg">
<g clip-path="url(#clip0_194_3395)">
<path d="M0.224609 7.99991C0.224609 9.02092 0.425711 10.0319 0.816432 10.9752C1.20715 11.9185 1.77984 12.7756 2.5018 13.4975C3.22376 14.2195 4.08085 14.7922 5.02413 15.1829C5.96742 15.5736 6.97842 15.7747 7.99942 15.7747C9.02043 15.7747 10.0314 15.5736 10.9747 15.1829C11.918 14.7922 12.7751 14.2195 13.497 13.4975C14.219 12.7756 14.7917 11.9185 15.1824 10.9752C15.5731 10.0319 15.7742 9.02092 15.7742 7.99991C15.7742 6.97891 15.5731 5.9679 15.1824 5.02462C14.7917 4.08134 14.219 3.22425 13.497 2.50229C12.7751 1.78033 11.918 1.20764 10.9747 0.81692C10.0314 0.426199 9.02043 0.225098 7.99942 0.225098C6.97842 0.225098 5.96742 0.426199 5.02413 0.81692C4.08085 1.20764 3.22376 1.78033 2.5018 2.50229C1.77984 3.22425 1.20715 4.08134 0.816432 5.02462C0.425711 5.9679 0.224609 6.97891 0.224609 7.99991Z" fill="#231815"/>
<path d="M5.38086 12.2881V3.71191H8.14983C9.12529 3.71191 9.85688 3.88258 10.3448 4.22372C10.8325 4.56487 11.0764 5.08123 11.0764 5.77224C11.0764 5.98671 11.0512 6.19549 11.0009 6.39897C10.9507 6.60244 10.8729 6.78941 10.768 6.96008C10.663 7.13075 10.5318 7.28169 10.3744 7.41292C10.217 7.54414 10.031 7.64692 9.81668 7.72125C10.031 7.75633 10.2356 7.82517 10.4301 7.92795C10.6233 8.02967 10.7967 8.16526 10.9419 8.32826C11.0885 8.49229 11.2044 8.6859 11.2897 8.9089C11.3751 9.13191 11.4177 9.38127 11.4177 9.65699C11.4177 10.5319 11.1246 11.1892 10.5384 11.6288C9.95207 12.0683 9.10575 12.2883 7.99908 12.2883H5.38086V12.2881ZM9.39665 6.05441C9.39665 5.89265 9.37048 5.74607 9.31795 5.61485C9.26542 5.48362 9.18123 5.37212 9.06536 5.28015C8.9495 5.18837 8.80064 5.11726 8.61916 5.06682C8.4375 5.01657 8.21772 4.99135 7.95963 4.99135H6.9819V7.26159H7.95963C8.22208 7.26159 8.44414 7.22992 8.62561 7.1664C8.80709 7.10306 8.95576 7.01545 9.07181 6.90395C9.18767 6.79245 9.27073 6.66445 9.32117 6.52014C9.37143 6.37602 9.39665 6.22071 9.39665 6.05441ZM8.11039 10.9692C8.36847 10.9692 8.59489 10.9364 8.78945 10.8708C8.98401 10.8052 9.14709 10.7144 9.27832 10.5985C9.40954 10.4826 9.50891 10.3459 9.57679 10.1883C9.64449 10.0309 9.67844 9.86255 9.67844 9.68316C9.67844 9.31149 9.53944 9.02041 9.26182 8.81049C8.98401 8.60057 8.55867 8.49551 7.98561 8.49551H6.98171V10.9692H8.11039Z" fill="white"/>
</g>
<defs>
<clipPath id="clip0_194_3395">
<rect width="16" height="16" fill="white"/>
</clipPath>
</defs>
</svg>
