<?xml version="1.0" standalone="no"?><!DOCTYPE svg PUBLIC "-//W3C//DTD SVG 1.1//EN" "http://www.w3.org/Graphics/SVG/1.1/DTD/svg11.dtd"><svg t="1734336751393" class="icon" viewBox="0 0 1024 1024" version="1.1" xmlns="http://www.w3.org/2000/svg" p-id="9194" xmlns:xlink="http://www.w3.org/1999/xlink" width="16" height="16"><path d="M588.148497 640.501722c5.230075 3.162371 10.946668 5.230075 16.176743 5.230075 5.716593 0 10.946668-1.581185 16.663262-5.230075l1.094666-0.486518c34.42119-23.474522 210.41929-147.415132 278.167004-271.355743 18.730966-29.191115 28.704597-62.03112 28.704596-95.357644 0-97.425347-79.1809-176.606248-176.606247-176.606247-69.815418 0-120.291721 54.733341-146.928614 85.384012-25.055707-28.704597-77.599715-85.384012-146.928614-85.384012-97.425347 0-176.606248 79.1809-176.606248 176.606247 0 34.42119 9.852001 67.139565 28.096449 95.357644 72.977788 136.954983 276.099299 270.869224 278.167003 271.842261z m163.105357-484.937403c64.585343 0 117.25098 52.665637 117.25098 117.25098 0 22.866374-6.203112 44.75971-18.730966 63.490676-0.486519 0.486519-0.486519 1.094667-1.094667 1.581185l-0.486518 0.486519C796.135194 435.312507 662.707471 537.359781 604.44687 578.957121c-58.382231-41.718969-192.174843-144.252762-243.745813-240.583442l-0.486519-1.094667c0-0.486519-0.486519-1.094667-1.094667-1.581186-11.919705-18.730966-18.730966-41.110821-18.730966-63.490676 0-64.098824 52.665637-116.642832 117.25098-116.642831 46.827414 0 86.478679 46.340896 107.763868 71.396603 13.500891 16.176743 22.866374 26.515263 39.043117 26.515263s25.055707-10.46015 39.043116-26.028745c21.285188-25.542226 60.814824-71.883122 107.763868-71.883121z" fill="" p-id="9195"></path><path d="M901.709727 625.906165c-10.946668-6.203112-22.379855-9.365483-33.326523-9.365483-32.840005 0-58.382231 26.028745-69.328899 37.461931-29.191115 30.164153-64.585343 60.449935-80.762086 73.950826-6.81126-2.554223-14.595558-4.135408-23.96104-4.743557-54.733341-3.162371-141.698539-13.014372-162.01069-25.542226-22.866374-13.500891-41.110821-26.515263-57.287564-38.556598l-2.554223-2.067704c-48.4086-34.42119-86.478679-62.03112-180.741655-62.03112-26.515263 0-49.989785 6.81126-75.532011 14.595558l-2.554223 1.094667c-22.379855 6.81126-43.786673 13.500891-68.720751 13.500891-32.353486 0-58.868749 26.515263-58.868749 58.868749v136.954983c0 32.353486 26.515263 58.868749 58.868749 58.868749 58.868749 0 131.724908 3.162371 147.415133 7.784297 31.745338 10.46015 107.763867 55.21986 131.724908 70.301936l1.094667 1.094667h0.486518c9.852001 5.230075 21.406818 8.392446 32.840005 8.392446h248.975888c28.704597 0 59.355268-25.542226 70.301936-43.786673 13.014372-21.406818 49.016748-72.977788 145.347428-195.823732 3.162371-4.135408 5.230075-6.81126 5.230075-6.81126 0-0.486519 0.486519-0.486519 0.486519-1.094667 0.486519-1.094667 1.581185-2.067704 2.067704-3.64889 16.176743-31.01556 3.648889-70.058677-29.191116-89.39779zM692.385105 802.998931l-186.45825 9.852001c-13.500891-0.486519-51.57097-27.60993-69.815417-40.624302-3.162371-2.067704-5.716593-4.135408-8.878964-6.203112-3.162371-2.067704-5.716593-4.135408-8.878965-6.203112-15.082076-10.946668-26.515263-17.757928-35.880746-22.379855-4.135408-2.067704-8.392446-3.162371-13.014372-3.162371-10.946668 0-21.406818 6.203112-26.515263 16.176743-7.297779 14.109039-1.581185 32.353486 13.014372 40.137784 9.852001 4.743556 22.379855 13.500891 35.880746 22.866374 3.648889 2.554223 6.81126 4.743556 10.46015 7.297778l1.581185 1.094667c36.975413 26.028745 71.883122 50.476304 103.141941 50.476304L693.358142 862.354199c37.461931-0.486519 68.234232-31.258819 68.234232-68.720751 0-6.81126-1.094667-14.109039-3.162371-20.79867 22.866374-18.730966 55.706378-47.922081 82.82979-76.018529 12.527854-13.014372 20.79867-19.217484 26.515263-19.217484 1.094667 0 2.554223 0.486519 3.648889 1.094667 4.135408 2.554223 7.784297 7.297779 6.811261 11.919705-9.365483 11.919705-118.710536 150.577503-152.645208 205.797363-3.162371 5.230075-15.568595 14.109039-19.217484 14.595558H457.518256c-1.581185 0-3.162371-0.486519-4.135408-1.094667l-0.486519-0.486519c-30.164153-18.730966-104.723126-63.004157-142.671576-75.532011-32.353486-10.46015-142.671576-10.946668-165.65958-11.433186V686.356099c35.880746 0 66.166528-9.852001 88.546384-16.663261 20.79867-6.81126 38.556598-12.527854 57.774082-12.527854 76.01853 0 103.141941 19.217484 147.415132 51.57097l2.554223 2.067704c16.663262 11.919705 35.880746 26.028745 59.841787 40.624303 11.433187 7.297779 30.164153 13.014372 58.868749 18.730965 49.989785 9.852001 109.345053 13.500891 129.170685 14.595558h3.162371c2.432593 0 4.865186 0.973037 6.689631 2.675852 1.702815 1.702815 2.797482 4.135408 2.675852 6.689631 0.486519 4.743556-3.648889 8.878964-8.878964 8.878964z" fill="" p-id="9196"></path><path d="M433.313956 121.264758c-15.446965 3.770519-89.76268 23.231263-107.885497 80.153938-6.689631 20.79867-2.675852 40.502673 5.473334 78.937641 11.433187 53.760304 19.582373 92.438532 47.070673 133.184464 17.757928 26.393633 51.206081 51.935859 118.102388 103.020311 1.337926 1.094667 31.988597 24.325929 75.8969 50.597933 27.366671 16.420002 41.23245 24.569189 52.422378 25.907115 31.380449 3.648889 58.138971-22.258225 110.31809-82.586531 104.114978-120.413351 129.778834-170.403136 145.833947-212.122104 15.446965-40.137784 21.041929-70.180306 7.784297-95.844162-10.581779-20.55541-29.556004-31.502079-48.16534-42.205488-13.136002-7.541038-47.557192-27.245041-88.059865-26.515263-79.42416 1.459556-127.954389 80.883715-131.360019 86.843568M714.156811 762.00974l10.825039 53.030526-43.421784 16.906521s-143.401354-4.865186-154.348022 0c-10.825039 4.865186-89.154531-33.813042-94.019718-39.772895-4.865186-6.081482-37.340302-47.070673-37.340301-47.070673l-38.556599 22.866374-18.122817-12.041335s-74.194085 30.529041-23.474522 79.545789c50.597933 49.016748-160.916023 16.906521-160.916023 16.906521l-39.772895-65.071862 14.473928-119.318683S159.64725 649.867205 186.162513 646.339945s131.360019-20.433781 153.131726-16.906521 96.45231 40.989191 102.412163 49.381637c6.081482 8.514075 272.45041 83.194679 272.450409 83.194679z" fill="" p-id="9197"></path><path d="M767.187338 741.575959l92.80342-72.36964s26.515263-8.392446 27.73156 0 0 25.177337 0 34.299561-126.494833 185.120323-126.494833 185.120323-39.772895 40.989191-44.638081 40.989191h-77.113196c-10.825039 0-188.039435 0-197.648177-7.176149s-73.585937-40.989191-78.329493-43.421784c-4.865186-2.432593-56.801045-52.179119-67.626083-53.273786s-25.177337-26.515263-25.177337-28.218078c0-1.702815-8.392446-24.690818 7.176149-33.083264 15.690224-8.392446 69.937047-36.124005 73.585936-36.124005s415.730134 13.257632 415.730135 13.257631z" fill="" p-id="9198"></path><path d="M719.873405 730.021143s7.905927 54.003563-101.804015 46.705784-173.443877-38.434969-202.391733-56.557786c-28.947856-18.122817-74.802233 30.164153-28.947856 57.287564s250.800333 117.494239 335.089678 51.206082c81.248604-63.855565 84.289346-116.277943 58.62549-149.117948-1.702815-2.067704-3.648889-3.648889-6.93289-0.851407l-63.490676 46.827414 9.852002 4.500297z" fill="#FFFFFF" p-id="9199"></path></svg>