<svg width="73" height="15" viewBox="0 0 73 15" fill="none" xmlns="http://www.w3.org/2000/svg">
<path d="M72.3563 5.4762L68.1083 14.8962H65.0363L66.6203 11.5602L63.8723 5.6922L66.9323 5.4762L68.1083 8.6922L69.3083 5.6922L72.3563 5.4762Z" fill="black"/>
<path d="M62.9117 5.28418V12.4962H55.6396V8.26018L60.1036 8.00818V7.50418L55.6396 7.79218V5.75218L62.9117 5.28418ZM60.1036 10.4322V9.92818L58.4236 10.0242V10.4922L60.1036 10.4322Z" fill="black"/>
<path d="M51.6201 2.68016L54.4401 2.48816V12.4962H51.6201V2.68016Z" fill="black"/>
<path d="M50.4172 5.34412V9.83212L46.0492 10.0121V10.5041L50.4172 10.3601V12.4961H43.2412V5.71612L50.4172 5.34412ZM47.7292 7.52812L46.0492 7.61212V8.11612L47.7292 8.04412V7.52812Z" fill="black"/>
<path d="M41.983 2.80017V9.58017L41.131 9.59217L41.983 12.4962H39.019L38.191 9.62817L37.087 9.64017V12.4962H34.231V3.14817L41.983 2.80017ZM39.127 5.30817L37.087 5.40417V7.39617L39.127 7.28817V5.30817Z" fill="black"/>
<path d="M29.3765 5.48816V12.4962H21.9365V5.88416L24.7565 5.69216V10.2042L26.5565 10.1202V5.68016L29.3765 5.48816Z" fill="black"/>
<path d="M20.736 5.20017L18.288 5.32017V12.4962H15.408V5.47617L12.96 5.59617V3.19617L20.736 2.80017V5.20017Z" fill="black"/>
<path fill-rule="evenodd" clip-rule="evenodd" d="M7.93789 2.66678C6.26665 2.19729 4.57339 3.14744 4.1272 4.7374C3.68101 6.32736 4.6325 8.02047 6.30374 8.48995C7.97498 8.95943 9.66824 8.00929 10.1144 6.41932C10.5606 4.82936 9.60913 3.13626 7.93789 2.66678ZM3.49666 4.56027C4.05451 2.57242 6.13806 1.4545 8.12171 2.01174C10.1054 2.56899 11.3028 4.6086 10.745 6.59646C10.1871 8.58431 8.10357 9.70223 6.11991 9.14498C4.13626 8.58774 2.93881 6.54812 3.49666 4.56027Z" fill="black"/>
<path fill-rule="evenodd" clip-rule="evenodd" d="M10.5502 7.3431C10.4814 7.41168 10.3903 7.49639 10.2837 7.5545L10.016 7.01555C10.0423 7.00121 10.0818 6.96965 10.1443 6.90744C10.1607 6.89111 10.1845 6.86648 10.2112 6.83884C10.2557 6.79276 10.3083 6.73834 10.348 6.7002C10.4828 6.57076 10.7402 6.34841 11.0729 6.44187C11.8299 6.65451 12.341 7.41717 12.1225 8.19577C11.904 8.97438 11.0708 9.35937 10.3139 9.14674C9.82558 9.00956 9.44956 8.65284 9.29293 8.20954L9.84868 7.99028C9.93763 8.24206 10.1622 8.46813 10.4793 8.55721C10.9875 8.69997 11.4457 8.42602 11.5551 8.03636C11.6644 7.6467 11.4157 7.17417 10.9075 7.0314C10.9075 7.03139 10.9074 7.03136 10.9073 7.03132C10.9063 7.03077 10.9016 7.02827 10.88 7.0388C10.8493 7.05377 10.8068 7.08526 10.7458 7.14378C10.7065 7.18148 10.6781 7.21127 10.6463 7.24458C10.6195 7.27265 10.5903 7.30321 10.5502 7.3431Z" fill="black"/>
<path fill-rule="evenodd" clip-rule="evenodd" d="M3.34423 5.31899C3.36735 5.4134 3.40099 5.53314 3.4618 5.63828L3.9708 5.31753C3.95578 5.29158 3.93843 5.24403 3.91747 5.15839C3.91196 5.1359 3.90446 5.10248 3.89604 5.06498C3.88201 5.00245 3.86544 4.92861 3.85136 4.87535C3.80358 4.69462 3.69945 4.3707 3.36675 4.27724C2.60981 4.0646 1.77659 4.4496 1.55809 5.2282C1.33959 6.00681 1.85074 6.76946 2.60769 6.9821C3.09599 7.11927 3.60264 7.01052 3.967 6.71356L3.60654 6.23693C3.3996 6.40558 3.09022 6.48165 2.77313 6.39257C2.26491 6.24981 2.01623 5.77728 2.12558 5.38762C2.23493 4.99796 2.6931 4.724 3.20131 4.86677C3.20135 4.86678 3.20142 4.86679 3.20151 4.86679C3.20267 4.86686 3.20802 4.86719 3.22098 4.88743C3.2394 4.9162 3.25931 4.96522 3.28092 5.04693C3.29483 5.09957 3.30363 5.13983 3.31347 5.18484C3.32176 5.22277 3.33078 5.26407 3.34423 5.31899Z" fill="black"/>
<path fill-rule="evenodd" clip-rule="evenodd" d="M10.8958 7.40601C11.0851 7.53119 11.2371 7.67985 11.3216 7.78197C11.3683 7.83838 11.3612 7.92412 11.3056 7.97347C11.2501 8.02282 11.1672 8.01709 11.1205 7.96068C11.0513 7.87696 10.918 7.74578 10.7511 7.63544C10.7164 7.61247 10.6807 7.59074 10.6444 7.57069C10.7139 7.68233 10.7738 7.83315 10.8121 8.04981C10.8251 8.12327 10.7778 8.19487 10.7064 8.20973C10.635 8.22459 10.5667 8.17708 10.5537 8.10361C10.5046 7.8262 10.4203 7.7 10.3478 7.6239C10.3164 7.59102 10.2868 7.56659 10.2538 7.53942C10.2448 7.53201 10.2356 7.5244 10.226 7.51636C10.1848 7.48183 10.1338 7.43652 10.0984 7.37061C10.0756 7.32821 10.0769 7.27599 10.1018 7.23391C10.1267 7.19183 10.1713 7.1664 10.2186 7.16734C10.4707 7.17232 10.7077 7.28155 10.8958 7.40601Z" fill="black"/>
<path fill-rule="evenodd" clip-rule="evenodd" d="M3.01656 5.19256C2.78984 5.20089 2.5827 5.24865 2.45741 5.29183C2.3882 5.31569 2.34971 5.39262 2.37145 5.46368C2.39319 5.53473 2.46692 5.57299 2.53613 5.54914C2.63884 5.51374 2.8209 5.47115 3.02076 5.46381C3.06236 5.46229 3.10412 5.46231 3.14559 5.46413C3.02819 5.52327 2.89851 5.62081 2.75309 5.78586C2.70378 5.84182 2.70695 5.92761 2.76017 5.97746C2.81338 6.02732 2.89649 6.02237 2.9458 5.96641C3.13199 5.75507 3.26968 5.69125 3.3712 5.66404C3.41506 5.65228 3.45308 5.64686 3.49537 5.64083C3.5069 5.63919 3.51874 5.6375 3.5311 5.63563C3.58422 5.62758 3.6514 5.61549 3.7159 5.57764C3.75739 5.55329 3.78343 5.50801 3.78407 5.45912C3.78471 5.41023 3.75984 5.36528 3.71898 5.34145C3.50118 5.21445 3.24198 5.18428 3.01656 5.19256Z" fill="black"/>
<path fill-rule="evenodd" clip-rule="evenodd" d="M7.76142 2.26603C7.83281 2.27791 7.88022 2.34754 7.86732 2.42154C7.82774 2.64856 7.72912 2.99989 7.55956 3.32647C7.39162 3.64993 7.14171 3.9726 6.78888 4.10337C6.72018 4.12883 6.64559 4.09233 6.62228 4.02183C6.59898 3.95134 6.63578 3.87355 6.70448 3.84809C6.96459 3.75168 7.17284 3.50179 7.32859 3.20183C7.48271 2.905 7.57331 2.58207 7.6088 2.37851C7.6217 2.30451 7.69003 2.25415 7.76142 2.26603Z" fill="black"/>
<path fill-rule="evenodd" clip-rule="evenodd" d="M7.69843 2.27132C7.76764 2.24746 7.84137 2.28572 7.86311 2.35678C7.96559 2.69173 8.05999 3.5315 7.62116 4.26023C7.5825 4.32443 7.5014 4.3451 7.44001 4.30641C7.37862 4.26772 7.36019 4.18432 7.39884 4.12013C7.78279 3.48253 7.70096 2.73238 7.61247 2.44316C7.59073 2.37211 7.62922 2.29517 7.69843 2.27132Z" fill="black"/>
<path fill-rule="evenodd" clip-rule="evenodd" d="M7.63871 2.31293C7.68633 2.25543 7.7693 2.24781 7.82403 2.29589C8.0962 2.53502 8.52919 3.24486 8.24591 4.2543C8.22561 4.32665 8.15269 4.36945 8.08304 4.34988C8.01339 4.33032 7.97339 4.2558 7.9937 4.18345C8.24468 3.28908 7.85668 2.6843 7.65158 2.5041C7.59685 2.45601 7.59109 2.37042 7.63871 2.31293Z" fill="black"/>
<path fill-rule="evenodd" clip-rule="evenodd" d="M7.62062 2.34102C7.65342 2.27351 7.73246 2.24518 7.79717 2.27775C8.15731 2.45897 8.83335 3.11069 8.8424 4.30993C8.84296 4.38485 8.78461 4.44725 8.71206 4.4493C8.63952 4.45135 8.58025 4.39228 8.57969 4.31735C8.57149 3.22965 7.95993 2.66387 7.67842 2.52222C7.61371 2.48965 7.58783 2.40853 7.62062 2.34102Z" fill="black"/>
<path fill-rule="evenodd" clip-rule="evenodd" d="M10.2156 3.26633C10.2541 3.29495 10.2927 3.32363 10.3315 3.35225C10.39 3.39536 10.4027 3.48002 10.3598 3.54133C10.3169 3.60264 10.2347 3.61739 10.1762 3.57428C10.1362 3.54482 10.097 3.5157 10.0583 3.48697C9.78977 3.28761 9.54692 3.10732 9.25477 2.96525C8.92448 2.80465 8.52837 2.69225 7.96677 2.67308C7.89433 2.67061 7.83869 2.60787 7.8425 2.53296C7.84631 2.45805 7.90813 2.39933 7.98058 2.4018C8.57494 2.42209 9.00604 2.54208 9.37043 2.71926C9.68542 2.87243 9.94847 3.06788 10.2156 3.26633Z" fill="black"/>
<path fill-rule="evenodd" clip-rule="evenodd" d="M10.1604 2.70685C10.2663 2.74445 10.362 2.77847 10.444 2.80507C10.5128 2.82741 10.55 2.90351 10.527 2.97506C10.5041 3.0466 10.4296 3.0865 10.3608 3.06417C10.2673 3.03382 10.1651 2.99745 10.0553 2.9584C9.83031 2.87836 9.57373 2.78709 9.29595 2.71342C8.88603 2.6047 8.45864 2.54352 8.07951 2.62244C8.00814 2.6373 7.93975 2.58979 7.92676 2.51633C7.91377 2.44286 7.96111 2.37126 8.03248 2.35641C8.46992 2.26535 8.94309 2.33829 9.36592 2.45043C9.65314 2.52661 9.93057 2.62518 10.1604 2.70685Z" fill="black"/>
<path fill-rule="evenodd" clip-rule="evenodd" d="M9.31158 2.15466C9.79477 2.21538 10.2287 2.35165 10.484 2.46049C10.5506 2.48887 10.5813 2.56812 10.5525 2.63749C10.5237 2.70685 10.4464 2.74008 10.3798 2.71169C10.1446 2.61142 9.73326 2.48171 9.27484 2.42411C8.81472 2.36629 8.32204 2.38303 7.91446 2.56055C7.84715 2.58987 7.77065 2.55771 7.74358 2.48873C7.71652 2.41975 7.74915 2.34007 7.81646 2.31075C8.28481 2.10676 8.8301 2.09416 9.31158 2.15466Z" fill="black"/>
<path fill-rule="evenodd" clip-rule="evenodd" d="M5.76298 1.12531C5.78657 1.05397 5.86132 1.01477 5.92992 1.03775C6.1574 1.11397 6.52761 1.26917 6.9087 1.48959C7.28856 1.70931 7.68871 1.99923 7.9672 2.34819C8.01291 2.40546 8.00429 2.49108 7.94795 2.53943C7.89161 2.58778 7.80889 2.58055 7.76318 2.52328C7.51346 2.21038 7.14423 1.93948 6.77697 1.72705C6.41091 1.51532 6.05624 1.36705 5.84448 1.2961C5.77587 1.27311 5.73939 1.19665 5.76298 1.12531Z" fill="black"/>
<path fill-rule="evenodd" clip-rule="evenodd" d="M7.78554 2.41074C7.06565 2.09658 5.89375 1.8326 5.39492 1.73988C5.32378 1.72665 5.27761 1.65613 5.2918 1.58235C5.306 1.50858 5.37518 1.45949 5.44632 1.47271C5.94792 1.56595 7.14384 1.834 7.89176 2.16039C7.95811 2.18935 7.98813 2.26886 7.9588 2.33799C7.92946 2.40713 7.8519 2.4397 7.78554 2.41074Z" fill="black"/>
<path fill-rule="evenodd" clip-rule="evenodd" d="M7.72352 2.60631C6.98192 2.23313 5.93474 2.1737 5.50303 2.19233C5.4305 2.19547 5.3704 2.1373 5.36878 2.06241C5.36717 1.98752 5.42466 1.92428 5.49719 1.92115C5.94569 1.90179 7.04392 1.9601 7.84227 2.36184C7.90698 2.3944 7.93286 2.47553 7.90007 2.54303C7.86728 2.61054 7.78823 2.63887 7.72352 2.60631Z" fill="black"/>
<path fill-rule="evenodd" clip-rule="evenodd" d="M9.51004 1.92858C9.51143 2.00348 9.45376 2.06655 9.38123 2.06946C9.20547 2.0765 8.92145 2.11319 8.64915 2.19959C8.37127 2.28777 8.1343 2.41877 8.01799 2.59471C7.9767 2.65716 7.89488 2.67419 7.83522 2.63275C7.77557 2.59131 7.76068 2.50709 7.80197 2.44463C7.97194 2.18752 8.28419 2.03303 8.57653 1.94026C8.87445 1.84573 9.18166 1.80603 9.37618 1.79824C9.44872 1.79533 9.50865 1.85369 9.51004 1.92858Z" fill="black"/>
<path fill-rule="evenodd" clip-rule="evenodd" d="M6.65333 1.14058C6.6869 1.07347 6.76625 1.04612 6.83056 1.0795C6.99126 1.16289 7.2312 1.32426 7.43978 1.54281C7.647 1.75994 7.83667 2.0477 7.86838 2.38424C7.87539 2.45868 7.82254 2.52609 7.75034 2.53479C7.67813 2.5435 7.61391 2.49021 7.60689 2.41576C7.58339 2.16627 7.43894 1.93227 7.25093 1.73529C7.0643 1.53972 6.84791 1.39461 6.709 1.32253C6.64469 1.28915 6.61976 1.20769 6.65333 1.14058Z" fill="black"/>
</svg>
