<svg width="72" height="16" viewBox="0 0 72 16" fill="none" xmlns="http://www.w3.org/2000/svg">
<path d="M71.9943 6.27588L67.7463 15.6959H64.6743L66.2583 12.3599L63.5103 6.49188L66.5703 6.27588L67.7463 9.49188L68.9463 6.49188L71.9943 6.27588Z" fill="black"/>
<path d="M62.5496 6.08386V13.2959H55.2776V9.05986L59.7416 8.80786V8.30386L55.2776 8.59186V6.55186L62.5496 6.08386ZM59.7416 11.2319V10.7279L58.0616 10.8239V11.2919L59.7416 11.2319Z" fill="black"/>
<path d="M51.2581 3.47984L54.0781 3.28784V13.2958H51.2581V3.47984Z" fill="black"/>
<path d="M50.0552 6.1438V10.6318L45.6872 10.8118V11.3038L50.0552 11.1598V13.2958H42.8792V6.5158L50.0552 6.1438ZM47.3672 8.3278L45.6872 8.4118V8.9158L47.3672 8.8438V8.3278Z" fill="black"/>
<path d="M41.6209 3.59985V10.3799L40.7689 10.3919L41.6209 13.2959H38.6569L37.8289 10.4279L36.7249 10.4399V13.2959H33.8689V3.94785L41.6209 3.59985ZM38.7649 6.10785L36.7249 6.20385V8.19585L38.7649 8.08785V6.10785Z" fill="black"/>
<path d="M29.0145 6.28784V13.2958H21.5745V6.68384L24.3945 6.49184V11.0038L26.1945 10.9198V6.47984L29.0145 6.28784Z" fill="black"/>
<path d="M20.3739 5.99985L17.9259 6.11985V13.2959H15.0459V6.27585L12.5979 6.39585V3.99585L20.3739 3.59985V5.99985Z" fill="black"/>
<path fill-rule="evenodd" clip-rule="evenodd" d="M7.57583 3.46646C5.90459 2.99698 4.21133 3.94712 3.76514 5.53708C3.31895 7.12705 4.27044 8.82015 5.94168 9.28963C7.61292 9.75911 9.30618 8.80897 9.75237 7.21901C10.1986 5.62905 9.24707 3.93594 7.57583 3.46646ZM3.1346 5.35995C3.69245 3.3721 5.776 2.25418 7.75965 2.81143C9.74331 3.36867 10.9408 5.40829 10.3829 7.39614C9.82506 9.38399 7.74151 10.5019 5.75785 9.94466C3.7742 9.38742 2.57675 7.34781 3.1346 5.35995Z" fill="black"/>
<path fill-rule="evenodd" clip-rule="evenodd" d="M10.1882 8.14278C10.1193 8.21136 10.0283 8.29608 9.92165 8.35419L9.65391 7.81524C9.68023 7.80089 9.71978 7.76933 9.78224 7.70712C9.79864 7.69079 9.82244 7.66616 9.84913 7.63853C9.89364 7.59244 9.94621 7.53803 9.98594 7.49988C10.1208 7.37045 10.3782 7.1481 10.7109 7.24156C11.4678 7.4542 11.979 8.21685 11.7605 8.99546C11.542 9.77406 10.7088 10.1591 9.95182 9.94642C9.46352 9.80925 9.0875 9.45253 8.93087 9.00922L9.48662 8.78996C9.57557 9.04174 9.80016 9.26781 10.1173 9.35689C10.6255 9.49966 11.0836 9.2257 11.193 8.83604C11.3023 8.44638 11.0537 7.97385 10.5454 7.83109C10.5454 7.83107 10.5453 7.83104 10.5453 7.831C10.5442 7.83046 10.5395 7.82796 10.5179 7.83849C10.4872 7.85345 10.4447 7.88494 10.3837 7.94346C10.3445 7.98116 10.316 8.01095 10.2842 8.04426C10.2574 8.07233 10.2282 8.10289 10.1882 8.14278Z" fill="black"/>
<path fill-rule="evenodd" clip-rule="evenodd" d="M2.98217 6.11867C3.00528 6.21308 3.03893 6.33282 3.09974 6.43796L3.60873 6.11721C3.59372 6.09126 3.57637 6.04371 3.5554 5.95807C3.5499 5.93559 3.5424 5.90216 3.53398 5.86467C3.51995 5.80214 3.50338 5.72829 3.4893 5.67503C3.44152 5.4943 3.33739 5.17039 3.00469 5.07692C2.24775 4.86429 1.41453 5.24928 1.19603 6.02789C0.977533 6.80649 1.48868 7.56915 2.24563 7.78179C2.73393 7.91896 3.24058 7.8102 3.60494 7.51325L3.24448 7.03661C3.03754 7.20527 2.72816 7.28134 2.41107 7.19226C1.90285 7.04949 1.65417 6.57696 1.76352 6.1873C1.87287 5.79764 2.33104 5.52369 2.83925 5.66645C2.83929 5.66646 2.83936 5.66647 2.83945 5.66647C2.84061 5.66655 2.84596 5.66688 2.85892 5.68712C2.87734 5.71588 2.89725 5.7649 2.91886 5.84661C2.93277 5.89925 2.94157 5.93951 2.95141 5.98452C2.9597 6.02245 2.96872 6.06375 2.98217 6.11867Z" fill="black"/>
<path fill-rule="evenodd" clip-rule="evenodd" d="M10.5338 8.20569C10.723 8.33088 10.8751 8.47953 10.9596 8.58165C11.0063 8.63807 10.9991 8.7238 10.9436 8.77315C10.888 8.8225 10.8052 8.81677 10.7585 8.76036C10.6892 8.67664 10.5559 8.54547 10.3891 8.43512C10.3544 8.41215 10.3187 8.39042 10.2823 8.37038C10.3518 8.48202 10.4118 8.63284 10.4501 8.84949C10.4631 8.92296 10.4157 8.99456 10.3444 9.00941C10.273 9.02427 10.2046 8.97676 10.1916 8.9033C10.1426 8.62588 10.0582 8.49968 9.98569 8.42358C9.95436 8.3907 9.92471 8.36627 9.89174 8.3391C9.88275 8.33169 9.87352 8.32409 9.86394 8.31605C9.82277 8.28151 9.7717 8.2362 9.73631 8.17029C9.71355 8.12789 9.71487 8.07567 9.73976 8.03359C9.76465 7.99152 9.80927 7.96608 9.85656 7.96702C10.1086 7.972 10.3456 8.08124 10.5338 8.20569Z" fill="black"/>
<path fill-rule="evenodd" clip-rule="evenodd" d="M2.6545 5.99224C2.42778 6.00057 2.22064 6.04833 2.09535 6.09151C2.02614 6.11537 1.98765 6.19231 2.00939 6.26336C2.03113 6.33441 2.10486 6.37268 2.17407 6.34882C2.27678 6.31342 2.45884 6.27083 2.6587 6.2635C2.7003 6.26197 2.74206 6.26199 2.78353 6.26381C2.66613 6.32295 2.53645 6.42049 2.39103 6.58554C2.34172 6.6415 2.34489 6.72729 2.3981 6.77715C2.45132 6.827 2.53443 6.82205 2.58374 6.76609C2.76993 6.55476 2.90761 6.49093 3.00913 6.46372C3.053 6.45196 3.09102 6.44654 3.13331 6.44051C3.14483 6.43887 3.15668 6.43718 3.16904 6.43531C3.22216 6.42726 3.28934 6.41517 3.35384 6.37732C3.39533 6.35297 3.42137 6.3077 3.42201 6.25881C3.42265 6.20991 3.39778 6.16496 3.35692 6.14113C3.13912 6.01413 2.87992 5.98397 2.6545 5.99224Z" fill="black"/>
<path fill-rule="evenodd" clip-rule="evenodd" d="M7.39936 3.06571C7.47075 3.0776 7.51816 3.14722 7.50526 3.22123C7.46568 3.44824 7.36706 3.79958 7.1975 4.12616C7.02956 4.44961 6.77965 4.77228 6.42682 4.90305C6.35812 4.92852 6.28353 4.89201 6.26022 4.82152C6.23692 4.75102 6.27372 4.67324 6.34242 4.64777C6.60253 4.55136 6.81078 4.30147 6.96653 4.00151C7.12065 3.70468 7.21125 3.38175 7.24673 3.17819C7.25964 3.10419 7.32797 3.05383 7.39936 3.06571Z" fill="black"/>
<path fill-rule="evenodd" clip-rule="evenodd" d="M7.33637 3.071C7.40558 3.04714 7.47931 3.08541 7.50105 3.15646C7.60353 3.49141 7.69793 4.33118 7.2591 5.05992C7.22044 5.12411 7.13933 5.14479 7.07795 5.1061C7.01656 5.06741 6.99813 4.984 7.03678 4.91981C7.42073 4.28222 7.3389 3.53206 7.25041 3.24285C7.22867 3.17179 7.26715 3.09485 7.33637 3.071Z" fill="black"/>
<path fill-rule="evenodd" clip-rule="evenodd" d="M7.27665 3.11261C7.32427 3.05512 7.40724 3.04749 7.46197 3.09557C7.73414 3.33471 8.16713 4.04455 7.88385 5.05398C7.86355 5.12634 7.79063 5.16913 7.72098 5.14956C7.65133 5.13 7.61133 5.05548 7.63164 4.98313C7.88262 4.08877 7.49462 3.48398 7.28952 3.30378C7.23479 3.25569 7.22903 3.17011 7.27665 3.11261Z" fill="black"/>
<path fill-rule="evenodd" clip-rule="evenodd" d="M7.25856 3.1407C7.29136 3.0732 7.3704 3.04487 7.43511 3.07743C7.79525 3.25865 8.47129 3.91038 8.48033 5.10961C8.4809 5.18453 8.42255 5.24693 8.35 5.24898C8.27746 5.25103 8.21819 5.19196 8.21763 5.11703C8.20943 4.02933 7.59787 3.46356 7.31636 3.3219C7.25165 3.28934 7.22577 3.20821 7.25856 3.1407Z" fill="black"/>
<path fill-rule="evenodd" clip-rule="evenodd" d="M9.8535 4.06602C9.89201 4.09463 9.93061 4.12331 9.96945 4.15193C10.028 4.19505 10.0406 4.2797 9.99776 4.34101C9.95487 4.40232 9.87267 4.41707 9.81416 4.37396C9.77418 4.3445 9.73495 4.31538 9.69626 4.28665C9.42771 4.08729 9.18486 3.907 8.89271 3.76494C8.56242 3.60434 8.16631 3.49193 7.60471 3.47276C7.53227 3.47029 7.47663 3.40756 7.48044 3.33264C7.48425 3.25773 7.54607 3.19901 7.61852 3.20149C8.21288 3.22178 8.64398 3.34176 9.00837 3.51894C9.32336 3.67211 9.58641 3.86756 9.8535 4.06602Z" fill="black"/>
<path fill-rule="evenodd" clip-rule="evenodd" d="M9.79839 3.50653C9.90421 3.54413 9.99995 3.57815 10.0819 3.60476C10.1508 3.62709 10.1879 3.70319 10.165 3.77474C10.142 3.84629 10.0676 3.88618 9.99877 3.86385C9.90525 3.8335 9.803 3.79713 9.69324 3.75808C9.46825 3.67804 9.21167 3.58677 8.93389 3.5131C8.52397 3.40438 8.09658 3.34321 7.71745 3.42213C7.64608 3.43698 7.57769 3.38947 7.5647 3.31601C7.55171 3.24254 7.59905 3.17095 7.67042 3.15609C8.10786 3.06503 8.58103 3.13797 9.00386 3.25011C9.29108 3.32629 9.56851 3.42486 9.79839 3.50653Z" fill="black"/>
<path fill-rule="evenodd" clip-rule="evenodd" d="M8.94952 2.95434C9.43271 3.01506 9.86665 3.15133 10.122 3.26017C10.1885 3.28856 10.2192 3.3678 10.1904 3.43717C10.1616 3.50654 10.0843 3.53976 10.0177 3.51137C9.78251 3.4111 9.3712 3.2814 8.91278 3.22379C8.45266 3.16597 7.95998 3.18271 7.5524 3.36023C7.48509 3.38955 7.40859 3.35739 7.38152 3.28841C7.35446 3.21943 7.38709 3.13975 7.4544 3.11043C7.92275 2.90644 8.46804 2.89384 8.94952 2.95434Z" fill="black"/>
<path fill-rule="evenodd" clip-rule="evenodd" d="M5.40092 1.92499C5.42451 1.85365 5.49925 1.81445 5.56786 1.83743C5.79534 1.91365 6.16555 2.06885 6.54663 2.28927C6.9265 2.50899 7.32665 2.79891 7.60514 3.14787C7.65085 3.20514 7.64223 3.29076 7.58589 3.33911C7.52955 3.38746 7.44683 3.38023 7.40112 3.32296C7.1514 3.01006 6.78217 2.73916 6.41491 2.52673C6.04885 2.315 5.69418 2.16673 5.48242 2.09578C5.41381 2.0728 5.37733 1.99633 5.40092 1.92499Z" fill="black"/>
<path fill-rule="evenodd" clip-rule="evenodd" d="M7.42348 3.21042C6.70359 2.89626 5.53169 2.63228 5.03286 2.53956C4.96171 2.52634 4.91555 2.45581 4.92974 2.38203C4.94394 2.30826 5.01312 2.25917 5.08426 2.27239C5.58586 2.36563 6.78178 2.63369 7.5297 2.96007C7.59605 2.98903 7.62607 3.06854 7.59673 3.13768C7.5674 3.20681 7.48984 3.23938 7.42348 3.21042Z" fill="black"/>
<path fill-rule="evenodd" clip-rule="evenodd" d="M7.36146 3.40599C6.61986 3.03281 5.57268 2.97338 5.14097 2.99202C5.06844 2.99515 5.00834 2.93698 5.00672 2.86209C5.00511 2.78721 5.0626 2.72396 5.13513 2.72083C5.58363 2.70147 6.68186 2.75979 7.48021 3.16152C7.54492 3.19408 7.5708 3.27521 7.53801 3.34272C7.50522 3.41022 7.42617 3.43855 7.36146 3.40599Z" fill="black"/>
<path fill-rule="evenodd" clip-rule="evenodd" d="M9.14798 2.72827C9.14937 2.80316 9.0917 2.86623 9.01917 2.86914C8.8434 2.87618 8.55939 2.91287 8.28709 2.99928C8.00921 3.08745 7.77224 3.21845 7.65593 3.39439C7.61464 3.45684 7.53281 3.47387 7.47316 3.43243C7.41351 3.39099 7.39862 3.30677 7.43991 3.24432C7.60988 2.9872 7.92213 2.83271 8.21447 2.73995C8.51239 2.64541 8.81959 2.60571 9.01412 2.59792C9.08665 2.59501 9.14658 2.65337 9.14798 2.72827Z" fill="black"/>
<path fill-rule="evenodd" clip-rule="evenodd" d="M6.29127 1.94026C6.32484 1.87315 6.40419 1.8458 6.4685 1.87918C6.6292 1.96257 6.86914 2.12394 7.07772 2.34249C7.28494 2.55962 7.47461 2.84738 7.50632 3.18392C7.51333 3.25836 7.46048 3.32577 7.38828 3.33447C7.31607 3.34318 7.25185 3.28989 7.24483 3.21544C7.22133 2.96595 7.07688 2.73196 6.88887 2.53497C6.70224 2.33941 6.48585 2.1943 6.34694 2.12221C6.28263 2.08883 6.2577 2.00737 6.29127 1.94026Z" fill="black"/>
<path d="M4.2295 3.28307C4.34008 3.2205 4.55135 3.13418 4.73642 3.04672C4.77728 3.02741 4.79103 2.97591 4.76811 2.93061L4.55833 2.51608C4.53193 2.46391 4.46911 2.44279 4.42858 2.47493C4.21341 2.64558 3.98272 2.92217 3.92627 2.98552C3.85547 3.06499 3.815 3.09002 3.80586 3.12466C3.42817 4.38732 3.41168 4.88046 3.3906 5.03267C3.36424 5.22294 3.43257 5.34076 3.53589 5.34561C3.63921 5.35046 3.65096 5.10479 3.69424 4.86744C3.72894 4.6771 3.86537 3.83029 4.01705 3.5207C4.06807 3.44139 4.20794 3.29526 4.2295 3.28307Z" fill="#222222"/>
<path d="M10.5575 5.08977C10.4987 4.9732 10.3692 4.77902 10.2618 4.59874C10.2381 4.55892 10.2535 4.50689 10.2959 4.48098L10.6844 4.24385C10.7334 4.21395 10.7964 4.23156 10.8131 4.28232C10.902 4.55119 10.9487 4.91972 10.9624 5.00621C10.9795 5.11472 11 5.15922 10.9895 5.19419C10.6452 6.49404 10.4026 6.92731 10.3409 7.07013C10.2638 7.24865 10.1462 7.31112 10.0583 7.25662C9.97054 7.20211 10.0885 6.98426 10.1761 6.75566C10.2463 6.57234 10.5737 5.76695 10.6094 5.41469C10.6085 5.31754 10.5689 5.1125 10.5575 5.08977Z" fill="#222222"/>
<path d="M7.8471 2.66704C7.9708 2.69569 8.15755 2.71363 8.40752 2.7209C8.69183 2.72913 9.04842 2.81188 9.45892 2.9288C9.94575 3.06747 10.3271 3.19753 10.6047 3.32014L10.6068 3.32113C10.8579 3.43302 10.9963 3.61293 10.9323 3.84317C10.8681 4.07325 10.8792 4.09903 10.7898 4.14539C10.7005 4.19166 10.6733 4.2702 10.6377 4.31874C10.3689 4.68521 9.89961 4.76082 9.3778 4.61983L8.76338 4.43983C8.3405 4.31057 7.9733 3.9938 7.89303 3.55527C7.86448 3.39849 7.87203 3.27699 7.83353 3.19762C7.80791 3.14495 7.77144 3.1097 7.7247 3.09231C7.67563 3.08241 7.6261 3.09316 7.5763 3.12449C7.50144 3.17144 7.44317 3.27863 7.3356 3.39637C7.03419 3.72619 6.55406 3.80175 6.12653 3.68866L5.50938 3.51814C4.9917 3.3628 4.63367 3.05168 4.6006 2.59922C4.59625 2.53932 4.61493 2.45834 4.56384 2.3721C4.51275 2.28586 4.53575 2.26965 4.60372 2.04066C4.67191 1.81147 4.88504 1.73182 5.15757 1.76906L5.15989 1.76932C5.46063 1.81157 5.85343 1.90188 6.34026 2.04054C6.75076 2.15746 7.09734 2.27498 7.34295 2.41768C7.55891 2.54312 7.72691 2.62622 7.8471 2.66704Z" fill="#FFDB99"/>
<path d="M9.42416 3.04988C9.91101 3.18849 10.2924 3.3185 10.57 3.44108L10.5721 3.44207C10.8231 3.55393 10.9966 3.61225 10.9325 3.84248C10.8683 4.07254 10.8443 4.21989 10.7549 4.26624C10.6656 4.31252 10.6384 4.39105 10.6028 4.43959C10.3339 4.80606 9.86455 4.8817 9.34273 4.74077L8.72829 4.56083C8.30539 4.43162 7.93822 4.11491 7.85803 3.67642C7.82949 3.51966 7.83707 3.39817 7.79858 3.31881C7.77297 3.26614 7.73651 3.2309 7.68976 3.21351C7.64069 3.20362 7.59115 3.21437 7.54134 3.24571C7.46647 3.29266 7.40818 3.39984 7.30058 3.51758C6.99908 3.8474 6.5189 3.92299 6.09135 3.80995L5.47418 3.6395C4.95649 3.48422 4.59849 3.17314 4.56549 2.72073C4.56115 2.66083 4.57985 2.57986 4.52877 2.49363C4.47769 2.4074 4.53572 2.26963 4.60373 2.04065C4.67197 1.81147 4.85011 1.85338 5.12266 1.89059L5.12498 1.89086C5.42574 1.93307 5.81855 2.02334 6.3054 2.16195C6.71591 2.27882 7.0625 2.39631 7.3081 2.53897C7.52406 2.66438 7.69205 2.74747 7.81225 2.78826L7.84192 2.79474C7.96502 2.81952 8.14207 2.83547 8.37275 2.84195C8.65704 2.85028 9.01364 2.933 9.42416 3.04988Z" fill="#FFB21C"/>
<path d="M10.9243 3.87151L10.9325 3.84229C10.8682 4.0726 10.8443 4.21995 10.7549 4.26618C10.6657 4.31246 10.6384 4.39099 10.6028 4.43953C10.3512 4.78237 9.92395 4.87066 9.44263 4.76519L8.85429 4.59756L8.72831 4.56077C8.30542 4.43156 7.93824 4.11485 7.85805 3.67636C7.82952 3.5196 7.8371 3.39811 7.79861 3.31875C7.77608 3.27261 7.74555 3.23998 7.70686 3.22081L7.68979 3.21345L7.67135 3.21083C7.62839 3.20649 7.58508 3.21823 7.54137 3.24564C7.46649 3.29259 7.4082 3.39978 7.3006 3.51752C6.9991 3.84734 6.51893 3.92293 6.09138 3.80989L5.96471 3.77488L5.37646 3.60753C4.91196 3.44371 4.59645 3.14395 4.56552 2.72067C4.56118 2.66077 4.57987 2.5798 4.5288 2.49357C4.47992 2.41099 4.53078 2.28144 4.595 2.06979L10.9243 3.87151Z" fill="#FFA500"/>
<path d="M7.30042 3.51781C6.99892 3.84763 6.51875 3.92323 6.0912 3.81018L5.96437 3.77513L5.37628 3.60783C4.91178 3.44401 4.59627 3.14425 4.56533 2.72097C4.56247 2.68332 4.56895 2.63702 4.56121 2.58655L7.40209 3.39509C7.37269 3.43289 7.33975 3.47468 7.30042 3.51781ZM10.6027 4.43981C10.351 4.78266 9.92393 4.87099 9.44245 4.76548L8.85412 4.59785L8.72814 4.56106C8.30524 4.43185 7.93806 4.11514 7.85787 3.67665C7.84871 3.62403 7.84174 3.57142 7.83699 3.51891L10.6776 4.32777C10.6442 4.36652 10.625 4.40909 10.6027 4.43969L10.6027 4.43981Z" fill="#FF9700"/>
<path d="M6.09154 3.81005L5.96476 3.77487L5.37512 3.607L5.33482 3.59224C5.00162 3.46633 4.75033 3.26785 4.63424 3.00159L7.08021 3.69796C6.79223 3.87142 6.4258 3.89837 6.0917 3.81009L6.09154 3.81005ZM9.44446 4.76555L8.8545 4.59759L8.72852 4.5608C8.39794 4.45971 8.10137 4.24413 7.94942 3.9453L10.3954 4.64167C10.1455 4.81321 9.81077 4.84551 9.44461 4.7656L9.44446 4.76555Z" fill="#FF8200"/>
<path d="M5.25255 2.03333C5.50892 2.08001 5.82353 2.15643 6.19639 2.26258C6.58761 2.37396 6.90321 2.49275 7.14303 2.61891C7.20136 2.6496 7.25286 2.68868 7.29438 2.73378C7.3359 2.77887 7.36659 2.82905 7.38457 2.88124C7.40255 2.93344 7.40746 2.98658 7.399 3.03743C7.39053 3.08828 7.36887 3.13578 7.33533 3.17705L7.12885 3.43119C7.02447 3.5596 6.86697 3.65249 6.67884 3.69659C6.49071 3.74069 6.28158 3.73374 6.08131 3.67674L5.49091 3.50865C5.26445 3.44413 5.0626 3.32094 4.9202 3.16032C4.7778 2.9997 4.7038 2.81175 4.71097 2.62891L4.72194 2.34699C4.72399 2.29468 4.73959 2.24474 4.76778 2.20025C4.79597 2.15576 4.83615 2.11765 4.88585 2.08827C4.93555 2.05889 4.99373 2.03886 5.05679 2.02941C5.11985 2.01996 5.18647 2.0213 5.25255 2.03333Z" fill="#FF6A78"/>
<path d="M10.3893 3.49598C10.147 3.40067 9.83938 3.29994 9.46668 3.19383C9.08084 3.08398 8.75678 3.02132 8.49463 3.00601C8.42948 3.00217 8.36582 3.00886 8.30747 3.02567C8.24912 3.04247 8.19726 3.06906 8.15498 3.10384C8.11271 3.13861 8.08088 3.18087 8.06139 3.2281C8.04191 3.27532 8.03517 3.32654 8.04158 3.37871L8.08096 3.69995C8.10105 3.86364 8.18498 4.02517 8.3208 4.16152C8.45661 4.29788 8.63737 4.4021 8.83732 4.45934L9.41877 4.6258C9.64035 4.68926 9.87225 4.69124 10.0743 4.6314C10.2764 4.57155 10.4359 4.45366 10.5252 4.29812L10.6727 4.04137C10.6988 3.99591 10.7122 3.94534 10.7119 3.89275C10.7117 3.84017 10.6979 3.78669 10.6714 3.73561C10.6448 3.68453 10.6062 3.63692 10.5577 3.59572C10.5092 3.55452 10.452 3.52059 10.3895 3.49603L10.3893 3.49598Z" fill="#6DBBEE"/>
<path d="M7.29166 3.23197L7.12974 3.43132C7.09515 3.47409 7.05477 3.51258 7.00992 3.54637L4.76152 2.90625C4.72499 2.81466 4.70818 2.72083 4.71186 2.62903L4.7168 2.4989L7.29166 3.23197Z" fill="#F45D6B"/>
<path d="M10.597 4.17305L10.5254 4.29788C10.4821 4.37334 10.4219 4.44054 10.3474 4.4966L8.12289 3.86328C8.10198 3.80927 8.08804 3.75442 8.08128 3.69964L8.05029 3.448L10.597 4.17305Z" fill="#4BB0F2"/>
<path d="M6.19623 2.2629C6.58745 2.37428 6.90305 2.49307 7.14287 2.61923C7.20121 2.64992 7.2527 2.689 7.29422 2.7341C7.33574 2.7792 7.36643 2.82937 7.38441 2.88157C7.4024 2.93376 7.40731 2.9869 7.39884 3.03775C7.39038 3.0886 7.36872 3.1361 7.33517 3.17737L7.29061 3.23216L4.71591 2.49914L4.72194 2.34735C4.72399 2.29504 4.73959 2.24511 4.76778 2.20061C4.79597 2.15612 4.83615 2.11801 4.88585 2.08863C4.93555 2.05925 4.99373 2.03922 5.05679 2.02978C5.11985 2.02033 5.18647 2.02166 5.25255 2.03369C5.50876 2.08033 5.82353 2.15679 6.19623 2.2629Z" fill="#F14E5D"/>
<path d="M9.46665 3.19383C9.83951 3.29998 10.1471 3.40071 10.3895 3.49602C10.452 3.52058 10.5092 3.55451 10.5577 3.59571C10.6061 3.63692 10.6448 3.68452 10.6713 3.7356C10.6979 3.78669 10.7117 3.84016 10.7119 3.89275C10.7121 3.94533 10.6988 3.99591 10.6727 4.04137L10.5967 4.17323L8.05013 3.44823L8.04155 3.3787C8.04132 3.37645 8.04111 3.3742 8.04093 3.37195L8.04023 3.36543C8.03614 3.31449 8.04465 3.26477 8.06527 3.21914C8.08589 3.1735 8.11822 3.13283 8.16041 3.09945C8.2026 3.06608 8.25383 3.04064 8.31117 3.02461C8.36852 3.00857 8.43085 3.00225 8.49461 3.006C8.75672 3.02143 9.08081 3.08398 9.46665 3.19383Z" fill="#44A9EB"/>
<path d="M5.24516 2.09647C5.19011 2.08647 5.13462 2.08539 5.0821 2.09328C5.02957 2.10117 4.98113 2.11787 4.93974 2.14236C4.89835 2.16685 4.86489 2.1986 4.84142 2.23566C4.81795 2.27273 4.80496 2.31433 4.80325 2.3579L4.79212 2.63978C4.78553 2.80774 4.85351 2.98039 4.98431 3.12794C5.11512 3.27548 5.30055 3.38865 5.50858 3.44791L6.09898 3.616C6.28257 3.66825 6.47429 3.67462 6.64675 3.63419C6.81921 3.59375 6.96359 3.50859 7.05926 3.39086L7.26571 3.13684C7.29369 3.10245 7.31176 3.06287 7.31883 3.02049C7.3259 2.97811 7.32183 2.93382 7.30685 2.89031C7.29187 2.84681 7.2663 2.80499 7.2317 2.7674C7.1971 2.72981 7.15419 2.69723 7.10557 2.67164C6.8727 2.54931 6.56377 2.43294 6.17904 2.32341C5.80935 2.21816 5.49793 2.14252 5.24531 2.09651L5.24516 2.09647ZM5.25255 2.03333C5.50892 2.08001 5.82353 2.15643 6.19639 2.26258C6.58761 2.37396 6.90321 2.49275 7.14303 2.61891C7.20136 2.6496 7.25286 2.68868 7.29438 2.73378C7.3359 2.77887 7.36659 2.82905 7.38457 2.88124C7.40255 2.93344 7.40746 2.98658 7.399 3.03743C7.39053 3.08828 7.36887 3.13578 7.33533 3.17705L7.12885 3.43119C7.02447 3.5596 6.86697 3.65249 6.67884 3.69659C6.49071 3.74069 6.28158 3.73374 6.08131 3.67674L5.49091 3.50865C5.26445 3.44413 5.0626 3.32094 4.9202 3.16032C4.7778 2.9997 4.7038 2.81175 4.71097 2.62891L4.72194 2.34699C4.72399 2.29468 4.73959 2.24474 4.76778 2.20025C4.79597 2.15576 4.83615 2.11765 4.88585 2.08827C4.93555 2.05889 4.99373 2.03886 5.05679 2.02941C5.11985 2.01996 5.18647 2.0213 5.25255 2.03333Z" fill="#E93142"/>
<path d="M10.3897 3.56128C10.4417 3.58174 10.4894 3.61001 10.5298 3.64435C10.5702 3.67868 10.6025 3.71835 10.6246 3.76092C10.6467 3.80349 10.6582 3.84805 10.6584 3.89187C10.6586 3.93569 10.6475 3.97784 10.6257 4.01573L10.4776 4.27348C10.3959 4.41587 10.25 4.52387 10.0651 4.57883C9.88029 4.63379 9.66808 4.63227 9.46516 4.57451L8.85655 4.40124C8.67294 4.34898 8.50685 4.25349 8.38202 4.12842C8.2572 4.00335 8.18003 3.85509 8.16154 3.70484L8.12163 3.38068C8.1162 3.33678 8.12196 3.29367 8.13853 3.25399C8.15511 3.21431 8.18216 3.17888 8.21805 3.14985C8.25393 3.12083 8.29791 3.09881 8.34729 3.08513C8.39668 3.07146 8.45045 3.06642 8.50533 3.07032C8.76787 3.08903 9.09193 3.15287 9.47666 3.26241C9.84651 3.36771 10.1508 3.46737 10.3897 3.56128ZM10.417 3.50382C10.1746 3.40851 9.86703 3.30778 9.49417 3.20162C9.10311 3.09029 8.77194 3.02494 8.50131 3.00577C8.43547 3.00111 8.37098 3.00717 8.31174 3.02358C8.2525 3.03999 8.19976 3.06641 8.15671 3.10123C8.11366 3.13605 8.0812 3.17855 8.06131 3.22615C8.04142 3.27374 8.03451 3.32545 8.04099 3.37811L8.08087 3.70239C8.10106 3.86629 8.18525 4.028 8.32142 4.16443C8.45758 4.30086 8.63875 4.40502 8.83904 4.46203L9.44765 4.6353C9.66898 4.69829 9.90045 4.69997 10.1021 4.64003C10.3037 4.5801 10.4629 4.46232 10.5521 4.30704L10.7002 4.04917C10.7263 4.00371 10.7396 3.95313 10.7394 3.90055C10.7392 3.84796 10.7254 3.79449 10.6989 3.7434C10.6723 3.69232 10.6336 3.64472 10.5852 3.60351C10.5367 3.56231 10.4795 3.52838 10.417 3.50382Z" fill="#0089E5"/>
<path d="M6.72124 2.97731C6.72662 2.97707 6.73217 2.97771 6.73753 2.97922C6.7429 2.98072 6.74797 2.98304 6.75245 2.98605C6.75693 2.98905 6.76071 2.99267 6.76358 2.99669C6.76645 3.00071 6.76833 3.00505 6.76912 3.00944C6.76991 3.01383 6.76959 3.01818 6.76818 3.02222C6.76677 3.02627 6.7643 3.02993 6.76091 3.03298C6.75752 3.03603 6.75329 3.03841 6.74848 3.03997C6.74367 3.04153 6.73837 3.04224 6.73291 3.04206L5.67285 3.04858C5.66757 3.04861 5.6622 3.0478 5.65704 3.04619C5.65188 3.04459 5.64702 3.04222 5.64275 3.03923C5.63849 3.03624 5.63489 3.03268 5.63216 3.02875C5.62944 3.02483 5.62765 3.02062 5.62688 3.01636C5.62612 3.0121 5.6264 3.00787 5.62771 3.00393C5.62902 2.99998 5.63134 2.99639 5.63453 2.99336C5.63771 2.99033 5.64171 2.98792 5.64629 2.98626C5.65087 2.9846 5.65594 2.98374 5.66121 2.98371L6.72124 2.97731ZM5.09335 2.75285C5.08267 2.75269 5.07193 2.74912 5.06348 2.74293C5.05503 2.73673 5.04957 2.72843 5.04829 2.71983C5.04702 2.71124 5.05004 2.70306 5.05669 2.69709C5.06334 2.69113 5.07307 2.68787 5.08375 2.68803L6.79828 2.71341C6.80356 2.71349 6.80892 2.71441 6.81405 2.71611C6.81917 2.71781 6.82396 2.72027 6.82815 2.72333C6.83233 2.7264 6.83582 2.73002 6.83843 2.73398C6.84103 2.73794 6.8427 2.74217 6.84333 2.74643C6.84396 2.75068 6.84354 2.75488 6.8421 2.75878C6.84066 2.76269 6.83822 2.76621 6.83493 2.76917C6.83164 2.77212 6.82755 2.77444 6.82291 2.77599C6.81827 2.77755 6.81316 2.77831 6.80787 2.77823L5.09335 2.75285Z" fill="#FFAEB6"/>
<path d="M10.0469 3.92396C10.0523 3.92372 10.0578 3.92437 10.0632 3.92587C10.0686 3.92737 10.0737 3.9297 10.0781 3.9327C10.0826 3.9357 10.0864 3.93933 10.0893 3.94335C10.0921 3.94737 10.094 3.95171 10.0948 3.95609C10.0956 3.96048 10.0953 3.96483 10.0939 3.96888C10.0925 3.97292 10.09 3.97658 10.0866 3.97963C10.0832 3.98268 10.079 3.98506 10.0742 3.98662C10.0694 3.98818 10.0641 3.98889 10.0586 3.98871L8.99853 3.99524C8.98788 3.99529 8.97706 3.99193 8.96844 3.98589C8.95982 3.97984 8.95411 3.97161 8.95256 3.96301C8.95102 3.95441 8.95377 3.94614 8.96021 3.94001C8.96665 3.93389 8.97625 3.93042 8.98689 3.93036L10.0469 3.92396ZM8.41903 3.6995C8.40835 3.69934 8.39761 3.69577 8.38916 3.68958C8.38071 3.68339 8.37525 3.67508 8.37398 3.66649C8.37271 3.65789 8.37573 3.64971 8.38238 3.64375C8.38902 3.63778 8.39876 3.63452 8.40943 3.63469L10.124 3.66007C10.1292 3.66015 10.1346 3.66106 10.1397 3.66277C10.1449 3.66447 10.1496 3.66692 10.1538 3.66999C10.158 3.67305 10.1615 3.67667 10.1641 3.68063C10.1667 3.6846 10.1684 3.68883 10.169 3.69308C10.1696 3.69734 10.1692 3.70154 10.1678 3.70544C10.1663 3.70934 10.1639 3.71287 10.1606 3.71582C10.1573 3.71877 10.1532 3.72109 10.1486 3.72265C10.144 3.7242 10.1388 3.72496 10.1336 3.72488L8.41903 3.6995Z" fill="#AEDBFF"/>
</svg>
