<svg width="56" height="15" viewBox="0 0 56 15" fill="none" xmlns="http://www.w3.org/2000/svg">
<path fill-rule="evenodd" clip-rule="evenodd" d="M5.89953 2.3534C4.56455 1.8926 3.1618 2.53042 2.74502 3.73638C2.32824 4.94234 3.0381 6.30938 4.37308 6.77018C5.70807 7.23098 7.11081 6.59316 7.5276 5.3872C7.94438 4.18124 7.23451 2.8142 5.89953 2.3534ZM2.24134 3.56252C2.76242 2.05477 4.4867 1.30963 6.07123 1.85657C7.65577 2.40351 8.55235 4.0533 8.03127 5.56105C7.51019 7.06881 5.78591 7.81395 4.20138 7.26701C2.61684 6.72007 1.72026 5.07027 2.24134 3.56252Z" fill="white"/>
<path fill-rule="evenodd" clip-rule="evenodd" d="M7.84731 6.12825C7.78921 6.17738 7.71262 6.23773 7.62435 6.27656L7.4268 5.84344C7.44859 5.83386 7.48169 5.8117 7.53439 5.76713C7.54822 5.75543 7.56833 5.73773 7.59089 5.71787C7.62851 5.68475 7.67293 5.64564 7.70641 5.61839C7.81999 5.52594 8.03599 5.36862 8.30175 5.46035C8.90639 5.66906 9.29291 6.28963 9.08881 6.88019C8.88472 7.47075 8.19736 7.72065 7.59272 7.51194C7.20267 7.37731 6.91113 7.07909 6.80007 6.72653L7.25721 6.58893C7.32029 6.78917 7.49395 6.97736 7.74725 7.06479C8.15321 7.20492 8.53337 7.01927 8.63551 6.72372C8.73765 6.42817 8.55317 6.04762 8.14721 5.9075C8.14718 5.90749 8.14713 5.90746 8.14707 5.90742C8.14626 5.90694 8.14252 5.90473 8.12468 5.91163C8.09933 5.92145 8.06385 5.94337 8.0125 5.98517C7.97942 6.0121 7.95535 6.03353 7.92845 6.05749C7.90578 6.07768 7.8811 6.09967 7.84731 6.12825Z" fill="white"/>
<path fill-rule="evenodd" clip-rule="evenodd" d="M2.09113 4.14149C2.1065 4.21598 2.1295 4.3107 2.17497 4.3957L2.59787 4.17675C2.58665 4.15577 2.57429 4.11792 2.56035 4.05035C2.55669 4.03261 2.5518 4.00627 2.54631 3.97673C2.53716 3.92747 2.52636 3.8693 2.51685 3.82721C2.48457 3.68442 2.41176 3.4274 2.14601 3.33567C1.54136 3.12696 0.854007 3.37686 0.649909 3.96742C0.445811 4.55798 0.83233 5.17856 1.43697 5.38726C1.82702 5.5219 2.24057 5.46706 2.54568 5.25814L2.27096 4.86792C2.09767 4.98658 1.84481 5.02755 1.59151 4.94011C1.18555 4.79999 1.00107 4.41944 1.10321 4.12389C1.20536 3.82834 1.58551 3.64269 1.99147 3.78282C1.9915 3.78283 1.99156 3.78284 1.99163 3.78285C1.99257 3.78297 1.99688 3.78354 2.00665 3.79997C2.02053 3.82332 2.03491 3.86246 2.0495 3.92703C2.05891 3.96862 2.0646 4.00032 2.07098 4.03576C2.07634 4.06563 2.08219 4.09816 2.09113 4.14149Z" fill="white"/>
<path fill-rule="evenodd" clip-rule="evenodd" d="M8.12496 6.19713C8.27361 6.30511 8.39131 6.42912 8.45606 6.51315C8.49183 6.55956 8.48302 6.62558 8.43637 6.66059C8.38973 6.69559 8.32293 6.68635 8.28716 6.63993C8.23408 6.57104 8.1309 6.46167 7.99987 6.36648C7.97259 6.34667 7.94452 6.32777 7.91582 6.31012C7.96808 6.40065 8.01127 6.52099 8.03462 6.69108C8.04254 6.74875 8.00174 6.80147 7.9435 6.80884C7.88525 6.81621 7.83162 6.77542 7.8237 6.71775C7.79381 6.49997 7.73003 6.39729 7.67406 6.33412C7.64988 6.30682 7.62676 6.28617 7.60106 6.26321C7.59405 6.25695 7.58685 6.25052 7.57938 6.24373C7.54731 6.21458 7.5076 6.17651 7.48131 6.12339C7.46439 6.08922 7.4673 6.04884 7.48891 6.01768C7.51052 5.98653 7.5475 5.96941 7.5857 5.97288C7.78935 5.99138 7.97717 6.08978 8.12496 6.19713Z" fill="white"/>
<path fill-rule="evenodd" clip-rule="evenodd" d="M1.83075 4.02443C1.64711 4.01772 1.47792 4.04269 1.37508 4.06887C1.31827 4.08334 1.28444 4.14071 1.29952 4.19703C1.3146 4.25334 1.37288 4.28727 1.42969 4.2728C1.51399 4.25134 1.66272 4.22892 1.8246 4.23484C1.8583 4.23607 1.89206 4.23851 1.92554 4.24233C1.82851 4.28133 1.72021 4.34938 1.59681 4.46881C1.55496 4.5093 1.55451 4.57595 1.59578 4.61767C1.63706 4.65939 1.70445 4.66038 1.74629 4.61988C1.9043 4.46696 2.01789 4.42551 2.10094 4.41032C2.13683 4.40376 2.16777 4.40177 2.20218 4.39955C2.21156 4.39895 2.22119 4.39833 2.23126 4.3976C2.27449 4.39444 2.32925 4.38898 2.38274 4.3634C2.41715 4.34694 2.43981 4.31338 2.44204 4.27553C2.44428 4.23769 2.42575 4.20142 2.39354 4.18058C2.22189 4.06954 2.01333 4.03111 1.83075 4.02443Z" fill="white"/>
<path fill-rule="evenodd" clip-rule="evenodd" d="M5.7713 2.03264C5.82861 2.046 5.86451 2.10269 5.85147 2.15928C5.81147 2.33287 5.71936 2.59935 5.57074 2.84253C5.42354 3.08338 5.21009 3.31887 4.92016 3.3997C4.86371 3.41544 4.80468 3.38282 4.78831 3.32685C4.77194 3.27088 4.80444 3.21275 4.86089 3.19701C5.07464 3.13742 5.25184 2.95591 5.38834 2.73255C5.52342 2.51152 5.60805 2.26658 5.64392 2.11093C5.65695 2.05434 5.71399 2.01929 5.7713 2.03264Z" fill="white"/>
<path fill-rule="evenodd" clip-rule="evenodd" d="M5.71952 2.03304C5.77633 2.01858 5.83461 2.0525 5.84969 2.10882C5.92077 2.37429 5.96756 3.0304 5.58703 3.56953C5.55351 3.61702 5.4872 3.62833 5.43892 3.59479C5.39063 3.56125 5.37866 3.49556 5.41218 3.44807C5.74512 2.97637 5.70533 2.39041 5.64396 2.16119C5.62888 2.10488 5.66271 2.0475 5.71952 2.03304Z" fill="white"/>
<path fill-rule="evenodd" clip-rule="evenodd" d="M5.66976 2.06181C5.71029 2.02003 5.77766 2.01894 5.82022 2.05937C6.03191 2.26046 6.35708 2.83557 6.09247 3.60121C6.07351 3.65609 6.01303 3.68501 5.9574 3.66581C5.90176 3.6466 5.87204 3.58655 5.891 3.53167C6.12545 2.85331 5.83296 2.3622 5.67344 2.21067C5.63087 2.17024 5.62922 2.10359 5.66976 2.06181Z" fill="white"/>
<path fill-rule="evenodd" clip-rule="evenodd" d="M5.65414 2.08253C5.68304 2.03213 5.74796 2.01477 5.79914 2.04376C6.084 2.20508 6.60777 2.74928 6.57288 3.67895C6.5707 3.73703 6.52132 3.78199 6.46258 3.77937C6.40384 3.77674 6.35799 3.72753 6.36017 3.66945C6.39182 2.82624 5.91718 2.35237 5.69451 2.22627C5.64332 2.19728 5.62525 2.13293 5.65414 2.08253Z" fill="white"/>
<path fill-rule="evenodd" clip-rule="evenodd" d="M7.72054 2.95023C7.75067 2.97464 7.78088 2.9991 7.81128 3.02353C7.85709 3.06033 7.86435 3.12666 7.82752 3.17167C7.79068 3.21668 7.72369 3.22334 7.67789 3.18653C7.64659 3.16139 7.61589 3.13655 7.58561 3.11204C7.37546 2.94198 7.18542 2.7882 6.95416 2.66116C6.69271 2.51755 6.37634 2.40746 5.92286 2.35999C5.86436 2.35387 5.82157 2.30203 5.82729 2.24422C5.83301 2.1864 5.88507 2.14449 5.94357 2.15062C6.4235 2.20085 6.76791 2.31885 7.05634 2.47729C7.30569 2.61425 7.51153 2.78096 7.72054 2.95023Z" fill="white"/>
<path fill-rule="evenodd" clip-rule="evenodd" d="M7.69565 2.51363C7.77991 2.54891 7.85614 2.58082 7.9215 2.6062C7.97637 2.6275 8.00375 2.68862 7.98266 2.74272C7.96157 2.79682 7.89999 2.82341 7.84513 2.80211C7.77057 2.77317 7.68916 2.73905 7.60177 2.70242C7.42264 2.62734 7.21836 2.54172 6.99632 2.46851C6.66865 2.36048 6.32518 2.28826 6.01581 2.32739C5.95757 2.33475 5.90393 2.29397 5.89602 2.2363C5.8881 2.17862 5.9289 2.1259 5.98714 2.11853C6.34409 2.07339 6.72417 2.15738 7.06216 2.26882C7.29175 2.34452 7.51263 2.437 7.69565 2.51363Z" fill="white"/>
<path fill-rule="evenodd" clip-rule="evenodd" d="M7.02823 2.03648C7.41684 2.11158 7.76297 2.24236 7.9656 2.34152C8.01845 2.36738 8.04044 2.43056 8.01472 2.48263C7.989 2.5347 7.92531 2.55595 7.87245 2.53009C7.68578 2.43874 7.35773 2.31436 6.98904 2.24311C6.61897 2.17159 6.21997 2.15595 5.88412 2.26982C5.82865 2.28862 5.76792 2.25927 5.74846 2.20425C5.729 2.14924 5.75819 2.08939 5.81365 2.07059C6.19958 1.93974 6.64099 1.96164 7.02823 2.03648Z" fill="white"/>
<path fill-rule="evenodd" clip-rule="evenodd" d="M4.19495 1.03291C4.21654 0.979011 4.27836 0.952981 4.33303 0.974773C4.51431 1.04703 4.80823 1.18878 5.10865 1.38169C5.40811 1.57399 5.72149 1.82185 5.93443 2.10838C5.96937 2.15541 5.95939 2.22125 5.91213 2.25544C5.86487 2.28963 5.79822 2.27922 5.76328 2.2322C5.57235 1.97526 5.28329 1.74393 4.99376 1.55802C4.70519 1.37272 4.42359 1.23724 4.25484 1.16997C4.20017 1.14818 4.17336 1.08682 4.19495 1.03291Z" fill="white"/>
<path fill-rule="evenodd" clip-rule="evenodd" d="M5.78511 2.14619C5.214 1.86098 4.2756 1.58839 3.87546 1.48759C3.81839 1.47321 3.78354 1.41588 3.79762 1.35955C3.81169 1.30321 3.86936 1.2692 3.92643 1.28358C4.32879 1.38494 5.28647 1.66208 5.87982 1.95839C5.93245 1.98468 5.95393 2.04803 5.92777 2.09989C5.90162 2.15175 5.83775 2.17248 5.78511 2.14619Z" fill="white"/>
<path fill-rule="evenodd" clip-rule="evenodd" d="M5.7283 2.29417C5.14171 1.96197 4.29697 1.85512 3.94719 1.84448C3.88843 1.8427 3.84187 1.79414 3.8432 1.73602C3.84454 1.67791 3.89325 1.63225 3.95202 1.63403C4.31539 1.64508 5.20146 1.75404 5.83293 2.11166C5.88412 2.14065 5.90219 2.205 5.8733 2.2554C5.8444 2.3058 5.77948 2.32316 5.7283 2.29417Z" fill="white"/>
<path fill-rule="evenodd" clip-rule="evenodd" d="M7.19691 1.87281C7.1954 1.93092 7.14655 1.97644 7.08779 1.97448C6.9454 1.96972 6.71444 1.98166 6.49119 2.03279C6.26337 2.08497 6.06712 2.1727 5.96687 2.30226C5.93129 2.34825 5.86452 2.35669 5.81773 2.32112C5.77095 2.28555 5.76188 2.21943 5.79746 2.17344C5.94397 1.98411 6.20191 1.88254 6.44159 1.82765C6.68583 1.77171 6.93567 1.75879 7.09325 1.76405C7.15201 1.76601 7.19842 1.8147 7.19691 1.87281Z" fill="white"/>
<path fill-rule="evenodd" clip-rule="evenodd" d="M4.9143 1.09645C4.94381 1.0464 5.00894 1.02982 5.05978 1.05941C5.1868 1.13336 5.37515 1.27232 5.53613 1.45376C5.69607 1.63402 5.83933 1.86799 5.85312 2.13057C5.85618 2.18866 5.81107 2.23781 5.75237 2.24037C5.69367 2.24292 5.64361 2.1979 5.64056 2.13981C5.63033 1.94514 5.52175 1.75546 5.37665 1.59192C5.2326 1.42956 5.06272 1.30457 4.95292 1.24065C4.90208 1.21106 4.8848 1.1465 4.9143 1.09645Z" fill="white"/>
<path d="M53.866 7.08014L53.89 7.06814C53.93 7.03614 53.982 7.02014 54.046 7.02014C54.094 7.02014 54.134 7.02414 54.166 7.03214C54.206 7.04014 54.238 7.04814 54.262 7.05614L54.97 7.28414C55.002 7.36414 55.034 7.41614 55.066 7.44014C55.106 7.43214 55.142 7.44414 55.174 7.47614C55.214 7.50014 55.246 7.52014 55.27 7.53614C55.27 7.57614 55.282 7.62814 55.306 7.69214C55.338 7.74814 55.354 7.79214 55.354 7.82414L55.366 8.06414C55.35 8.07214 55.314 8.08014 55.258 8.08814C55.21 8.09614 55.17 8.12014 55.138 8.16014C55.066 8.28814 54.99 8.43614 54.91 8.60414C54.878 8.60414 54.854 8.62014 54.838 8.65214C54.83 8.67614 54.826 8.70814 54.826 8.74814C54.826 8.78814 54.822 8.82014 54.814 8.84414C54.806 8.85214 54.79 8.87214 54.766 8.90414C54.742 8.92814 54.73 8.95614 54.73 8.98814V9.00014C54.666 9.06414 54.634 9.12014 54.634 9.16814C54.634 9.19214 54.638 9.20814 54.646 9.21614C54.55 9.36014 54.47 9.58014 54.406 9.87614L54.334 10.1761L54.238 10.4641C54.206 10.4561 54.186 10.4761 54.178 10.5241C54.17 10.5721 54.162 10.6081 54.154 10.6321C54.114 10.6961 54.066 10.7721 54.01 10.8601C53.954 10.9401 53.894 11.0401 53.83 11.1601C53.766 11.2721 53.722 11.3801 53.698 11.4841C53.682 11.5081 53.662 11.5441 53.638 11.5921C53.614 11.6321 53.59 11.6641 53.566 11.6881C53.558 11.7441 53.534 11.8081 53.494 11.8801C53.454 11.9441 53.422 11.9961 53.398 12.0361L53.158 12.6121C53.118 12.6281 53.09 12.6601 53.074 12.7081C53.058 12.7641 53.046 12.8041 53.038 12.8281C53.03 12.9001 53.002 12.9761 52.954 13.0561C52.914 13.1361 52.886 13.2001 52.87 13.2481C52.846 13.2721 52.822 13.3121 52.798 13.3681C52.782 13.4241 52.766 13.4721 52.75 13.5121C52.734 13.5361 52.706 13.5641 52.666 13.5961C52.626 13.6281 52.602 13.6641 52.594 13.7041C52.546 13.7361 52.502 13.7841 52.462 13.8481C52.422 13.9121 52.39 13.9601 52.366 13.9921C52.262 14.0961 52.19 14.1601 52.15 14.1841L51.742 14.5561C51.67 14.5481 51.538 14.5601 51.346 14.5921C51.306 14.6001 51.254 14.6081 51.19 14.6161C51.134 14.6241 51.07 14.6281 50.998 14.6281C50.79 14.6281 50.638 14.5601 50.542 14.4241C50.518 14.4161 50.474 14.4001 50.41 14.3761C50.354 14.3601 50.306 14.3321 50.266 14.2921C50.258 14.2361 50.218 14.1921 50.146 14.1601C50.074 14.1281 50.022 14.1041 49.99 14.0881C49.974 14.0481 49.938 13.9881 49.882 13.9081C49.818 13.8361 49.778 13.7721 49.762 13.7161C49.818 13.6841 49.878 13.6681 49.942 13.6681L50.038 13.6801C50.07 13.7041 50.11 13.7161 50.158 13.7161C50.198 13.7161 50.258 13.6961 50.338 13.6561C50.426 13.6241 50.494 13.6041 50.542 13.5961C50.646 13.5641 50.758 13.5121 50.878 13.4401C50.998 13.3681 51.082 13.3201 51.13 13.2961C51.37 13.0961 51.598 12.8001 51.814 12.4081C51.838 12.3441 51.918 12.1841 52.054 11.9281C52.078 11.8721 52.102 11.8201 52.126 11.7721C52.158 11.7241 52.182 11.6841 52.198 11.6521C52.31 11.4361 52.37 11.3121 52.378 11.2801C52.402 11.2561 52.414 11.2241 52.414 11.1841C52.414 11.1441 52.386 11.0921 52.33 11.0281C52.282 10.9641 52.246 10.9121 52.222 10.8721C52.078 10.6401 51.934 10.3841 51.79 10.1041C51.646 9.81614 51.554 9.63614 51.514 9.56414L51.238 9.01214C51.182 8.91614 51.082 8.78014 50.938 8.60414C50.786 8.42014 50.67 8.25614 50.59 8.11214C50.574 8.06414 50.578 8.02414 50.602 7.99214C50.634 7.95214 50.67 7.91214 50.71 7.87214C50.758 7.83214 50.79 7.79614 50.806 7.76414C50.87 7.76414 50.95 7.76814 51.046 7.77614C51.142 7.77614 51.254 7.78414 51.382 7.80014C51.422 7.81614 51.47 7.83214 51.526 7.84814C51.59 7.86414 51.642 7.88014 51.682 7.89614C51.706 7.96014 51.738 8.00814 51.778 8.04014C51.826 8.06414 51.894 8.09614 51.982 8.13614C51.942 8.16014 51.93 8.19214 51.946 8.23214C51.97 8.26414 52.002 8.29614 52.042 8.32814C52.066 8.36814 52.074 8.41214 52.066 8.46014C52.058 8.50014 52.042 8.54814 52.018 8.60414C51.994 8.66014 51.986 8.71214 51.994 8.76014C52.146 9.04814 52.278 9.32814 52.39 9.60014C52.438 9.70414 52.494 9.82814 52.558 9.97214C52.622 10.1081 52.698 10.2641 52.786 10.4401C52.81 10.4641 52.826 10.4561 52.834 10.4161C52.85 10.3681 52.866 10.3361 52.882 10.3201C52.914 10.1761 52.95 10.0801 52.99 10.0321C53.014 9.96814 53.05 9.87614 53.098 9.75614C53.146 9.63614 53.174 9.53214 53.182 9.44414C53.446 8.84414 53.602 8.32814 53.65 7.89614C53.65 7.86414 53.65 7.82814 53.65 7.78814C53.658 7.74814 53.658 7.70414 53.65 7.65614C53.642 7.60014 53.622 7.55614 53.59 7.52414C53.582 7.49214 53.566 7.46014 53.542 7.42814C53.518 7.39614 53.506 7.36414 53.506 7.33214V7.32014C53.53 7.29614 53.57 7.27214 53.626 7.24814C53.682 7.21614 53.73 7.18814 53.77 7.16414L53.866 7.08014Z" fill="white"/>
<path d="M46.222 7.14015L46.27 7.11615C46.39 7.03615 46.526 6.98415 46.678 6.96015C46.838 6.92815 46.93 6.90815 46.954 6.90015C47.074 6.90015 47.162 6.90415 47.218 6.91215C47.466 6.91215 47.666 6.92815 47.818 6.96015C47.97 6.98415 48.098 7.05215 48.202 7.16415C48.274 7.18815 48.342 7.23215 48.406 7.29615C48.502 7.36015 48.578 7.40415 48.634 7.42815C48.89 7.60415 49.046 7.71615 49.102 7.76415C49.142 7.80415 49.182 7.86415 49.222 7.94415C49.27 8.01615 49.314 8.07615 49.354 8.12415C49.41 8.14815 49.438 8.19215 49.438 8.25615C49.438 8.28015 49.43 8.31615 49.414 8.36415C49.414 8.38815 49.41 8.42815 49.402 8.48415C49.402 8.53215 49.39 8.57215 49.366 8.60415C49.342 8.70015 49.326 8.81615 49.318 8.95215C49.31 9.08815 49.302 9.19215 49.294 9.26415L49.222 9.63615C49.19 9.64415 49.166 9.66015 49.15 9.68415C49.134 9.70815 49.122 9.74415 49.114 9.79215C49.114 9.83215 49.11 9.86415 49.102 9.88815C49.046 9.92815 49.002 9.99215 48.97 10.0801C49.042 10.0881 49.078 10.1401 49.078 10.2361C49.078 10.2761 49.074 10.3161 49.066 10.3561C49.058 10.3881 49.054 10.4241 49.054 10.4641C49.086 10.6721 49.114 10.8241 49.138 10.9201C49.186 11.0001 49.222 11.0841 49.246 11.1721C49.294 11.3001 49.338 11.3921 49.378 11.4481C49.458 11.5121 49.554 11.5761 49.666 11.6401C49.786 11.6961 49.87 11.7361 49.918 11.7601C49.95 11.7841 49.97 11.8201 49.978 11.8681C49.986 11.9081 49.994 11.9361 50.002 11.9521C50.058 11.9921 50.102 12.0361 50.134 12.0841C50.166 12.1321 50.202 12.2001 50.242 12.2881C50.234 12.3601 50.198 12.4281 50.134 12.4921C50.126 12.5001 50.102 12.5161 50.062 12.5401C50.022 12.5641 49.982 12.5761 49.942 12.5761H49.918C49.814 12.6241 49.746 12.6521 49.714 12.6601C49.658 12.6681 49.594 12.6761 49.522 12.6841C49.45 12.6921 49.362 12.6961 49.258 12.6961C49.17 12.6561 49.066 12.6281 48.946 12.6121C48.93 12.6121 48.882 12.6041 48.802 12.5881C48.73 12.5721 48.662 12.5441 48.598 12.5041C48.55 12.5041 48.506 12.4881 48.466 12.4561C48.434 12.4321 48.394 12.3921 48.346 12.3361C48.306 12.2881 48.274 12.2521 48.25 12.2281C48.202 12.1401 48.138 12.0001 48.058 11.8081C48.034 11.7761 48.002 11.7281 47.962 11.6641C47.93 11.6001 47.89 11.5641 47.842 11.5561C47.842 11.5241 47.83 11.5121 47.806 11.5201C47.782 11.5281 47.758 11.5401 47.734 11.5561C47.71 11.5721 47.69 11.5841 47.674 11.5921C47.65 11.6161 47.61 11.6481 47.554 11.6881C47.498 11.7201 47.458 11.7481 47.434 11.7721C47.378 11.8041 47.306 11.8641 47.218 11.9521C47.186 11.9681 47.134 11.9921 47.062 12.0241C46.99 12.0561 46.938 12.1001 46.906 12.1561C46.858 12.1721 46.774 12.2241 46.654 12.3121C46.614 12.3281 46.566 12.3481 46.51 12.3721C46.454 12.4041 46.406 12.4321 46.366 12.4561C46.158 12.5361 46.002 12.5921 45.898 12.6241C45.802 12.6401 45.734 12.6481 45.694 12.6481L45.418 12.6361C45.378 12.6601 45.342 12.6721 45.31 12.6721C45.278 12.6721 45.238 12.6641 45.19 12.6481C45.15 12.6401 45.114 12.6321 45.082 12.6241C45.01 12.6001 44.93 12.5601 44.842 12.5041C44.762 12.4561 44.694 12.4161 44.638 12.3841C44.622 12.3681 44.586 12.3281 44.53 12.2641C44.474 12.2081 44.434 12.1441 44.41 12.0721C44.37 12.0401 44.342 11.9721 44.326 11.8681C44.286 11.7721 44.25 11.6361 44.218 11.4601C44.218 11.3561 44.23 11.2801 44.254 11.2321C44.262 11.2081 44.266 11.1721 44.266 11.1241L44.254 10.8961C44.318 10.6161 44.434 10.3641 44.602 10.1401C44.77 9.90815 44.978 9.73615 45.226 9.62415C45.242 9.57615 45.29 9.52015 45.37 9.45615C45.45 9.41615 45.578 9.37215 45.754 9.32415C45.89 9.32415 46.042 9.31615 46.21 9.30015C46.386 9.28415 46.51 9.27215 46.582 9.26415C46.71 9.25615 46.846 9.26815 46.99 9.30015C47.134 9.32415 47.274 9.35615 47.41 9.39615C47.722 9.46015 47.898 9.49615 47.938 9.50415C47.978 9.46415 48.01 9.41215 48.034 9.34815C48.066 9.28415 48.09 9.23615 48.106 9.20415C48.13 9.13215 48.162 9.04015 48.202 8.92815C48.242 8.81615 48.274 8.70415 48.298 8.59215C48.322 8.48015 48.33 8.36815 48.322 8.25615C48.314 8.22415 48.294 8.20015 48.262 8.18415C48.23 8.16015 48.206 8.14415 48.19 8.13615C48.15 8.12015 48.094 8.08815 48.022 8.04015C47.95 7.98415 47.882 7.96015 47.818 7.96815C47.802 7.96015 47.774 7.95215 47.734 7.94415C47.702 7.92815 47.674 7.90815 47.65 7.88415C47.594 7.87615 47.526 7.86415 47.446 7.84815C47.374 7.82415 47.31 7.81615 47.254 7.82415C47.142 7.85615 47.062 7.87215 47.014 7.87215C46.966 7.89615 46.906 7.91615 46.834 7.93215C46.762 7.94015 46.706 7.95215 46.666 7.96815L46.282 8.13615C46.25 8.16015 46.198 8.18415 46.126 8.20815C46.062 8.23215 46.014 8.25215 45.982 8.26815C45.926 8.33215 45.858 8.38815 45.778 8.43615C45.706 8.47615 45.662 8.50015 45.646 8.50815C45.598 8.54015 45.546 8.58015 45.49 8.62815C45.434 8.66815 45.37 8.71215 45.298 8.76015C45.25 8.77615 45.178 8.79215 45.082 8.80815C44.978 8.77615 44.838 8.71615 44.662 8.62815C44.63 8.53215 44.614 8.46015 44.614 8.41215C44.614 8.31615 44.654 8.19615 44.734 8.05215C44.846 7.98815 44.974 7.90015 45.118 7.78815C45.326 7.63615 45.482 7.53615 45.586 7.48815C45.674 7.42415 45.726 7.38815 45.742 7.38015C45.782 7.34815 45.83 7.32015 45.886 7.29615C45.95 7.27215 45.998 7.25215 46.03 7.23615C46.054 7.21215 46.086 7.19215 46.126 7.17615C46.166 7.16015 46.198 7.14815 46.222 7.14015ZM47.29 10.1641L47.278 10.1521C47.254 10.1201 47.21 10.1001 47.146 10.0921C47.09 10.0841 47.05 10.0761 47.026 10.0681C46.858 10.0601 46.694 10.0801 46.534 10.1281C46.374 10.1681 46.186 10.2361 45.97 10.3321C45.818 10.3641 45.714 10.4081 45.658 10.4641C45.434 10.7281 45.306 11.1201 45.274 11.6401C45.338 11.6481 45.41 11.6401 45.49 11.6161C45.578 11.5841 45.638 11.5641 45.67 11.5561C45.918 11.3721 46.09 11.2561 46.186 11.2081C46.354 11.0721 46.514 10.9361 46.666 10.8001C46.706 10.7441 46.758 10.6841 46.822 10.6201C46.894 10.5561 46.95 10.5081 46.99 10.4761C47.046 10.4361 47.122 10.3681 47.218 10.2721L47.29 10.1641Z" fill="white"/>
<path d="M42.4924 4.66811L42.5044 4.63211C42.5444 4.60011 42.5964 4.58411 42.6604 4.58411C42.7644 4.58411 42.8604 4.62011 42.9484 4.69211C43.0444 4.82011 43.1244 4.90811 43.1884 4.95611C43.2124 4.98811 43.2284 5.03211 43.2364 5.08811C43.2444 5.13611 43.2524 5.17211 43.2604 5.19611C43.2684 5.29211 43.2604 5.39211 43.2364 5.49611C43.2124 5.60011 43.1964 5.66811 43.1884 5.70011C43.1644 5.75611 43.1444 5.84811 43.1284 5.97611C43.1204 6.04811 43.1164 6.15611 43.1164 6.30011L43.1284 6.96011C43.1684 7.64811 43.1884 8.68011 43.1884 10.0561V11.0881C43.1964 11.2001 43.2004 11.3641 43.2004 11.5801V12.0841C43.1684 12.2441 43.0964 12.3241 42.9844 12.3241C42.9364 12.3561 42.8884 12.3601 42.8404 12.3361C42.8004 12.3201 42.7564 12.2881 42.7084 12.2401C42.6604 12.1921 42.6164 12.1561 42.5764 12.1321C42.5444 12.1161 42.5004 12.0721 42.4444 12.0001C42.3004 11.8401 42.2044 11.7121 42.1564 11.6161C42.1324 11.5521 42.1204 11.4881 42.1204 11.4241C42.1204 11.3281 42.1484 11.2161 42.2044 11.0881C42.2684 10.9281 42.2964 10.8001 42.2884 10.7041C42.3044 10.3521 42.3124 10.0921 42.3124 9.92411C42.3444 9.22011 42.3604 8.69611 42.3604 8.35211C42.3604 7.71211 42.3244 7.16011 42.2524 6.69611C42.2284 6.36011 42.2164 6.02811 42.2164 5.70011C42.2084 5.62811 42.2044 5.52011 42.2044 5.37611C42.2044 5.34411 42.2004 5.29611 42.1924 5.23211C42.1844 5.16811 42.1764 5.11611 42.1684 5.07611C42.1924 5.03611 42.2244 4.98411 42.2644 4.92011C42.3044 4.84811 42.3444 4.79211 42.3844 4.75211C42.4484 4.71211 42.4844 4.68411 42.4924 4.66811Z" fill="white"/>
<path d="M37.4905 6.97215L37.5145 6.96015C37.7065 6.92015 37.9425 6.90015 38.2225 6.90015L38.8345 6.91215C38.9705 6.92015 39.1225 6.96015 39.2905 7.03215C39.4185 7.06415 39.5185 7.10815 39.5905 7.16415C39.6225 7.18015 39.6785 7.20815 39.7585 7.24815C39.8465 7.28015 39.9185 7.32015 39.9745 7.36815C40.1825 7.49615 40.3265 7.59615 40.4065 7.66815C40.4945 7.77215 40.5465 7.84415 40.5625 7.88415C40.6025 7.90015 40.6385 7.94015 40.6705 8.00415C40.7025 8.06815 40.7265 8.11215 40.7425 8.13615C40.9025 8.29615 41.0025 8.45215 41.0425 8.60415C41.0905 8.63615 41.1145 8.69215 41.1145 8.77215L41.1025 8.91615C41.1265 8.94815 41.1385 8.98415 41.1385 9.02415C41.1385 9.08815 41.0865 9.18015 40.9825 9.30015C40.9665 9.34015 40.9385 9.36815 40.8985 9.38415C40.8665 9.39215 40.8225 9.39615 40.7665 9.39615C40.7185 9.39615 40.6785 9.40415 40.6465 9.42015C40.5905 9.41215 40.5265 9.42415 40.4545 9.45615C40.3905 9.48015 40.3345 9.49615 40.2865 9.50415C40.1505 9.50415 40.0505 9.49215 39.9865 9.46815C39.9385 9.46015 39.8745 9.45215 39.7945 9.44415C39.7145 9.43615 39.6185 9.43215 39.5065 9.43215C39.3625 9.43215 39.2385 9.44815 39.1345 9.48015C39.0545 9.48815 38.9265 9.49215 38.7505 9.49215C38.5745 9.49215 38.4265 9.50015 38.3065 9.51615C38.1865 9.52415 38.0745 9.55215 37.9705 9.60015C37.8985 9.60815 37.8065 9.61215 37.6945 9.61215C37.5905 9.61215 37.4945 9.62015 37.4065 9.63615C37.3185 9.64415 37.2385 9.67615 37.1665 9.73215C37.1505 9.76415 37.1185 9.80015 37.0705 9.84015C37.0305 9.87215 36.9985 9.90415 36.9745 9.93615C36.9665 9.97615 36.9545 10.0201 36.9385 10.0681C36.9225 10.1081 36.9145 10.1401 36.9145 10.1641C36.9145 10.1961 36.9265 10.2321 36.9505 10.2721C36.9425 10.3201 36.9545 10.3721 36.9865 10.4281C37.0185 10.4841 37.0385 10.5281 37.0465 10.5601C37.0625 10.5761 37.0985 10.6161 37.1545 10.6801C37.2105 10.7361 37.2705 10.7921 37.3345 10.8481C37.4065 10.9041 37.4865 10.9441 37.5745 10.9681C37.6945 10.9761 37.7985 10.9801 37.8865 10.9801C37.9745 10.9721 38.0505 10.9681 38.1145 10.9681C38.1705 10.9521 38.2585 10.9361 38.3785 10.9201C38.4985 10.8961 38.5985 10.8601 38.6785 10.8121C38.7745 10.7881 38.8785 10.7521 38.9905 10.7041C39.1105 10.6561 39.1905 10.6241 39.2305 10.6081C39.3585 10.5761 39.4505 10.5441 39.5065 10.5121C39.6265 10.5201 39.7625 10.5041 39.9145 10.4641C40.0585 10.4321 40.1665 10.4161 40.2385 10.4161C40.2945 10.4161 40.3345 10.4201 40.3585 10.4281C40.3985 10.4441 40.4385 10.4561 40.4785 10.4641C40.5265 10.4721 40.5585 10.4761 40.5745 10.4761C40.6305 10.4921 40.6625 10.5441 40.6705 10.6321C40.6865 10.7121 40.7185 10.7601 40.7665 10.7761C40.7825 10.7841 40.8105 10.7921 40.8505 10.8001C40.8905 10.8081 40.9185 10.8281 40.9345 10.8601C40.9265 10.8921 40.9305 10.9361 40.9465 10.9921C40.9705 11.0481 40.9825 11.0881 40.9825 11.1121C40.9825 11.1441 40.9705 11.1721 40.9465 11.1961C40.9305 11.2761 40.9025 11.3441 40.8625 11.4001C40.7985 11.4081 40.7425 11.4521 40.6945 11.5321C40.6465 11.6041 40.6065 11.6561 40.5745 11.6881L40.2745 11.8561C40.1305 11.9201 40.0265 11.9761 39.9625 12.0241C39.6825 12.1361 39.4785 12.2081 39.3505 12.2401C39.2625 12.2641 39.1585 12.2801 39.0385 12.2881C38.9265 12.2961 38.8385 12.3041 38.7745 12.3121H38.2105C37.9625 12.3121 37.7745 12.3081 37.6465 12.3001C37.6065 12.2921 37.5225 12.2721 37.3945 12.2401C37.2665 12.2161 37.1505 12.1801 37.0465 12.1321C37.0305 12.1161 37.0025 12.1001 36.9625 12.0841C36.9305 12.0761 36.9105 12.0601 36.9025 12.0361C36.8545 12.0201 36.7745 11.9641 36.6625 11.8681C36.5905 11.8361 36.5225 11.7921 36.4585 11.7361C36.3945 11.6721 36.3505 11.6281 36.3265 11.6041C36.1985 11.4521 36.0625 11.3041 35.9185 11.1601L35.7145 10.8001C35.7065 10.7681 35.6905 10.7201 35.6665 10.6561C35.6505 10.5921 35.6265 10.5401 35.5945 10.5001C35.5945 10.4921 35.5905 10.4721 35.5825 10.4401C35.5825 10.4001 35.5905 10.3681 35.6065 10.3441L35.5945 9.88815C35.6105 9.82415 35.6185 9.78015 35.6185 9.75615C35.6185 9.70015 35.6065 9.63215 35.5825 9.55215C35.5665 9.46415 35.5545 9.38815 35.5465 9.32415L35.5585 9.21615C35.5585 9.20015 35.5505 9.17615 35.5345 9.14415C35.5265 9.08815 35.5425 9.03615 35.5825 8.98815C35.6225 8.94015 35.6465 8.91215 35.6545 8.90415C35.6625 8.87215 35.6745 8.81615 35.6905 8.73615C35.7145 8.65615 35.7425 8.59215 35.7745 8.54415C35.7985 8.47215 35.8465 8.38815 35.9185 8.29215C35.9905 8.18015 36.0345 8.10015 36.0505 8.05215C36.0905 8.00415 36.1345 7.96015 36.1825 7.92015C36.2305 7.84015 36.3185 7.72815 36.4465 7.58415C36.6145 7.44815 36.7625 7.34415 36.8905 7.27215C36.9145 7.23215 36.9625 7.19615 37.0345 7.16415C37.1145 7.12415 37.1665 7.08815 37.1905 7.05615L37.4905 6.97215ZM39.1345 7.98015L39.0385 7.95615C38.9905 7.94815 38.9185 7.94415 38.8225 7.94415C38.6305 7.94415 38.3865 7.98815 38.0905 8.07615C37.9705 8.12415 37.8305 8.21215 37.6705 8.34015L37.4305 8.58015C37.4625 8.61215 37.4985 8.62815 37.5385 8.62815L37.6705 8.61615H37.6945C37.7265 8.60815 37.7705 8.60015 37.8265 8.59215C37.8825 8.57615 37.9305 8.56015 37.9705 8.54415C38.0345 8.53615 38.1305 8.53215 38.2585 8.53215C38.3865 8.52415 38.4865 8.49215 38.5585 8.43615L38.6665 8.44815C38.7225 8.44815 38.7745 8.44415 38.8225 8.43615C38.8785 8.42815 38.9385 8.42415 39.0025 8.42415C39.0345 8.42415 39.0905 8.42815 39.1705 8.43615C39.2505 8.43615 39.3145 8.44815 39.3625 8.47215C39.4345 8.48015 39.4945 8.48415 39.5425 8.48415C39.5985 8.47615 39.6425 8.47215 39.6745 8.47215C39.7225 8.44815 39.7465 8.42015 39.7465 8.38815C39.7465 8.34815 39.6945 8.27615 39.5905 8.17215C39.3585 8.06015 39.2065 7.99615 39.1345 7.98015Z" fill="white"/>
<path d="M30.6399 4.14009H30.7719C30.8839 4.12409 31.0559 4.11609 31.2879 4.11609C31.5119 4.11609 31.6799 4.12009 31.7919 4.12809C31.9519 4.15209 32.0959 4.19209 32.2239 4.24809C32.2479 4.26409 32.2999 4.29609 32.3799 4.34409C32.4679 4.38409 32.5399 4.42809 32.5959 4.47609C32.6199 4.50009 32.6599 4.54809 32.7159 4.62009C32.7719 4.68409 32.8319 4.72409 32.8959 4.74009C32.9839 4.81209 33.0679 4.90809 33.1479 5.02809C33.2359 5.14009 33.2999 5.22009 33.3399 5.26809C33.3479 5.32409 33.3759 5.40009 33.4239 5.49609C33.4719 5.58409 33.4999 5.65609 33.5079 5.71209C33.5399 5.83209 33.5559 5.96009 33.5559 6.09609C33.5559 6.23209 33.5359 6.35209 33.4959 6.45609C33.4159 6.56009 33.3479 6.66409 33.2919 6.76809C33.1879 6.93609 33.0919 7.07209 33.0039 7.17609C32.9239 7.27209 32.8239 7.34009 32.7039 7.38009L32.2959 7.58409C32.2879 7.61609 32.2879 7.65209 32.2959 7.69209C32.3119 7.72409 32.3199 7.74809 32.3199 7.76409C32.3119 7.82809 32.3159 7.88809 32.3319 7.94409C32.3479 8.00009 32.3719 8.06409 32.4039 8.13609C32.4439 8.20809 32.4719 8.26809 32.4879 8.31609C32.5039 8.35609 32.5199 8.40809 32.5359 8.47209C32.5599 8.53609 32.5879 8.58409 32.6199 8.61609C32.6279 8.63209 32.6399 8.66009 32.6559 8.70009C32.6799 8.74009 32.7079 8.76809 32.7399 8.78409L32.7279 8.79609C32.7519 8.86809 32.7919 8.94809 32.8479 9.03609C32.9119 9.12409 32.9599 9.19609 32.9919 9.25209C32.9999 9.30009 33.0239 9.35609 33.0639 9.42009C33.1039 9.48409 33.1319 9.53609 33.1479 9.57609C33.2999 9.83209 33.4719 10.0801 33.6639 10.3201C33.6879 10.3521 33.7799 10.4481 33.9399 10.6081C33.9559 10.6241 34.0079 10.6761 34.0959 10.7641C34.1839 10.8521 34.2559 10.9441 34.3119 11.0401C34.3359 11.0721 34.3479 11.1121 34.3479 11.1601L34.3359 11.2441C34.3519 11.2521 34.3839 11.2681 34.4319 11.2921C34.4879 11.3081 34.5239 11.3401 34.5399 11.3881C34.5079 11.4361 34.5039 11.4921 34.5279 11.5561C34.5519 11.6121 34.5679 11.6561 34.5759 11.6881C34.5679 11.7441 34.5319 11.7921 34.4679 11.8321C34.4039 11.8641 34.3599 11.8921 34.3359 11.9161C34.2399 11.9721 34.1279 12.0041 33.9999 12.0121C33.8719 12.0201 33.7839 12.0281 33.7359 12.0361C33.6719 12.0521 33.5839 12.0801 33.4719 12.1201C33.3599 12.1601 33.2599 12.1681 33.1719 12.1441C33.1559 12.1521 33.1359 12.1601 33.1119 12.1681C33.0879 12.1761 33.0599 12.1801 33.0279 12.1801C33.0039 12.1801 32.9759 12.1721 32.9439 12.1561C32.9039 12.0921 32.8479 12.0361 32.7759 11.9881C32.7119 11.9401 32.6719 11.9081 32.6559 11.8921C32.5679 11.8521 32.4879 11.7841 32.4159 11.6881C32.3439 11.5841 32.2919 11.5121 32.2599 11.4721C32.1639 11.2801 32.0959 11.1361 32.0559 11.0401C31.9119 10.5281 31.7959 10.1441 31.7079 9.88809C31.6999 9.87209 31.6799 9.84409 31.6479 9.80409C31.6159 9.75609 31.5959 9.70809 31.5879 9.66009C31.5639 9.63609 31.5439 9.60009 31.5279 9.55209C31.5119 9.49609 31.4959 9.45609 31.4799 9.43209C31.4719 9.40009 31.4559 9.34009 31.4319 9.25209C31.4159 9.15609 31.3879 9.07209 31.3479 9.00009C31.3319 8.93609 31.3119 8.84809 31.2879 8.73609C31.2639 8.62409 31.2239 8.53209 31.1679 8.46009C31.1519 8.41209 31.1119 8.34809 31.0479 8.26809C30.9519 8.10809 30.7679 8.02809 30.4959 8.02809C30.3919 8.02809 30.3119 8.03209 30.2559 8.04009L30.0159 8.05209C29.9279 8.05209 29.8639 8.04809 29.8239 8.04009L29.2359 8.02809C29.1719 8.09209 29.1119 8.17209 29.0559 8.26809V8.94009C29.0559 9.36409 29.0759 9.72009 29.1159 10.0081C29.1239 10.3921 29.0719 10.7881 28.9599 11.1961C28.9519 11.3001 28.9599 11.4121 28.9839 11.5321C29.0079 11.6521 29.0239 11.7281 29.0319 11.7601C29.0319 11.9201 29.0159 12.0601 28.9839 12.1801C28.9679 12.2041 28.9519 12.2321 28.9359 12.2641C28.9199 12.2961 28.9039 12.3201 28.8879 12.3361C28.8319 12.3681 28.7719 12.3841 28.7079 12.3841C28.6439 12.3841 28.5919 12.3681 28.5519 12.3361C28.4959 12.3681 28.4439 12.3721 28.3959 12.3481C28.3559 12.3241 28.2999 12.2761 28.2279 12.2041C28.1639 12.1401 28.1159 12.1001 28.0839 12.0841C28.0519 12.0521 27.9919 11.9921 27.9039 11.9041C27.8159 11.8161 27.7279 11.7201 27.6399 11.6161C27.5599 11.5041 27.5119 11.3801 27.4959 11.2441C27.4799 11.2201 27.4719 11.1921 27.4719 11.1601C27.4799 11.1281 27.4959 11.0961 27.5199 11.0641C27.5439 11.0241 27.5599 10.9961 27.5679 10.9801C27.5919 10.9641 27.6159 10.9521 27.6399 10.9441C27.6719 10.9361 27.6879 10.9201 27.6879 10.8961L27.6759 10.8241C27.7239 10.7201 27.7679 10.5721 27.8079 10.3801C27.8079 10.1401 27.8319 9.97209 27.8799 9.87609C27.8799 9.80409 27.8799 9.70409 27.8799 9.57609C27.8879 9.44009 27.8999 9.32409 27.9159 9.22809C27.8839 9.13209 27.8679 9.01609 27.8679 8.88009C27.8679 8.80809 27.8759 8.69209 27.8919 8.53209C27.8919 8.49209 27.8959 8.42809 27.9039 8.34009C27.9199 8.25209 27.9239 8.17609 27.9159 8.11209C27.9159 7.92009 27.9199 7.75209 27.9279 7.60809C27.9359 7.46409 27.9439 7.34409 27.9519 7.24809C27.9839 6.78409 27.9999 6.43609 27.9999 6.20409L27.9879 5.84409C28.0039 5.79609 28.0119 5.72409 28.0119 5.62809V5.48409C28.0279 5.38809 28.0359 5.32009 28.0359 5.28009L28.0239 4.99209C27.9919 4.84809 27.9599 4.74809 27.9279 4.69209C27.9359 4.66009 27.9399 4.60809 27.9399 4.53609C27.9479 4.46409 27.9679 4.40809 27.9999 4.36809C28.0239 4.35209 28.0559 4.32809 28.0959 4.29609C28.1359 4.25609 28.1799 4.23609 28.2279 4.23609H28.2519C28.3399 4.21209 28.4199 4.20009 28.4919 4.20009C28.5559 4.20009 28.6399 4.20809 28.7439 4.22409C28.8479 4.24009 28.9359 4.25209 29.0079 4.26009C29.0399 4.26809 29.0799 4.28409 29.1279 4.30809C29.1759 4.33209 29.2199 4.34409 29.2599 4.34409C29.2839 4.34409 29.3039 4.34009 29.3199 4.33209C29.4239 4.28409 29.5399 4.25209 29.6679 4.23609C29.7959 4.21209 29.8759 4.19609 29.9079 4.18809L30.6399 4.14009ZM32.1279 5.56809L32.0919 5.49609C32.0359 5.42409 31.9999 5.38409 31.9839 5.37609C31.8559 5.33609 31.6879 5.31609 31.4799 5.31609H31.0479H30.6759C30.5079 5.31609 30.3799 5.32009 30.2919 5.32809C30.2359 5.34409 30.1479 5.36409 30.0279 5.38809C29.9079 5.41209 29.7879 5.44009 29.6679 5.47209C29.5479 5.50409 29.4359 5.55209 29.3319 5.61609C29.2359 5.71209 29.1799 5.79209 29.1639 5.85609L29.1279 6.14409C29.0879 6.38409 29.0679 6.60809 29.0679 6.81609C29.0759 6.88009 29.1199 6.93609 29.1999 6.98409C29.3119 7.00009 29.4359 7.00809 29.5719 7.00809C29.7159 7.00809 29.8079 7.00809 29.8479 7.00809L30.5319 6.98409C30.5879 6.96009 30.6479 6.93209 30.7119 6.90009C30.7759 6.86009 30.8239 6.82809 30.8559 6.80409L31.0959 6.70809C31.3279 6.62009 31.5079 6.52809 31.6359 6.43209C31.6919 6.37609 31.7599 6.31209 31.8399 6.24009C31.9279 6.16809 32.0039 6.09609 32.0679 6.02409C32.1319 5.95209 32.1799 5.87209 32.2119 5.78409C32.2199 5.74409 32.2079 5.70409 32.1759 5.66409C32.1519 5.61609 32.1359 5.58409 32.1279 5.56809Z" fill="white"/>
<path d="M22.0918 6.8521L22.1278 6.7561C22.2558 6.7641 22.3958 6.7881 22.5478 6.8281C22.5798 6.8441 22.5998 6.8761 22.6078 6.9241C22.6238 6.9641 22.6358 6.9921 22.6438 7.0081C22.6678 7.0241 22.7078 7.0521 22.7638 7.0921C22.8198 7.1321 22.8558 7.1801 22.8718 7.2361C22.8718 7.3001 22.8798 7.3961 22.8958 7.5241C22.9278 7.5481 22.9398 7.5761 22.9318 7.6081C22.9238 7.6401 22.9078 7.6801 22.8838 7.7281C22.8598 7.7681 22.8478 7.8001 22.8478 7.8241C22.8398 7.9841 22.8118 8.2161 22.7638 8.5201C22.7158 9.0321 22.6918 9.8081 22.6918 10.8481C22.6918 11.3281 22.6878 11.6881 22.6798 11.9281C22.6638 11.9761 22.6398 12.0041 22.6078 12.0121C22.5758 12.0281 22.5318 12.0401 22.4758 12.0481C22.4278 12.0561 22.3878 12.0721 22.3558 12.0961C22.3318 12.0641 22.2998 12.0241 22.2598 11.9761C22.2278 11.9281 22.1918 11.8881 22.1518 11.8561C22.1278 11.8401 22.0918 11.8121 22.0438 11.7721C22.0038 11.7241 21.9678 11.6921 21.9358 11.6761C21.8878 11.5961 21.8598 11.5161 21.8518 11.4361C21.8438 11.3481 21.8398 11.2241 21.8398 11.0641C21.8078 10.9841 21.7678 10.9441 21.7198 10.9441C21.6798 10.9441 21.6358 10.9681 21.5878 11.0161C21.5398 11.0561 21.4878 11.1121 21.4318 11.1841C21.3758 11.2561 21.3318 11.3121 21.2998 11.3521C21.2838 11.3601 21.2518 11.3761 21.2038 11.4001C21.1638 11.4161 21.1398 11.4441 21.1318 11.4841C21.1078 11.5081 21.0398 11.5761 20.9278 11.6881C20.8238 11.7921 20.7118 11.8841 20.5918 11.9641C20.5518 12.0201 20.4878 12.0641 20.3998 12.0961C20.3198 12.1281 20.2598 12.1561 20.2198 12.1801C20.1398 12.2041 20.0598 12.2161 19.9798 12.2161C19.9398 12.2081 19.8638 12.1881 19.7518 12.1561C19.6478 12.1321 19.5518 12.1241 19.4638 12.1321C19.3438 12.1161 19.2238 12.0761 19.1038 12.0121C18.9838 11.9561 18.9078 11.9201 18.8758 11.9041C18.5638 11.6961 18.3598 11.4121 18.2638 11.0521C18.1758 10.6841 18.1358 10.2441 18.1438 9.7321C18.1598 9.6201 18.1918 9.5441 18.2398 9.5041C18.2798 9.4001 18.2998 9.2401 18.2998 9.0241C18.2998 8.9201 18.3038 8.8401 18.3118 8.7841L18.3238 8.4241C18.3398 8.1361 18.3478 7.9161 18.3478 7.7641C18.3478 7.5961 18.3438 7.4721 18.3358 7.3921C18.3038 7.3601 18.2878 7.3161 18.2878 7.2601C18.2878 7.2201 18.2918 7.1841 18.2998 7.1521C18.3078 7.1201 18.3118 7.0881 18.3118 7.0561C18.4878 6.9761 18.7078 6.9281 18.9718 6.9121C19.0278 6.9441 19.1198 6.9761 19.2478 7.0081C19.2558 7.0801 19.2918 7.1521 19.3558 7.2241C19.4278 7.2881 19.4758 7.3361 19.4998 7.3681L19.5118 7.5361C19.5118 7.6401 19.4918 7.7241 19.4518 7.7881C19.4038 7.8121 19.3718 7.8481 19.3558 7.8961C19.3398 7.9441 19.3278 8.0041 19.3198 8.0761C19.3118 8.1401 19.2998 8.1961 19.2838 8.2441C19.2518 8.5241 19.2278 8.9441 19.2118 9.5041C19.2198 9.6081 19.2198 9.7001 19.2118 9.7801C19.2118 9.8521 19.2118 9.9121 19.2118 9.9601C19.2038 10.0241 19.1998 10.1241 19.1998 10.2601C19.1998 10.4761 19.2198 10.6601 19.2598 10.8121C19.2838 10.8521 19.3118 10.8801 19.3438 10.8961C19.3838 10.9041 19.4318 10.9121 19.4878 10.9201C19.5438 10.9201 19.5838 10.9201 19.6078 10.9201C19.7118 10.8881 19.7958 10.8561 19.8598 10.8241C19.9238 10.7841 19.9678 10.7281 19.9918 10.6561C20.0558 10.6481 20.0878 10.6361 20.0878 10.6201C20.0958 10.5961 20.1278 10.5801 20.1838 10.5721L20.1958 10.5601L20.1838 10.5481C20.1758 10.5561 20.1638 10.5561 20.1478 10.5481C20.1958 10.5321 20.2438 10.5041 20.2918 10.4641C20.3398 10.4241 20.3758 10.3961 20.3998 10.3801C20.6238 10.1321 20.7638 9.9721 20.8198 9.9001L20.9998 9.4561C21.1038 9.2001 21.1638 9.0521 21.1798 9.0121C21.2278 8.7881 21.2558 8.6201 21.2638 8.5081C21.2798 8.4441 21.3038 8.3401 21.3358 8.1961C21.3758 8.0441 21.3918 7.9081 21.3838 7.7881C21.3598 7.7561 21.3558 7.7201 21.3718 7.6801C21.3878 7.6401 21.4158 7.5921 21.4558 7.5361C21.4958 7.4721 21.5198 7.4241 21.5278 7.3921C21.5838 7.3041 21.6798 7.1841 21.8158 7.0321C21.8398 7.0241 21.8798 7.0121 21.9358 6.9961C21.9918 6.9721 22.0358 6.9441 22.0678 6.9121L22.0918 6.8521Z" fill="white"/>
<path d="M13.7677 4.47611L14.9917 4.33211L15.3757 4.32011C15.4557 4.31211 15.5757 4.30811 15.7357 4.30811C16.0397 4.30811 16.3037 4.34011 16.5277 4.40411C16.6637 4.46011 16.7677 4.52811 16.8397 4.60811C16.8717 4.60811 16.8957 4.6241 16.9117 4.65611C16.9357 4.68011 16.9517 4.71611 16.9597 4.76411C16.9757 4.80411 16.9917 4.84011 17.0077 4.87211C17.0877 4.93611 17.1437 4.98811 17.1757 5.02811C17.1917 5.05211 17.1917 5.08011 17.1757 5.11211C17.1677 5.14411 17.1597 5.16811 17.1517 5.18411C17.1597 5.24811 17.1517 5.32011 17.1277 5.40011C17.0957 5.42411 17.0437 5.45211 16.9717 5.48411C16.9077 5.51611 16.8597 5.54411 16.8277 5.56811C16.7237 5.60011 16.6557 5.62011 16.6237 5.62811C16.4877 5.62811 16.3677 5.62411 16.2637 5.61611C16.1677 5.60811 16.0837 5.60011 16.0117 5.59211C15.6917 5.56011 15.4557 5.54411 15.3037 5.54411C15.0397 5.54411 14.7997 5.57611 14.5837 5.64011C14.5437 5.67211 14.5117 5.71611 14.4877 5.77211C14.4637 5.82011 14.4437 5.85611 14.4277 5.88011C14.3877 6.00011 14.3597 6.18011 14.3437 6.42011C14.3437 6.47611 14.3357 6.56811 14.3197 6.69611C14.2877 6.89611 14.2717 7.13211 14.2717 7.40411C14.2717 7.48411 14.2717 7.58411 14.2717 7.70411C14.2797 7.81611 14.2797 7.95211 14.2717 8.11211C14.2557 8.16811 14.2437 8.23211 14.2357 8.30411C14.2277 8.36811 14.2237 8.41611 14.2237 8.44811L14.2117 9.54011C14.2117 9.78811 14.2157 9.97211 14.2237 10.0921C14.2477 10.1721 14.2597 10.2721 14.2597 10.3921C14.2677 10.5041 14.2717 10.5881 14.2717 10.6441C14.2717 10.7321 14.2677 10.8081 14.2597 10.8721C14.2517 10.9281 14.2437 10.9801 14.2357 11.0281C14.2357 11.0521 14.2357 11.0841 14.2357 11.1241C14.2357 11.1641 14.2477 11.1961 14.2717 11.2201C14.2397 11.2521 14.2237 11.2921 14.2237 11.3401C14.2237 11.3721 14.2317 11.4121 14.2477 11.4601C14.2637 11.5081 14.2757 11.5521 14.2837 11.5921C14.2837 11.6561 14.2917 11.7321 14.3077 11.8201C14.3237 11.9001 14.3357 11.9561 14.3437 11.9881C14.3517 12.0361 14.3397 12.0921 14.3077 12.1561C14.2757 12.2201 14.2557 12.2641 14.2477 12.2881C14.2477 12.3361 14.2197 12.3761 14.1637 12.4081C14.1157 12.4401 14.0597 12.4561 13.9957 12.4561H13.9597C13.9197 12.4161 13.8557 12.3801 13.7677 12.3481C13.6797 12.3241 13.6197 12.2841 13.5877 12.2281C13.4837 12.1881 13.3797 12.1161 13.2757 12.0121C13.2357 11.9641 13.1837 11.9041 13.1197 11.8321C13.0557 11.7601 12.9957 11.6841 12.9397 11.6041C12.8837 11.5241 12.8437 11.4401 12.8197 11.3521C12.7797 11.3361 12.7597 11.3041 12.7597 11.2561C12.7597 11.2001 12.7557 11.1561 12.7477 11.1241C12.7397 11.0761 12.7437 11.0361 12.7597 11.0041C12.7837 10.9641 12.8157 10.9241 12.8557 10.8841C12.9037 10.8441 12.9437 10.8041 12.9757 10.7641C13.0077 10.7001 13.0277 10.6161 13.0357 10.5121C13.0437 10.4081 13.0517 10.3321 13.0597 10.2841C13.0917 9.89211 13.1157 9.30011 13.1317 8.50811C13.1317 8.29211 13.1397 7.96011 13.1557 7.51211C13.1637 7.39211 13.1837 7.19211 13.2157 6.91211V6.52811C13.2157 6.26411 13.2077 6.06811 13.1917 5.94011C13.1677 5.83611 13.0997 5.78411 12.9877 5.78411H12.9517C12.8717 5.80011 12.7157 5.82811 12.4837 5.86811C12.2517 5.90011 12.0437 5.94011 11.8597 5.98811C11.8277 6.01211 11.7677 6.03611 11.6797 6.06011C11.5997 6.07611 11.5397 6.10411 11.4997 6.14411C11.4597 6.16011 11.4117 6.16411 11.3557 6.15611C11.3077 6.14011 11.2717 6.13211 11.2477 6.13211C11.2157 6.10011 11.1757 6.08411 11.1277 6.08411L11.0677 6.09611C11.0277 6.02411 10.9597 5.96011 10.8637 5.90411C10.8237 5.89611 10.7837 5.86011 10.7437 5.79611C10.7117 5.73211 10.6757 5.69611 10.6357 5.68811C10.6197 5.64811 10.6077 5.60411 10.5997 5.55611C10.5917 5.50811 10.5797 5.46411 10.5637 5.42411L10.5757 5.3281C10.5757 5.23211 10.5477 5.12011 10.4917 4.99211L10.4797 4.86011C10.4797 4.82011 10.4877 4.79211 10.5037 4.7761C10.5677 4.74411 10.6517 4.72811 10.7557 4.72811C10.8597 4.72811 10.9397 4.72411 10.9957 4.71611C11.2837 4.70811 11.5717 4.68411 11.8597 4.64411C12.2437 4.61211 12.5317 4.59211 12.7237 4.58411L13.3597 4.50011C13.3837 4.50811 13.4197 4.51211 13.4677 4.51211C13.5397 4.51211 13.5997 4.50811 13.6477 4.50011C13.6957 4.49211 13.7357 4.48411 13.7677 4.47611Z" fill="white"/>
</svg>
