<svg width="61" height="13" viewBox="0 0 61 13" fill="none" xmlns="http://www.w3.org/2000/svg">
<path d="M60.3165 3.39612L56.0685 12.8161H52.9965L54.5805 9.48012L51.8325 3.61212L54.8925 3.39612L56.0685 6.61212L57.2685 3.61212L60.3165 3.39612Z" fill="white"/>
<path d="M50.8719 3.2041V10.4161H43.5999V6.1801L48.0639 5.9281V5.4241L43.5999 5.7121V3.6721L50.8719 3.2041ZM48.0639 8.3521V7.8481L46.3839 7.9441V8.4121L48.0639 8.3521Z" fill="white"/>
<path d="M39.5803 0.600081L42.4003 0.408081V10.4161H39.5803V0.600081Z" fill="white"/>
<path d="M38.3774 3.26404V7.75204L34.0094 7.93204V8.42404L38.3774 8.28004V10.416H31.2014V3.63604L38.3774 3.26404ZM35.6894 5.44804L34.0094 5.53204V6.03604L35.6894 5.96404V5.44804Z" fill="white"/>
<path d="M29.9432 0.720093V7.50009L29.0912 7.51209L29.9432 10.4161H26.9792L26.1512 7.54809L25.0472 7.56009V10.4161H22.1912V1.06809L29.9432 0.720093ZM27.0872 3.22809L25.0472 3.32409V5.31609L27.0872 5.20809V3.22809Z" fill="white"/>
<path d="M17.3367 3.40808V10.4161H9.89673V3.80408L12.7167 3.61208V8.12408L14.5167 8.04008V3.60008L17.3367 3.40808Z" fill="white"/>
<path d="M8.69617 3.12009L6.24817 3.24009V10.4161H3.36817V3.39609L0.920166 3.51609V1.11609L8.69617 0.720093V3.12009Z" fill="white"/>
</svg>
