<svg width="82" height="57" viewBox="0 0 82 57" fill="none" xmlns="http://www.w3.org/2000/svg">
<path fill-rule="evenodd" clip-rule="evenodd" d="M35.2945 27.3668C33.071 26.6257 30.6229 27.0611 29.7056 27.3668C29.365 27.4804 28.9969 27.2963 28.8834 26.9558C28.7699 26.6152 28.9539 26.2471 29.2945 26.1336C30.3771 25.7727 33.129 25.2747 35.7056 26.1336C36.0461 26.2471 36.2302 26.6152 36.1167 26.9558C36.0032 27.2963 35.635 27.4804 35.2945 27.3668Z" fill="#222222"/>
<path fill-rule="evenodd" clip-rule="evenodd" d="M51.1656 27.8076C49.3875 26.7407 47.4446 27.0724 46.7414 27.3537C46.4081 27.487 46.0298 27.3249 45.8965 26.9916C45.7632 26.6583 45.9253 26.28 46.2586 26.1467C47.2221 25.7613 49.6125 25.3597 51.8344 26.6928C52.1423 26.8775 52.2421 27.2768 52.0574 27.5846C51.8727 27.8925 51.4734 27.9923 51.1656 27.8076Z" fill="#222222"/>
<path fill-rule="evenodd" clip-rule="evenodd" d="M31.1777 32.5752C30.14 32.5595 29.2034 32.7253 28.6786 32.8753C28.3334 32.9739 27.9737 32.774 27.875 32.4288C27.7764 32.0837 27.9763 31.7239 28.3215 31.6253C28.9633 31.4419 30.0267 31.2577 31.1973 31.2753C32.3637 31.293 33.6995 31.5119 34.8344 32.1929C35.1423 32.3776 35.2421 32.7769 35.0574 33.0847C34.8727 33.3925 34.4734 33.4923 34.1656 33.3076C33.3005 32.7886 32.2197 32.5909 31.1777 32.5752Z" fill="#222222"/>
<path fill-rule="evenodd" clip-rule="evenodd" d="M48.7633 33.0752C47.918 33.0599 47.1413 33.2217 46.7056 33.3669C46.365 33.4804 45.9969 33.2964 45.8834 32.9558C45.7699 32.6153 45.9539 32.2472 46.2945 32.1336C46.8587 31.9456 47.7821 31.7573 48.7867 31.7754C49.7885 31.7934 50.941 32.0185 51.89 32.7303C52.1772 32.9457 52.2354 33.3531 52.02 33.6403C51.8046 33.9275 51.3972 33.9857 51.11 33.7703C50.4591 33.2821 49.6116 33.0905 48.7633 33.0752Z" fill="#222222"/>
<path fill-rule="evenodd" clip-rule="evenodd" d="M40.5 7.75024C26.8838 7.75024 16 18.1304 16 30.7502C16 43.3701 26.8838 53.7502 40.5 53.7502C54.1162 53.7502 65 43.3701 65 30.7502C65 18.1304 54.1162 7.75024 40.5 7.75024ZM13 30.7502C13 16.3081 25.3974 4.75024 40.5 4.75024C55.6026 4.75024 68 16.3081 68 30.7502C68 45.1924 55.6026 56.7502 40.5 56.7502C25.3974 56.7502 13 45.1924 13 30.7502Z" fill="#222222"/>
<path fill-rule="evenodd" clip-rule="evenodd" d="M68.4574 35.9999C68.1015 36.607 67.6553 37.3026 67.0786 37.844L65.0255 35.6565C65.2689 35.4281 65.536 35.0513 65.8693 34.4828C65.974 34.3041 66.1054 34.0692 66.2472 33.8155C66.467 33.4223 66.712 32.984 66.9223 32.6403C67.6416 31.4641 68.8721 29.7502 71.052 29.7502C76.68 29.7502 81.552 33.8423 81.552 39.2502C81.552 44.6582 76.68 48.7502 71.052 48.7502C67.4352 48.7502 64.1915 47.0909 62.2893 44.4892L64.7111 42.7186C66.0183 44.5065 68.3403 45.7502 71.052 45.7502C75.3651 45.7502 78.552 42.6789 78.552 39.2502C78.552 35.8216 75.3651 32.7502 71.052 32.7502C70.6581 32.7502 70.2088 33.0165 69.4816 34.2055C69.2728 34.547 69.1106 34.8396 68.936 35.1548C68.795 35.4093 68.6458 35.6784 68.4574 35.9999Z" fill="#222222"/>
<path fill-rule="evenodd" clip-rule="evenodd" d="M13.0946 35.9999C13.4505 36.607 13.8967 37.3026 14.4734 37.844L16.5265 35.6565C16.2831 35.4281 16.016 35.0513 15.6827 34.4828C15.578 34.3041 15.4466 34.0692 15.3048 33.8155C15.085 33.4223 14.84 32.984 14.6297 32.6403C13.9104 31.4641 12.6799 29.7502 10.5 29.7502C4.87198 29.7502 -5.72205e-06 33.8423 -5.72205e-06 39.2502C-5.72205e-06 44.6582 4.87198 48.7502 10.5 48.7502C14.1168 48.7502 17.3605 47.0909 19.2627 44.4892L16.8409 42.7186C15.5337 44.5065 13.2117 45.7502 10.5 45.7502C6.18689 45.7502 2.99999 42.6789 2.99999 39.2502C2.99999 35.8216 6.18689 32.7502 10.5 32.7502C10.8939 32.7502 11.3432 33.0165 12.0704 34.2055C12.2792 34.547 12.4414 34.8396 12.616 35.1548C12.757 35.4093 12.9062 35.6784 13.0946 35.9999Z" fill="#222222"/>
<path fill-rule="evenodd" clip-rule="evenodd" d="M71.6607 36.3587C73.2715 36.8563 74.6616 37.5888 75.4678 38.1262C75.8124 38.356 75.9056 38.8217 75.6758 39.1663C75.446 39.511 74.9804 39.6041 74.6358 39.3743C73.942 38.9118 72.6821 38.2442 71.2179 37.7919C70.5893 37.5977 69.9375 37.4476 69.2867 37.3669C70.2379 37.9671 71.247 38.9636 72.2226 40.9149C72.4078 41.2853 72.2577 41.7358 71.8872 41.9211C71.5167 42.1063 71.0662 41.9562 70.881 41.5857C69.9383 39.7004 69.035 38.9438 68.3047 38.5265C67.9959 38.35 67.7144 38.2305 67.4165 38.1041C67.3373 38.0705 67.2569 38.0364 67.1746 38.0006C66.8069 37.8407 66.3793 37.6384 66.0214 37.2806C65.8304 37.0895 65.7569 36.8105 65.829 36.5501C65.9011 36.2897 66.1077 36.0882 66.3699 36.0227C68.156 35.5761 70.057 35.8633 71.6607 36.3587Z" fill="#222222"/>
<path fill-rule="evenodd" clip-rule="evenodd" d="M9.8911 36.3587C8.2803 36.8563 6.89018 37.5888 6.08396 38.1262C5.73931 38.356 5.64618 38.8217 5.87594 39.1663C6.10571 39.511 6.57136 39.6041 6.91601 39.3743C7.60978 38.9118 8.86966 38.2442 10.3339 37.7919C10.9624 37.5977 11.6143 37.4476 12.2651 37.3669C11.3138 37.9671 10.3048 38.9636 9.32916 40.9149C9.14392 41.2853 9.29409 41.7358 9.66457 41.9211C10.0351 42.1063 10.4856 41.9562 10.6708 41.5857C11.6134 39.7004 12.5168 38.9438 13.2471 38.5265C13.5559 38.35 13.8374 38.2305 14.1353 38.1041C14.2145 38.0705 14.2948 38.0364 14.3771 38.0006C14.7449 37.8407 15.1725 37.6384 15.5303 37.2806C15.7214 37.0895 15.7949 36.8105 15.7228 36.5501C15.6506 36.2897 15.444 36.0882 15.1819 36.0227C13.3958 35.5761 11.4947 35.8633 9.8911 36.3587Z" fill="#222222"/>
<path fill-rule="evenodd" clip-rule="evenodd" d="M38.4216 6.5043C38.8335 6.46094 39.2026 6.75973 39.2459 7.17167C39.4195 8.82028 39.4193 11.4516 38.8581 14.0462C38.301 16.6218 37.1591 19.3043 34.9302 20.8646C34.5908 21.1021 34.1232 21.0196 33.8856 20.6803C33.6481 20.3409 33.7306 19.8733 34.07 19.6358C35.841 18.396 36.8658 16.1619 37.392 13.7291C37.9141 11.3154 37.914 8.84675 37.7542 7.3287C37.7108 6.91676 38.0096 6.54767 38.4216 6.5043Z" fill="#222222"/>
<path fill-rule="evenodd" clip-rule="evenodd" d="M38.0841 6.62616C38.4287 6.3964 38.8944 6.48953 39.1241 6.83418C40.5314 8.9451 42.902 14.5735 41.2212 20.4562C41.1074 20.8545 40.6923 21.0851 40.294 20.9713C39.8958 20.8576 39.6651 20.4424 39.7789 20.0442C41.2982 14.7269 39.1354 9.5553 37.876 7.66623C37.6463 7.32158 37.7394 6.85593 38.0841 6.62616Z" fill="#222222"/>
<path fill-rule="evenodd" clip-rule="evenodd" d="M37.8192 6.93589C37.9928 6.5598 38.4384 6.39563 38.8145 6.56921C41.2116 7.67557 45.7502 11.7208 45.7502 19.2502C45.7502 19.6644 45.4144 20.0002 45.0002 20.0002C44.586 20.0002 44.2502 19.6644 44.2502 19.2502C44.2502 12.3796 40.1221 8.82479 38.1859 7.93115C37.8098 7.75757 37.6456 7.31198 37.8192 6.93589Z" fill="#222222"/>
<path fill-rule="evenodd" clip-rule="evenodd" d="M37.763 7.11204C37.8393 6.70492 38.2312 6.43677 38.6384 6.5131C41.5523 7.05947 47.7299 10.2394 50.2185 18.5347C50.3375 18.9315 50.1124 19.3496 49.7156 19.4686C49.3189 19.5876 48.9008 19.3625 48.7818 18.9658C46.4704 11.2611 40.7813 8.44104 38.3619 7.98741C37.9548 7.91108 37.6866 7.51916 37.763 7.11204Z" fill="#222222"/>
<path fill-rule="evenodd" clip-rule="evenodd" d="M58.2341 8.67067C58.5733 8.79552 58.9138 8.92081 59.2565 9.04543C59.6458 9.18699 59.8466 9.61731 59.705 10.0066C59.5635 10.3959 59.1331 10.5967 58.7439 10.4551C58.3936 10.3277 58.049 10.201 57.7086 10.0759C55.3468 9.20748 53.1879 8.41369 50.7467 7.98911C47.9785 7.50767 44.8308 7.50168 40.672 8.48025C40.2687 8.57512 39.865 8.32517 39.7701 7.92197C39.6752 7.51876 39.9252 7.11499 40.3284 7.02012C44.6696 5.99865 48.0219 5.9927 51.0037 6.5113C53.588 6.96077 55.8817 7.80492 58.2341 8.67067Z" fill="#222222"/>
<path fill-rule="evenodd" clip-rule="evenodd" d="M56.7414 4.8693C57.5931 4.92479 58.3665 4.97518 59.029 5.00066C59.4429 5.01658 59.7655 5.36502 59.7496 5.77893C59.7337 6.19284 59.3852 6.51547 58.9713 6.49955C58.2395 6.4714 57.4266 6.41821 56.5509 6.36091C54.7434 6.24264 52.6683 6.10685 50.4857 6.13756C47.2656 6.18288 43.9842 6.59666 41.3356 7.92099C40.9651 8.10623 40.5146 7.95607 40.3293 7.58558C40.1441 7.2151 40.2943 6.76459 40.6648 6.57935C43.6161 5.10368 47.168 4.6841 50.4646 4.63771C52.7031 4.60621 54.9044 4.74963 56.7414 4.8693Z" fill="#222222"/>
<path fill-rule="evenodd" clip-rule="evenodd" d="M49.4929 2.67041C53.1135 2.14771 56.531 2.24825 58.5931 2.50601C59.0041 2.55738 59.2956 2.93223 59.2442 3.34324C59.1929 3.75426 58.818 4.0458 58.407 3.99442C56.469 3.75218 53.1865 3.65272 49.7072 4.15502C46.2181 4.65872 42.6164 5.75549 39.9634 7.83995C39.6377 8.09586 39.1662 8.03929 38.9103 7.71358C38.6544 7.38788 38.711 6.91639 39.0367 6.66048C41.9837 4.34495 45.8819 3.19171 49.4929 2.67041Z" fill="#222222"/>
<path fill-rule="evenodd" clip-rule="evenodd" d="M21.7509 2.21459C21.7706 1.80084 22.1219 1.48141 22.5357 1.50111C24.3331 1.5867 27.3313 1.94351 30.5419 2.73454C33.7448 3.52365 37.2197 4.7594 39.9269 6.63362C40.2675 6.86939 40.3524 7.3366 40.1167 7.67717C39.8809 8.01773 39.4137 8.10268 39.0731 7.8669C36.5803 6.14112 33.3052 4.9602 30.1831 4.19098C27.0688 3.42368 24.1669 3.08049 22.4643 2.99941C22.0506 2.97971 21.7312 2.62833 21.7509 2.21459Z" fill="#222222"/>
<path fill-rule="evenodd" clip-rule="evenodd" d="M38.9009 6.99357C32.9876 6.20513 23.8903 6.66469 20.065 6.99733C19.6524 7.03321 19.2887 6.72777 19.2529 6.31512C19.217 5.90246 19.5224 5.53885 19.9351 5.50296C23.7764 5.16893 33.0125 4.69517 39.0992 5.50672C39.5097 5.56147 39.7982 5.93869 39.7435 6.34927C39.6887 6.75985 39.3115 7.04831 38.9009 6.99357Z" fill="#222222"/>
<path fill-rule="evenodd" clip-rule="evenodd" d="M38.8617 8.48736C32.6403 7.32083 24.8468 8.97982 21.7258 9.96539C21.3308 10.0901 20.9095 9.87104 20.7848 9.47605C20.66 9.08106 20.8791 8.65975 21.2741 8.53502C24.4865 7.52059 32.5597 5.77958 39.1382 7.01305C39.5453 7.08938 39.8134 7.4813 39.7371 7.88842C39.6608 8.29554 39.2689 8.56369 38.8617 8.48736Z" fill="#222222"/>
<path fill-rule="evenodd" clip-rule="evenodd" d="M50.2158 0.526494C50.3394 0.921853 50.119 1.34251 49.7237 1.46606C48.4415 1.86675 46.4281 2.69147 44.6007 3.84665C42.7454 5.01952 41.2263 6.44276 40.7115 7.98737C40.5805 8.38033 40.1557 8.5927 39.7628 8.46171C39.3698 8.33073 39.1575 7.90599 39.2884 7.51303C39.9736 5.45764 41.8712 3.79755 43.7992 2.57875C45.7552 1.34226 47.8918 0.466986 49.2763 0.0343404C49.6716 -0.0892091 50.0923 0.131136 50.2158 0.526494Z" fill="#222222"/>
<path fill-rule="evenodd" clip-rule="evenodd" d="M28.2647 0.603058C28.3459 0.196888 28.7411 -0.0665248 29.1472 0.0147091C30.466 0.278466 32.5185 0.929046 34.4593 2.03619C36.3903 3.1378 38.3066 4.74675 39.1965 6.9716C39.3503 7.35619 39.1633 7.79267 38.7787 7.9465C38.3941 8.10034 37.9576 7.91328 37.8038 7.52869C37.0937 5.75353 35.51 4.36249 33.716 3.3391C31.9318 2.32124 30.0343 1.72182 28.8531 1.48558C28.4469 1.40435 28.1835 1.00923 28.2647 0.603058Z" fill="#222222"/>
<path d="M50 34.2502C50 35.3548 49.3284 36.2502 48.5 36.2502C47.6716 36.2502 47 35.3548 47 34.2502C47 33.1457 47.6716 32.2502 48.5 32.2502C49.3284 32.2502 50 33.1457 50 34.2502Z" fill="#222222"/>
<path fill-rule="evenodd" clip-rule="evenodd" d="M40.2027 34.9566C39.833 35.0266 39.4683 35.2771 39.2476 35.4977C39.111 35.6344 38.8893 35.6344 38.7527 35.4977C38.616 35.361 38.616 35.1394 38.7527 35.0027C39.032 34.7234 39.5172 34.3739 40.0726 34.2688C40.357 34.215 40.6681 34.2242 40.9749 34.3498C41.2827 34.4757 41.5593 34.708 41.7914 35.0561C41.8986 35.2169 41.8551 35.4342 41.6943 35.5415C41.5335 35.6487 41.3162 35.6052 41.2089 35.4444C41.041 35.1925 40.8676 35.0622 40.7097 34.9976C40.5509 34.9326 40.3808 34.9229 40.2027 34.9566Z" fill="#222222"/>
<path fill-rule="evenodd" clip-rule="evenodd" d="M38.6132 37.587C39.2592 37.2149 40.0046 37.1002 40.5001 37.1002C40.8591 37.1002 41.1501 37.3912 41.1501 37.7502C41.1501 38.1092 40.8591 38.4002 40.5001 38.4002C40.1623 38.4002 39.6577 38.4856 39.262 38.7135C38.8987 38.9228 38.6501 39.2293 38.6501 39.7502C38.6501 39.7648 38.6537 39.822 38.7605 39.9203C38.8703 40.0213 39.0473 40.1225 39.2681 40.1961C39.4868 40.269 39.7073 40.301 39.8788 40.2958C39.8897 40.2955 39.9 40.295 39.9098 40.2945C40.0317 40.2325 40.1603 40.1783 40.2945 40.1336C40.5805 40.0382 40.8945 40.1521 41.053 40.4085C41.2115 40.6649 41.1729 40.9967 40.9597 41.2098C40.7847 41.3848 40.5678 41.4833 40.355 41.5371C40.2477 41.6078 40.1561 41.6885 40.083 41.772C39.9413 41.934 39.9048 42.0626 39.9005 42.1152C39.9056 42.118 39.9121 42.1213 39.9203 42.125C40.0236 42.1709 40.3044 42.2265 40.8726 42.1128C41.2246 42.0424 41.5671 42.2707 41.6375 42.6227C41.7079 42.9748 41.4796 43.3172 41.1276 43.3876C40.4458 43.5239 39.8516 43.5171 39.3924 43.3129C38.879 43.0848 38.6001 42.635 38.6001 42.1252C38.6001 41.8711 38.6682 41.6258 38.778 41.4019C38.4613 41.2873 38.1396 41.1155 37.8803 40.877C37.5965 40.6159 37.3501 40.2356 37.3501 39.7502C37.3501 38.6711 37.9348 37.9777 38.6132 37.587ZM39.8848 42.1046C39.8849 42.1046 39.8853 42.1049 39.886 42.1057C39.8852 42.105 39.8848 42.1046 39.8848 42.1046Z" fill="#222222"/>
<path d="M32 33.7502C32 34.8548 31.3284 35.7502 30.5 35.7502C29.6716 35.7502 29 34.8548 29 33.7502C29 32.6457 29.6716 31.7502 30.5 31.7502C31.3284 31.7502 32 32.6457 32 33.7502Z" fill="#222222"/>
<path d="M15.9832 18.0283C16.7296 17.2458 18.3189 15.9775 19.5437 14.831C19.5745 14.8021 19.5748 14.754 19.5445 14.7196L16.3132 11.0432C16.2758 11.0006 16.2096 10.9977 16.1771 11.0384C14.8316 12.7208 13.5159 15.7821 13.2082 16.4383C12.8597 17.1815 12.6196 17.4537 12.6236 17.7321C12.4511 27.9732 13.3243 31.6979 13.4789 32.8812C13.6723 34.3603 14.3997 35.0985 15.1512 34.9179C15.9026 34.7374 15.493 32.8744 15.3264 31.0075C15.1928 29.5103 14.4696 22.8874 14.9359 20.2524C15.1427 19.5519 15.853 18.1648 15.9832 18.0283Z" fill="#222222"/>
<path d="M65.0292 18.2697C64.2957 17.4327 62.733 16.056 61.5292 14.8228C61.4988 14.7917 61.4987 14.7426 61.5286 14.7091L64.7219 11.1313C64.759 11.0899 64.8241 11.0904 64.8561 11.1336C66.1775 12.9196 67.4661 16.1097 67.7675 16.7949C68.109 17.5709 68.345 17.8611 68.3403 18.1447C68.4839 28.5941 67.614 32.3453 67.4586 33.5435C67.2643 35.0412 66.5456 35.7554 65.8057 35.5318C65.0657 35.3082 65.4741 33.4305 65.643 31.536C65.7785 30.0168 66.5081 23.3031 66.0554 20.5923C65.8535 19.8672 65.1571 18.4157 65.0292 18.2697Z" fill="#222222"/>
<path d="M40.7019 5.82599C41.6472 5.78073 43.0236 5.52291 44.8321 5.05254C46.8891 4.51733 49.6145 4.38796 52.7954 4.40106C56.5679 4.4166 59.5661 4.58919 61.8048 4.92383L61.8219 4.92685C63.8484 5.23703 65.2033 6.29261 65.2063 8.14979C65.2081 10.006 65.3395 10.1756 64.7909 10.7102C64.2435 11.2437 64.2058 11.8885 64.0482 12.3264C62.8555 15.6327 59.6391 17.1836 55.611 17.2241L50.8398 17.1671C47.5452 17.0876 44.2734 15.4883 42.8163 12.3756C42.2963 11.2625 42.1064 10.3375 41.6706 9.82452C41.3809 9.48414 41.0484 9.29696 40.678 9.26495C40.3059 9.2939 39.972 9.47834 39.6776 9.8173C39.2347 10.3257 39.0319 11.25 38.4965 12.3568C36.996 15.4574 33.7021 17.0306 30.4066 17.082L25.6349 17.1016C21.6076 17.0261 18.413 15.4497 17.2665 12.1337C17.1149 11.6946 17.0863 11.0496 16.5463 10.5115C16.0064 9.97348 16.1389 9.80394 16.1666 7.94787C16.1955 6.08983 17.565 5.04645 19.5957 4.75298L19.6129 4.75011C21.8561 4.4349 24.8565 4.28602 28.629 4.30155C31.81 4.31465 34.5334 4.46646 36.5828 5.01858C38.3847 5.50381 39.7573 5.77294 40.7019 5.82599Z" fill="#FFDB99"/>
<path d="M52.7896 5.38361C56.5621 5.39914 59.5603 5.57174 61.7989 5.90638L61.8161 5.9094C63.8426 6.21957 65.2043 6.29203 65.2073 8.14922C65.2091 10.0054 65.3336 11.1582 64.785 11.6927C64.2376 12.2263 64.2 12.8711 64.0423 13.3089C62.8497 16.6152 59.6333 18.1662 55.6051 18.2066L50.834 18.1496C47.5393 18.0702 44.2676 16.4709 42.8104 13.3581C42.2905 12.245 42.1005 11.3201 41.6648 10.8071C41.375 10.4667 41.0425 10.2795 40.6721 10.2475C40.3001 10.2764 39.9662 10.4609 39.6717 10.7998C39.2288 11.3083 39.026 12.2326 38.4906 13.3394C36.9902 16.4399 33.6963 18.0132 30.4007 18.0645L25.629 18.0842C21.6017 18.0086 18.4071 16.4322 17.2606 13.1163C17.109 12.6772 17.0804 12.0321 16.5405 11.4941C16.0006 10.956 16.1399 9.80336 16.1676 7.94729C16.1965 6.08925 17.5591 6.02899 19.5898 5.73553L19.607 5.73265C21.8502 5.41745 24.8507 5.26856 28.6231 5.2841C31.8041 5.2972 34.5276 5.449 36.5769 6.00112C38.3788 6.48635 39.7515 6.75549 40.6961 6.80853L40.922 6.79472C41.8552 6.72187 43.1579 6.46965 44.8263 6.03411C46.8832 5.49988 49.6086 5.37051 52.7896 5.38361Z" fill="#FFB21C"/>
<path d="M65.207 8.38439L65.2074 8.14844C65.2092 10.0066 65.3337 11.1594 64.7851 11.6929C64.2377 12.2265 64.2001 12.8713 64.0424 13.3091C62.9261 16.4024 60.0373 17.9596 56.3712 18.1805L51.8121 18.1607L50.834 18.1498C47.5394 18.0704 44.2676 16.4711 42.8105 13.3583C42.2905 12.2452 42.1006 11.3203 41.6648 10.8073C41.4104 10.5093 41.1257 10.3292 40.8095 10.267L40.6722 10.2477L40.5346 10.2668C40.2176 10.3245 39.9304 10.5032 39.6718 10.8C39.2289 11.3085 39.0261 12.2328 38.4907 13.3396C36.9902 16.4402 33.6963 18.0134 30.4008 18.0647L29.4214 18.0685L24.8635 18.0508C21.2007 17.7997 18.3338 16.2188 17.2607 13.1165C17.1091 12.6774 17.0805 12.0323 16.5406 11.4943C16.0238 10.9789 16.1282 9.90282 16.1635 8.18442L65.207 8.38439Z" fill="#FFA500"/>
<path d="M38.4905 13.3395C36.9901 16.4401 33.6962 18.0133 30.4007 18.0647L29.4201 18.0685L24.8634 18.0507C21.2005 17.7997 18.3336 16.2188 17.2605 13.1164C17.1643 12.8408 17.1177 12.4807 16.9607 12.1193L38.9734 12.2079C38.8384 12.5525 38.686 12.9343 38.4905 13.3395ZM64.0422 13.3091C62.9259 16.4024 60.0384 17.9596 56.3711 18.1805L51.8119 18.1607L50.8339 18.1498C47.5393 18.0704 44.2675 16.4711 42.8103 13.3583C42.6388 12.9838 42.483 12.6047 42.3433 12.2218L64.3547 12.3134C64.1927 12.6736 64.1411 13.0322 64.0422 13.3081L64.0422 13.3091Z" fill="#FF9700"/>
<path d="M30.4 18.0667L29.4194 18.0695L24.8504 18.0507L24.5315 18.0248C21.8873 17.7819 19.6849 16.8241 18.3164 15.0753L37.2696 15.1534C35.5517 17.0556 32.9763 18.0261 30.4012 18.0667L30.4 18.0667ZM56.3827 18.1805L51.8113 18.1617L50.8332 18.1508C48.2576 18.0881 45.6959 17.0973 44.0046 15.1801L62.9578 15.2582C61.5093 17.0661 59.1722 18.0101 56.3839 18.1805L56.3827 18.1805Z" fill="#FF8200"/>
<path d="M20.8131 6.52975C22.7473 6.34108 25.1595 6.2527 28.0496 6.2646C31.082 6.27708 33.5865 6.50369 35.5618 6.94441C36.0423 7.05166 36.4906 7.23604 36.8793 7.48635C37.2681 7.73666 37.5893 8.04767 37.8234 8.40051C38.0575 8.75335 38.1996 9.14065 38.2411 9.5389C38.2826 9.93715 38.2227 10.338 38.0649 10.7172L37.0938 13.0521C36.6028 14.232 35.659 15.2575 34.3972 15.9823C33.1354 16.707 31.6201 17.0939 30.0679 17.0876L25.4916 17.0687C23.7361 17.0612 22.0393 16.5629 20.694 15.6599C19.3488 14.7569 18.4395 13.5058 18.1232 12.1226L17.6349 9.99013C17.5444 9.59442 17.556 9.18803 17.6688 8.79596C17.7817 8.40389 17.9935 8.03443 18.2912 7.7103C18.5889 7.38617 18.9662 7.11423 19.3999 6.91121C19.8336 6.70818 20.3145 6.57837 20.8131 6.52975Z" fill="#FF6A78"/>
<path d="M60.616 6.69406C58.6845 6.48948 56.2737 6.38124 53.3848 6.36934C50.3941 6.35703 47.9418 6.56814 46.0291 7.00366C45.5537 7.11169 45.1102 7.29528 44.7251 7.54348C44.34 7.79169 44.0212 8.09943 43.7877 8.44837C43.5541 8.79732 43.4107 9.18032 43.3658 9.57456C43.3209 9.9688 43.3755 10.3662 43.5265 10.7431L44.4553 13.0642C44.9287 14.2468 45.8561 15.2793 47.1054 16.0146C48.3546 16.7499 49.8618 17.1505 51.4123 17.1592L55.921 17.1846C57.6393 17.1945 59.308 16.7227 60.6383 15.8509C61.9685 14.9791 62.8765 13.7622 63.2049 12.4109L63.747 10.1804C63.843 9.78548 63.8371 9.37902 63.7297 8.98604C63.6223 8.59307 63.4156 8.22188 63.1225 7.89532C62.8293 7.56876 62.4558 7.29373 62.025 7.08714C61.5942 6.88056 61.1151 6.74679 60.6172 6.69407L60.616 6.69406Z" fill="#6DBBEE"/>
<path d="M37.8575 11.2204L37.0961 13.0518C36.9338 13.4444 36.7213 13.8171 36.4673 14.1641L19.0396 14.0923C18.5931 13.4837 18.2837 12.8168 18.1255 12.1223L17.8992 11.1382L37.8575 11.2204Z" fill="#F45D6B"/>
<path d="M63.4689 11.3253L63.206 12.4096C63.0471 13.0651 62.7501 13.6942 62.3278 14.2701L45.0854 14.1991C44.8267 13.8388 44.6163 13.4576 44.4576 13.0619L43.729 11.244L63.4689 11.3253Z" fill="#4BB0F2"/>
<path d="M28.0491 6.26557C31.0816 6.27805 33.586 6.50466 35.5613 6.94538C36.0418 7.05263 36.4901 7.23701 36.8789 7.48732C37.2676 7.73763 37.5888 8.04864 37.8229 8.40148C38.057 8.75432 38.1991 9.14162 38.2406 9.53987C38.2821 9.93812 38.2222 10.339 38.0644 10.7182L37.8547 11.2217L17.8976 11.1395L17.6356 9.9911C17.5452 9.5954 17.5567 9.18901 17.6696 8.79694C17.7824 8.40487 17.9942 8.0354 18.2919 7.71127C18.5896 7.38715 18.9669 7.11521 19.4006 6.91218C19.8343 6.70916 20.3152 6.57934 20.8138 6.53072C22.7468 6.34205 25.1602 6.25367 28.0491 6.26557Z" fill="#F14E5D"/>
<path d="M53.3846 6.36934C56.2747 6.38124 58.6855 6.48948 60.617 6.69407C61.1149 6.74679 61.5939 6.88056 62.0248 7.08714C62.4556 7.29373 62.8291 7.56876 63.1223 7.89532C63.4154 8.22188 63.6221 8.59307 63.7295 8.98604C63.8369 9.37902 63.8427 9.78548 63.7468 10.1804L63.4663 11.3266L43.7277 11.2453L43.5262 10.7431C43.52 10.7267 43.514 10.7103 43.5082 10.6939L43.4901 10.6466C43.3582 10.274 43.3193 9.88414 43.3755 9.49938C43.4318 9.11463 43.5821 8.74248 43.8178 8.4042C44.0536 8.06591 44.3702 7.76811 44.7496 7.52781C45.1289 7.2875 45.5637 7.1094 46.0289 7.00366C47.9415 6.56912 50.3939 6.35703 53.3846 6.36934Z" fill="#44A9EB"/>
<path d="M20.887 7.01769C20.4717 7.05842 20.0712 7.16674 19.71 7.336C19.3489 7.50527 19.0347 7.7319 18.7868 8.00197C18.539 8.27203 18.3627 8.57983 18.2687 8.90644C18.1748 9.23305 18.1652 9.57156 18.2406 9.90119L18.7276 12.0337C19.0182 13.3043 19.8534 14.4536 21.0892 15.2831C22.3249 16.1126 23.8836 16.5703 25.4962 16.5772L30.0725 16.596C31.4955 16.6018 32.8846 16.2471 34.0413 15.5827C35.198 14.9182 36.0632 13.978 36.5132 12.8964L37.4842 10.5625C37.6159 10.2464 37.666 9.91232 37.6315 9.58038C37.5971 9.24843 37.4787 8.9256 37.2837 8.63148C37.0887 8.33736 36.821 8.07809 36.497 7.86942C36.173 7.66075 35.7994 7.50704 35.3989 7.41762C33.4813 6.9909 31.0295 6.76844 28.0474 6.75616C25.1818 6.74436 22.7942 6.83186 20.8882 7.0177L20.887 7.01769ZM20.8131 6.52975C22.7473 6.34108 25.1595 6.2527 28.0496 6.2646C31.082 6.27708 33.5865 6.50369 35.5618 6.94441C36.0423 7.05166 36.4906 7.23604 36.8793 7.48635C37.2681 7.73666 37.5893 8.04767 37.8234 8.40051C38.0575 8.75335 38.1996 9.14065 38.2411 9.5389C38.2826 9.93715 38.2227 10.338 38.0649 10.7172L37.0938 13.0521C36.6028 14.232 35.659 15.2575 34.3972 15.9823C33.1354 16.707 31.6201 17.0939 30.0679 17.0876L25.4916 17.0687C23.7361 17.0612 22.0393 16.5629 20.694 15.6599C19.3488 14.7569 18.4395 13.5058 18.1232 12.1226L17.6349 9.99013C17.5444 9.59442 17.556 9.18803 17.6688 8.79596C17.7817 8.40389 17.9935 8.03443 18.2912 7.7103C18.5889 7.38617 18.9662 7.11423 19.3999 6.91121C19.8336 6.70818 20.3145 6.57837 20.8131 6.52975Z" fill="#E93142"/>
<path d="M60.7524 7.18155C61.1673 7.22544 61.5665 7.33688 61.9256 7.50901C62.2846 7.68114 62.5959 7.91031 62.8403 8.18243C63.0846 8.45455 63.2568 8.76386 63.3464 9.09134C63.4359 9.41883 63.4408 9.75755 63.3609 10.0867L62.8163 12.326C62.516 13.563 61.686 14.6772 60.4695 15.4764C59.253 16.2756 57.7266 16.7094 56.1538 16.7031L51.4363 16.6837C50.0131 16.6779 48.6287 16.3119 47.4811 15.638C46.3335 14.9641 45.4813 14.0167 45.0464 12.9312L44.1079 10.5894C43.9806 10.2723 43.9352 9.93771 43.9744 9.60602C44.0136 9.27433 44.1365 8.95245 44.3358 8.65994C44.535 8.36743 44.8064 8.11039 45.1334 7.90445C45.4604 7.69851 45.8363 7.54796 46.2381 7.46195C48.1604 7.05105 50.6151 6.84879 53.5972 6.86107C56.464 6.87288 58.8491 6.98003 60.7524 7.18155ZM60.8331 6.69424C58.9016 6.48965 56.4908 6.38141 53.6007 6.36951C50.5694 6.35703 48.0607 6.56299 46.0794 6.98742C45.5974 7.09071 45.1466 7.27139 44.7544 7.51848C44.3621 7.76557 44.0366 8.07392 43.7976 8.42481C43.5586 8.7757 43.4111 9.16181 43.3641 9.5597C43.317 9.95759 43.3714 10.3589 43.5239 10.7394L44.4624 13.0822C44.9369 14.2662 45.8666 15.2996 47.1185 16.0347C48.3704 16.7697 49.8804 17.169 51.4329 17.1752L56.1503 17.1947C57.8659 17.2016 59.5308 16.7284 60.8578 15.8568C62.1847 14.9853 63.0903 13.77 63.4183 12.4209L63.9628 10.1806C64.0588 9.78565 64.0529 9.37919 63.9455 8.98621C63.8381 8.59324 63.6315 8.22205 63.3383 7.89549C63.0452 7.56893 62.6717 7.2939 62.2408 7.08731C61.81 6.88073 61.3309 6.74696 60.8331 6.69424Z" fill="#0089E5"/>
<path d="M33.2492 10.5121C33.2874 10.499 33.3285 10.4922 33.37 10.4922C33.4116 10.4922 33.4527 10.4989 33.4909 10.512C33.529 10.5251 33.5635 10.5442 33.5922 10.5683C33.6208 10.5924 33.6431 10.6209 33.6576 10.6521C33.6721 10.6832 33.6786 10.7164 33.6766 10.7497C33.6746 10.7829 33.6642 10.8155 33.646 10.8454C33.6278 10.8753 33.6022 10.902 33.5708 10.9238C33.5394 10.9456 33.5028 10.962 33.4632 10.9721L25.8666 13.2454C25.8288 13.2566 25.7887 13.2618 25.7484 13.2607C25.7081 13.2595 25.6685 13.252 25.6318 13.2385C25.5951 13.2251 25.5622 13.206 25.5347 13.1824C25.5073 13.1587 25.4859 13.131 25.4719 13.1007C25.4578 13.0704 25.4513 13.0382 25.4528 13.0059C25.4543 12.9737 25.4637 12.9419 25.4805 12.9126C25.4973 12.8832 25.5211 12.8567 25.5506 12.8348C25.5802 12.8128 25.6148 12.7956 25.6526 12.7844L33.2492 10.5121ZM21.1118 12.2485C21.0349 12.2697 20.9506 12.2656 20.8775 12.237C20.8043 12.2084 20.7484 12.1577 20.722 12.096C20.6956 12.0344 20.7008 11.9668 20.7366 11.9082C20.7723 11.8497 20.8356 11.8049 20.9126 11.7837L33.2715 8.37583C33.3096 8.36533 33.3499 8.36096 33.3901 8.36294C33.4303 8.36493 33.4696 8.37324 33.5058 8.3874C33.542 8.40156 33.5744 8.4213 33.6011 8.44548C33.6277 8.46967 33.6482 8.49782 33.6613 8.52835C33.6744 8.55887 33.6798 8.59116 33.6773 8.62338C33.6748 8.65559 33.6644 8.6871 33.6467 8.71611C33.629 8.74511 33.6044 8.77104 33.5742 8.79242C33.544 8.8138 33.5088 8.8302 33.4707 8.84069L21.1118 12.2485Z" fill="#FFAEB6"/>
<path d="M59.0195 10.6165C59.0577 10.6034 59.0988 10.5966 59.1403 10.5966C59.1818 10.5965 59.2229 10.6033 59.2611 10.6164C59.2993 10.6295 59.3338 10.6486 59.3624 10.6727C59.3911 10.6968 59.4134 10.7253 59.4279 10.7564C59.4424 10.7876 59.4488 10.8208 59.4468 10.8541C59.4448 10.8873 59.4344 10.9199 59.4163 10.9498C59.3981 10.9797 59.3725 11.0064 59.3411 11.0282C59.3097 11.0499 59.2731 11.0664 59.2335 11.0765L51.6369 13.3497C51.5606 13.3725 51.4761 13.37 51.4021 13.3429C51.328 13.3158 51.2705 13.2662 51.2421 13.2051C51.2137 13.1439 51.2168 13.0763 51.2507 13.0169C51.2846 12.9576 51.3466 12.9115 51.4229 12.8887L59.0195 10.6165ZM46.8821 12.3529C46.8051 12.3741 46.7208 12.3699 46.6477 12.3413C46.5746 12.3127 46.5187 12.262 46.4923 12.2004C46.4658 12.1387 46.4711 12.0712 46.5068 12.0126C46.5426 11.954 46.6059 11.9092 46.6828 11.888L59.0417 8.4802C59.0798 8.4697 59.1202 8.46533 59.1604 8.46731C59.2006 8.4693 59.2399 8.47761 59.2761 8.49177C59.3123 8.50593 59.3447 8.52567 59.3713 8.54985C59.398 8.57404 59.4185 8.60219 59.4316 8.63272C59.4446 8.66324 59.4501 8.69553 59.4476 8.72775C59.4451 8.75996 59.4347 8.79147 59.417 8.82048C59.3993 8.84948 59.3747 8.87541 59.3445 8.89679C59.3143 8.91817 59.2791 8.93457 59.241 8.94506L46.8821 12.3529Z" fill="#AEDBFF"/>
</svg>
