<svg width="82" height="57" viewBox="0 0 82 57" fill="none" xmlns="http://www.w3.org/2000/svg">
<path fill-rule="evenodd" clip-rule="evenodd" d="M35.2945 27.3668C33.071 26.6257 30.6229 27.0611 29.7056 27.3668C29.365 27.4804 28.9969 27.2963 28.8834 26.9558C28.7699 26.6152 28.9539 26.2471 29.2945 26.1336C30.3771 25.7727 33.129 25.2747 35.7056 26.1336C36.0461 26.2471 36.2302 26.6152 36.1167 26.9558C36.0032 27.2963 35.635 27.4804 35.2945 27.3668Z" fill="#222222"/>
<path fill-rule="evenodd" clip-rule="evenodd" d="M51.1656 27.8076C49.3875 26.7407 47.4446 27.0724 46.7414 27.3537C46.4081 27.487 46.0298 27.3249 45.8965 26.9916C45.7632 26.6583 45.9253 26.28 46.2586 26.1467C47.2221 25.7613 49.6125 25.3597 51.8344 26.6928C52.1423 26.8775 52.2421 27.2768 52.0574 27.5846C51.8727 27.8925 51.4734 27.9923 51.1656 27.8076Z" fill="#222222"/>
<path fill-rule="evenodd" clip-rule="evenodd" d="M31.1777 32.5752C30.14 32.5595 29.2034 32.7253 28.6786 32.8753C28.3334 32.9739 27.9737 32.774 27.875 32.4288C27.7764 32.0837 27.9763 31.7239 28.3215 31.6253C28.9633 31.4419 30.0267 31.2577 31.1973 31.2753C32.3637 31.293 33.6995 31.5119 34.8344 32.1929C35.1423 32.3776 35.2421 32.7769 35.0574 33.0847C34.8727 33.3925 34.4734 33.4923 34.1656 33.3076C33.3005 32.7886 32.2197 32.5909 31.1777 32.5752Z" fill="#222222"/>
<path fill-rule="evenodd" clip-rule="evenodd" d="M48.7633 33.0752C47.918 33.0599 47.1413 33.2217 46.7056 33.3669C46.365 33.4804 45.9969 33.2964 45.8834 32.9558C45.7699 32.6153 45.9539 32.2472 46.2945 32.1336C46.8587 31.9456 47.7821 31.7573 48.7867 31.7754C49.7885 31.7934 50.941 32.0185 51.89 32.7303C52.1772 32.9457 52.2354 33.3531 52.02 33.6403C51.8046 33.9275 51.3972 33.9857 51.11 33.7703C50.4591 33.2821 49.6116 33.0905 48.7633 33.0752Z" fill="#222222"/>
<path fill-rule="evenodd" clip-rule="evenodd" d="M40.5 7.75024C26.8838 7.75024 16 18.1304 16 30.7502C16 43.3701 26.8838 53.7502 40.5 53.7502C54.1162 53.7502 65 43.3701 65 30.7502C65 18.1304 54.1162 7.75024 40.5 7.75024ZM13 30.7502C13 16.3081 25.3974 4.75024 40.5 4.75024C55.6026 4.75024 68 16.3081 68 30.7502C68 45.1924 55.6026 56.7502 40.5 56.7502C25.3974 56.7502 13 45.1924 13 30.7502Z" fill="#222222"/>
<path fill-rule="evenodd" clip-rule="evenodd" d="M68.4574 35.9999C68.1015 36.607 67.6553 37.3026 67.0786 37.844L65.0255 35.6565C65.2689 35.4281 65.536 35.0513 65.8693 34.4828C65.974 34.3041 66.1054 34.0692 66.2472 33.8155C66.467 33.4223 66.712 32.984 66.9223 32.6403C67.6416 31.4641 68.8721 29.7502 71.052 29.7502C76.68 29.7502 81.552 33.8423 81.552 39.2502C81.552 44.6582 76.68 48.7502 71.052 48.7502C67.4352 48.7502 64.1915 47.0909 62.2893 44.4892L64.7111 42.7186C66.0183 44.5065 68.3403 45.7502 71.052 45.7502C75.3651 45.7502 78.552 42.6789 78.552 39.2502C78.552 35.8216 75.3651 32.7502 71.052 32.7502C70.6581 32.7502 70.2088 33.0165 69.4816 34.2055C69.2728 34.547 69.1106 34.8396 68.936 35.1548C68.795 35.4093 68.6458 35.6784 68.4574 35.9999Z" fill="#222222"/>
<path fill-rule="evenodd" clip-rule="evenodd" d="M13.0946 35.9999C13.4505 36.607 13.8967 37.3026 14.4734 37.844L16.5265 35.6565C16.2831 35.4281 16.016 35.0513 15.6827 34.4828C15.578 34.3041 15.4466 34.0692 15.3048 33.8155C15.085 33.4223 14.84 32.984 14.6297 32.6403C13.9104 31.4641 12.6799 29.7502 10.5 29.7502C4.87198 29.7502 -5.72205e-06 33.8423 -5.72205e-06 39.2502C-5.72205e-06 44.6582 4.87198 48.7502 10.5 48.7502C14.1168 48.7502 17.3605 47.0909 19.2627 44.4892L16.8409 42.7186C15.5337 44.5065 13.2117 45.7502 10.5 45.7502C6.18689 45.7502 2.99999 42.6789 2.99999 39.2502C2.99999 35.8216 6.18689 32.7502 10.5 32.7502C10.8939 32.7502 11.3432 33.0165 12.0704 34.2055C12.2792 34.547 12.4414 34.8396 12.616 35.1548C12.757 35.4093 12.9062 35.6784 13.0946 35.9999Z" fill="#222222"/>
<path fill-rule="evenodd" clip-rule="evenodd" d="M71.6607 36.3587C73.2715 36.8563 74.6616 37.5888 75.4678 38.1262C75.8124 38.356 75.9056 38.8217 75.6758 39.1663C75.446 39.511 74.9804 39.6041 74.6358 39.3743C73.942 38.9118 72.6821 38.2442 71.2179 37.7919C70.5893 37.5977 69.9375 37.4476 69.2867 37.3669C70.2379 37.9671 71.247 38.9636 72.2226 40.9149C72.4078 41.2853 72.2577 41.7358 71.8872 41.9211C71.5167 42.1063 71.0662 41.9562 70.881 41.5857C69.9383 39.7004 69.035 38.9438 68.3047 38.5265C67.9959 38.35 67.7144 38.2305 67.4165 38.1041C67.3373 38.0705 67.2569 38.0364 67.1746 38.0006C66.8069 37.8407 66.3793 37.6384 66.0214 37.2806C65.8304 37.0895 65.7569 36.8105 65.829 36.5501C65.9011 36.2897 66.1077 36.0882 66.3699 36.0227C68.156 35.5761 70.057 35.8633 71.6607 36.3587Z" fill="#222222"/>
<path fill-rule="evenodd" clip-rule="evenodd" d="M9.8911 36.3587C8.2803 36.8563 6.89018 37.5888 6.08396 38.1262C5.73931 38.356 5.64618 38.8217 5.87594 39.1663C6.10571 39.511 6.57136 39.6041 6.91601 39.3743C7.60978 38.9118 8.86966 38.2442 10.3339 37.7919C10.9624 37.5977 11.6143 37.4476 12.2651 37.3669C11.3138 37.9671 10.3048 38.9636 9.32916 40.9149C9.14392 41.2853 9.29409 41.7358 9.66457 41.9211C10.0351 42.1063 10.4856 41.9562 10.6708 41.5857C11.6134 39.7004 12.5168 38.9438 13.2471 38.5265C13.5559 38.35 13.8374 38.2305 14.1353 38.1041C14.2145 38.0705 14.2948 38.0364 14.3771 38.0006C14.7449 37.8407 15.1725 37.6384 15.5303 37.2806C15.7214 37.0895 15.7949 36.8105 15.7228 36.5501C15.6506 36.2897 15.444 36.0882 15.1819 36.0227C13.3958 35.5761 11.4947 35.8633 9.8911 36.3587Z" fill="#222222"/>
<path fill-rule="evenodd" clip-rule="evenodd" d="M38.4216 6.5043C38.8335 6.46094 39.2026 6.75973 39.2459 7.17167C39.4195 8.82028 39.4193 11.4516 38.8581 14.0462C38.301 16.6218 37.1591 19.3043 34.9302 20.8646C34.5908 21.1021 34.1232 21.0196 33.8856 20.6803C33.6481 20.3409 33.7306 19.8733 34.07 19.6358C35.841 18.396 36.8658 16.1619 37.392 13.7291C37.9141 11.3154 37.914 8.84675 37.7542 7.3287C37.7108 6.91676 38.0096 6.54767 38.4216 6.5043Z" fill="#222222"/>
<path fill-rule="evenodd" clip-rule="evenodd" d="M38.0841 6.62616C38.4287 6.3964 38.8944 6.48953 39.1241 6.83418C40.5314 8.9451 42.902 14.5735 41.2212 20.4562C41.1074 20.8545 40.6923 21.0851 40.294 20.9713C39.8958 20.8576 39.6651 20.4424 39.7789 20.0442C41.2982 14.7269 39.1354 9.5553 37.876 7.66623C37.6463 7.32158 37.7394 6.85593 38.0841 6.62616Z" fill="#222222"/>
<path fill-rule="evenodd" clip-rule="evenodd" d="M37.8192 6.93589C37.9928 6.5598 38.4384 6.39563 38.8145 6.56921C41.2116 7.67557 45.7502 11.7208 45.7502 19.2502C45.7502 19.6644 45.4144 20.0002 45.0002 20.0002C44.586 20.0002 44.2502 19.6644 44.2502 19.2502C44.2502 12.3796 40.1221 8.82479 38.1859 7.93115C37.8098 7.75757 37.6456 7.31198 37.8192 6.93589Z" fill="#222222"/>
<path fill-rule="evenodd" clip-rule="evenodd" d="M37.763 7.11204C37.8393 6.70492 38.2312 6.43677 38.6384 6.5131C41.5523 7.05947 47.7299 10.2394 50.2185 18.5347C50.3375 18.9315 50.1124 19.3496 49.7156 19.4686C49.3189 19.5876 48.9008 19.3625 48.7818 18.9658C46.4704 11.2611 40.7813 8.44104 38.3619 7.98741C37.9548 7.91108 37.6866 7.51916 37.763 7.11204Z" fill="#222222"/>
<path fill-rule="evenodd" clip-rule="evenodd" d="M58.2341 8.67067C58.5733 8.79552 58.9138 8.92081 59.2565 9.04543C59.6458 9.18699 59.8466 9.61731 59.705 10.0066C59.5635 10.3959 59.1331 10.5967 58.7439 10.4551C58.3936 10.3277 58.049 10.201 57.7086 10.0759C55.3468 9.20748 53.1879 8.41369 50.7467 7.98911C47.9785 7.50767 44.8308 7.50168 40.672 8.48025C40.2687 8.57512 39.865 8.32517 39.7701 7.92197C39.6752 7.51876 39.9252 7.11499 40.3284 7.02012C44.6696 5.99865 48.0219 5.9927 51.0037 6.5113C53.588 6.96077 55.8817 7.80492 58.2341 8.67067Z" fill="#222222"/>
<path fill-rule="evenodd" clip-rule="evenodd" d="M56.7414 4.8693C57.5931 4.92479 58.3665 4.97518 59.029 5.00066C59.4429 5.01658 59.7655 5.36502 59.7496 5.77893C59.7337 6.19284 59.3852 6.51547 58.9713 6.49955C58.2395 6.4714 57.4266 6.41821 56.5509 6.36091C54.7434 6.24264 52.6683 6.10685 50.4857 6.13756C47.2656 6.18288 43.9842 6.59666 41.3356 7.92099C40.9651 8.10623 40.5146 7.95607 40.3293 7.58558C40.1441 7.2151 40.2943 6.76459 40.6648 6.57935C43.6161 5.10368 47.168 4.6841 50.4646 4.63771C52.7031 4.60621 54.9044 4.74963 56.7414 4.8693Z" fill="#222222"/>
<path fill-rule="evenodd" clip-rule="evenodd" d="M49.4929 2.67041C53.1135 2.14771 56.531 2.24825 58.5931 2.50601C59.0041 2.55738 59.2956 2.93223 59.2442 3.34324C59.1929 3.75426 58.818 4.0458 58.407 3.99442C56.469 3.75218 53.1865 3.65272 49.7072 4.15502C46.2181 4.65872 42.6164 5.75549 39.9634 7.83995C39.6377 8.09586 39.1662 8.03929 38.9103 7.71358C38.6544 7.38788 38.711 6.91639 39.0367 6.66048C41.9837 4.34495 45.8819 3.19171 49.4929 2.67041Z" fill="#222222"/>
<path fill-rule="evenodd" clip-rule="evenodd" d="M21.7509 2.21459C21.7706 1.80084 22.1219 1.48141 22.5357 1.50111C24.3331 1.5867 27.3313 1.94351 30.5419 2.73454C33.7448 3.52365 37.2197 4.7594 39.9269 6.63362C40.2675 6.86939 40.3524 7.3366 40.1167 7.67717C39.8809 8.01773 39.4137 8.10268 39.0731 7.8669C36.5803 6.14112 33.3052 4.9602 30.1831 4.19098C27.0688 3.42368 24.1669 3.08049 22.4643 2.99941C22.0506 2.97971 21.7312 2.62833 21.7509 2.21459Z" fill="#222222"/>
<path fill-rule="evenodd" clip-rule="evenodd" d="M38.9009 6.99357C32.9876 6.20513 23.8903 6.66469 20.065 6.99733C19.6524 7.03321 19.2887 6.72777 19.2529 6.31512C19.217 5.90246 19.5224 5.53885 19.9351 5.50296C23.7764 5.16893 33.0125 4.69517 39.0992 5.50672C39.5097 5.56147 39.7982 5.93869 39.7435 6.34927C39.6887 6.75985 39.3115 7.04831 38.9009 6.99357Z" fill="#222222"/>
<path fill-rule="evenodd" clip-rule="evenodd" d="M38.8617 8.48736C32.6403 7.32083 24.8468 8.97982 21.7258 9.96539C21.3308 10.0901 20.9095 9.87104 20.7848 9.47605C20.66 9.08106 20.8791 8.65975 21.2741 8.53502C24.4865 7.52059 32.5597 5.77958 39.1382 7.01305C39.5453 7.08938 39.8134 7.4813 39.7371 7.88842C39.6608 8.29554 39.2689 8.56369 38.8617 8.48736Z" fill="#222222"/>
<path fill-rule="evenodd" clip-rule="evenodd" d="M50.2158 0.526494C50.3394 0.921853 50.119 1.34251 49.7237 1.46606C48.4415 1.86675 46.4281 2.69147 44.6007 3.84665C42.7454 5.01952 41.2263 6.44276 40.7115 7.98737C40.5805 8.38033 40.1557 8.5927 39.7628 8.46171C39.3698 8.33073 39.1575 7.90599 39.2884 7.51303C39.9736 5.45765 41.8712 3.79755 43.7992 2.57875C45.7552 1.34226 47.8918 0.466986 49.2763 0.0343404C49.6716 -0.0892091 50.0923 0.131136 50.2158 0.526494Z" fill="#222222"/>
<path fill-rule="evenodd" clip-rule="evenodd" d="M28.2647 0.603058C28.3459 0.196888 28.7411 -0.0665248 29.1472 0.0147091C30.466 0.278466 32.5185 0.929046 34.4593 2.03619C36.3903 3.1378 38.3066 4.74675 39.1965 6.9716C39.3503 7.35619 39.1633 7.79267 38.7787 7.9465C38.3941 8.10034 37.9576 7.91328 37.8038 7.52869C37.0937 5.75353 35.51 4.36249 33.716 3.3391C31.9318 2.32124 30.0343 1.72182 28.8531 1.48558C28.4469 1.40435 28.1835 1.00923 28.2647 0.603058Z" fill="#222222"/>
<path d="M50 34.2502C50 35.3548 49.3284 36.2502 48.5 36.2502C47.6716 36.2502 47 35.3548 47 34.2502C47 33.1457 47.6716 32.2502 48.5 32.2502C49.3284 32.2502 50 33.1457 50 34.2502Z" fill="#222222"/>
<path fill-rule="evenodd" clip-rule="evenodd" d="M40.2027 34.9566C39.833 35.0266 39.4683 35.2771 39.2476 35.4977C39.111 35.6344 38.8893 35.6344 38.7527 35.4977C38.616 35.361 38.616 35.1394 38.7527 35.0027C39.032 34.7234 39.5172 34.3739 40.0726 34.2688C40.357 34.215 40.6681 34.2242 40.9749 34.3498C41.2827 34.4757 41.5593 34.708 41.7914 35.0561C41.8986 35.2169 41.8551 35.4342 41.6943 35.5415C41.5335 35.6487 41.3162 35.6052 41.2089 35.4444C41.041 35.1925 40.8676 35.0622 40.7097 34.9976C40.5509 34.9326 40.3808 34.9229 40.2027 34.9566Z" fill="#222222"/>
<path fill-rule="evenodd" clip-rule="evenodd" d="M38.6132 37.587C39.2592 37.2149 40.0046 37.1002 40.5001 37.1002C40.8591 37.1002 41.1501 37.3912 41.1501 37.7502C41.1501 38.1092 40.8591 38.4002 40.5001 38.4002C40.1623 38.4002 39.6577 38.4856 39.262 38.7135C38.8987 38.9228 38.6501 39.2293 38.6501 39.7502C38.6501 39.7648 38.6537 39.822 38.7605 39.9203C38.8703 40.0213 39.0473 40.1225 39.2681 40.1961C39.4868 40.269 39.7073 40.301 39.8788 40.2958C39.8897 40.2955 39.9 40.295 39.9098 40.2945C40.0317 40.2325 40.1603 40.1783 40.2945 40.1336C40.5805 40.0382 40.8945 40.1521 41.053 40.4085C41.2115 40.6649 41.1729 40.9967 40.9597 41.2098C40.7847 41.3848 40.5678 41.4833 40.355 41.5371C40.2477 41.6078 40.1561 41.6885 40.083 41.772C39.9413 41.934 39.9048 42.0626 39.9005 42.1152C39.9056 42.118 39.9121 42.1213 39.9203 42.125C40.0236 42.1709 40.3044 42.2265 40.8726 42.1128C41.2246 42.0424 41.5671 42.2707 41.6375 42.6227C41.7079 42.9748 41.4796 43.3172 41.1276 43.3876C40.4458 43.5239 39.8516 43.5171 39.3924 43.3129C38.879 43.0848 38.6001 42.635 38.6001 42.1252C38.6001 41.8711 38.6682 41.6258 38.778 41.4019C38.4613 41.2873 38.1396 41.1155 37.8803 40.877C37.5965 40.6159 37.3501 40.2356 37.3501 39.7502C37.3501 38.6711 37.9348 37.9777 38.6132 37.587ZM39.8848 42.1046C39.8849 42.1046 39.8853 42.1049 39.886 42.1057C39.8852 42.105 39.8848 42.1046 39.8848 42.1046Z" fill="#222222"/>
<path d="M32 33.7502C32 34.8548 31.3284 35.7502 30.5 35.7502C29.6716 35.7502 29 34.8548 29 33.7502C29 32.6457 29.6716 31.7502 30.5 31.7502C31.3284 31.7502 32 32.6457 32 33.7502Z" fill="#222222"/>
<path d="M36.7508 11.5513C36.7508 14.9283 32.3199 19.4794 26.8562 19.4794C21.3924 19.4794 16.9648 14.9283 16.9648 11.5513C16.9648 8.1743 21.3924 7.25024 26.8562 7.25024C32.3199 7.25024 36.7508 8.1743 36.7508 11.5513Z" fill="#FF6A78"/>
<path fill-rule="evenodd" clip-rule="evenodd" d="M18.3832 10.0261C18.025 10.428 17.8237 10.9147 17.8237 11.5513C17.8237 12.9 18.7409 14.6657 20.4259 16.1342C22.0846 17.5798 24.3629 18.6204 26.856 18.6204C29.3492 18.6204 31.6284 17.5797 33.2881 16.134C34.9739 14.6655 35.8917 12.8998 35.8917 11.5513C35.8917 10.9149 35.6903 10.4282 35.3319 10.0263C34.9572 9.60614 34.3733 9.2388 33.5579 8.9414C31.9142 8.34188 29.5655 8.10925 26.856 8.10925C24.1466 8.10925 21.7987 8.34189 20.1559 8.94136C19.341 9.23872 18.7576 9.606 18.3832 10.0261ZM19.567 7.32744C21.5039 6.62063 24.1017 6.39124 26.856 6.39124C29.6104 6.39124 32.2089 6.62063 34.1466 7.32739C35.122 7.68313 35.9873 8.18 36.6141 8.88285C37.2572 9.60398 37.6097 10.4992 37.6097 11.5513C37.6097 13.5798 36.3121 15.7782 34.4165 17.4295C32.4947 19.1036 29.8266 20.3385 26.856 20.3385C23.8854 20.3385 21.2181 19.1035 19.2971 17.4293C17.4023 15.778 16.1057 13.5796 16.1057 11.5513C16.1057 10.4994 16.4579 9.60423 17.1006 8.88305C17.7271 8.18014 18.592 7.68321 19.567 7.32744Z" fill="#222222"/>
<path d="M63.3536 11.5513C63.3536 14.9283 58.9227 19.4794 53.4589 19.4794C47.9952 19.4794 43.5676 14.9283 43.5676 11.5513C43.5676 8.1743 47.9952 7.25024 53.4589 7.25024C58.9227 7.25024 63.3536 8.1743 63.3536 11.5513Z" fill="#6DBBEE"/>
<path fill-rule="evenodd" clip-rule="evenodd" d="M44.986 10.0261C44.6278 10.428 44.4265 10.9147 44.4265 11.5513C44.4265 12.9 45.3437 14.6657 47.0286 16.1342C48.6874 17.5798 50.9657 18.6204 53.4588 18.6204C55.952 18.6204 58.2312 17.5797 59.8908 16.134C61.5767 14.6655 62.4945 12.8998 62.4945 11.5513C62.4945 10.9149 62.2931 10.4282 61.9347 10.0263C61.56 9.60614 60.9761 9.2388 60.1607 8.9414C58.517 8.34188 56.1682 8.10925 53.4588 8.10925C50.7494 8.10925 48.4015 8.34189 46.7587 8.94136C45.9438 9.23872 45.3604 9.606 44.986 10.0261ZM46.1698 7.32744C48.1067 6.62063 50.7045 6.39124 53.4588 6.39124C56.2131 6.39124 58.8117 6.62063 60.7494 7.32739C61.7247 7.68313 62.5901 8.18 63.2169 8.88285C63.86 9.60398 64.2125 10.4992 64.2125 11.5513C64.2125 13.5798 62.9149 15.7782 61.0193 17.4295C59.0975 19.1036 56.4294 20.3385 53.4588 20.3385C50.4882 20.3385 47.8209 19.1035 45.8999 17.4293C44.0051 15.778 42.7085 13.5796 42.7085 11.5513C42.7085 10.4994 43.0607 9.60423 43.7034 8.88305C44.3299 8.18014 45.1948 7.68321 46.1698 7.32744Z" fill="#222222"/>
<path fill-rule="evenodd" clip-rule="evenodd" d="M43.5879 11.4214H36.6133V9.70337H43.5879V11.4214Z" fill="#222222"/>
<path d="M65.2232 18.3063C64.4605 17.5703 62.8758 16.389 61.6371 15.3143C61.6042 15.2857 61.5989 15.2368 61.6246 15.2009L64.2389 11.5474C64.2712 11.5023 64.3362 11.4975 64.3724 11.5386C65.7732 13.1313 67.2786 16.0551 67.6251 16.6816C68.018 17.392 68.2656 17.6489 68.2889 17.919C69.4395 27.8457 68.996 31.484 68.9681 32.6361C68.9332 34.0763 68.3347 34.8139 67.6251 34.6612C66.9155 34.5085 67.1124 32.6895 67.085 30.874C67.063 29.4181 67.0879 22.9736 66.4031 20.4321C66.1449 19.7589 65.3563 18.4348 65.2232 18.3063Z" fill="#222222"/>
<path d="M15.7766 18.3063C16.5392 17.5703 18.124 16.389 19.3626 15.3143C19.3956 15.2857 19.4009 15.2368 19.3752 15.2009L16.7608 11.5474C16.7286 11.5023 16.6635 11.4975 16.6274 11.5386C15.2266 13.1313 13.7212 16.0551 13.3746 16.6816C12.9817 17.392 12.7341 17.6489 12.7109 17.919C11.5603 27.8457 12.0038 31.484 12.0317 32.6361C12.0665 34.0763 12.6651 34.8139 13.3746 34.6612C14.0842 34.5085 13.8874 32.6895 13.9147 30.874C13.9367 29.4181 13.9119 22.9736 14.5966 20.4321C14.8549 19.7589 15.6434 18.4348 15.7766 18.3063Z" fill="#222222"/>
<path d="M32.8196 12.4519C32.859 12.4388 32.9014 12.432 32.9442 12.432C32.987 12.432 33.0294 12.4387 33.0688 12.4518C33.1082 12.4649 33.1437 12.4841 33.1733 12.5081C33.2028 12.5322 33.2258 12.5607 33.2407 12.5919C33.2557 12.6231 33.2624 12.6563 33.2603 12.6895C33.2582 12.7227 33.2475 12.7553 33.2288 12.7852C33.21 12.8152 33.1837 12.8418 33.1513 12.8636C33.1189 12.8854 33.0811 12.9018 33.0403 12.912L25.2063 15.1852C25.1673 15.1964 25.1259 15.2016 25.0843 15.2005C25.0428 15.1993 25.002 15.1918 24.9641 15.1784C24.9263 15.1649 24.8923 15.1458 24.864 15.1222C24.8357 15.0985 24.8137 15.0708 24.7992 15.0405C24.7847 15.0102 24.778 14.978 24.7796 14.9458C24.7811 14.9135 24.7908 14.8818 24.8081 14.8524C24.8254 14.823 24.85 14.7966 24.8804 14.7746C24.9109 14.7526 24.9466 14.7355 24.9856 14.7242L32.8196 12.4519ZM20.3029 14.1883C20.2236 14.2095 20.1366 14.2054 20.0612 14.1768C19.9858 14.1482 19.9282 14.0975 19.9009 14.0358C19.8737 13.9742 19.8791 13.9066 19.9159 13.8481C19.9528 13.7895 20.0181 13.7447 20.0974 13.7235L32.8426 10.3156C32.8819 10.3052 32.9234 10.3008 32.9649 10.3028C33.0064 10.3047 33.0469 10.3131 33.0843 10.3272C33.1216 10.3414 33.155 10.3611 33.1825 10.3853C33.21 10.4095 33.2311 10.4376 33.2446 10.4682C33.258 10.4987 33.2637 10.531 33.2611 10.5632C33.2585 10.5954 33.2478 10.6269 33.2296 10.6559C33.2113 10.6849 33.1859 10.7109 33.1547 10.7322C33.1236 10.7536 33.0873 10.77 33.048 10.7805L20.3029 14.1883Z" fill="#FFAEB6"/>
<path d="M59.6321 12.4519C59.6715 12.4388 59.7139 12.432 59.7567 12.432C59.7995 12.432 59.8419 12.4387 59.8813 12.4518C59.9207 12.4649 59.9562 12.4841 59.9858 12.5081C60.0153 12.5322 60.0383 12.5607 60.0532 12.5919C60.0682 12.6231 60.0749 12.6563 60.0728 12.6895C60.0707 12.7227 60.06 12.7553 60.0413 12.7852C60.0225 12.8152 59.9962 12.8418 59.9638 12.8636C59.9314 12.8854 59.8936 12.9018 59.8528 12.912L52.0188 15.1852C51.9401 15.2079 51.853 15.2055 51.7766 15.1784C51.7003 15.1512 51.641 15.1016 51.6117 15.0405C51.5824 14.9794 51.5856 14.9117 51.6206 14.8524C51.6555 14.7931 51.7194 14.7469 51.7981 14.7242L59.6321 12.4519ZM47.1154 14.1884C47.0361 14.2095 46.9491 14.2054 46.8737 14.1768C46.7983 14.1482 46.7407 14.0975 46.7134 14.0358C46.6862 13.9742 46.6916 13.9066 46.7284 13.8481C46.7653 13.7895 46.8306 13.7447 46.9099 13.7235L59.6551 10.3156C59.6944 10.3052 59.7359 10.3008 59.7774 10.3028C59.8189 10.3047 59.8594 10.3131 59.8968 10.3272C59.9341 10.3414 59.9675 10.3611 59.995 10.3853C60.0225 10.4095 60.0436 10.4376 60.0571 10.4682C60.0705 10.4987 60.0762 10.531 60.0736 10.5632C60.071 10.5954 60.0603 10.6269 60.0421 10.6559C60.0238 10.6849 59.9984 10.7109 59.9672 10.7322C59.9361 10.7536 59.8998 10.77 59.8605 10.7805L47.1154 14.1884Z" fill="#AEDBFF"/>
</svg>
