<svg width="83" height="58" viewBox="0 0 83 58" fill="none" xmlns="http://www.w3.org/2000/svg">
<ellipse cx="41" cy="31.5" rx="26" ry="24.5" stroke="#222222" stroke-width="3"/>
<path d="M66.5518 37.5C68.1922 35.9604 68.978 32 71.5518 32C76.5224 32 80.5518 35.5817 80.5518 40C80.5518 44.4183 76.5224 48 71.5518 48C68.3876 48 65.6047 46.5485 64 44.3537" stroke="#222222" stroke-width="3"/>
<path d="M15.9999 37.5C14.3596 35.9604 13.5738 32 10.9999 32C6.02937 32 1.99993 35.5817 1.99993 40C1.99993 44.4183 6.02937 48 10.9999 48C14.1642 48 16.947 46.5485 18.5518 44.3537" stroke="#222222" stroke-width="3"/>
<path d="M75.5518 39.5C74.0518 38.5 70.2518 36.7 67.0518 37.5C68.0518 38.5 70.0518 38 72.0518 42" stroke="#222222" stroke-width="1.5" stroke-linecap="round" stroke-linejoin="round"/>
<path d="M7 39.5C8.5 38.5 12.3 36.7 15.5 37.5C14.5 38.5 12.5 38 10.5 42" stroke="#222222" stroke-width="1.5" stroke-linecap="round" stroke-linejoin="round"/>
<path d="M39 8C39.3333 11.1667 39 18.2 35 21" stroke="#222222" stroke-width="1.5" stroke-linecap="round" stroke-linejoin="round"/>
<path d="M39 8C40.3333 10 42.6 15.4 41 21" stroke="#222222" stroke-width="1.5" stroke-linecap="round" stroke-linejoin="round"/>
<path d="M39 8C41.1667 9 45.5 12.8 45.5 20" stroke="#222222" stroke-width="1.5" stroke-linecap="round" stroke-linejoin="round"/>
<path d="M39 8C41.6667 8.5 47.6 11.5 50 19.5" stroke="#222222" stroke-width="1.5" stroke-linecap="round" stroke-linejoin="round"/>
<path d="M59.5 10.5001C54 8.50011 49.5 6.5 41 8.50004" stroke="#222222" stroke-width="1.5" stroke-linecap="round" stroke-linejoin="round"/>
<path d="M59.5 6.49993C55.1667 6.33327 47.1 5.2 41.5 8" stroke="#222222" stroke-width="1.5" stroke-linecap="round" stroke-linejoin="round"/>
<path d="M59 3.99997C55 3.49997 45.6 3.59997 40 7.99997" stroke="#222222" stroke-width="1.5" stroke-linecap="round" stroke-linejoin="round"/>
<path d="M23 3C26.5 3.16667 34.8 4.4 40 8" stroke="#222222" stroke-width="1.5" stroke-linecap="round" stroke-linejoin="round"/>
<path d="M20.5 6.99995C24.3333 6.66662 33.5 6.19995 39.5 6.99995" stroke="#222222" stroke-width="1.5" stroke-linecap="round" stroke-linejoin="round"/>
<path d="M22 10C25.1667 9.00001 33.1 7.30001 39.5 8.50001" stroke="#222222" stroke-width="1.5" stroke-linecap="round" stroke-linejoin="round"/>
<path d="M50 1.5C47.3333 2.33333 41.7 4.9 40.5 8.5" stroke="#222222" stroke-width="1.5" stroke-linecap="round" stroke-linejoin="round"/>
<path d="M29.5 1.5C32 2 37.4 4 39 8" stroke="#222222" stroke-width="1.5" stroke-linecap="round" stroke-linejoin="round"/>
</svg>
