<svg width="56" height="15" viewBox="0 0 56 15" fill="none" xmlns="http://www.w3.org/2000/svg">
<path fill-rule="evenodd" clip-rule="evenodd" d="M6.03755 2.51262C4.72332 1.99677 3.29589 2.57564 2.82969 3.76307C2.36348 4.95051 3.01586 6.34571 4.3301 6.86155C5.64434 7.3774 7.07176 6.79853 7.53796 5.6111C8.00417 4.42366 7.35179 3.02847 6.03755 2.51262ZM2.33384 3.56845C2.91672 2.08386 4.66971 1.41114 6.22962 2.02342C7.78954 2.6357 8.61668 4.32113 8.03381 5.80572C7.45094 7.29031 5.69795 7.96303 4.13803 7.35075C2.57811 6.73848 1.75097 5.05304 2.33384 3.56845Z" fill="black"/>
<path fill-rule="evenodd" clip-rule="evenodd" d="M7.82693 6.36481C7.76687 6.41148 7.68787 6.46858 7.59811 6.50371L7.41874 6.06281C7.4409 6.05414 7.47487 6.03338 7.52935 5.99104C7.54365 5.97993 7.56447 5.96308 7.58782 5.94418C7.62677 5.91266 7.67276 5.87543 7.70732 5.8496C7.82458 5.76196 8.04683 5.61378 8.30846 5.71647C8.90371 5.95011 9.26405 6.58614 9.03575 7.16762C8.80745 7.74911 8.1106 7.97019 7.51535 7.73655C7.13136 7.58583 6.85254 7.27579 6.75622 6.91896L7.21849 6.8005C7.27319 7.00316 7.43885 7.19839 7.68821 7.29627C8.08786 7.45313 8.47523 7.28347 8.58949 6.99246C8.70374 6.70145 8.53525 6.31361 8.1356 6.15675C8.13557 6.15674 8.13552 6.15671 8.13546 6.15667C8.13467 6.15615 8.13103 6.15379 8.11293 6.15994C8.08721 6.16869 8.05086 6.18912 7.99784 6.22875C7.96368 6.25427 7.93876 6.27468 7.9109 6.2975C7.88742 6.31673 7.86186 6.33766 7.82693 6.36481Z" fill="black"/>
<path fill-rule="evenodd" clip-rule="evenodd" d="M2.16025 4.14047C2.17251 4.21552 2.19156 4.31111 2.23345 4.39791L2.6649 4.19676C2.65456 4.17533 2.64378 4.13701 2.63265 4.06892C2.62973 4.05105 2.62594 4.02454 2.62168 3.9948C2.61459 3.94521 2.60621 3.88664 2.59845 3.84421C2.57212 3.70021 2.51005 3.44042 2.24842 3.33773C1.65317 3.10409 0.956323 3.32517 0.728022 3.90665C0.499721 4.48814 0.86006 5.12417 1.45531 5.35781C1.8393 5.50853 2.2546 5.47093 2.56798 5.27491L2.30976 4.87366C2.13178 4.98499 1.87753 5.0154 1.62817 4.91753C1.22852 4.76066 1.06003 4.37282 1.17428 4.08181C1.28854 3.7908 1.67591 3.62114 2.07556 3.77801C2.07559 3.77802 2.07565 3.77803 2.07572 3.77804C2.07665 3.77821 2.08093 3.77895 2.09001 3.79577C2.10291 3.81968 2.11565 3.85938 2.12755 3.92449C2.13522 3.96643 2.1396 3.99834 2.14449 4.03401C2.14862 4.06407 2.15311 4.09681 2.16025 4.14047Z" fill="black"/>
<path fill-rule="evenodd" clip-rule="evenodd" d="M8.10067 6.4449C8.24466 6.55896 8.35708 6.68773 8.41827 6.77437C8.45207 6.82223 8.44054 6.88781 8.3925 6.92084C8.34447 6.95388 8.27813 6.94186 8.24433 6.894C8.19416 6.82298 8.09565 6.70942 7.96872 6.60888C7.9423 6.58796 7.91504 6.5679 7.88711 6.54908C7.93555 6.6417 7.97371 6.76371 7.98999 6.9346C7.9955 6.99254 7.95257 7.04352 7.8941 7.04846C7.83562 7.05339 7.78375 7.01042 7.77823 6.95248C7.75739 6.73367 7.69795 6.62844 7.64466 6.563C7.62164 6.53473 7.59941 6.51314 7.57468 6.48913C7.56794 6.48258 7.56102 6.47586 7.55384 6.46877C7.52301 6.43832 7.48493 6.39864 7.46087 6.34447C7.44539 6.30963 7.44996 6.26941 7.47284 6.23919C7.49571 6.20896 7.53335 6.1934 7.57137 6.19845C7.77399 6.2254 7.95751 6.33151 8.10067 6.4449Z" fill="black"/>
<path fill-rule="evenodd" clip-rule="evenodd" d="M1.90481 4.01283C1.72168 3.99848 1.55166 4.0164 1.44787 4.03828C1.39053 4.05037 1.35436 4.10628 1.36709 4.16316C1.37982 4.22005 1.43662 4.25636 1.49396 4.24428C1.57905 4.22634 1.72852 4.21012 1.88995 4.22277C1.92356 4.2254 1.95718 4.22924 1.99046 4.23445C1.89194 4.26938 1.78095 4.33285 1.65276 4.44703C1.60929 4.48575 1.60607 4.55231 1.64557 4.59571C1.68507 4.6391 1.75233 4.64289 1.7958 4.60418C1.95995 4.45797 2.07511 4.42128 2.15869 4.40956C2.1948 4.4045 2.22578 4.4038 2.26024 4.40302C2.26964 4.4028 2.27928 4.40258 2.28937 4.40227C2.33268 4.40092 2.38759 4.39774 2.44208 4.3744C2.47713 4.3594 2.50114 4.32681 2.50494 4.28909C2.50874 4.25138 2.49174 4.21437 2.46044 4.19222C2.29359 4.07415 2.08689 4.02709 1.90481 4.01283Z" fill="black"/>
<path fill-rule="evenodd" clip-rule="evenodd" d="M5.92274 2.18667C5.97943 2.20239 6.01293 2.26052 5.99756 2.31651C5.95043 2.48826 5.84739 2.75065 5.68888 2.98741C5.5319 3.2219 5.30896 3.44828 5.01604 3.51698C4.95901 3.53035 4.9014 3.49532 4.88737 3.43872C4.87334 3.38213 4.90821 3.3254 4.96524 3.31203C5.18119 3.26138 5.36569 3.08742 5.51127 2.86995C5.65534 2.65476 5.75001 2.41358 5.79227 2.25957C5.80764 2.20359 5.86605 2.17094 5.92274 2.18667Z" fill="black"/>
<path fill-rule="evenodd" clip-rule="evenodd" d="M5.87146 2.18502C5.92879 2.17294 5.9856 2.20925 5.99832 2.26614C6.05833 2.5343 6.07788 3.19171 5.67551 3.71448C5.64006 3.76053 5.57336 3.76907 5.52653 3.73356C5.47969 3.69804 5.47046 3.63192 5.5059 3.58587C5.85796 3.12848 5.84249 2.54145 5.79068 2.30991C5.77795 2.25302 5.81412 2.19711 5.87146 2.18502Z" fill="black"/>
<path fill-rule="evenodd" clip-rule="evenodd" d="M5.82057 2.2117C5.86278 2.17165 5.93011 2.17336 5.97095 2.21552C6.17404 2.4252 6.47499 3.01327 6.17901 3.76715C6.15779 3.82118 6.09619 3.84756 6.04142 3.82606C5.98665 3.80456 5.95945 3.74333 5.98067 3.6893C6.24291 3.02136 5.97112 2.51858 5.81808 2.36057C5.77724 2.3184 5.77835 2.25175 5.82057 2.2117Z" fill="black"/>
<path fill-rule="evenodd" clip-rule="evenodd" d="M5.80412 2.23175C5.83506 2.1826 5.90062 2.16796 5.95054 2.19904C6.22836 2.37205 6.72894 2.93749 6.6556 3.86478C6.65101 3.92272 6.59983 3.96558 6.54127 3.96051C6.48272 3.95545 6.43896 3.90438 6.44355 3.84644C6.51007 3.00539 6.05564 2.51226 5.83848 2.37702C5.78855 2.34594 5.77317 2.28089 5.80412 2.23175Z" fill="black"/>
<path fill-rule="evenodd" clip-rule="evenodd" d="M7.83186 3.18451C7.86095 3.21014 7.8901 3.23583 7.91946 3.26151C7.96368 3.30018 7.96819 3.36674 7.92954 3.41017C7.89088 3.45361 7.8237 3.45747 7.77948 3.4188C7.74926 3.39238 7.71963 3.36629 7.69041 3.34055C7.48756 3.16192 7.30412 3.00038 7.0784 2.86386C6.82323 2.70952 6.51181 2.58639 6.06086 2.52011C6.00269 2.51156 5.9621 2.458 5.97021 2.40048C5.97831 2.34295 6.03204 2.30325 6.09022 2.3118C6.56747 2.38194 6.90656 2.51414 7.18808 2.68442C7.43144 2.83161 7.63013 3.00672 7.83186 3.18451Z" fill="black"/>
<path fill-rule="evenodd" clip-rule="evenodd" d="M7.8247 2.74698C7.90738 2.78573 7.9822 2.82078 8.04643 2.84885C8.10035 2.87241 8.12516 2.93461 8.10186 2.98778C8.07855 3.04095 8.01595 3.06495 7.96204 3.04139C7.88877 3.00938 7.80888 2.97191 7.72311 2.93168C7.54731 2.84923 7.34683 2.7552 7.1281 2.67283C6.80531 2.55128 6.46526 2.46486 6.15465 2.49108C6.09617 2.49602 6.0443 2.45305 6.03878 2.3951C6.03326 2.33716 6.07619 2.28618 6.13467 2.28125C6.49305 2.25099 6.86917 2.3507 7.20213 2.47608C7.42829 2.56125 7.64507 2.66282 7.8247 2.74698Z" fill="black"/>
<path fill-rule="evenodd" clip-rule="evenodd" d="M7.17832 2.24269C7.56334 2.33387 7.90363 2.47891 8.1019 2.58639C8.15361 2.61442 8.17296 2.67845 8.14512 2.7294C8.11727 2.78036 8.05278 2.79893 8.00106 2.7709C7.8184 2.67188 7.49591 2.53399 7.13063 2.44748C6.76399 2.36065 6.36612 2.32843 6.02598 2.42822C5.9698 2.4447 5.91036 2.41285 5.8932 2.35708C5.87604 2.30131 5.90767 2.24274 5.96385 2.22626C6.35471 2.11159 6.79467 2.15182 7.17832 2.24269Z" fill="black"/>
<path fill-rule="evenodd" clip-rule="evenodd" d="M4.3898 1.12253C4.41359 1.06958 4.47642 1.04614 4.53011 1.07019C4.70818 1.14991 4.99586 1.30374 5.28792 1.50895C5.57904 1.7135 5.88178 1.97415 6.08258 2.26925C6.11553 2.31769 6.10283 2.38304 6.05422 2.41523C6.0056 2.44743 5.93947 2.43426 5.90651 2.38583C5.72646 2.12121 5.44734 1.87809 5.16587 1.68032C4.88534 1.48321 4.60969 1.33616 4.44394 1.26194C4.39024 1.2379 4.366 1.17548 4.3898 1.12253Z" fill="black"/>
<path fill-rule="evenodd" clip-rule="evenodd" d="M5.9318 2.30079C5.37321 1.99212 4.44727 1.68079 4.0518 1.56345C3.9954 1.54671 3.96297 1.48799 3.97936 1.4323C3.99575 1.3766 4.05476 1.34502 4.11116 1.36176C4.50882 1.47975 5.45384 1.79643 6.03417 2.11712C6.08566 2.14557 6.10448 2.20975 6.07621 2.26047C6.04794 2.31119 5.98329 2.32924 5.9318 2.30079Z" fill="black"/>
<path fill-rule="evenodd" clip-rule="evenodd" d="M5.8693 2.44611C5.2972 2.08986 4.45793 1.94798 4.10903 1.92282C4.05041 1.91859 4.00592 1.86814 4.00966 1.81014C4.0134 1.75214 4.06394 1.70855 4.12256 1.71278C4.48502 1.73892 5.36548 1.88461 5.98136 2.26813C6.03128 2.29922 6.04667 2.36426 6.01572 2.41341C5.98478 2.46256 5.91922 2.4772 5.8693 2.44611Z" fill="black"/>
<path fill-rule="evenodd" clip-rule="evenodd" d="M7.35323 2.08631C7.34932 2.14429 7.29864 2.18773 7.24004 2.18333C7.09802 2.17267 6.86685 2.17498 6.64176 2.21678C6.41207 2.25944 6.21243 2.33893 6.10694 2.46419C6.06949 2.50865 6.00246 2.51431 5.95721 2.47683C5.91196 2.43935 5.90563 2.37292 5.94307 2.32846C6.09724 2.1454 6.35907 2.05466 6.60072 2.00978C6.84698 1.96405 7.09704 1.96154 7.25421 1.97334C7.31281 1.97774 7.35715 2.02832 7.35323 2.08631Z" fill="black"/>
<path fill-rule="evenodd" clip-rule="evenodd" d="M5.10607 1.21579C5.13761 1.16702 5.20335 1.15316 5.25289 1.18484C5.37669 1.26399 5.55906 1.41064 5.71233 1.5986C5.8646 1.78533 5.99799 2.02502 6.0009 2.28792C6.00154 2.34607 5.95445 2.3933 5.89572 2.39341C5.83699 2.39352 5.78885 2.34646 5.78821 2.28831C5.78605 2.09341 5.68546 1.8994 5.54732 1.72999C5.41017 1.5618 5.24568 1.42987 5.13866 1.36145C5.08912 1.32977 5.07452 1.26456 5.10607 1.21579Z" fill="black"/>
<path d="M3.35525 2.06403C3.4485 2.02583 3.62443 1.9785 3.77935 1.9279C3.81355 1.91672 3.82808 1.87819 3.81267 1.84109L3.67161 1.50163C3.65386 1.4589 3.60469 1.43683 3.56989 1.45795C3.38515 1.57007 3.18078 1.7626 3.13107 1.80638C3.06871 1.86128 3.03444 1.87691 3.02475 1.90283C2.63571 2.84369 2.58928 3.22315 2.56206 3.33881C2.52805 3.48339 2.57515 3.58067 2.65803 3.59389C2.7409 3.6071 2.76688 3.41839 2.81769 3.23899C2.85843 3.09512 3.02523 2.45342 3.16819 2.22815C3.2146 2.17155 3.33707 2.07148 3.35525 2.06403Z" fill="#222222"/>
<path d="M8.32992 4.03987C8.29043 3.94443 8.19917 3.78255 8.12487 3.63344C8.10845 3.6005 8.12433 3.56171 8.16024 3.54558L8.48899 3.39798C8.53043 3.37938 8.57999 3.39876 8.59009 3.43951C8.64359 3.65536 8.65641 3.94435 8.66161 4.01242C8.66812 4.09783 8.68156 4.13407 8.67079 4.16013C8.30614 5.13278 8.08163 5.44526 8.02235 5.54995C7.94826 5.6808 7.84934 5.71828 7.78229 5.66813C7.71525 5.61797 7.82488 5.46048 7.91079 5.2919C7.97969 5.15672 8.29747 4.56451 8.34987 4.29564C8.35567 4.22051 8.33762 4.05848 8.32992 4.03987Z" fill="#222222"/>
<path d="M6.30996 1.9198C6.40764 1.95327 6.55683 1.98424 6.75763 2.01276C6.98602 2.04518 7.26761 2.14178 7.59031 2.26973C7.97303 2.42146 8.27138 2.55689 8.48668 2.67705L8.48832 2.67801C8.68295 2.78746 8.78232 2.93913 8.71527 3.11114C8.64813 3.283 8.65533 3.30394 8.5802 3.33155C8.50524 3.35912 8.47803 3.4173 8.44613 3.45154C8.20504 3.71003 7.82201 3.72543 7.4113 3.56869L6.92862 3.37333C6.59678 3.23472 6.32238 2.95635 6.28723 2.61021C6.27477 2.48647 6.28902 2.3933 6.26335 2.32846C6.24627 2.28541 6.21927 2.25484 6.1828 2.23712C6.14395 2.22498 6.10334 2.22875 6.06113 2.24839C5.99769 2.2778 5.94357 2.35526 5.84903 2.43637C5.58413 2.66355 5.19242 2.67793 4.85574 2.55138L4.37023 2.36309C3.9638 2.19565 3.69641 1.92248 3.7002 1.5699C3.70072 1.52322 3.72121 1.46238 3.68587 1.39107C3.65053 1.31977 3.67014 1.30935 3.74026 1.13867C3.81059 0.967861 3.98757 0.925857 4.20453 0.979601L4.20638 0.98002C4.44571 1.04022 4.75595 1.14598 5.13866 1.29771C5.46137 1.42566 5.73256 1.54821 5.92074 1.68096C6.08622 1.79766 6.21591 1.87725 6.30996 1.9198Z" fill="#FFDB99"/>
<path d="M7.55433 2.36017C7.93706 2.51186 8.23542 2.64726 8.45073 2.76739L8.45236 2.76835C8.647 2.87777 8.78273 2.93872 8.71564 3.11071C8.64847 3.28256 8.61929 3.3942 8.54415 3.42182C8.46917 3.44939 8.44195 3.50756 8.41004 3.5418C8.16888 3.80028 7.78581 3.8157 7.37508 3.659L6.89238 3.46369C6.56052 3.32511 6.28614 3.04679 6.25105 2.70069C6.23861 2.57697 6.25288 2.4838 6.22722 2.41897C6.21014 2.37593 6.18314 2.34536 6.14667 2.32765C6.10782 2.31551 6.0672 2.31928 6.02499 2.33892C5.96154 2.36833 5.90739 2.44579 5.81283 2.52689C5.54786 2.75407 5.15611 2.76846 4.81941 2.64195L4.33388 2.45371C3.92744 2.28631 3.66006 2.01318 3.66391 1.66065C3.66445 1.61397 3.68494 1.55314 3.64961 1.48184C3.61428 1.41054 3.67026 1.30942 3.74043 1.13876C3.81079 0.967958 3.95143 1.01666 4.1684 1.07038L4.17025 1.0708C4.4096 1.13098 4.71986 1.23671 5.10258 1.3884C5.4253 1.51631 5.6965 1.63884 5.88468 1.77156C6.05015 1.88824 6.17985 1.96782 6.2739 2.01035L6.29736 2.01807C6.39482 2.0485 6.53632 2.07704 6.72164 2.10319C6.95001 2.13568 7.23162 2.23226 7.55433 2.36017Z" fill="#FFB21C"/>
<path d="M8.70692 3.13222L8.71553 3.1104C8.64828 3.28243 8.6191 3.39407 8.54399 3.4216C8.46901 3.44917 8.44179 3.50735 8.40988 3.54159C8.18422 3.78339 7.8342 3.81244 7.4537 3.68686L6.9912 3.50344L6.89223 3.46347C6.56037 3.32489 6.28599 3.04657 6.25089 2.70047C6.23846 2.57675 6.25273 2.48359 6.22707 2.41875C6.21203 2.38105 6.18964 2.35304 6.15977 2.33468L6.14652 2.32743L6.13185 2.32372C6.09754 2.31643 6.06188 2.32153 6.02483 2.3387C5.96138 2.36811 5.90724 2.44557 5.81267 2.52667C5.54771 2.75385 5.15595 2.76825 4.81926 2.64173L4.71961 2.60308L4.25717 2.41989C3.89412 2.25077 3.66021 1.99027 3.66376 1.66043C3.66429 1.61376 3.68479 1.55292 3.64946 1.48162C3.61565 1.41335 3.66532 1.31792 3.73126 1.1603L8.70692 3.13222Z" fill="#FFA500"/>
<path d="M5.81256 2.52692C5.5476 2.75409 5.15584 2.76849 4.81915 2.64198L4.71938 2.60328L4.25705 2.42014C3.89401 2.25102 3.6601 1.99052 3.66364 1.66068C3.66387 1.63133 3.6722 1.59616 3.66936 1.55646L5.90268 2.44143C5.87647 2.46794 5.84713 2.4972 5.81256 2.52692ZM8.40977 3.54182C8.18411 3.78363 7.83422 3.81273 7.4536 3.68709L6.9911 3.50368L6.89212 3.46371C6.56026 3.32513 6.28588 3.04682 6.25078 2.70071C6.24694 2.65922 6.24487 2.61794 6.24457 2.57694L8.47766 3.46213C8.44812 3.489 8.42987 3.52014 8.40981 3.54173L8.40977 3.54182Z" fill="#FF9700"/>
<path d="M4.81933 2.642L4.7196 2.6032L4.25606 2.41948L4.2246 2.40438C3.96475 2.27658 3.77574 2.10022 3.70016 1.88388L5.62301 2.64601C5.37944 2.75362 5.08256 2.74086 4.81945 2.64205L4.81933 2.642ZM7.4551 3.68743L6.99131 3.50361L6.89234 3.46364C6.63293 3.35525 6.4086 3.16153 6.30634 2.91674L8.22919 3.67887C8.01641 3.78849 7.7447 3.78276 7.45522 3.68748L7.4551 3.68743Z" fill="#FF8200"/>
<path d="M4.26321 1.19258C4.46652 1.25214 4.71473 1.34 5.00784 1.45618C5.3154 1.57808 5.56155 1.69877 5.74619 1.81821C5.7911 1.84726 5.82994 1.88218 5.86034 1.92082C5.89075 1.95946 5.91209 2.00104 5.92306 2.04301C5.93403 2.08498 5.93441 2.12648 5.92418 2.16499C5.91394 2.2035 5.8933 2.23821 5.86352 2.26702L5.68016 2.44444C5.58747 2.53408 5.45439 2.5914 5.29993 2.60823C5.14547 2.62506 4.97753 2.60053 4.8201 2.53814L4.35596 2.35418C4.17794 2.28359 4.02367 2.16991 3.9198 2.03278C3.81593 1.89565 3.76898 1.74366 3.78705 1.60306L3.81483 1.38627C3.82 1.34605 3.83592 1.3089 3.86161 1.27711C3.88731 1.24532 3.92222 1.21956 3.96422 1.20142C4.00622 1.18328 4.05441 1.17313 4.10583 1.17161C4.15725 1.17009 4.2108 1.17723 4.26321 1.19258Z" fill="#FF6A78"/>
<path d="M8.30185 2.79311C8.11309 2.69727 7.87216 2.59126 7.57916 2.47513C7.27584 2.35491 7.0191 2.2768 6.80903 2.24095C6.75682 2.23202 6.70511 2.23135 6.65699 2.23898C6.60887 2.24662 6.56532 2.26241 6.52894 2.2854C6.49256 2.30839 6.46409 2.33813 6.44522 2.37282C6.42636 2.40752 6.41749 2.44647 6.41914 2.48736L6.42925 2.73915C6.43442 2.86744 6.49115 2.99992 6.59135 3.11771C6.69155 3.2355 6.83011 3.33258 6.98727 3.39512L7.4443 3.577C7.61847 3.64633 7.80508 3.66911 7.97183 3.6414C8.13858 3.61369 8.27496 3.53722 8.35736 3.42525L8.49335 3.24041C8.51743 3.20769 8.53158 3.16984 8.53494 3.12919C8.53829 3.08855 8.53077 3.04597 8.51284 3.00408C8.49492 2.96218 8.46696 2.92186 8.4307 2.88559C8.39444 2.84931 8.35063 2.81786 8.30198 2.79316L8.30185 2.79311Z" fill="#6DBBEE"/>
<path d="M5.82447 2.30522L5.68068 2.44439C5.64995 2.47426 5.61485 2.50029 5.57646 2.52229L3.80892 1.82172C3.78566 1.74762 3.77843 1.67359 3.78757 1.60301L3.80029 1.50293L5.82447 2.30522Z" fill="#F45D6B"/>
<path d="M8.42317 3.33513L8.35712 3.42501C8.31719 3.47935 8.2642 3.52574 8.20042 3.56222L6.45168 2.8691C6.43848 2.82546 6.43093 2.78181 6.42918 2.73887L6.42114 2.54163L8.42317 3.33513Z" fill="#4BB0F2"/>
<path d="M5.00772 1.45637C5.31527 1.57827 5.56143 1.69897 5.74606 1.8184C5.79098 1.84746 5.82982 1.88237 5.86022 1.92102C5.89063 1.95966 5.91196 2.00123 5.92293 2.0432C5.93391 2.08518 5.93429 2.12668 5.92405 2.16519C5.91382 2.2037 5.89318 2.23841 5.86339 2.26722L5.82382 2.30546L3.79977 1.50322L3.81483 1.38651C3.82 1.34629 3.83592 1.30914 3.86161 1.27735C3.88731 1.24556 3.92222 1.21981 3.96422 1.20166C4.00622 1.18352 4.05441 1.17338 4.10583 1.17186C4.15725 1.17034 4.2108 1.17747 4.26321 1.19282C4.46639 1.25233 4.71473 1.34025 5.00772 1.45637Z" fill="#F14E5D"/>
<path d="M7.57914 2.47512C7.87226 2.5913 8.11319 2.69731 8.30195 2.79315C8.35061 2.81785 8.39441 2.8493 8.43068 2.88558C8.46694 2.92185 8.4949 2.96217 8.51282 3.00407C8.53075 3.04596 8.53827 3.08854 8.53491 3.12918C8.53156 3.16983 8.51741 3.20768 8.49333 3.24041L8.42325 3.33531L6.42135 2.54185L6.41912 2.48735C6.41908 2.48559 6.41906 2.48383 6.41907 2.48208L6.41895 2.47698C6.41908 2.43725 6.42927 2.39962 6.44894 2.36626C6.46862 2.33289 6.49738 2.30443 6.53361 2.28251C6.56983 2.26059 6.61279 2.24564 6.66005 2.23851C6.7073 2.23138 6.75792 2.2322 6.80901 2.24094C7.01904 2.27688 7.27582 2.3549 7.57914 2.47512Z" fill="#44A9EB"/>
<path d="M4.25301 1.24068C4.20935 1.22791 4.16474 1.22199 4.12192 1.22327C4.07909 1.22456 4.03896 1.23302 4.00398 1.24815C3.96901 1.26327 3.93993 1.28473 3.91853 1.31122C3.89714 1.3377 3.88388 1.36865 3.87958 1.40215L3.85167 1.6189C3.83507 1.74805 3.8782 1.88767 3.97361 2.01364C4.06902 2.13961 4.21074 2.24403 4.37427 2.30887L4.83841 2.49283C4.98273 2.55003 5.13669 2.57251 5.27829 2.55708C5.41989 2.54165 5.54188 2.48909 5.62683 2.4069L5.81016 2.22958C5.835 2.20558 5.85221 2.17665 5.86076 2.14456C5.8693 2.11247 5.869 2.07788 5.85986 2.04289C5.85072 2.00791 5.83295 1.97326 5.80761 1.94105C5.78228 1.90884 5.74991 1.87974 5.71248 1.85551C5.53318 1.73967 5.29223 1.62146 4.98978 1.50158C4.69915 1.38639 4.45347 1.29942 4.25313 1.24073L4.25301 1.24068ZM4.26321 1.19258C4.46652 1.25214 4.71473 1.34 5.00784 1.45618C5.3154 1.57808 5.56155 1.69877 5.74619 1.81821C5.7911 1.84726 5.82994 1.88218 5.86034 1.92082C5.89075 1.95946 5.91209 2.00104 5.92306 2.04301C5.93403 2.08498 5.93441 2.12648 5.92418 2.16499C5.91394 2.2035 5.8933 2.23821 5.86352 2.26702L5.68016 2.44444C5.58747 2.53408 5.45439 2.5914 5.29993 2.60823C5.14547 2.62506 4.97753 2.60053 4.8201 2.53814L4.35596 2.35418C4.17794 2.28359 4.02367 2.16991 3.9198 2.03278C3.81593 1.89565 3.76898 1.74366 3.78705 1.60306L3.81483 1.38627C3.82 1.34605 3.83592 1.3089 3.86161 1.27711C3.88731 1.24532 3.92222 1.21956 3.96422 1.20142C4.00622 1.18328 4.05441 1.17313 4.10583 1.17161C4.15725 1.17009 4.2108 1.17723 4.26321 1.19258Z" fill="#E93142"/>
<path d="M8.29755 2.84359C8.3381 2.86417 8.37461 2.89038 8.40483 2.92061C8.43505 2.95083 8.45835 2.98444 8.4733 3.01935C8.48824 3.05426 8.49451 3.08974 8.49172 3.12362C8.48893 3.15749 8.47714 3.18903 8.45708 3.21631L8.32051 3.40186C8.24512 3.50437 8.12037 3.57444 7.96782 3.59996C7.81526 3.62548 7.64447 3.60486 7.48495 3.54165L7.00651 3.35201C6.86216 3.29481 6.73483 3.20582 6.64272 3.09776C6.55062 2.98969 6.49844 2.86809 6.49365 2.75032L6.48331 2.49623C6.48189 2.46182 6.48942 2.42905 6.50544 2.39991C6.52145 2.37077 6.54562 2.34588 6.57647 2.32674C6.60732 2.30761 6.64421 2.29463 6.6849 2.28859C6.72559 2.28255 6.76923 2.28358 6.81316 2.29162C7.02332 2.33014 7.27998 2.40916 7.58243 2.52904C7.87318 2.64427 8.11154 2.74916 8.29755 2.84359ZM8.32343 2.80171C8.13467 2.70587 7.89374 2.59986 7.60062 2.48368C7.29319 2.36183 7.03091 2.281 6.81427 2.24139C6.76156 2.23176 6.70922 2.23053 6.66041 2.23778C6.6116 2.24503 6.56735 2.2606 6.53035 2.28356C6.49334 2.30651 6.46435 2.33637 6.44513 2.37132C6.42591 2.40627 6.41687 2.44558 6.41855 2.48686L6.42886 2.74104C6.43409 2.8695 6.49102 3.00215 6.5915 3.12003C6.69198 3.2379 6.83087 3.33497 6.98832 3.39737L7.46677 3.587C7.64076 3.65595 7.82704 3.67845 7.99345 3.65063C8.15985 3.62281 8.29594 3.5464 8.3782 3.43461L8.51481 3.24896C8.53889 3.21624 8.55304 3.17839 8.55639 3.13774C8.55974 3.0971 8.55222 3.05452 8.5343 3.01263C8.51637 2.97073 8.48842 2.93041 8.45215 2.89414C8.41589 2.85786 8.37208 2.82641 8.32343 2.80171Z" fill="#0089E5"/>
<path d="M5.38272 2.05631C5.38707 2.05662 5.3915 2.05763 5.39571 2.05928C5.39993 2.06093 5.40387 2.06319 5.40727 2.06592C5.41067 2.06865 5.41348 2.0718 5.41552 2.07517C5.41755 2.07854 5.41878 2.08206 5.41912 2.08552C5.41946 2.08898 5.41891 2.09231 5.4175 2.09531C5.4161 2.09831 5.41386 2.10091 5.41093 2.10295C5.40799 2.105 5.40443 2.10645 5.40045 2.10721C5.39647 2.10798 5.39215 2.10804 5.38777 2.1074L4.53369 2.0153C4.52944 2.01484 4.52517 2.01372 4.52112 2.01201C4.51707 2.01029 4.51332 2.00802 4.51008 2.00532C4.50685 2.00262 4.50419 1.99954 4.50226 1.99625C4.50033 1.99297 4.49917 1.98955 4.49884 1.98619C4.49851 1.98283 4.49902 1.9796 4.50034 1.97667C4.50167 1.97374 4.50377 1.97118 4.50654 1.96913C4.50931 1.96708 4.5127 1.96558 4.51649 1.96472C4.52029 1.96386 4.52443 1.96366 4.52868 1.96412L5.38272 2.05631ZM4.08692 1.73373C4.07833 1.73263 4.06992 1.72888 4.06353 1.72332C4.05714 1.71777 4.0533 1.71085 4.05286 1.70409C4.05241 1.69733 4.05539 1.69129 4.06115 1.68729C4.0669 1.6833 4.07496 1.68167 4.08355 1.68277L5.4625 1.8595C5.46675 1.86004 5.47101 1.86124 5.47502 1.86303C5.47903 1.86481 5.48272 1.86715 5.48589 1.8699C5.48905 1.87265 5.49162 1.87577 5.49345 1.87907C5.49528 1.88237 5.49634 1.88579 5.49656 1.88913C5.49678 1.89248 5.49616 1.89568 5.49474 1.89857C5.49332 1.90145 5.49112 1.90395 5.48827 1.90593C5.48542 1.90791 5.48198 1.90933 5.47813 1.9101C5.47429 1.91088 5.47012 1.911 5.46587 1.91045L4.08692 1.73373Z" fill="#FFAEB6"/>
<path d="M7.99722 3.09232C8.00158 3.09263 8.006 3.09364 8.01022 3.09529C8.01444 3.09694 8.01837 3.0992 8.02177 3.10193C8.02517 3.10466 8.02798 3.10781 8.03002 3.11118C8.03205 3.11455 8.03328 3.11807 8.03362 3.12153C8.03396 3.12499 8.03341 3.12833 8.03201 3.13132C8.0306 3.13432 8.02836 3.13692 8.02543 3.13896C8.0225 3.14101 8.01893 3.14246 8.01495 3.14322C8.01097 3.14399 8.00665 3.14405 8.00227 3.14341L7.14819 3.05131C7.13961 3.05038 7.13112 3.04679 7.12459 3.04133C7.11805 3.03587 7.11401 3.02899 7.11334 3.0222C7.11268 3.01542 7.11545 3.00928 7.12104 3.00514C7.12664 3.001 7.1346 2.9992 7.14318 3.00013L7.99722 3.09232ZM6.70142 2.76974C6.69283 2.76864 6.68442 2.76489 6.67803 2.75934C6.67165 2.75378 6.66781 2.74686 6.66736 2.7401C6.66691 2.73335 6.66989 2.7273 6.67565 2.72331C6.68141 2.71931 6.68946 2.71768 6.69805 2.71878L8.077 2.89551C8.08125 2.89605 8.08551 2.89725 8.08952 2.89904C8.09353 2.90082 8.09723 2.90316 8.10039 2.90591C8.10355 2.90866 8.10612 2.91178 8.10795 2.91508C8.10978 2.91838 8.11084 2.9218 8.11106 2.92514C8.11128 2.92849 8.11067 2.93169 8.10924 2.93458C8.10782 2.93746 8.10562 2.93996 8.10277 2.94194C8.09992 2.94392 8.09648 2.94534 8.09263 2.94611C8.08879 2.94689 8.08462 2.94701 8.08037 2.94646L6.70142 2.76974Z" fill="#AEDBFF"/>
<path d="M53.8662 7.08002L53.8902 7.06802C53.9302 7.03602 53.9822 7.02002 54.0462 7.02002C54.0942 7.02002 54.1342 7.02402 54.1662 7.03202C54.2062 7.04002 54.2382 7.04802 54.2622 7.05602L54.9702 7.28402C55.0022 7.36402 55.0342 7.41602 55.0662 7.44002C55.1062 7.43202 55.1422 7.44402 55.1742 7.47602C55.2142 7.50002 55.2462 7.52002 55.2702 7.53602C55.2702 7.57602 55.2822 7.62802 55.3062 7.69202C55.3382 7.74802 55.3542 7.79202 55.3542 7.82402L55.3662 8.06402C55.3502 8.07202 55.3142 8.08002 55.2582 8.08802C55.2102 8.09602 55.1702 8.12002 55.1382 8.16002C55.0662 8.28802 54.9902 8.43602 54.9102 8.60402C54.8782 8.60402 54.8542 8.62002 54.8382 8.65202C54.8302 8.67602 54.8262 8.70802 54.8262 8.74802C54.8262 8.78802 54.8222 8.82002 54.8142 8.84402C54.8062 8.85202 54.7902 8.87202 54.7662 8.90402C54.7422 8.92802 54.7302 8.95602 54.7302 8.98802V9.00002C54.6662 9.06402 54.6342 9.12002 54.6342 9.16802C54.6342 9.19202 54.6382 9.20802 54.6462 9.21602C54.5502 9.36002 54.4702 9.58002 54.4062 9.87602L54.3342 10.176L54.2382 10.464C54.2062 10.456 54.1862 10.476 54.1782 10.524C54.1702 10.572 54.1622 10.608 54.1542 10.632C54.1142 10.696 54.0662 10.772 54.0102 10.86C53.9542 10.94 53.8942 11.04 53.8302 11.16C53.7662 11.272 53.7222 11.38 53.6982 11.484C53.6822 11.508 53.6622 11.544 53.6382 11.592C53.6142 11.632 53.5902 11.664 53.5662 11.688C53.5582 11.744 53.5342 11.808 53.4942 11.88C53.4542 11.944 53.4222 11.996 53.3982 12.036L53.1582 12.612C53.1182 12.628 53.0902 12.66 53.0742 12.708C53.0582 12.764 53.0462 12.804 53.0382 12.828C53.0302 12.9 53.0022 12.976 52.9542 13.056C52.9142 13.136 52.8862 13.2 52.8702 13.248C52.8462 13.272 52.8222 13.312 52.7982 13.368C52.7822 13.424 52.7662 13.472 52.7502 13.512C52.7342 13.536 52.7062 13.564 52.6662 13.596C52.6262 13.628 52.6022 13.664 52.5942 13.704C52.5462 13.736 52.5022 13.784 52.4622 13.848C52.4222 13.912 52.3902 13.96 52.3662 13.992C52.2622 14.096 52.1902 14.16 52.1502 14.184L51.7422 14.556C51.6702 14.548 51.5382 14.56 51.3462 14.592C51.3062 14.6 51.2542 14.608 51.1902 14.616C51.1342 14.624 51.0702 14.628 50.9982 14.628C50.7902 14.628 50.6382 14.56 50.5422 14.424C50.5182 14.416 50.4742 14.4 50.4102 14.376C50.3542 14.36 50.3062 14.332 50.2662 14.292C50.2582 14.236 50.2182 14.192 50.1462 14.16C50.0742 14.128 50.0222 14.104 49.9902 14.088C49.9742 14.048 49.9382 13.988 49.8822 13.908C49.8182 13.836 49.7782 13.772 49.7622 13.716C49.8182 13.684 49.8782 13.668 49.9422 13.668L50.0382 13.68C50.0702 13.704 50.1102 13.716 50.1582 13.716C50.1982 13.716 50.2582 13.696 50.3382 13.656C50.4262 13.624 50.4942 13.604 50.5422 13.596C50.6462 13.564 50.7582 13.512 50.8782 13.44C50.9982 13.368 51.0822 13.32 51.1302 13.296C51.3702 13.096 51.5982 12.8 51.8142 12.408C51.8382 12.344 51.9182 12.184 52.0542 11.928C52.0782 11.872 52.1022 11.82 52.1262 11.772C52.1582 11.724 52.1822 11.684 52.1982 11.652C52.3102 11.436 52.3702 11.312 52.3782 11.28C52.4022 11.256 52.4142 11.224 52.4142 11.184C52.4142 11.144 52.3862 11.092 52.3302 11.028C52.2822 10.964 52.2462 10.912 52.2222 10.872C52.0782 10.64 51.9342 10.384 51.7902 10.104C51.6462 9.81602 51.5542 9.63602 51.5142 9.56402L51.2382 9.01202C51.1822 8.91602 51.0822 8.78002 50.9382 8.60402C50.7862 8.42002 50.6702 8.25602 50.5902 8.11202C50.5742 8.06402 50.5782 8.02402 50.6022 7.99202C50.6342 7.95202 50.6702 7.91202 50.7102 7.87202C50.7582 7.83202 50.7902 7.79602 50.8062 7.76402C50.8702 7.76402 50.9502 7.76802 51.0462 7.77602C51.1422 7.77602 51.2542 7.78402 51.3822 7.80002C51.4222 7.81602 51.4702 7.83202 51.5262 7.84802C51.5902 7.86402 51.6422 7.88002 51.6822 7.89602C51.7062 7.96002 51.7382 8.00802 51.7782 8.04002C51.8262 8.06402 51.8942 8.09602 51.9822 8.13602C51.9422 8.16002 51.9302 8.19202 51.9462 8.23202C51.9702 8.26402 52.0022 8.29602 52.0422 8.32802C52.0662 8.36802 52.0742 8.41202 52.0662 8.46002C52.0582 8.50002 52.0422 8.54802 52.0182 8.60402C51.9942 8.66002 51.9862 8.71202 51.9942 8.76002C52.1462 9.04802 52.2782 9.32802 52.3902 9.60002C52.4382 9.70402 52.4942 9.82802 52.5582 9.97202C52.6222 10.108 52.6982 10.264 52.7862 10.44C52.8102 10.464 52.8262 10.456 52.8342 10.416C52.8502 10.368 52.8662 10.336 52.8822 10.32C52.9142 10.176 52.9502 10.08 52.9902 10.032C53.0142 9.96802 53.0502 9.87602 53.0982 9.75602C53.1462 9.63602 53.1742 9.53202 53.1822 9.44402C53.4462 8.84402 53.6022 8.32802 53.6502 7.89602C53.6502 7.86402 53.6502 7.82802 53.6502 7.78802C53.6582 7.74802 53.6582 7.70402 53.6502 7.65602C53.6422 7.60002 53.6222 7.55602 53.5902 7.52402C53.5822 7.49202 53.5662 7.46002 53.5422 7.42802C53.5182 7.39602 53.5062 7.36402 53.5062 7.33202V7.32002C53.5302 7.29602 53.5702 7.27202 53.6262 7.24802C53.6822 7.21602 53.7302 7.18802 53.7702 7.16402L53.8662 7.08002Z" fill="black"/>
<path d="M46.2223 7.14002L46.2703 7.11602C46.3903 7.03602 46.5263 6.98402 46.6783 6.96002C46.8383 6.92802 46.9303 6.90802 46.9543 6.90002C47.0743 6.90002 47.1623 6.90402 47.2183 6.91202C47.4663 6.91202 47.6663 6.92802 47.8183 6.96002C47.9703 6.98402 48.0983 7.05202 48.2023 7.16402C48.2743 7.18802 48.3423 7.23202 48.4063 7.29602C48.5023 7.36002 48.5783 7.40402 48.6343 7.42802C48.8903 7.60402 49.0463 7.71602 49.1023 7.76402C49.1423 7.80402 49.1823 7.86402 49.2223 7.94402C49.2703 8.01602 49.3143 8.07602 49.3543 8.12402C49.4103 8.14802 49.4383 8.19202 49.4383 8.25602C49.4383 8.28002 49.4303 8.31603 49.4143 8.36403C49.4143 8.38803 49.4103 8.42803 49.4023 8.48403C49.4023 8.53203 49.3903 8.57203 49.3663 8.60402C49.3423 8.70002 49.3263 8.81602 49.3183 8.95202C49.3103 9.08802 49.3023 9.19202 49.2943 9.26402L49.2223 9.63602C49.1903 9.64402 49.1663 9.66002 49.1503 9.68402C49.1343 9.70802 49.1223 9.74402 49.1143 9.79202C49.1143 9.83202 49.1103 9.86402 49.1023 9.88802C49.0463 9.92802 49.0023 9.99202 48.9703 10.08C49.0423 10.088 49.0783 10.14 49.0783 10.236C49.0783 10.276 49.0743 10.316 49.0663 10.356C49.0583 10.388 49.0543 10.424 49.0543 10.464C49.0863 10.672 49.1143 10.824 49.1383 10.92C49.1863 11 49.2223 11.084 49.2463 11.172C49.2943 11.3 49.3383 11.392 49.3783 11.448C49.4583 11.512 49.5543 11.576 49.6663 11.64C49.7863 11.696 49.8703 11.736 49.9183 11.76C49.9503 11.784 49.9703 11.82 49.9783 11.868C49.9863 11.908 49.9943 11.936 50.0023 11.952C50.0583 11.992 50.1023 12.036 50.1343 12.084C50.1663 12.132 50.2023 12.2 50.2423 12.288C50.2343 12.36 50.1983 12.428 50.1343 12.492C50.1263 12.5 50.1023 12.516 50.0623 12.54C50.0223 12.564 49.9823 12.576 49.9423 12.576H49.9183C49.8143 12.624 49.7463 12.652 49.7143 12.66C49.6583 12.668 49.5943 12.676 49.5223 12.684C49.4503 12.692 49.3623 12.696 49.2583 12.696C49.1703 12.656 49.0663 12.628 48.9463 12.612C48.9303 12.612 48.8823 12.604 48.8023 12.588C48.7303 12.572 48.6623 12.544 48.5983 12.504C48.5503 12.504 48.5063 12.488 48.4663 12.456C48.4343 12.432 48.3943 12.392 48.3463 12.336C48.3063 12.288 48.2743 12.252 48.2503 12.228C48.2023 12.14 48.1383 12 48.0583 11.808C48.0343 11.776 48.0023 11.728 47.9623 11.664C47.9303 11.6 47.8903 11.564 47.8423 11.556C47.8423 11.524 47.8303 11.512 47.8063 11.52C47.7823 11.528 47.7583 11.54 47.7343 11.556C47.7103 11.572 47.6903 11.584 47.6743 11.592C47.6503 11.616 47.6103 11.648 47.5543 11.688C47.4983 11.72 47.4583 11.748 47.4343 11.772C47.3783 11.804 47.3063 11.864 47.2183 11.952C47.1863 11.968 47.1343 11.992 47.0623 12.024C46.9903 12.056 46.9383 12.1 46.9063 12.156C46.8583 12.172 46.7743 12.224 46.6543 12.312C46.6143 12.328 46.5663 12.348 46.5103 12.372C46.4543 12.404 46.4063 12.432 46.3663 12.456C46.1583 12.536 46.0023 12.592 45.8983 12.624C45.8023 12.64 45.7343 12.648 45.6943 12.648L45.4183 12.636C45.3783 12.66 45.3423 12.672 45.3103 12.672C45.2783 12.672 45.2383 12.664 45.1903 12.648C45.1503 12.64 45.1143 12.632 45.0823 12.624C45.0103 12.6 44.9303 12.56 44.8423 12.504C44.7623 12.456 44.6943 12.416 44.6383 12.384C44.6223 12.368 44.5863 12.328 44.5303 12.264C44.4743 12.208 44.4343 12.144 44.4103 12.072C44.3703 12.04 44.3423 11.972 44.3263 11.868C44.2863 11.772 44.2503 11.636 44.2183 11.46C44.2183 11.356 44.2303 11.28 44.2543 11.232C44.2623 11.208 44.2663 11.172 44.2663 11.124L44.2543 10.896C44.3183 10.616 44.4343 10.364 44.6023 10.14C44.7703 9.90803 44.9783 9.73602 45.2263 9.62402C45.2423 9.57602 45.2903 9.52002 45.3703 9.45602C45.4503 9.41602 45.5783 9.37203 45.7543 9.32403C45.8903 9.32403 46.0423 9.31603 46.2103 9.30002C46.3863 9.28402 46.5103 9.27202 46.5823 9.26402C46.7103 9.25602 46.8463 9.26802 46.9903 9.30002C47.1343 9.32402 47.2743 9.35602 47.4103 9.39602C47.7223 9.46002 47.8983 9.49602 47.9383 9.50402C47.9783 9.46402 48.0103 9.41202 48.0343 9.34802C48.0663 9.28402 48.0903 9.23602 48.1063 9.20402C48.1303 9.13202 48.1623 9.04002 48.2023 8.92802C48.2423 8.81602 48.2743 8.70402 48.2983 8.59202C48.3223 8.48002 48.3303 8.36802 48.3223 8.25602C48.3143 8.22402 48.2943 8.20002 48.2623 8.18402C48.2303 8.16002 48.2063 8.14402 48.1903 8.13602C48.1503 8.12002 48.0943 8.08802 48.0223 8.04002C47.9503 7.98402 47.8823 7.96002 47.8183 7.96802C47.8023 7.96002 47.7743 7.95202 47.7343 7.94402C47.7023 7.92802 47.6743 7.90802 47.6503 7.88402C47.5943 7.87602 47.5263 7.86402 47.4463 7.84802C47.3743 7.82402 47.3103 7.81602 47.2543 7.82402C47.1423 7.85602 47.0623 7.87202 47.0143 7.87202C46.9663 7.89602 46.9063 7.91602 46.8343 7.93202C46.7623 7.94002 46.7063 7.95202 46.6663 7.96802L46.2823 8.13602C46.2503 8.16002 46.1983 8.18403 46.1263 8.20802C46.0623 8.23202 46.0143 8.25202 45.9823 8.26802C45.9263 8.33202 45.8583 8.38802 45.7783 8.43602C45.7063 8.47602 45.6623 8.50002 45.6463 8.50802C45.5983 8.54002 45.5463 8.58003 45.4903 8.62803C45.4343 8.66803 45.3703 8.71202 45.2983 8.76003C45.2503 8.77603 45.1783 8.79202 45.0823 8.80802C44.9783 8.77602 44.8383 8.71603 44.6623 8.62803C44.6303 8.53203 44.6143 8.46002 44.6143 8.41202C44.6143 8.31602 44.6543 8.19602 44.7343 8.05202C44.8463 7.98802 44.9743 7.90002 45.1183 7.78802C45.3263 7.63602 45.4823 7.53602 45.5863 7.48802C45.6743 7.42402 45.7263 7.38802 45.7423 7.38002C45.7823 7.34802 45.8303 7.32002 45.8863 7.29602C45.9503 7.27202 45.9983 7.25202 46.0303 7.23602C46.0543 7.21202 46.0863 7.19202 46.1263 7.17602C46.1663 7.16002 46.1983 7.14802 46.2223 7.14002ZM47.2903 10.164L47.2783 10.152C47.2543 10.12 47.2103 10.1 47.1463 10.092C47.0903 10.084 47.0503 10.076 47.0263 10.068C46.8583 10.06 46.6943 10.08 46.5343 10.128C46.3743 10.168 46.1863 10.236 45.9703 10.332C45.8183 10.364 45.7143 10.408 45.6583 10.464C45.4343 10.728 45.3063 11.12 45.2743 11.64C45.3383 11.648 45.4103 11.64 45.4903 11.616C45.5783 11.584 45.6383 11.564 45.6703 11.556C45.9183 11.372 46.0903 11.256 46.1863 11.208C46.3543 11.072 46.5143 10.936 46.6663 10.8C46.7063 10.744 46.7583 10.684 46.8223 10.62C46.8943 10.556 46.9503 10.508 46.9903 10.476C47.0463 10.436 47.1223 10.368 47.2183 10.272L47.2903 10.164Z" fill="black"/>
<path d="M42.4926 4.66798L42.5046 4.63198C42.5446 4.59998 42.5966 4.58398 42.6606 4.58398C42.7646 4.58398 42.8606 4.61998 42.9486 4.69198C43.0446 4.81998 43.1246 4.90798 43.1886 4.95598C43.2126 4.98798 43.2286 5.03198 43.2366 5.08798C43.2446 5.13598 43.2526 5.17198 43.2606 5.19598C43.2686 5.29198 43.2606 5.39198 43.2366 5.49598C43.2126 5.59998 43.1966 5.66798 43.1886 5.69998C43.1646 5.75598 43.1446 5.84798 43.1286 5.97598C43.1206 6.04798 43.1166 6.15598 43.1166 6.29998L43.1286 6.95998C43.1686 7.64798 43.1886 8.67998 43.1886 10.056V11.088C43.1966 11.2 43.2006 11.364 43.2006 11.58V12.084C43.1686 12.244 43.0966 12.324 42.9846 12.324C42.9366 12.356 42.8886 12.36 42.8406 12.336C42.8006 12.32 42.7566 12.288 42.7086 12.24C42.6606 12.192 42.6166 12.156 42.5766 12.132C42.5446 12.116 42.5006 12.072 42.4446 12C42.3006 11.84 42.2046 11.712 42.1566 11.616C42.1326 11.552 42.1206 11.488 42.1206 11.424C42.1206 11.328 42.1486 11.216 42.2046 11.088C42.2686 10.928 42.2966 10.8 42.2886 10.704C42.3046 10.352 42.3126 10.092 42.3126 9.92398C42.3446 9.21998 42.3606 8.69598 42.3606 8.35198C42.3606 7.71198 42.3246 7.15998 42.2526 6.69598C42.2286 6.35998 42.2166 6.02798 42.2166 5.69998C42.2086 5.62798 42.2046 5.51998 42.2046 5.37598C42.2046 5.34398 42.2006 5.29598 42.1926 5.23198C42.1846 5.16798 42.1766 5.11598 42.1686 5.07598C42.1926 5.03598 42.2246 4.98398 42.2646 4.91998C42.3046 4.84798 42.3446 4.79198 42.3846 4.75198C42.4486 4.71198 42.4846 4.68398 42.4926 4.66798Z" fill="black"/>
<path d="M37.4907 6.97202L37.5147 6.96002C37.7067 6.92002 37.9427 6.90002 38.2227 6.90002L38.8347 6.91202C38.9707 6.92002 39.1227 6.96002 39.2907 7.03202C39.4187 7.06402 39.5187 7.10802 39.5907 7.16402C39.6227 7.18002 39.6787 7.20802 39.7587 7.24802C39.8467 7.28002 39.9187 7.32002 39.9747 7.36802C40.1827 7.49602 40.3267 7.59602 40.4067 7.66802C40.4947 7.77202 40.5467 7.84402 40.5627 7.88402C40.6027 7.90002 40.6387 7.94002 40.6707 8.00402C40.7027 8.06802 40.7267 8.11202 40.7427 8.13602C40.9027 8.29602 41.0027 8.45202 41.0427 8.60402C41.0907 8.63602 41.1147 8.69202 41.1147 8.77202L41.1027 8.91603C41.1267 8.94802 41.1387 8.98402 41.1387 9.02402C41.1387 9.08802 41.0867 9.18002 40.9827 9.30002C40.9667 9.34002 40.9387 9.36802 40.8987 9.38402C40.8667 9.39202 40.8227 9.39602 40.7667 9.39602C40.7187 9.39602 40.6787 9.40402 40.6467 9.42002C40.5907 9.41202 40.5267 9.42402 40.4547 9.45602C40.3907 9.48002 40.3347 9.49602 40.2867 9.50402C40.1507 9.50402 40.0507 9.49202 39.9867 9.46802C39.9387 9.46002 39.8747 9.45203 39.7947 9.44403C39.7147 9.43603 39.6187 9.43202 39.5067 9.43202C39.3627 9.43202 39.2387 9.44802 39.1347 9.48002C39.0547 9.48802 38.9267 9.49202 38.7507 9.49202C38.5747 9.49202 38.4267 9.50002 38.3067 9.51602C38.1867 9.52402 38.0747 9.55203 37.9707 9.60003C37.8987 9.60803 37.8067 9.61202 37.6947 9.61202C37.5907 9.61202 37.4947 9.62002 37.4067 9.63602C37.3187 9.64402 37.2387 9.67603 37.1667 9.73203C37.1507 9.76403 37.1187 9.80002 37.0707 9.84002C37.0307 9.87202 36.9987 9.90402 36.9747 9.93602C36.9667 9.97602 36.9547 10.02 36.9387 10.068C36.9227 10.108 36.9147 10.14 36.9147 10.164C36.9147 10.196 36.9267 10.232 36.9507 10.272C36.9427 10.32 36.9547 10.372 36.9867 10.428C37.0187 10.484 37.0387 10.528 37.0467 10.56C37.0627 10.576 37.0987 10.616 37.1547 10.68C37.2107 10.736 37.2707 10.792 37.3347 10.848C37.4067 10.904 37.4867 10.944 37.5747 10.968C37.6947 10.976 37.7987 10.98 37.8867 10.98C37.9747 10.972 38.0507 10.968 38.1147 10.968C38.1707 10.952 38.2587 10.936 38.3787 10.92C38.4987 10.896 38.5987 10.86 38.6787 10.812C38.7747 10.788 38.8787 10.752 38.9907 10.704C39.1107 10.656 39.1907 10.624 39.2307 10.608C39.3587 10.576 39.4507 10.544 39.5067 10.512C39.6267 10.52 39.7627 10.504 39.9147 10.464C40.0587 10.432 40.1667 10.416 40.2387 10.416C40.2947 10.416 40.3347 10.42 40.3587 10.428C40.3987 10.444 40.4387 10.456 40.4787 10.464C40.5267 10.472 40.5587 10.476 40.5747 10.476C40.6307 10.492 40.6627 10.544 40.6707 10.632C40.6867 10.712 40.7187 10.76 40.7667 10.776C40.7827 10.784 40.8107 10.792 40.8507 10.8C40.8907 10.808 40.9187 10.828 40.9347 10.86C40.9267 10.892 40.9307 10.936 40.9467 10.992C40.9707 11.048 40.9827 11.088 40.9827 11.112C40.9827 11.144 40.9707 11.172 40.9467 11.196C40.9307 11.276 40.9027 11.344 40.8627 11.4C40.7987 11.408 40.7427 11.452 40.6947 11.532C40.6467 11.604 40.6067 11.656 40.5747 11.688L40.2747 11.856C40.1307 11.92 40.0267 11.976 39.9627 12.024C39.6827 12.136 39.4787 12.208 39.3507 12.24C39.2627 12.264 39.1587 12.28 39.0387 12.288C38.9267 12.296 38.8387 12.304 38.7747 12.312H38.2107C37.9627 12.312 37.7747 12.308 37.6467 12.3C37.6067 12.292 37.5227 12.272 37.3947 12.24C37.2667 12.216 37.1507 12.18 37.0467 12.132C37.0307 12.116 37.0027 12.1 36.9627 12.084C36.9307 12.076 36.9107 12.06 36.9027 12.036C36.8547 12.02 36.7747 11.964 36.6627 11.868C36.5907 11.836 36.5227 11.792 36.4587 11.736C36.3947 11.672 36.3507 11.628 36.3267 11.604C36.1987 11.452 36.0627 11.304 35.9187 11.16L35.7147 10.8C35.7067 10.768 35.6907 10.72 35.6667 10.656C35.6507 10.592 35.6267 10.54 35.5947 10.5C35.5947 10.492 35.5907 10.472 35.5827 10.44C35.5827 10.4 35.5907 10.368 35.6067 10.344L35.5947 9.88802C35.6107 9.82402 35.6187 9.78002 35.6187 9.75602C35.6187 9.70002 35.6067 9.63202 35.5827 9.55202C35.5667 9.46402 35.5547 9.38803 35.5467 9.32403L35.5587 9.21602C35.5587 9.20002 35.5507 9.17602 35.5347 9.14402C35.5267 9.08802 35.5427 9.03602 35.5827 8.98802C35.6227 8.94002 35.6467 8.91202 35.6547 8.90402C35.6627 8.87202 35.6747 8.81602 35.6907 8.73602C35.7147 8.65602 35.7427 8.59202 35.7747 8.54402C35.7987 8.47202 35.8467 8.38802 35.9187 8.29202C35.9907 8.18002 36.0347 8.10002 36.0507 8.05202C36.0907 8.00402 36.1347 7.96002 36.1827 7.92002C36.2307 7.84002 36.3187 7.72802 36.4467 7.58402C36.6147 7.44802 36.7627 7.34402 36.8907 7.27202C36.9147 7.23202 36.9627 7.19602 37.0347 7.16402C37.1147 7.12402 37.1667 7.08802 37.1907 7.05602L37.4907 6.97202ZM39.1347 7.98002L39.0387 7.95602C38.9907 7.94802 38.9187 7.94402 38.8227 7.94402C38.6307 7.94402 38.3867 7.98802 38.0907 8.07603C37.9707 8.12403 37.8307 8.21202 37.6707 8.34002L37.4307 8.58002C37.4627 8.61202 37.4987 8.62803 37.5387 8.62803L37.6707 8.61602H37.6947C37.7267 8.60802 37.7707 8.60002 37.8267 8.59202C37.8827 8.57602 37.9307 8.56002 37.9707 8.54402C38.0347 8.53602 38.1307 8.53202 38.2587 8.53202C38.3867 8.52402 38.4867 8.49202 38.5587 8.43602L38.6667 8.44802C38.7227 8.44802 38.7747 8.44402 38.8227 8.43602C38.8787 8.42802 38.9387 8.42402 39.0027 8.42402C39.0347 8.42402 39.0907 8.42802 39.1707 8.43602C39.2507 8.43602 39.3147 8.44802 39.3627 8.47202C39.4347 8.48002 39.4947 8.48403 39.5427 8.48403C39.5987 8.47603 39.6427 8.47202 39.6747 8.47202C39.7227 8.44802 39.7467 8.42002 39.7467 8.38802C39.7467 8.34802 39.6947 8.27602 39.5907 8.17202C39.3587 8.06002 39.2067 7.99602 39.1347 7.98002Z" fill="black"/>
<path d="M30.6402 4.13997H30.7722C30.8842 4.12397 31.0562 4.11597 31.2882 4.11597C31.5122 4.11597 31.6802 4.11997 31.7922 4.12797C31.9522 4.15197 32.0962 4.19197 32.2242 4.24797C32.2482 4.26397 32.3002 4.29597 32.3802 4.34397C32.4682 4.38397 32.5402 4.42797 32.5962 4.47597C32.6202 4.49997 32.6602 4.54797 32.7162 4.61997C32.7722 4.68397 32.8322 4.72397 32.8962 4.73997C32.9842 4.81197 33.0682 4.90797 33.1482 5.02797C33.2362 5.13997 33.3002 5.21997 33.3402 5.26797C33.3482 5.32397 33.3762 5.39997 33.4242 5.49597C33.4722 5.58397 33.5002 5.65597 33.5082 5.71197C33.5402 5.83197 33.5562 5.95997 33.5562 6.09597C33.5562 6.23197 33.5362 6.35197 33.4962 6.45597C33.4162 6.55997 33.3482 6.66397 33.2922 6.76797C33.1882 6.93597 33.0922 7.07197 33.0042 7.17597C32.9242 7.27197 32.8242 7.33997 32.7042 7.37997L32.2962 7.58397C32.2882 7.61597 32.2882 7.65197 32.2962 7.69197C32.3122 7.72397 32.3202 7.74797 32.3202 7.76397C32.3122 7.82797 32.3162 7.88797 32.3322 7.94397C32.3482 7.99997 32.3722 8.06397 32.4042 8.13597C32.4442 8.20797 32.4722 8.26797 32.4882 8.31597C32.5042 8.35597 32.5202 8.40797 32.5362 8.47197C32.5602 8.53597 32.5882 8.58397 32.6202 8.61597C32.6282 8.63197 32.6402 8.65997 32.6562 8.69997C32.6802 8.73997 32.7082 8.76797 32.7402 8.78397L32.7282 8.79597C32.7522 8.86797 32.7922 8.94797 32.8482 9.03597C32.9122 9.12397 32.9602 9.19597 32.9922 9.25197C33.0002 9.29997 33.0242 9.35597 33.0642 9.41997C33.1042 9.48397 33.1322 9.53597 33.1482 9.57597C33.3002 9.83197 33.4722 10.08 33.6642 10.32C33.6882 10.352 33.7802 10.448 33.9402 10.608C33.9562 10.624 34.0082 10.676 34.0962 10.764C34.1842 10.852 34.2562 10.944 34.3122 11.04C34.3362 11.072 34.3482 11.112 34.3482 11.16L34.3362 11.244C34.3522 11.252 34.3842 11.268 34.4322 11.292C34.4882 11.308 34.5242 11.34 34.5402 11.388C34.5082 11.436 34.5042 11.492 34.5282 11.556C34.5522 11.612 34.5682 11.656 34.5762 11.688C34.5682 11.744 34.5322 11.792 34.4682 11.832C34.4042 11.864 34.3602 11.892 34.3362 11.916C34.2402 11.972 34.1282 12.004 34.0002 12.012C33.8722 12.02 33.7842 12.028 33.7362 12.036C33.6722 12.052 33.5842 12.08 33.4722 12.12C33.3602 12.16 33.2602 12.168 33.1722 12.144C33.1562 12.152 33.1362 12.16 33.1122 12.168C33.0882 12.176 33.0602 12.18 33.0282 12.18C33.0042 12.18 32.9762 12.172 32.9442 12.156C32.9042 12.092 32.8482 12.036 32.7762 11.988C32.7122 11.94 32.6722 11.908 32.6562 11.892C32.5682 11.852 32.4882 11.784 32.4162 11.688C32.3442 11.584 32.2922 11.512 32.2602 11.472C32.1642 11.28 32.0962 11.136 32.0562 11.04C31.9122 10.528 31.7962 10.144 31.7082 9.88797C31.7002 9.87197 31.6802 9.84397 31.6482 9.80397C31.6162 9.75597 31.5962 9.70797 31.5882 9.65997C31.5642 9.63597 31.5442 9.59997 31.5282 9.55197C31.5122 9.49597 31.4962 9.45597 31.4802 9.43197C31.4722 9.39997 31.4562 9.33997 31.4322 9.25197C31.4162 9.15597 31.3882 9.07197 31.3482 8.99997C31.3322 8.93597 31.3122 8.84797 31.2882 8.73597C31.2642 8.62397 31.2242 8.53197 31.1682 8.45997C31.1522 8.41197 31.1122 8.34797 31.0482 8.26797C30.9522 8.10797 30.7682 8.02797 30.4962 8.02797C30.3922 8.02797 30.3122 8.03197 30.2562 8.03997L30.0162 8.05197C29.9282 8.05197 29.8642 8.04797 29.8242 8.03997L29.2362 8.02797C29.1722 8.09197 29.1122 8.17197 29.0562 8.26797V8.93997C29.0562 9.36397 29.0762 9.71997 29.1162 10.008C29.1242 10.392 29.0722 10.788 28.9602 11.196C28.9522 11.3 28.9602 11.412 28.9842 11.532C29.0082 11.652 29.0242 11.728 29.0322 11.76C29.0322 11.92 29.0162 12.06 28.9842 12.18C28.9682 12.204 28.9522 12.232 28.9362 12.264C28.9202 12.296 28.9042 12.32 28.8882 12.336C28.8322 12.368 28.7722 12.384 28.7082 12.384C28.6442 12.384 28.5922 12.368 28.5522 12.336C28.4962 12.368 28.4442 12.372 28.3962 12.348C28.3562 12.324 28.3002 12.276 28.2282 12.204C28.1642 12.14 28.1162 12.1 28.0842 12.084C28.0522 12.052 27.9922 11.992 27.9042 11.904C27.8162 11.816 27.7282 11.72 27.6402 11.616C27.5602 11.504 27.5122 11.38 27.4962 11.244C27.4802 11.22 27.4722 11.192 27.4722 11.16C27.4802 11.128 27.4962 11.096 27.5202 11.064C27.5442 11.024 27.5602 10.996 27.5682 10.98C27.5922 10.964 27.6162 10.952 27.6402 10.944C27.6722 10.936 27.6882 10.92 27.6882 10.896L27.6762 10.824C27.7242 10.72 27.7682 10.572 27.8082 10.38C27.8082 10.14 27.8322 9.97197 27.8802 9.87597C27.8802 9.80397 27.8802 9.70397 27.8802 9.57597C27.8882 9.43997 27.9002 9.32397 27.9162 9.22797C27.8842 9.13197 27.8682 9.01597 27.8682 8.87997C27.8682 8.80797 27.8762 8.69197 27.8922 8.53197C27.8922 8.49197 27.8962 8.42797 27.9042 8.33997C27.9202 8.25197 27.9242 8.17597 27.9162 8.11197C27.9162 7.91997 27.9202 7.75197 27.9282 7.60797C27.9362 7.46397 27.9442 7.34397 27.9522 7.24797C27.9842 6.78397 28.0002 6.43597 28.0002 6.20397L27.9882 5.84397C28.0042 5.79597 28.0122 5.72397 28.0122 5.62797V5.48397C28.0282 5.38797 28.0362 5.31997 28.0362 5.27997L28.0242 4.99197C27.9922 4.84797 27.9602 4.74797 27.9282 4.69197C27.9362 4.65997 27.9402 4.60797 27.9402 4.53597C27.9482 4.46397 27.9682 4.40797 28.0002 4.36797C28.0242 4.35197 28.0562 4.32797 28.0962 4.29597C28.1362 4.25597 28.1802 4.23597 28.2282 4.23597H28.2522C28.3402 4.21197 28.4202 4.19997 28.4922 4.19997C28.5562 4.19997 28.6402 4.20797 28.7442 4.22397C28.8482 4.23997 28.9362 4.25197 29.0082 4.25997C29.0402 4.26797 29.0802 4.28397 29.1282 4.30797C29.1762 4.33197 29.2202 4.34397 29.2602 4.34397C29.2842 4.34397 29.3042 4.33997 29.3202 4.33197C29.4242 4.28397 29.5402 4.25197 29.6682 4.23597C29.7962 4.21197 29.8762 4.19597 29.9082 4.18797L30.6402 4.13997ZM32.1282 5.56797L32.0922 5.49597C32.0362 5.42397 32.0002 5.38397 31.9842 5.37597C31.8562 5.33597 31.6882 5.31597 31.4802 5.31597H31.0482H30.6762C30.5082 5.31597 30.3802 5.31997 30.2922 5.32797C30.2362 5.34397 30.1482 5.36397 30.0282 5.38797C29.9082 5.41197 29.7882 5.43997 29.6682 5.47197C29.5482 5.50397 29.4362 5.55197 29.3322 5.61597C29.2362 5.71197 29.1802 5.79197 29.1642 5.85597L29.1282 6.14397C29.0882 6.38397 29.0682 6.60797 29.0682 6.81597C29.0762 6.87997 29.1202 6.93597 29.2002 6.98397C29.3122 6.99997 29.4362 7.00797 29.5722 7.00797C29.7162 7.00797 29.8082 7.00797 29.8482 7.00797L30.5322 6.98397C30.5882 6.95997 30.6482 6.93197 30.7122 6.89997C30.7762 6.85997 30.8242 6.82797 30.8562 6.80397L31.0962 6.70797C31.3282 6.61997 31.5082 6.52797 31.6362 6.43197C31.6922 6.37597 31.7602 6.31197 31.8402 6.23997C31.9282 6.16797 32.0042 6.09597 32.0682 6.02397C32.1322 5.95197 32.1802 5.87197 32.2122 5.78397C32.2202 5.74397 32.2082 5.70397 32.1762 5.66397C32.1522 5.61597 32.1362 5.58397 32.1282 5.56797Z" fill="black"/>
<path d="M22.0921 6.85198L22.1281 6.75598C22.2561 6.76398 22.3961 6.78798 22.5481 6.82798C22.5801 6.84398 22.6001 6.87598 22.6081 6.92398C22.6241 6.96398 22.6361 6.99198 22.6441 7.00798C22.6681 7.02398 22.7081 7.05198 22.7641 7.09198C22.8201 7.13198 22.8561 7.17998 22.8721 7.23598C22.8721 7.29998 22.8801 7.39598 22.8961 7.52398C22.9281 7.54798 22.9401 7.57598 22.9321 7.60798C22.9241 7.63998 22.9081 7.67998 22.8841 7.72798C22.8601 7.76798 22.8481 7.79998 22.8481 7.82398C22.8401 7.98398 22.8121 8.21598 22.7641 8.51998C22.7161 9.03198 22.6921 9.80798 22.6921 10.848C22.6921 11.328 22.6881 11.688 22.6801 11.928C22.6641 11.976 22.6401 12.004 22.6081 12.012C22.5761 12.028 22.5321 12.04 22.4761 12.048C22.4281 12.056 22.3881 12.072 22.3561 12.096C22.3321 12.064 22.3001 12.024 22.2601 11.976C22.2281 11.928 22.1921 11.888 22.1521 11.856C22.1281 11.84 22.0921 11.812 22.0441 11.772C22.0041 11.724 21.9681 11.692 21.9361 11.676C21.8881 11.596 21.8601 11.516 21.8521 11.436C21.8441 11.348 21.8401 11.224 21.8401 11.064C21.8081 10.984 21.7681 10.944 21.7201 10.944C21.6801 10.944 21.6361 10.968 21.5881 11.016C21.5401 11.056 21.4881 11.112 21.4321 11.184C21.3761 11.256 21.3321 11.312 21.3001 11.352C21.2841 11.36 21.2521 11.376 21.2041 11.4C21.1641 11.416 21.1401 11.444 21.1321 11.484C21.1081 11.508 21.0401 11.576 20.9281 11.688C20.8241 11.792 20.7121 11.884 20.5921 11.964C20.5521 12.02 20.4881 12.064 20.4001 12.096C20.3201 12.128 20.2601 12.156 20.2201 12.18C20.1401 12.204 20.0601 12.216 19.9801 12.216C19.9401 12.208 19.8641 12.188 19.7521 12.156C19.6481 12.132 19.5521 12.124 19.4641 12.132C19.3441 12.116 19.2241 12.076 19.1041 12.012C18.9841 11.956 18.9081 11.92 18.8761 11.904C18.5641 11.696 18.3601 11.412 18.2641 11.052C18.1761 10.684 18.1361 10.244 18.1441 9.73198C18.1601 9.61998 18.1921 9.54398 18.2401 9.50398C18.2801 9.39998 18.3001 9.23998 18.3001 9.02398C18.3001 8.91998 18.3041 8.83998 18.3121 8.78398L18.3241 8.42398C18.3401 8.13598 18.3481 7.91598 18.3481 7.76398C18.3481 7.59598 18.3441 7.47198 18.3361 7.39198C18.3041 7.35998 18.2881 7.31598 18.2881 7.25998C18.2881 7.21998 18.2921 7.18398 18.3001 7.15198C18.3081 7.11998 18.3121 7.08798 18.3121 7.05598C18.4881 6.97598 18.7081 6.92798 18.9721 6.91198C19.0281 6.94398 19.1201 6.97598 19.2481 7.00798C19.2561 7.07998 19.2921 7.15198 19.3561 7.22398C19.4281 7.28798 19.4761 7.33598 19.5001 7.36798L19.5121 7.53598C19.5121 7.63998 19.4921 7.72398 19.4521 7.78798C19.4041 7.81198 19.3721 7.84798 19.3561 7.89598C19.3401 7.94398 19.3281 8.00398 19.3201 8.07598C19.3121 8.13998 19.3001 8.19598 19.2841 8.24398C19.2521 8.52398 19.2281 8.94398 19.2121 9.50398C19.2201 9.60798 19.2201 9.69998 19.2121 9.77998C19.2121 9.85198 19.2121 9.91198 19.2121 9.95998C19.2041 10.024 19.2001 10.124 19.2001 10.26C19.2001 10.476 19.2201 10.66 19.2601 10.812C19.2841 10.852 19.3121 10.88 19.3441 10.896C19.3841 10.904 19.4321 10.912 19.4881 10.92C19.5441 10.92 19.5841 10.92 19.6081 10.92C19.7121 10.888 19.7961 10.856 19.8601 10.824C19.9241 10.784 19.9681 10.728 19.9921 10.656C20.0561 10.648 20.0881 10.636 20.0881 10.62C20.0961 10.596 20.1281 10.58 20.1841 10.572L20.1961 10.56L20.1841 10.548C20.1761 10.556 20.1641 10.556 20.1481 10.548C20.1961 10.532 20.2441 10.504 20.2921 10.464C20.3401 10.424 20.3761 10.396 20.4001 10.38C20.6241 10.132 20.7641 9.97198 20.8201 9.89998L21.0001 9.45598C21.1041 9.19998 21.1641 9.05198 21.1801 9.01198C21.2281 8.78798 21.2561 8.61998 21.2641 8.50798C21.2801 8.44398 21.3041 8.33998 21.3361 8.19598C21.3761 8.04398 21.3921 7.90798 21.3841 7.78798C21.3601 7.75598 21.3561 7.71998 21.3721 7.67998C21.3881 7.63998 21.4161 7.59198 21.4561 7.53598C21.4961 7.47198 21.5201 7.42398 21.5281 7.39198C21.5841 7.30398 21.6801 7.18398 21.8161 7.03198C21.8401 7.02398 21.8801 7.01198 21.9361 6.99598C21.9921 6.97198 22.0361 6.94398 22.0681 6.91198L22.0921 6.85198Z" fill="black"/>
<path d="M13.768 4.47598L14.992 4.33198L15.376 4.31998C15.456 4.31198 15.576 4.30798 15.736 4.30798C16.04 4.30798 16.304 4.33998 16.528 4.40398C16.664 4.45998 16.768 4.52798 16.84 4.60798C16.872 4.60798 16.896 4.62398 16.912 4.65598C16.936 4.67998 16.952 4.71598 16.96 4.76398C16.976 4.80398 16.992 4.83998 17.008 4.87198C17.088 4.93598 17.144 4.98798 17.176 5.02798C17.192 5.05198 17.192 5.07998 17.176 5.11198C17.168 5.14398 17.16 5.16798 17.152 5.18398C17.16 5.24798 17.152 5.31998 17.128 5.39998C17.096 5.42398 17.044 5.45198 16.972 5.48398C16.908 5.51598 16.86 5.54398 16.828 5.56798C16.724 5.59998 16.656 5.61998 16.624 5.62798C16.488 5.62798 16.368 5.62398 16.264 5.61598C16.168 5.60798 16.084 5.59998 16.012 5.59198C15.692 5.55998 15.456 5.54398 15.304 5.54398C15.04 5.54398 14.8 5.57598 14.584 5.63998C14.544 5.67198 14.512 5.71598 14.488 5.77198C14.464 5.81998 14.444 5.85598 14.428 5.87998C14.388 5.99998 14.36 6.17998 14.344 6.41998C14.344 6.47598 14.336 6.56798 14.32 6.69598C14.288 6.89598 14.272 7.13198 14.272 7.40398C14.272 7.48398 14.272 7.58398 14.272 7.70398C14.28 7.81598 14.28 7.95198 14.272 8.11198C14.256 8.16798 14.244 8.23198 14.236 8.30398C14.228 8.36798 14.224 8.41598 14.224 8.44798L14.212 9.53998C14.212 9.78798 14.216 9.97198 14.224 10.092C14.248 10.172 14.26 10.272 14.26 10.392C14.268 10.504 14.272 10.588 14.272 10.644C14.272 10.732 14.268 10.808 14.26 10.872C14.252 10.928 14.244 10.98 14.236 11.028C14.236 11.052 14.236 11.084 14.236 11.124C14.236 11.164 14.248 11.196 14.272 11.22C14.24 11.252 14.224 11.292 14.224 11.34C14.224 11.372 14.232 11.412 14.248 11.46C14.264 11.508 14.276 11.552 14.284 11.592C14.284 11.656 14.292 11.732 14.308 11.82C14.324 11.9 14.336 11.956 14.344 11.988C14.352 12.036 14.34 12.092 14.308 12.156C14.276 12.22 14.256 12.264 14.248 12.288C14.248 12.336 14.22 12.376 14.164 12.408C14.116 12.44 14.06 12.456 13.996 12.456H13.96C13.92 12.416 13.856 12.38 13.768 12.348C13.68 12.324 13.62 12.284 13.588 12.228C13.484 12.188 13.38 12.116 13.276 12.012C13.236 11.964 13.184 11.904 13.12 11.832C13.056 11.76 12.996 11.684 12.94 11.604C12.884 11.524 12.844 11.44 12.82 11.352C12.78 11.336 12.76 11.304 12.76 11.256C12.76 11.2 12.756 11.156 12.748 11.124C12.74 11.076 12.744 11.036 12.76 11.004C12.784 10.964 12.816 10.924 12.856 10.884C12.904 10.844 12.944 10.804 12.976 10.764C13.008 10.7 13.028 10.616 13.036 10.512C13.044 10.408 13.052 10.332 13.06 10.284C13.092 9.89198 13.116 9.29998 13.132 8.50798C13.132 8.29198 13.14 7.95998 13.156 7.51198C13.164 7.39198 13.184 7.19198 13.216 6.91198V6.52798C13.216 6.26398 13.208 6.06798 13.192 5.93998C13.168 5.83598 13.1 5.78398 12.988 5.78398H12.952C12.872 5.79998 12.716 5.82798 12.484 5.86798C12.252 5.89998 12.044 5.93998 11.86 5.98798C11.828 6.01198 11.768 6.03598 11.68 6.05998C11.6 6.07598 11.54 6.10398 11.5 6.14398C11.46 6.15998 11.412 6.16398 11.356 6.15598C11.308 6.13998 11.272 6.13198 11.248 6.13198C11.216 6.09998 11.176 6.08398 11.128 6.08398L11.068 6.09598C11.028 6.02398 10.96 5.95998 10.864 5.90398C10.824 5.89598 10.784 5.85998 10.744 5.79598C10.712 5.73198 10.676 5.69598 10.636 5.68798C10.62 5.64798 10.608 5.60398 10.6 5.55598C10.592 5.50798 10.58 5.46398 10.564 5.42398L10.576 5.32798C10.576 5.23198 10.548 5.11998 10.492 4.99198L10.48 4.85998C10.48 4.81998 10.488 4.79198 10.504 4.77598C10.568 4.74398 10.652 4.72798 10.756 4.72798C10.86 4.72798 10.94 4.72398 10.996 4.71598C11.284 4.70798 11.572 4.68398 11.86 4.64398C12.244 4.61198 12.532 4.59198 12.724 4.58398L13.36 4.49998C13.384 4.50798 13.42 4.51198 13.468 4.51198C13.54 4.51198 13.6 4.50798 13.648 4.49998C13.696 4.49198 13.736 4.48398 13.768 4.47598Z" fill="black"/>
</svg>
