<svg width="58" height="17" viewBox="0 0 58 17" fill="none" xmlns="http://www.w3.org/2000/svg">
<path fill-rule="evenodd" clip-rule="evenodd" d="M8.34589 3.88874C6.70104 3.32064 4.94918 4.17513 4.40736 5.74389C3.86554 7.31265 4.71665 9.06616 6.36149 9.63426C8.00633 10.2024 9.7582 9.34786 10.3 7.77911C10.8418 6.21035 9.99073 4.45684 8.34589 3.88874ZM3.78678 5.52955C4.46419 3.56821 6.61679 2.56815 8.56911 3.24244C10.5214 3.91674 11.598 6.0321 10.9206 7.99344C10.2432 9.95479 8.09059 10.9548 6.13827 10.2806C4.18595 9.60626 3.10937 7.4909 3.78678 5.52955Z" fill="black"/>
<path fill-rule="evenodd" clip-rule="evenodd" d="M10.6805 8.73095C10.6075 8.79573 10.5113 8.8754 10.4011 8.92748L10.1654 8.37135C10.1926 8.35849 10.2341 8.32914 10.3003 8.27038C10.3177 8.25495 10.343 8.23163 10.3714 8.20547C10.4187 8.16184 10.4746 8.11031 10.5166 8.07436C10.6593 7.95239 10.9303 7.74434 11.2578 7.85744C12.0027 8.11474 12.4688 8.90941 12.2034 9.67763C11.9381 10.4459 11.081 10.7835 10.336 10.5262C9.85542 10.3602 9.50037 9.98059 9.37012 9.52684L9.93956 9.33926C10.0135 9.59696 10.2248 9.83677 10.5369 9.94456C11.0371 10.1173 11.5121 9.86919 11.6449 9.48473C11.7777 9.10026 11.557 8.61186 11.0569 8.4391C11.0568 8.43909 11.0568 8.43906 11.0567 8.43901C11.0557 8.4384 11.0511 8.43562 11.0288 8.44493C10.9972 8.45815 10.9528 8.48726 10.8883 8.54241C10.8467 8.57794 10.8164 8.60617 10.7826 8.63772C10.7541 8.66432 10.723 8.69327 10.6805 8.73095Z" fill="black"/>
<path fill-rule="evenodd" clip-rule="evenodd" d="M3.58873 6.28169C3.60622 6.37773 3.63273 6.49978 3.68731 6.60878L4.21602 6.31668C4.20255 6.28977 4.18803 6.24107 4.17217 6.15395C4.168 6.13109 4.16249 6.09712 4.15631 6.05903C4.14601 5.99549 4.13384 5.92047 4.12293 5.86623C4.08592 5.68218 4.00108 5.35124 3.67364 5.23814C2.92865 4.98084 2.07154 5.31852 1.80621 6.08674C1.54088 6.85496 2.0069 7.64963 2.75189 7.90693C3.23247 8.07292 3.74615 7.99331 4.12866 7.71666L3.79637 7.21763C3.57912 7.37476 3.26487 7.43306 2.95278 7.32527C2.4526 7.15251 2.23195 6.66411 2.36473 6.27964C2.49752 5.89518 2.97256 5.64706 3.47274 5.81981C3.47278 5.81982 3.47285 5.81983 3.47294 5.81984C3.4741 5.81998 3.47943 5.82062 3.49119 5.84168C3.50791 5.8716 3.52491 5.92193 3.54164 6.00514C3.55242 6.05874 3.55882 6.09964 3.56597 6.14535C3.572 6.18388 3.57856 6.22583 3.58873 6.28169Z" fill="black"/>
<path fill-rule="evenodd" clip-rule="evenodd" d="M11.023 8.81427C11.2049 8.95083 11.3482 9.10877 11.4267 9.21611C11.47 9.27541 11.4577 9.36099 11.3992 9.40725C11.3407 9.45352 11.258 9.44296 11.2147 9.38366C11.1504 9.29566 11.0248 9.15634 10.8644 9.03596C10.831 9.0109 10.7966 8.98703 10.7614 8.96481C10.8243 9.08083 10.8753 9.23559 10.9006 9.45512C10.9092 9.52956 10.8576 9.59862 10.7852 9.60937C10.7129 9.62012 10.6473 9.56849 10.6387 9.49405C10.6062 9.21295 10.5293 9.08147 10.4613 9.00092C10.4319 8.96612 10.4037 8.93989 10.3723 8.91072C10.3637 8.90277 10.3549 8.8946 10.3458 8.88598C10.3067 8.84895 10.2583 8.80054 10.2268 8.73237C10.2066 8.68852 10.211 8.63622 10.2384 8.59547C10.2659 8.55471 10.3121 8.5318 10.3593 8.53548C10.6113 8.55514 10.8421 8.67849 11.023 8.81427Z" fill="black"/>
<path fill-rule="evenodd" clip-rule="evenodd" d="M3.2681 6.13582C3.04064 6.13098 2.83044 6.16684 2.70243 6.20286C2.63172 6.22276 2.58859 6.29769 2.6061 6.37022C2.62361 6.44275 2.69512 6.48542 2.76584 6.46552C2.87077 6.43599 3.05556 6.40386 3.25606 6.40812C3.2978 6.40901 3.33959 6.41146 3.38101 6.4157C3.25994 6.46819 3.12429 6.55848 2.96885 6.71556C2.91614 6.76883 2.91417 6.85505 2.96446 6.90815C3.01474 6.96125 3.09823 6.96112 3.15094 6.90786C3.34998 6.70673 3.49162 6.65072 3.59487 6.62933C3.63948 6.62009 3.67787 6.61687 3.72056 6.61328C3.7322 6.6123 3.74415 6.6113 3.75664 6.61014C3.81029 6.60516 3.87827 6.59694 3.9451 6.56272C3.98809 6.54072 4.01687 6.49682 4.02043 6.44782C4.024 6.39882 4.0018 6.35229 3.96232 6.32601C3.75191 6.18596 3.49424 6.14063 3.2681 6.13582Z" fill="black"/>
<path fill-rule="evenodd" clip-rule="evenodd" d="M8.1932 3.47655C8.26395 3.49262 8.30725 3.56521 8.2899 3.63869C8.2367 3.86408 8.11694 4.21073 7.92766 4.52842C7.74018 4.84307 7.4707 5.15217 7.10969 5.26281C7.03939 5.28435 6.96691 5.2434 6.9478 5.17134C6.92869 5.09928 6.97019 5.0234 7.04048 5.00186C7.30663 4.92029 7.53005 4.68177 7.70391 4.38997C7.87596 4.10121 7.98598 3.78259 8.03369 3.58049C8.05103 3.50701 8.12245 3.46048 8.1932 3.47655Z" fill="black"/>
<path fill-rule="evenodd" clip-rule="evenodd" d="M8.12957 3.47819C8.20028 3.45829 8.27179 3.50096 8.2893 3.57349C8.37184 3.91541 8.41606 4.76317 7.93316 5.46856C7.89062 5.5307 7.8082 5.54672 7.74906 5.50434C7.68992 5.46196 7.67647 5.37724 7.71901 5.3151C8.14152 4.69794 8.1045 3.94078 8.03323 3.64556C8.01572 3.57302 8.05885 3.49809 8.12957 3.47819Z" fill="black"/>
<path fill-rule="evenodd" clip-rule="evenodd" d="M8.06729 3.51646C8.11841 3.46156 8.20192 3.45874 8.25382 3.51015C8.51196 3.76583 8.9029 4.50298 8.55891 5.49895C8.53425 5.57034 8.4587 5.60902 8.39015 5.58534C8.3216 5.56167 8.28602 5.4846 8.31068 5.41322C8.61545 4.53078 8.26326 3.90162 8.06873 3.70894C8.01683 3.65753 8.01618 3.57135 8.06729 3.51646Z" fill="black"/>
<path fill-rule="evenodd" clip-rule="evenodd" d="M8.04751 3.54358C8.08438 3.47778 8.1652 3.45396 8.22803 3.49039C8.57768 3.6931 9.2154 4.3861 9.15267 5.58944C9.14875 5.66462 9.0866 5.72381 9.01386 5.72165C8.94112 5.71948 8.88533 5.65678 8.88925 5.5816C8.94615 4.49017 8.36784 3.88714 8.09452 3.72868C8.03169 3.69226 8.01064 3.60938 8.04751 3.54358Z" fill="black"/>
<path fill-rule="evenodd" clip-rule="evenodd" d="M10.5901 4.62264C10.627 4.65358 10.6639 4.68459 10.7011 4.71555C10.7571 4.7622 10.7647 4.84784 10.7181 4.90684C10.6715 4.96584 10.5883 4.97586 10.5323 4.92921C10.4941 4.89734 10.4565 4.86585 10.4195 4.83479C10.1626 4.6192 9.93033 4.42425 9.64638 4.26477C9.32537 4.08448 8.93558 3.9487 8.37456 3.8968C8.30219 3.89011 8.25025 3.82395 8.25855 3.74904C8.26685 3.67412 8.33225 3.61882 8.40462 3.62552C8.99837 3.68044 9.42273 3.82586 9.77688 4.02477C10.083 4.19671 10.3346 4.40805 10.5901 4.62264Z" fill="black"/>
<path fill-rule="evenodd" clip-rule="evenodd" d="M10.5685 4.05827C10.6721 4.10214 10.766 4.14183 10.8464 4.17328C10.914 4.19968 10.9466 4.27817 10.9194 4.3486C10.8921 4.41902 10.8152 4.45471 10.7477 4.42831C10.6559 4.39243 10.5557 4.35 10.4481 4.30445C10.2277 4.21109 9.97635 4.10462 9.70269 4.01457C9.29887 3.88168 8.8747 3.79546 8.49046 3.85257C8.41812 3.86332 8.35251 3.81169 8.34391 3.73725C8.3353 3.66281 8.38697 3.59375 8.45931 3.583C8.90264 3.51711 9.37193 3.6178 9.78848 3.75487C10.0714 3.84798 10.3432 3.96298 10.5685 4.05827Z" fill="black"/>
<path fill-rule="evenodd" clip-rule="evenodd" d="M9.75141 3.45509C10.2315 3.5441 10.6577 3.70601 10.9067 3.83003C10.9717 3.86238 10.9976 3.94364 10.9647 4.01154C10.9317 4.07944 10.8523 4.10826 10.7873 4.07592C10.5579 3.96167 10.1539 3.80765 9.6985 3.72321C9.24137 3.63845 8.74719 3.62658 8.32857 3.78093C8.25944 3.80641 8.18478 3.76971 8.16182 3.69895C8.13885 3.62819 8.17628 3.55017 8.24542 3.52468C8.72646 3.34732 9.27305 3.3664 9.75141 3.45509Z" fill="black"/>
<path fill-rule="evenodd" clip-rule="evenodd" d="M6.26109 2.2163C6.28898 2.14612 6.36614 2.11115 6.43344 2.1382C6.65659 2.22787 7.01789 2.40507 7.38617 2.64832C7.75327 2.89079 8.13647 3.20486 8.39435 3.57105C8.43668 3.63115 8.42293 3.71653 8.36364 3.76175C8.30435 3.80697 8.22197 3.7949 8.17965 3.7348C7.9484 3.40644 7.59501 3.11325 7.24009 2.87882C6.88634 2.64517 6.54017 2.47582 6.33244 2.39234C6.26515 2.3653 6.2332 2.28648 6.26109 2.2163Z" fill="black"/>
<path fill-rule="evenodd" clip-rule="evenodd" d="M8.2086 3.62313C7.50677 3.26616 6.34948 2.93322 5.85569 2.8112C5.78527 2.7938 5.74327 2.72038 5.7619 2.64721C5.78052 2.57404 5.85271 2.52883 5.92314 2.54623C6.41967 2.66892 7.60076 3.00734 8.32991 3.37821C8.39459 3.41111 8.41988 3.49261 8.38638 3.56024C8.35288 3.62788 8.27328 3.65603 8.2086 3.62313Z" fill="black"/>
<path fill-rule="evenodd" clip-rule="evenodd" d="M8.13485 3.81565C7.41484 3.39822 6.37015 3.27771 5.93687 3.27128C5.86408 3.2702 5.8074 3.20837 5.81027 3.13316C5.81314 3.05796 5.87448 2.99787 5.94727 2.99895C6.39738 3.00562 7.49324 3.12799 8.26836 3.57736C8.33119 3.61379 8.35223 3.69666 8.31537 3.76246C8.2785 3.82827 8.19768 3.85208 8.13485 3.81565Z" fill="black"/>
<path fill-rule="evenodd" clip-rule="evenodd" d="M9.96394 3.23981C9.96085 3.31501 9.89935 3.37491 9.82657 3.37361C9.6502 3.37045 9.3637 3.39072 9.08595 3.46155C8.80251 3.53382 8.55745 3.65143 8.43049 3.82113C8.38543 3.88137 8.3025 3.89369 8.24526 3.84866C8.18803 3.80362 8.17817 3.71828 8.22324 3.65804C8.40877 3.41005 8.73058 3.27326 9.02878 3.19722C9.33266 3.11973 9.64256 3.09779 9.83775 3.10128C9.91053 3.10259 9.96703 3.16461 9.96394 3.23981Z" fill="black"/>
<path fill-rule="evenodd" clip-rule="evenodd" d="M7.15135 2.28336C7.18897 2.21801 7.27004 2.19519 7.33242 2.23241C7.48829 2.3254 7.71881 2.5012 7.91452 2.73254C8.10896 2.96237 8.2816 3.26202 8.29319 3.60141C8.29576 3.67649 8.23882 3.74102 8.16602 3.74555C8.09322 3.75008 8.03212 3.6929 8.02955 3.61782C8.02096 3.36622 7.89037 3.12312 7.71397 2.91461C7.53884 2.70761 7.33092 2.54948 7.19618 2.46909C7.1338 2.43188 7.11373 2.34872 7.15135 2.28336Z" fill="black"/>
<path d="M55.8662 9.08002L55.8902 9.06802C55.9302 9.03602 55.9822 9.02002 56.0462 9.02002C56.0942 9.02002 56.1342 9.02402 56.1662 9.03202C56.2062 9.04002 56.2382 9.04802 56.2622 9.05602L56.9702 9.28402C57.0022 9.36402 57.0342 9.41602 57.0662 9.44002C57.1062 9.43202 57.1422 9.44402 57.1742 9.47602C57.2142 9.50002 57.2462 9.52002 57.2702 9.53602C57.2702 9.57602 57.2822 9.62802 57.3062 9.69202C57.3382 9.74802 57.3542 9.79202 57.3542 9.82402L57.3662 10.064C57.3502 10.072 57.3142 10.08 57.2582 10.088C57.2102 10.096 57.1702 10.12 57.1382 10.16C57.0662 10.288 56.9902 10.436 56.9102 10.604C56.8782 10.604 56.8542 10.62 56.8382 10.652C56.8302 10.676 56.8262 10.708 56.8262 10.748C56.8262 10.788 56.8222 10.82 56.8142 10.844C56.8062 10.852 56.7902 10.872 56.7662 10.904C56.7422 10.928 56.7302 10.956 56.7302 10.988V11C56.6662 11.064 56.6342 11.12 56.6342 11.168C56.6342 11.192 56.6382 11.208 56.6462 11.216C56.5502 11.36 56.4702 11.58 56.4062 11.876L56.3342 12.176L56.2382 12.464C56.2062 12.456 56.1862 12.476 56.1782 12.524C56.1702 12.572 56.1622 12.608 56.1542 12.632C56.1142 12.696 56.0662 12.772 56.0102 12.86C55.9542 12.94 55.8942 13.04 55.8302 13.16C55.7662 13.272 55.7222 13.38 55.6982 13.484C55.6822 13.508 55.6622 13.544 55.6382 13.592C55.6142 13.632 55.5902 13.664 55.5662 13.688C55.5582 13.744 55.5342 13.808 55.4942 13.88C55.4542 13.944 55.4222 13.996 55.3982 14.036L55.1582 14.612C55.1182 14.628 55.0902 14.66 55.0742 14.708C55.0582 14.764 55.0462 14.804 55.0382 14.828C55.0302 14.9 55.0022 14.976 54.9542 15.056C54.9142 15.136 54.8862 15.2 54.8702 15.248C54.8462 15.272 54.8222 15.312 54.7982 15.368C54.7822 15.424 54.7662 15.472 54.7502 15.512C54.7342 15.536 54.7062 15.564 54.6662 15.596C54.6262 15.628 54.6022 15.664 54.5942 15.704C54.5462 15.736 54.5022 15.784 54.4622 15.848C54.4222 15.912 54.3902 15.96 54.3662 15.992C54.2622 16.096 54.1902 16.16 54.1502 16.184L53.7422 16.556C53.6702 16.548 53.5382 16.56 53.3462 16.592C53.3062 16.6 53.2542 16.608 53.1902 16.616C53.1342 16.624 53.0702 16.628 52.9982 16.628C52.7902 16.628 52.6382 16.56 52.5422 16.424C52.5182 16.416 52.4742 16.4 52.4102 16.376C52.3542 16.36 52.3062 16.332 52.2662 16.292C52.2582 16.236 52.2182 16.192 52.1462 16.16C52.0742 16.128 52.0222 16.104 51.9902 16.088C51.9742 16.048 51.9382 15.988 51.8822 15.908C51.8182 15.836 51.7782 15.772 51.7622 15.716C51.8182 15.684 51.8782 15.668 51.9422 15.668L52.0382 15.68C52.0702 15.704 52.1102 15.716 52.1582 15.716C52.1982 15.716 52.2582 15.696 52.3382 15.656C52.4262 15.624 52.4942 15.604 52.5422 15.596C52.6462 15.564 52.7582 15.512 52.8782 15.44C52.9982 15.368 53.0822 15.32 53.1302 15.296C53.3702 15.096 53.5982 14.8 53.8142 14.408C53.8382 14.344 53.9182 14.184 54.0542 13.928C54.0782 13.872 54.1022 13.82 54.1262 13.772C54.1582 13.724 54.1822 13.684 54.1982 13.652C54.3102 13.436 54.3702 13.312 54.3782 13.28C54.4022 13.256 54.4142 13.224 54.4142 13.184C54.4142 13.144 54.3862 13.092 54.3302 13.028C54.2822 12.964 54.2462 12.912 54.2222 12.872C54.0782 12.64 53.9342 12.384 53.7902 12.104C53.6462 11.816 53.5542 11.636 53.5142 11.564L53.2382 11.012C53.1822 10.916 53.0822 10.78 52.9382 10.604C52.7862 10.42 52.6702 10.256 52.5902 10.112C52.5742 10.064 52.5782 10.024 52.6022 9.99202C52.6342 9.95202 52.6702 9.91202 52.7102 9.87202C52.7582 9.83202 52.7902 9.79602 52.8062 9.76402C52.8702 9.76402 52.9502 9.76802 53.0462 9.77602C53.1422 9.77602 53.2542 9.78402 53.3822 9.80002C53.4222 9.81602 53.4702 9.83202 53.5262 9.84802C53.5902 9.86402 53.6422 9.88002 53.6822 9.89602C53.7062 9.96002 53.7382 10.008 53.7782 10.04C53.8262 10.064 53.8942 10.096 53.9822 10.136C53.9422 10.16 53.9302 10.192 53.9462 10.232C53.9702 10.264 54.0022 10.296 54.0422 10.328C54.0662 10.368 54.0742 10.412 54.0662 10.46C54.0582 10.5 54.0422 10.548 54.0182 10.604C53.9942 10.66 53.9862 10.712 53.9942 10.76C54.1462 11.048 54.2782 11.328 54.3902 11.6C54.4382 11.704 54.4942 11.828 54.5582 11.972C54.6222 12.108 54.6982 12.264 54.7862 12.44C54.8102 12.464 54.8262 12.456 54.8342 12.416C54.8502 12.368 54.8662 12.336 54.8822 12.32C54.9142 12.176 54.9502 12.08 54.9902 12.032C55.0142 11.968 55.0502 11.876 55.0982 11.756C55.1462 11.636 55.1742 11.532 55.1822 11.444C55.4462 10.844 55.6022 10.328 55.6502 9.89602C55.6502 9.86402 55.6502 9.82802 55.6502 9.78802C55.6582 9.74802 55.6582 9.70402 55.6502 9.65602C55.6422 9.60002 55.6222 9.55602 55.5902 9.52402C55.5822 9.49202 55.5662 9.46002 55.5422 9.42802C55.5182 9.39602 55.5062 9.36402 55.5062 9.33202V9.32002C55.5302 9.29602 55.5702 9.27202 55.6262 9.24802C55.6822 9.21602 55.7302 9.18802 55.7702 9.16402L55.8662 9.08002Z" fill="black"/>
<path d="M48.2223 9.14002L48.2703 9.11602C48.3903 9.03602 48.5263 8.98402 48.6783 8.96002C48.8383 8.92802 48.9303 8.90802 48.9543 8.90002C49.0743 8.90002 49.1623 8.90402 49.2183 8.91202C49.4663 8.91202 49.6663 8.92802 49.8183 8.96002C49.9703 8.98402 50.0983 9.05202 50.2023 9.16402C50.2743 9.18802 50.3423 9.23202 50.4063 9.29602C50.5023 9.36002 50.5783 9.40402 50.6343 9.42802C50.8903 9.60402 51.0463 9.71602 51.1023 9.76402C51.1423 9.80402 51.1823 9.86402 51.2223 9.94402C51.2703 10.016 51.3143 10.076 51.3543 10.124C51.4103 10.148 51.4383 10.192 51.4383 10.256C51.4383 10.28 51.4303 10.316 51.4143 10.364C51.4143 10.388 51.4103 10.428 51.4023 10.484C51.4023 10.532 51.3903 10.572 51.3663 10.604C51.3423 10.7 51.3263 10.816 51.3183 10.952C51.3103 11.088 51.3023 11.192 51.2943 11.264L51.2223 11.636C51.1903 11.644 51.1663 11.66 51.1503 11.684C51.1343 11.708 51.1223 11.744 51.1143 11.792C51.1143 11.832 51.1103 11.864 51.1023 11.888C51.0463 11.928 51.0023 11.992 50.9703 12.08C51.0423 12.088 51.0783 12.14 51.0783 12.236C51.0783 12.276 51.0743 12.316 51.0663 12.356C51.0583 12.388 51.0543 12.424 51.0543 12.464C51.0863 12.672 51.1143 12.824 51.1383 12.92C51.1863 13 51.2223 13.084 51.2463 13.172C51.2943 13.3 51.3383 13.392 51.3783 13.448C51.4583 13.512 51.5543 13.576 51.6663 13.64C51.7863 13.696 51.8703 13.736 51.9183 13.76C51.9503 13.784 51.9703 13.82 51.9783 13.868C51.9863 13.908 51.9943 13.936 52.0023 13.952C52.0583 13.992 52.1023 14.036 52.1343 14.084C52.1663 14.132 52.2023 14.2 52.2423 14.288C52.2343 14.36 52.1983 14.428 52.1343 14.492C52.1263 14.5 52.1023 14.516 52.0623 14.54C52.0223 14.564 51.9823 14.576 51.9423 14.576H51.9183C51.8143 14.624 51.7463 14.652 51.7143 14.66C51.6583 14.668 51.5943 14.676 51.5223 14.684C51.4503 14.692 51.3623 14.696 51.2583 14.696C51.1703 14.656 51.0663 14.628 50.9463 14.612C50.9303 14.612 50.8823 14.604 50.8023 14.588C50.7303 14.572 50.6623 14.544 50.5983 14.504C50.5503 14.504 50.5063 14.488 50.4663 14.456C50.4343 14.432 50.3943 14.392 50.3463 14.336C50.3063 14.288 50.2743 14.252 50.2503 14.228C50.2023 14.14 50.1383 14 50.0583 13.808C50.0343 13.776 50.0023 13.728 49.9623 13.664C49.9303 13.6 49.8903 13.564 49.8423 13.556C49.8423 13.524 49.8303 13.512 49.8063 13.52C49.7823 13.528 49.7583 13.54 49.7343 13.556C49.7103 13.572 49.6903 13.584 49.6743 13.592C49.6503 13.616 49.6103 13.648 49.5543 13.688C49.4983 13.72 49.4583 13.748 49.4343 13.772C49.3783 13.804 49.3063 13.864 49.2183 13.952C49.1863 13.968 49.1343 13.992 49.0623 14.024C48.9903 14.056 48.9383 14.1 48.9063 14.156C48.8583 14.172 48.7743 14.224 48.6543 14.312C48.6143 14.328 48.5663 14.348 48.5103 14.372C48.4543 14.404 48.4063 14.432 48.3663 14.456C48.1583 14.536 48.0023 14.592 47.8983 14.624C47.8023 14.64 47.7343 14.648 47.6943 14.648L47.4183 14.636C47.3783 14.66 47.3423 14.672 47.3103 14.672C47.2783 14.672 47.2383 14.664 47.1903 14.648C47.1503 14.64 47.1143 14.632 47.0823 14.624C47.0103 14.6 46.9303 14.56 46.8423 14.504C46.7623 14.456 46.6943 14.416 46.6383 14.384C46.6223 14.368 46.5863 14.328 46.5303 14.264C46.4743 14.208 46.4343 14.144 46.4103 14.072C46.3703 14.04 46.3423 13.972 46.3263 13.868C46.2863 13.772 46.2503 13.636 46.2183 13.46C46.2183 13.356 46.2303 13.28 46.2543 13.232C46.2623 13.208 46.2663 13.172 46.2663 13.124L46.2543 12.896C46.3183 12.616 46.4343 12.364 46.6023 12.14C46.7703 11.908 46.9783 11.736 47.2263 11.624C47.2423 11.576 47.2903 11.52 47.3703 11.456C47.4503 11.416 47.5783 11.372 47.7543 11.324C47.8903 11.324 48.0423 11.316 48.2103 11.3C48.3863 11.284 48.5103 11.272 48.5823 11.264C48.7103 11.256 48.8463 11.268 48.9903 11.3C49.1343 11.324 49.2743 11.356 49.4103 11.396C49.7223 11.46 49.8983 11.496 49.9383 11.504C49.9783 11.464 50.0103 11.412 50.0343 11.348C50.0663 11.284 50.0903 11.236 50.1063 11.204C50.1303 11.132 50.1623 11.04 50.2023 10.928C50.2423 10.816 50.2743 10.704 50.2983 10.592C50.3223 10.48 50.3303 10.368 50.3223 10.256C50.3143 10.224 50.2943 10.2 50.2623 10.184C50.2303 10.16 50.2063 10.144 50.1903 10.136C50.1503 10.12 50.0943 10.088 50.0223 10.04C49.9503 9.98402 49.8823 9.96002 49.8183 9.96802C49.8023 9.96002 49.7743 9.95202 49.7343 9.94402C49.7023 9.92802 49.6743 9.90802 49.6503 9.88402C49.5943 9.87602 49.5263 9.86402 49.4463 9.84802C49.3743 9.82402 49.3103 9.81602 49.2543 9.82402C49.1423 9.85602 49.0623 9.87202 49.0143 9.87202C48.9663 9.89602 48.9063 9.91602 48.8343 9.93202C48.7623 9.94002 48.7063 9.95202 48.6663 9.96802L48.2823 10.136C48.2503 10.16 48.1983 10.184 48.1263 10.208C48.0623 10.232 48.0143 10.252 47.9823 10.268C47.9263 10.332 47.8583 10.388 47.7783 10.436C47.7063 10.476 47.6623 10.5 47.6463 10.508C47.5983 10.54 47.5463 10.58 47.4903 10.628C47.4343 10.668 47.3703 10.712 47.2983 10.76C47.2503 10.776 47.1783 10.792 47.0823 10.808C46.9783 10.776 46.8383 10.716 46.6623 10.628C46.6303 10.532 46.6143 10.46 46.6143 10.412C46.6143 10.316 46.6543 10.196 46.7343 10.052C46.8463 9.98802 46.9743 9.90002 47.1183 9.78802C47.3263 9.63602 47.4823 9.53602 47.5863 9.48802C47.6743 9.42402 47.7263 9.38802 47.7423 9.38002C47.7823 9.34802 47.8303 9.32002 47.8863 9.29602C47.9503 9.27202 47.9983 9.25202 48.0303 9.23602C48.0543 9.21202 48.0863 9.19202 48.1263 9.17602C48.1663 9.16002 48.1983 9.14802 48.2223 9.14002ZM49.2903 12.164L49.2783 12.152C49.2543 12.12 49.2103 12.1 49.1463 12.092C49.0903 12.084 49.0503 12.076 49.0263 12.068C48.8583 12.06 48.6943 12.08 48.5343 12.128C48.3743 12.168 48.1863 12.236 47.9703 12.332C47.8183 12.364 47.7143 12.408 47.6583 12.464C47.4343 12.728 47.3063 13.12 47.2743 13.64C47.3383 13.648 47.4103 13.64 47.4903 13.616C47.5783 13.584 47.6383 13.564 47.6703 13.556C47.9183 13.372 48.0903 13.256 48.1863 13.208C48.3543 13.072 48.5143 12.936 48.6663 12.8C48.7063 12.744 48.7583 12.684 48.8223 12.62C48.8943 12.556 48.9503 12.508 48.9903 12.476C49.0463 12.436 49.1223 12.368 49.2183 12.272L49.2903 12.164Z" fill="black"/>
<path d="M44.4926 6.66798L44.5046 6.63198C44.5446 6.59998 44.5966 6.58398 44.6606 6.58398C44.7646 6.58398 44.8606 6.61998 44.9486 6.69198C45.0446 6.81998 45.1246 6.90798 45.1886 6.95598C45.2126 6.98798 45.2286 7.03198 45.2366 7.08798C45.2446 7.13598 45.2526 7.17198 45.2606 7.19598C45.2686 7.29198 45.2606 7.39198 45.2366 7.49598C45.2126 7.59998 45.1966 7.66798 45.1886 7.69998C45.1646 7.75598 45.1446 7.84798 45.1286 7.97598C45.1206 8.04798 45.1166 8.15598 45.1166 8.29998L45.1286 8.95998C45.1686 9.64798 45.1886 10.68 45.1886 12.056V13.088C45.1966 13.2 45.2006 13.364 45.2006 13.58V14.084C45.1686 14.244 45.0966 14.324 44.9846 14.324C44.9366 14.356 44.8886 14.36 44.8406 14.336C44.8006 14.32 44.7566 14.288 44.7086 14.24C44.6606 14.192 44.6166 14.156 44.5766 14.132C44.5446 14.116 44.5006 14.072 44.4446 14C44.3006 13.84 44.2046 13.712 44.1566 13.616C44.1326 13.552 44.1206 13.488 44.1206 13.424C44.1206 13.328 44.1486 13.216 44.2046 13.088C44.2686 12.928 44.2966 12.8 44.2886 12.704C44.3046 12.352 44.3126 12.092 44.3126 11.924C44.3446 11.22 44.3606 10.696 44.3606 10.352C44.3606 9.71198 44.3246 9.15998 44.2526 8.69598C44.2286 8.35998 44.2166 8.02798 44.2166 7.69998C44.2086 7.62798 44.2046 7.51998 44.2046 7.37598C44.2046 7.34398 44.2006 7.29598 44.1926 7.23198C44.1846 7.16798 44.1766 7.11598 44.1686 7.07598C44.1926 7.03598 44.2246 6.98398 44.2646 6.91998C44.3046 6.84798 44.3446 6.79198 44.3846 6.75198C44.4486 6.71198 44.4846 6.68398 44.4926 6.66798Z" fill="black"/>
<path d="M39.4907 8.97202L39.5147 8.96002C39.7067 8.92002 39.9427 8.90002 40.2227 8.90002L40.8347 8.91202C40.9707 8.92002 41.1227 8.96002 41.2907 9.03202C41.4187 9.06402 41.5187 9.10802 41.5907 9.16402C41.6227 9.18002 41.6787 9.20802 41.7587 9.24802C41.8467 9.28002 41.9187 9.32002 41.9747 9.36802C42.1827 9.49602 42.3267 9.59602 42.4067 9.66802C42.4947 9.77202 42.5467 9.84402 42.5627 9.88402C42.6027 9.90002 42.6387 9.94002 42.6707 10.004C42.7027 10.068 42.7267 10.112 42.7427 10.136C42.9027 10.296 43.0027 10.452 43.0427 10.604C43.0907 10.636 43.1147 10.692 43.1147 10.772L43.1027 10.916C43.1267 10.948 43.1387 10.984 43.1387 11.024C43.1387 11.088 43.0867 11.18 42.9827 11.3C42.9667 11.34 42.9387 11.368 42.8987 11.384C42.8667 11.392 42.8227 11.396 42.7667 11.396C42.7187 11.396 42.6787 11.404 42.6467 11.42C42.5907 11.412 42.5267 11.424 42.4547 11.456C42.3907 11.48 42.3347 11.496 42.2867 11.504C42.1507 11.504 42.0507 11.492 41.9867 11.468C41.9387 11.46 41.8747 11.452 41.7947 11.444C41.7147 11.436 41.6187 11.432 41.5067 11.432C41.3627 11.432 41.2387 11.448 41.1347 11.48C41.0547 11.488 40.9267 11.492 40.7507 11.492C40.5747 11.492 40.4267 11.5 40.3067 11.516C40.1867 11.524 40.0747 11.552 39.9707 11.6C39.8987 11.608 39.8067 11.612 39.6947 11.612C39.5907 11.612 39.4947 11.62 39.4067 11.636C39.3187 11.644 39.2387 11.676 39.1667 11.732C39.1507 11.764 39.1187 11.8 39.0707 11.84C39.0307 11.872 38.9987 11.904 38.9747 11.936C38.9667 11.976 38.9547 12.02 38.9387 12.068C38.9227 12.108 38.9147 12.14 38.9147 12.164C38.9147 12.196 38.9267 12.232 38.9507 12.272C38.9427 12.32 38.9547 12.372 38.9867 12.428C39.0187 12.484 39.0387 12.528 39.0467 12.56C39.0627 12.576 39.0987 12.616 39.1547 12.68C39.2107 12.736 39.2707 12.792 39.3347 12.848C39.4067 12.904 39.4867 12.944 39.5747 12.968C39.6947 12.976 39.7987 12.98 39.8867 12.98C39.9747 12.972 40.0507 12.968 40.1147 12.968C40.1707 12.952 40.2587 12.936 40.3787 12.92C40.4987 12.896 40.5987 12.86 40.6787 12.812C40.7747 12.788 40.8787 12.752 40.9907 12.704C41.1107 12.656 41.1907 12.624 41.2307 12.608C41.3587 12.576 41.4507 12.544 41.5067 12.512C41.6267 12.52 41.7627 12.504 41.9147 12.464C42.0587 12.432 42.1667 12.416 42.2387 12.416C42.2947 12.416 42.3347 12.42 42.3587 12.428C42.3987 12.444 42.4387 12.456 42.4787 12.464C42.5267 12.472 42.5587 12.476 42.5747 12.476C42.6307 12.492 42.6627 12.544 42.6707 12.632C42.6867 12.712 42.7187 12.76 42.7667 12.776C42.7827 12.784 42.8107 12.792 42.8507 12.8C42.8907 12.808 42.9187 12.828 42.9347 12.86C42.9267 12.892 42.9307 12.936 42.9467 12.992C42.9707 13.048 42.9827 13.088 42.9827 13.112C42.9827 13.144 42.9707 13.172 42.9467 13.196C42.9307 13.276 42.9027 13.344 42.8627 13.4C42.7987 13.408 42.7427 13.452 42.6947 13.532C42.6467 13.604 42.6067 13.656 42.5747 13.688L42.2747 13.856C42.1307 13.92 42.0267 13.976 41.9627 14.024C41.6827 14.136 41.4787 14.208 41.3507 14.24C41.2627 14.264 41.1587 14.28 41.0387 14.288C40.9267 14.296 40.8387 14.304 40.7747 14.312H40.2107C39.9627 14.312 39.7747 14.308 39.6467 14.3C39.6067 14.292 39.5227 14.272 39.3947 14.24C39.2667 14.216 39.1507 14.18 39.0467 14.132C39.0307 14.116 39.0027 14.1 38.9627 14.084C38.9307 14.076 38.9107 14.06 38.9027 14.036C38.8547 14.02 38.7747 13.964 38.6627 13.868C38.5907 13.836 38.5227 13.792 38.4587 13.736C38.3947 13.672 38.3507 13.628 38.3267 13.604C38.1987 13.452 38.0627 13.304 37.9187 13.16L37.7147 12.8C37.7067 12.768 37.6907 12.72 37.6667 12.656C37.6507 12.592 37.6267 12.54 37.5947 12.5C37.5947 12.492 37.5907 12.472 37.5827 12.44C37.5827 12.4 37.5907 12.368 37.6067 12.344L37.5947 11.888C37.6107 11.824 37.6187 11.78 37.6187 11.756C37.6187 11.7 37.6067 11.632 37.5827 11.552C37.5667 11.464 37.5547 11.388 37.5467 11.324L37.5587 11.216C37.5587 11.2 37.5507 11.176 37.5347 11.144C37.5267 11.088 37.5427 11.036 37.5827 10.988C37.6227 10.94 37.6467 10.912 37.6547 10.904C37.6627 10.872 37.6747 10.816 37.6907 10.736C37.7147 10.656 37.7427 10.592 37.7747 10.544C37.7987 10.472 37.8467 10.388 37.9187 10.292C37.9907 10.18 38.0347 10.1 38.0507 10.052C38.0907 10.004 38.1347 9.96002 38.1827 9.92002C38.2307 9.84002 38.3187 9.72802 38.4467 9.58402C38.6147 9.44802 38.7627 9.34402 38.8907 9.27202C38.9147 9.23202 38.9627 9.19602 39.0347 9.16402C39.1147 9.12402 39.1667 9.08802 39.1907 9.05602L39.4907 8.97202ZM41.1347 9.98002L41.0387 9.95602C40.9907 9.94802 40.9187 9.94402 40.8227 9.94402C40.6307 9.94402 40.3867 9.98802 40.0907 10.076C39.9707 10.124 39.8307 10.212 39.6707 10.34L39.4307 10.58C39.4627 10.612 39.4987 10.628 39.5387 10.628L39.6707 10.616H39.6947C39.7267 10.608 39.7707 10.6 39.8267 10.592C39.8827 10.576 39.9307 10.56 39.9707 10.544C40.0347 10.536 40.1307 10.532 40.2587 10.532C40.3867 10.524 40.4867 10.492 40.5587 10.436L40.6667 10.448C40.7227 10.448 40.7747 10.444 40.8227 10.436C40.8787 10.428 40.9387 10.424 41.0027 10.424C41.0347 10.424 41.0907 10.428 41.1707 10.436C41.2507 10.436 41.3147 10.448 41.3627 10.472C41.4347 10.48 41.4947 10.484 41.5427 10.484C41.5987 10.476 41.6427 10.472 41.6747 10.472C41.7227 10.448 41.7467 10.42 41.7467 10.388C41.7467 10.348 41.6947 10.276 41.5907 10.172C41.3587 10.06 41.2067 9.99602 41.1347 9.98002Z" fill="black"/>
<path d="M32.6402 6.13997H32.7722C32.8842 6.12397 33.0562 6.11597 33.2882 6.11597C33.5122 6.11597 33.6802 6.11997 33.7922 6.12797C33.9522 6.15197 34.0962 6.19197 34.2242 6.24797C34.2482 6.26397 34.3002 6.29597 34.3802 6.34397C34.4682 6.38397 34.5402 6.42797 34.5962 6.47597C34.6202 6.49997 34.6602 6.54797 34.7162 6.61997C34.7722 6.68397 34.8322 6.72397 34.8962 6.73997C34.9842 6.81197 35.0682 6.90797 35.1482 7.02797C35.2362 7.13997 35.3002 7.21997 35.3402 7.26797C35.3482 7.32397 35.3762 7.39997 35.4242 7.49597C35.4722 7.58397 35.5002 7.65597 35.5082 7.71197C35.5402 7.83197 35.5562 7.95997 35.5562 8.09597C35.5562 8.23197 35.5362 8.35197 35.4962 8.45597C35.4162 8.55997 35.3482 8.66397 35.2922 8.76797C35.1882 8.93597 35.0922 9.07197 35.0042 9.17597C34.9242 9.27197 34.8242 9.33997 34.7042 9.37997L34.2962 9.58397C34.2882 9.61597 34.2882 9.65197 34.2962 9.69197C34.3122 9.72397 34.3202 9.74797 34.3202 9.76397C34.3122 9.82797 34.3162 9.88797 34.3322 9.94397C34.3482 9.99997 34.3722 10.064 34.4042 10.136C34.4442 10.208 34.4722 10.268 34.4882 10.316C34.5042 10.356 34.5202 10.408 34.5362 10.472C34.5602 10.536 34.5882 10.584 34.6202 10.616C34.6282 10.632 34.6402 10.66 34.6562 10.7C34.6802 10.74 34.7082 10.768 34.7402 10.784L34.7282 10.796C34.7522 10.868 34.7922 10.948 34.8482 11.036C34.9122 11.124 34.9602 11.196 34.9922 11.252C35.0002 11.3 35.0242 11.356 35.0642 11.42C35.1042 11.484 35.1322 11.536 35.1482 11.576C35.3002 11.832 35.4722 12.08 35.6642 12.32C35.6882 12.352 35.7802 12.448 35.9402 12.608C35.9562 12.624 36.0082 12.676 36.0962 12.764C36.1842 12.852 36.2562 12.944 36.3122 13.04C36.3362 13.072 36.3482 13.112 36.3482 13.16L36.3362 13.244C36.3522 13.252 36.3842 13.268 36.4322 13.292C36.4882 13.308 36.5242 13.34 36.5402 13.388C36.5082 13.436 36.5042 13.492 36.5282 13.556C36.5522 13.612 36.5682 13.656 36.5762 13.688C36.5682 13.744 36.5322 13.792 36.4682 13.832C36.4042 13.864 36.3602 13.892 36.3362 13.916C36.2402 13.972 36.1282 14.004 36.0002 14.012C35.8722 14.02 35.7842 14.028 35.7362 14.036C35.6722 14.052 35.5842 14.08 35.4722 14.12C35.3602 14.16 35.2602 14.168 35.1722 14.144C35.1562 14.152 35.1362 14.16 35.1122 14.168C35.0882 14.176 35.0602 14.18 35.0282 14.18C35.0042 14.18 34.9762 14.172 34.9442 14.156C34.9042 14.092 34.8482 14.036 34.7762 13.988C34.7122 13.94 34.6722 13.908 34.6562 13.892C34.5682 13.852 34.4882 13.784 34.4162 13.688C34.3442 13.584 34.2922 13.512 34.2602 13.472C34.1642 13.28 34.0962 13.136 34.0562 13.04C33.9122 12.528 33.7962 12.144 33.7082 11.888C33.7002 11.872 33.6802 11.844 33.6482 11.804C33.6162 11.756 33.5962 11.708 33.5882 11.66C33.5642 11.636 33.5442 11.6 33.5282 11.552C33.5122 11.496 33.4962 11.456 33.4802 11.432C33.4722 11.4 33.4562 11.34 33.4322 11.252C33.4162 11.156 33.3882 11.072 33.3482 11C33.3322 10.936 33.3122 10.848 33.2882 10.736C33.2642 10.624 33.2242 10.532 33.1682 10.46C33.1522 10.412 33.1122 10.348 33.0482 10.268C32.9522 10.108 32.7682 10.028 32.4962 10.028C32.3922 10.028 32.3122 10.032 32.2562 10.04L32.0162 10.052C31.9282 10.052 31.8642 10.048 31.8242 10.04L31.2362 10.028C31.1722 10.092 31.1122 10.172 31.0562 10.268V10.94C31.0562 11.364 31.0762 11.72 31.1162 12.008C31.1242 12.392 31.0722 12.788 30.9602 13.196C30.9522 13.3 30.9602 13.412 30.9842 13.532C31.0082 13.652 31.0242 13.728 31.0322 13.76C31.0322 13.92 31.0162 14.06 30.9842 14.18C30.9682 14.204 30.9522 14.232 30.9362 14.264C30.9202 14.296 30.9042 14.32 30.8882 14.336C30.8322 14.368 30.7722 14.384 30.7082 14.384C30.6442 14.384 30.5922 14.368 30.5522 14.336C30.4962 14.368 30.4442 14.372 30.3962 14.348C30.3562 14.324 30.3002 14.276 30.2282 14.204C30.1642 14.14 30.1162 14.1 30.0842 14.084C30.0522 14.052 29.9922 13.992 29.9042 13.904C29.8162 13.816 29.7282 13.72 29.6402 13.616C29.5602 13.504 29.5122 13.38 29.4962 13.244C29.4802 13.22 29.4722 13.192 29.4722 13.16C29.4802 13.128 29.4962 13.096 29.5202 13.064C29.5442 13.024 29.5602 12.996 29.5682 12.98C29.5922 12.964 29.6162 12.952 29.6402 12.944C29.6722 12.936 29.6882 12.92 29.6882 12.896L29.6762 12.824C29.7242 12.72 29.7682 12.572 29.8082 12.38C29.8082 12.14 29.8322 11.972 29.8802 11.876C29.8802 11.804 29.8802 11.704 29.8802 11.576C29.8882 11.44 29.9002 11.324 29.9162 11.228C29.8842 11.132 29.8682 11.016 29.8682 10.88C29.8682 10.808 29.8762 10.692 29.8922 10.532C29.8922 10.492 29.8962 10.428 29.9042 10.34C29.9202 10.252 29.9242 10.176 29.9162 10.112C29.9162 9.91997 29.9202 9.75197 29.9282 9.60797C29.9362 9.46397 29.9442 9.34397 29.9522 9.24797C29.9842 8.78397 30.0002 8.43597 30.0002 8.20397L29.9882 7.84397C30.0042 7.79597 30.0122 7.72397 30.0122 7.62797V7.48397C30.0282 7.38797 30.0362 7.31997 30.0362 7.27997L30.0242 6.99197C29.9922 6.84797 29.9602 6.74797 29.9282 6.69197C29.9362 6.65997 29.9402 6.60797 29.9402 6.53597C29.9482 6.46397 29.9682 6.40797 30.0002 6.36797C30.0242 6.35197 30.0562 6.32797 30.0962 6.29597C30.1362 6.25597 30.1802 6.23597 30.2282 6.23597H30.2522C30.3402 6.21197 30.4202 6.19997 30.4922 6.19997C30.5562 6.19997 30.6402 6.20797 30.7442 6.22397C30.8482 6.23997 30.9362 6.25197 31.0082 6.25997C31.0402 6.26797 31.0802 6.28397 31.1282 6.30797C31.1762 6.33197 31.2202 6.34397 31.2602 6.34397C31.2842 6.34397 31.3042 6.33997 31.3202 6.33197C31.4242 6.28397 31.5402 6.25197 31.6682 6.23597C31.7962 6.21197 31.8762 6.19597 31.9082 6.18797L32.6402 6.13997ZM34.1282 7.56797L34.0922 7.49597C34.0362 7.42397 34.0002 7.38397 33.9842 7.37597C33.8562 7.33597 33.6882 7.31597 33.4802 7.31597H33.0482H32.6762C32.5082 7.31597 32.3802 7.31997 32.2922 7.32797C32.2362 7.34397 32.1482 7.36397 32.0282 7.38797C31.9082 7.41197 31.7882 7.43997 31.6682 7.47197C31.5482 7.50397 31.4362 7.55197 31.3322 7.61597C31.2362 7.71197 31.1802 7.79197 31.1642 7.85597L31.1282 8.14397C31.0882 8.38397 31.0682 8.60797 31.0682 8.81597C31.0762 8.87997 31.1202 8.93597 31.2002 8.98397C31.3122 8.99997 31.4362 9.00797 31.5722 9.00797C31.7162 9.00797 31.8082 9.00797 31.8482 9.00797L32.5322 8.98397C32.5882 8.95997 32.6482 8.93197 32.7122 8.89997C32.7762 8.85997 32.8242 8.82797 32.8562 8.80397L33.0962 8.70797C33.3282 8.61997 33.5082 8.52797 33.6362 8.43197C33.6922 8.37597 33.7602 8.31197 33.8402 8.23997C33.9282 8.16797 34.0042 8.09597 34.0682 8.02397C34.1322 7.95197 34.1802 7.87197 34.2122 7.78397C34.2202 7.74397 34.2082 7.70397 34.1762 7.66397C34.1522 7.61597 34.1362 7.58397 34.1282 7.56797Z" fill="black"/>
<path d="M24.0921 8.85198L24.1281 8.75598C24.2561 8.76398 24.3961 8.78798 24.5481 8.82798C24.5801 8.84398 24.6001 8.87598 24.6081 8.92398C24.6241 8.96398 24.6361 8.99198 24.6441 9.00798C24.6681 9.02398 24.7081 9.05198 24.7641 9.09198C24.8201 9.13198 24.8561 9.17998 24.8721 9.23598C24.8721 9.29998 24.8801 9.39598 24.8961 9.52398C24.9281 9.54798 24.9401 9.57598 24.9321 9.60798C24.9241 9.63998 24.9081 9.67998 24.8841 9.72798C24.8601 9.76798 24.8481 9.79998 24.8481 9.82398C24.8401 9.98398 24.8121 10.216 24.7641 10.52C24.7161 11.032 24.6921 11.808 24.6921 12.848C24.6921 13.328 24.6881 13.688 24.6801 13.928C24.6641 13.976 24.6401 14.004 24.6081 14.012C24.5761 14.028 24.5321 14.04 24.4761 14.048C24.4281 14.056 24.3881 14.072 24.3561 14.096C24.3321 14.064 24.3001 14.024 24.2601 13.976C24.2281 13.928 24.1921 13.888 24.1521 13.856C24.1281 13.84 24.0921 13.812 24.0441 13.772C24.0041 13.724 23.9681 13.692 23.9361 13.676C23.8881 13.596 23.8601 13.516 23.8521 13.436C23.8441 13.348 23.8401 13.224 23.8401 13.064C23.8081 12.984 23.7681 12.944 23.7201 12.944C23.6801 12.944 23.6361 12.968 23.5881 13.016C23.5401 13.056 23.4881 13.112 23.4321 13.184C23.3761 13.256 23.3321 13.312 23.3001 13.352C23.2841 13.36 23.2521 13.376 23.2041 13.4C23.1641 13.416 23.1401 13.444 23.1321 13.484C23.1081 13.508 23.0401 13.576 22.9281 13.688C22.8241 13.792 22.7121 13.884 22.5921 13.964C22.5521 14.02 22.4881 14.064 22.4001 14.096C22.3201 14.128 22.2601 14.156 22.2201 14.18C22.1401 14.204 22.0601 14.216 21.9801 14.216C21.9401 14.208 21.8641 14.188 21.7521 14.156C21.6481 14.132 21.5521 14.124 21.4641 14.132C21.3441 14.116 21.2241 14.076 21.1041 14.012C20.9841 13.956 20.9081 13.92 20.8761 13.904C20.5641 13.696 20.3601 13.412 20.2641 13.052C20.1761 12.684 20.1361 12.244 20.1441 11.732C20.1601 11.62 20.1921 11.544 20.2401 11.504C20.2801 11.4 20.3001 11.24 20.3001 11.024C20.3001 10.92 20.3041 10.84 20.3121 10.784L20.3241 10.424C20.3401 10.136 20.3481 9.91598 20.3481 9.76398C20.3481 9.59598 20.3441 9.47198 20.3361 9.39198C20.3041 9.35998 20.2881 9.31598 20.2881 9.25998C20.2881 9.21998 20.2921 9.18398 20.3001 9.15198C20.3081 9.11998 20.3121 9.08798 20.3121 9.05598C20.4881 8.97598 20.7081 8.92798 20.9721 8.91198C21.0281 8.94398 21.1201 8.97598 21.2481 9.00798C21.2561 9.07998 21.2921 9.15198 21.3561 9.22398C21.4281 9.28798 21.4761 9.33598 21.5001 9.36798L21.5121 9.53598C21.5121 9.63998 21.4921 9.72398 21.4521 9.78798C21.4041 9.81198 21.3721 9.84798 21.3561 9.89598C21.3401 9.94398 21.3281 10.004 21.3201 10.076C21.3121 10.14 21.3001 10.196 21.2841 10.244C21.2521 10.524 21.2281 10.944 21.2121 11.504C21.2201 11.608 21.2201 11.7 21.2121 11.78C21.2121 11.852 21.2121 11.912 21.2121 11.96C21.2041 12.024 21.2001 12.124 21.2001 12.26C21.2001 12.476 21.2201 12.66 21.2601 12.812C21.2841 12.852 21.3121 12.88 21.3441 12.896C21.3841 12.904 21.4321 12.912 21.4881 12.92C21.5441 12.92 21.5841 12.92 21.6081 12.92C21.7121 12.888 21.7961 12.856 21.8601 12.824C21.9241 12.784 21.9681 12.728 21.9921 12.656C22.0561 12.648 22.0881 12.636 22.0881 12.62C22.0961 12.596 22.1281 12.58 22.1841 12.572L22.1961 12.56L22.1841 12.548C22.1761 12.556 22.1641 12.556 22.1481 12.548C22.1961 12.532 22.2441 12.504 22.2921 12.464C22.3401 12.424 22.3761 12.396 22.4001 12.38C22.6241 12.132 22.7641 11.972 22.8201 11.9L23.0001 11.456C23.1041 11.2 23.1641 11.052 23.1801 11.012C23.2281 10.788 23.2561 10.62 23.2641 10.508C23.2801 10.444 23.3041 10.34 23.3361 10.196C23.3761 10.044 23.3921 9.90798 23.3841 9.78798C23.3601 9.75598 23.3561 9.71998 23.3721 9.67998C23.3881 9.63998 23.4161 9.59198 23.4561 9.53598C23.4961 9.47198 23.5201 9.42398 23.5281 9.39198C23.5841 9.30398 23.6801 9.18398 23.8161 9.03198C23.8401 9.02398 23.8801 9.01198 23.9361 8.99598C23.9921 8.97198 24.0361 8.94398 24.0681 8.91198L24.0921 8.85198Z" fill="black"/>
<path d="M15.768 6.47598L16.992 6.33198L17.376 6.31998C17.456 6.31198 17.576 6.30798 17.736 6.30798C18.04 6.30798 18.304 6.33998 18.528 6.40398C18.664 6.45998 18.768 6.52798 18.84 6.60798C18.872 6.60798 18.896 6.62398 18.912 6.65598C18.936 6.67998 18.952 6.71598 18.96 6.76398C18.976 6.80398 18.992 6.83998 19.008 6.87198C19.088 6.93598 19.144 6.98798 19.176 7.02798C19.192 7.05198 19.192 7.07998 19.176 7.11198C19.168 7.14398 19.16 7.16798 19.152 7.18398C19.16 7.24798 19.152 7.31998 19.128 7.39998C19.096 7.42398 19.044 7.45198 18.972 7.48398C18.908 7.51598 18.86 7.54398 18.828 7.56798C18.724 7.59998 18.656 7.61998 18.624 7.62798C18.488 7.62798 18.368 7.62398 18.264 7.61598C18.168 7.60798 18.084 7.59998 18.012 7.59198C17.692 7.55998 17.456 7.54398 17.304 7.54398C17.04 7.54398 16.8 7.57598 16.584 7.63998C16.544 7.67198 16.512 7.71598 16.488 7.77198C16.464 7.81998 16.444 7.85598 16.428 7.87998C16.388 7.99998 16.36 8.17998 16.344 8.41998C16.344 8.47598 16.336 8.56798 16.32 8.69598C16.288 8.89598 16.272 9.13198 16.272 9.40398C16.272 9.48398 16.272 9.58398 16.272 9.70398C16.28 9.81598 16.28 9.95198 16.272 10.112C16.256 10.168 16.244 10.232 16.236 10.304C16.228 10.368 16.224 10.416 16.224 10.448L16.212 11.54C16.212 11.788 16.216 11.972 16.224 12.092C16.248 12.172 16.26 12.272 16.26 12.392C16.268 12.504 16.272 12.588 16.272 12.644C16.272 12.732 16.268 12.808 16.26 12.872C16.252 12.928 16.244 12.98 16.236 13.028C16.236 13.052 16.236 13.084 16.236 13.124C16.236 13.164 16.248 13.196 16.272 13.22C16.24 13.252 16.224 13.292 16.224 13.34C16.224 13.372 16.232 13.412 16.248 13.46C16.264 13.508 16.276 13.552 16.284 13.592C16.284 13.656 16.292 13.732 16.308 13.82C16.324 13.9 16.336 13.956 16.344 13.988C16.352 14.036 16.34 14.092 16.308 14.156C16.276 14.22 16.256 14.264 16.248 14.288C16.248 14.336 16.22 14.376 16.164 14.408C16.116 14.44 16.06 14.456 15.996 14.456H15.96C15.92 14.416 15.856 14.38 15.768 14.348C15.68 14.324 15.62 14.284 15.588 14.228C15.484 14.188 15.38 14.116 15.276 14.012C15.236 13.964 15.184 13.904 15.12 13.832C15.056 13.76 14.996 13.684 14.94 13.604C14.884 13.524 14.844 13.44 14.82 13.352C14.78 13.336 14.76 13.304 14.76 13.256C14.76 13.2 14.756 13.156 14.748 13.124C14.74 13.076 14.744 13.036 14.76 13.004C14.784 12.964 14.816 12.924 14.856 12.884C14.904 12.844 14.944 12.804 14.976 12.764C15.008 12.7 15.028 12.616 15.036 12.512C15.044 12.408 15.052 12.332 15.06 12.284C15.092 11.892 15.116 11.3 15.132 10.508C15.132 10.292 15.14 9.95998 15.156 9.51198C15.164 9.39198 15.184 9.19198 15.216 8.91198V8.52798C15.216 8.26398 15.208 8.06798 15.192 7.93998C15.168 7.83598 15.1 7.78398 14.988 7.78398H14.952C14.872 7.79998 14.716 7.82798 14.484 7.86798C14.252 7.89998 14.044 7.93998 13.86 7.98798C13.828 8.01198 13.768 8.03598 13.68 8.05998C13.6 8.07598 13.54 8.10398 13.5 8.14398C13.46 8.15998 13.412 8.16398 13.356 8.15598C13.308 8.13998 13.272 8.13198 13.248 8.13198C13.216 8.09998 13.176 8.08398 13.128 8.08398L13.068 8.09598C13.028 8.02398 12.96 7.95998 12.864 7.90398C12.824 7.89598 12.784 7.85998 12.744 7.79598C12.712 7.73198 12.676 7.69598 12.636 7.68798C12.62 7.64798 12.608 7.60398 12.6 7.55598C12.592 7.50798 12.58 7.46398 12.564 7.42398L12.576 7.32798C12.576 7.23198 12.548 7.11998 12.492 6.99198L12.48 6.85998C12.48 6.81998 12.488 6.79198 12.504 6.77598C12.568 6.74398 12.652 6.72798 12.756 6.72798C12.86 6.72798 12.94 6.72398 12.996 6.71598C13.284 6.70798 13.572 6.68398 13.86 6.64398C14.244 6.61198 14.532 6.59198 14.724 6.58398L15.36 6.49998C15.384 6.50798 15.42 6.51198 15.468 6.51198C15.54 6.51198 15.6 6.50798 15.648 6.49998C15.696 6.49198 15.736 6.48398 15.768 6.47598Z" fill="black"/>
</svg>
