<svg width="56" height="15" viewBox="0 0 56 15" fill="none" xmlns="http://www.w3.org/2000/svg">
<path fill-rule="evenodd" clip-rule="evenodd" d="M6.02441 2.41396C4.67792 1.94897 3.24797 2.63634 2.80943 3.90591C2.37089 5.17548 3.07177 6.59871 4.41827 7.0637C5.76476 7.5287 7.19471 6.84132 7.63325 5.57176C8.0718 4.30219 7.37091 2.87896 6.02441 2.41396ZM2.30141 3.73048C2.8497 2.1432 4.60688 1.33901 6.20508 1.89093C7.80328 2.44284 8.68956 4.15991 8.14127 5.74719C7.59298 7.33447 5.8358 8.13866 4.2376 7.58674C2.6394 7.03482 1.75312 5.31775 2.30141 3.73048Z" fill="black"/>
<path fill-rule="evenodd" clip-rule="evenodd" d="M7.94717 6.34415C7.88765 6.39643 7.80923 6.46071 7.71927 6.5026L7.52493 6.05131C7.54713 6.04097 7.58097 6.01731 7.63496 5.96988C7.64914 5.95743 7.66975 5.93861 7.69288 5.91749C7.73144 5.88227 7.77698 5.84068 7.81127 5.81168C7.9276 5.71325 8.14859 5.54545 8.41664 5.63802C9.02649 5.84863 9.40979 6.49384 9.19503 7.11555C8.98028 7.73726 8.28044 8.00843 7.67058 7.79782C7.27717 7.66196 6.98578 7.35333 6.87799 6.9853L7.34305 6.83493C7.40427 7.04395 7.5777 7.23886 7.83319 7.32709C8.24264 7.46849 8.63034 7.2688 8.73782 6.95766C8.8453 6.64652 8.66349 6.25015 8.25403 6.10875C8.254 6.10874 8.25395 6.10871 8.25389 6.10867C8.25307 6.10818 8.24931 6.10591 8.23114 6.11339C8.20533 6.12401 8.16908 6.14747 8.11648 6.19198C8.0826 6.22064 8.05793 6.24343 8.03035 6.2689C8.00711 6.29037 7.9818 6.31374 7.94717 6.34415Z" fill="black"/>
<path fill-rule="evenodd" clip-rule="evenodd" d="M2.14167 4.33937C2.15624 4.41724 2.17827 4.51621 2.2232 4.60468L2.65466 4.3695C2.64357 4.34767 2.63156 4.30817 2.61834 4.23753C2.61487 4.21899 2.61027 4.19145 2.60511 4.16057C2.5965 4.10906 2.58634 4.04824 2.57727 4.00425C2.54648 3.85502 2.47617 3.58663 2.20812 3.49406C1.59826 3.28345 0.898422 3.55462 0.683667 4.17633C0.468912 4.79804 0.852208 5.44326 1.46207 5.65386C1.85548 5.78972 2.27525 5.72668 2.58722 5.50361L2.3141 5.09832C2.13692 5.22502 1.88015 5.27136 1.62467 5.18313C1.21521 5.04173 1.03341 4.64537 1.14088 4.33423C1.24836 4.02309 1.63606 3.82339 2.04552 3.96479C2.04555 3.96481 2.0456 3.96481 2.04568 3.96482C2.04663 3.96494 2.05099 3.96547 2.06066 3.98257C2.07442 4.00686 2.08846 4.04768 2.10238 4.11516C2.11134 4.15862 2.11669 4.19177 2.12267 4.22884C2.12771 4.26007 2.1332 4.29408 2.14167 4.33937Z" fill="black"/>
<path fill-rule="evenodd" clip-rule="evenodd" d="M8.22748 6.41268C8.37665 6.52385 8.49424 6.65224 8.55872 6.73944C8.59434 6.78761 8.58453 6.85691 8.53679 6.89423C8.48906 6.93155 8.42149 6.92276 8.38587 6.87459C8.33302 6.8031 8.22994 6.68986 8.09845 6.59186C8.07108 6.57146 8.04289 6.55203 8.01404 6.53392C8.06578 6.6281 8.10793 6.75364 8.1293 6.9316C8.13654 6.99194 8.0945 7.04774 8.03538 7.05625C7.97627 7.06475 7.92247 7.02273 7.91523 6.96239C7.88787 6.73454 7.82463 6.62778 7.76876 6.56232C7.74463 6.53404 7.72148 6.51271 7.69574 6.48898C7.68872 6.48252 7.68152 6.47588 7.67404 6.46886C7.64194 6.43875 7.60221 6.39938 7.57628 6.34406C7.55961 6.30847 7.56309 6.26611 7.58541 6.23316C7.60773 6.20022 7.64542 6.18178 7.68409 6.1849C7.89019 6.20155 8.07918 6.30215 8.22748 6.41268Z" fill="black"/>
<path fill-rule="evenodd" clip-rule="evenodd" d="M1.87924 4.22029C1.69326 4.21573 1.52149 4.24418 1.41693 4.27301C1.35917 4.28893 1.32412 4.34952 1.33864 4.40834C1.35316 4.46716 1.41176 4.50193 1.46952 4.48601C1.55523 4.46238 1.70623 4.43687 1.87018 4.4409C1.90431 4.44174 1.93849 4.44384 1.97236 4.4474C1.87352 4.48958 1.76287 4.56235 1.63622 4.68919C1.59327 4.7322 1.59191 4.80206 1.63318 4.84523C1.67444 4.8884 1.74271 4.88853 1.78565 4.84552C1.94782 4.68311 2.06347 4.63814 2.14783 4.6211C2.18428 4.61374 2.21565 4.61124 2.25055 4.60845C2.26006 4.6077 2.26983 4.60692 2.28004 4.60601C2.3239 4.60213 2.37945 4.59566 2.434 4.56813C2.46909 4.55042 2.49249 4.51494 2.49527 4.47524C2.49804 4.43555 2.47976 4.39778 2.4474 4.37638C2.27496 4.2623 2.06416 4.22484 1.87924 4.22029Z" fill="black"/>
<path fill-rule="evenodd" clip-rule="evenodd" d="M5.89862 2.07964C5.95652 2.09287 5.99212 2.15181 5.97815 2.21129C5.93529 2.39377 5.83836 2.6743 5.6845 2.93118C5.53211 3.1856 5.31265 3.43528 5.01779 3.5239C4.96038 3.54116 4.901 3.50777 4.88517 3.44933C4.86934 3.39088 4.90305 3.32952 4.96046 3.31226C5.17784 3.24693 5.35984 3.0543 5.50116 2.81836C5.64101 2.58488 5.73006 2.32703 5.76849 2.16341C5.78247 2.10392 5.84073 2.06642 5.89862 2.07964Z" fill="black"/>
<path fill-rule="evenodd" clip-rule="evenodd" d="M5.84656 2.08069C5.90431 2.06477 5.96291 2.09954 5.97743 2.15836C6.04589 2.43564 6.08446 3.12268 5.69163 3.69286C5.65703 3.74308 5.58968 3.75583 5.54121 3.72133C5.49274 3.68682 5.4815 3.61813 5.5161 3.56791C5.8598 3.06904 5.82738 2.45544 5.76827 2.21603C5.75374 2.15721 5.7888 2.09662 5.84656 2.08069Z" fill="black"/>
<path fill-rule="evenodd" clip-rule="evenodd" d="M5.79575 2.11152C5.83738 2.06718 5.90566 2.06513 5.94824 2.10694C6.16003 2.31484 6.48178 2.91324 6.20335 3.71926C6.1834 3.77704 6.12173 3.80816 6.06562 3.78878C6.0095 3.76941 5.98019 3.70686 6.00015 3.64909C6.24683 2.93495 5.95707 2.42416 5.79747 2.26749C5.75489 2.22568 5.75411 2.15585 5.79575 2.11152Z" fill="black"/>
<path fill-rule="evenodd" clip-rule="evenodd" d="M5.77965 2.13344C5.80961 2.08023 5.87562 2.06116 5.92709 2.09086C6.21356 2.2561 6.73696 2.81943 6.68909 3.79427C6.6861 3.85518 6.63545 3.90296 6.57597 3.901C6.51649 3.89904 6.4707 3.84808 6.47369 3.78718C6.5171 2.90299 6.04254 2.41272 5.81861 2.28355C5.76714 2.25386 5.74969 2.18665 5.77965 2.13344Z" fill="black"/>
<path fill-rule="evenodd" clip-rule="evenodd" d="M7.86163 3.01507C7.89183 3.04024 7.92211 3.06547 7.95259 3.09067C7.99851 3.12863 8.00498 3.19804 7.96705 3.24571C7.92912 3.29339 7.86114 3.30126 7.81523 3.26331C7.78386 3.23737 7.75309 3.21175 7.72274 3.18648C7.51208 3.01107 7.32159 2.85244 7.08897 2.72241C6.82599 2.57541 6.5069 2.46429 6.04804 2.42064C5.98885 2.41501 5.94619 2.36126 5.95276 2.30058C5.95934 2.2399 6.01265 2.19528 6.07184 2.20091C6.55747 2.24711 6.90486 2.36614 7.19499 2.52832C7.4458 2.66851 7.65213 2.84047 7.86163 3.01507Z" fill="black"/>
<path fill-rule="evenodd" clip-rule="evenodd" d="M7.84225 2.55771C7.92714 2.59355 8.00395 2.62598 8.06985 2.65169C8.12515 2.67328 8.15207 2.73697 8.12997 2.79396C8.10787 2.85094 8.04513 2.87964 7.98982 2.85806C7.91466 2.82872 7.83263 2.79406 7.74457 2.75684C7.56408 2.68057 7.35824 2.59358 7.13424 2.51984C6.80368 2.41102 6.45662 2.33995 6.14261 2.38512C6.0835 2.39363 6.0297 2.35161 6.02246 2.29127C6.01521 2.23093 6.05726 2.17512 6.11638 2.16661C6.47867 2.11449 6.86266 2.19741 7.20364 2.30966C7.43525 2.38591 7.65782 2.47986 7.84225 2.55771Z" fill="black"/>
<path fill-rule="evenodd" clip-rule="evenodd" d="M7.1724 2.06663C7.56515 2.14012 7.91411 2.27253 8.1181 2.37372C8.1713 2.40012 8.19274 2.46604 8.16598 2.52096C8.13921 2.57588 8.07439 2.59901 8.02118 2.57262C7.83326 2.47939 7.50253 2.35345 7.1299 2.28373C6.75589 2.21375 6.3518 2.20273 6.00997 2.32659C5.95351 2.34705 5.89237 2.3171 5.87339 2.2597C5.85441 2.2023 5.88479 2.13918 5.94125 2.11873C6.33406 1.97639 6.78103 1.99341 7.1724 2.06663Z" fill="black"/>
<path fill-rule="evenodd" clip-rule="evenodd" d="M4.31507 1.05292C4.33767 0.996135 4.40066 0.96802 4.45576 0.990125C4.63847 1.06342 4.93439 1.20803 5.2362 1.40617C5.53704 1.60369 5.85125 1.85925 6.06315 2.1567C6.09793 2.20552 6.08693 2.27466 6.03858 2.31113C5.99023 2.3476 5.92284 2.33759 5.88807 2.28877C5.69806 2.02205 5.40828 1.78349 5.11741 1.59253C4.82751 1.4022 4.54399 1.26399 4.37391 1.19576C4.31881 1.17366 4.29246 1.10971 4.31507 1.05292Z" fill="black"/>
<path fill-rule="evenodd" clip-rule="evenodd" d="M5.91143 2.19838C5.33658 1.90714 4.38939 1.63408 3.98531 1.53381C3.92768 1.51951 3.89313 1.4599 3.90815 1.40066C3.92317 1.34143 3.98207 1.305 4.0397 1.3193C4.44603 1.42013 5.41269 1.6977 6.00992 2.00028C6.06291 2.02712 6.08381 2.09323 6.05661 2.14794C6.02942 2.20264 5.96442 2.22523 5.91143 2.19838Z" fill="black"/>
<path fill-rule="evenodd" clip-rule="evenodd" d="M5.85186 2.35422C5.26197 2.01394 4.40745 1.91331 4.05317 1.90687C3.99366 1.90579 3.94713 1.85553 3.94927 1.7946C3.9514 1.73367 4.00138 1.68516 4.0609 1.68624C4.42894 1.69293 5.3253 1.7952 5.96034 2.16152C6.01182 2.19121 6.02926 2.25842 5.99931 2.31163C5.96935 2.36484 5.90334 2.38391 5.85186 2.35422Z" fill="black"/>
<path fill-rule="evenodd" clip-rule="evenodd" d="M7.34557 1.89284C7.34326 1.95376 7.29314 2.00212 7.23363 2.00086C7.08942 1.9978 6.85523 2.01341 6.62833 2.07001C6.39679 2.12776 6.19676 2.22236 6.09343 2.3595C6.05676 2.40818 5.98898 2.41793 5.94206 2.38127C5.89514 2.34462 5.88683 2.27544 5.92351 2.22676C6.0745 2.02635 6.33724 1.91643 6.58083 1.85567C6.82907 1.79375 7.08239 1.77685 7.242 1.78024C7.30151 1.7815 7.34788 1.83191 7.34557 1.89284Z" fill="black"/>
<path fill-rule="evenodd" clip-rule="evenodd" d="M5.04325 1.10982C5.07382 1.05697 5.14004 1.03872 5.19115 1.06905C5.31886 1.14484 5.50784 1.28795 5.66852 1.47595C5.82815 1.66273 5.97016 1.90602 5.98061 2.18105C5.98292 2.24188 5.93655 2.29401 5.87704 2.29747C5.81753 2.30094 5.76741 2.25443 5.7651 2.19359C5.75735 1.9897 5.64988 1.79236 5.50506 1.6229C5.36128 1.45468 5.19083 1.32596 5.08044 1.26044C5.02933 1.23011 5.01268 1.16268 5.04325 1.10982Z" fill="black"/>
<path d="M53.8665 7.08002L53.8904 7.06802C53.9304 7.03602 53.9825 7.02002 54.0465 7.02002C54.0945 7.02002 54.1345 7.02402 54.1665 7.03202C54.2065 7.04002 54.2385 7.04802 54.2625 7.05602L54.9705 7.28402C55.0025 7.36402 55.0345 7.41602 55.0665 7.44002C55.1065 7.43202 55.1424 7.44402 55.1744 7.47602C55.2144 7.50002 55.2465 7.52002 55.2705 7.53602C55.2705 7.57602 55.2824 7.62802 55.3064 7.69202C55.3384 7.74802 55.3545 7.79202 55.3545 7.82402L55.3665 8.06402C55.3505 8.07202 55.3144 8.08002 55.2584 8.08802C55.2104 8.09602 55.1705 8.12002 55.1385 8.16002C55.0665 8.28802 54.9904 8.43602 54.9104 8.60402C54.8784 8.60402 54.8545 8.62002 54.8385 8.65202C54.8305 8.67602 54.8265 8.70802 54.8265 8.74802C54.8265 8.78802 54.8224 8.82002 54.8144 8.84402C54.8064 8.85202 54.7904 8.87202 54.7664 8.90402C54.7424 8.92802 54.7304 8.95602 54.7304 8.98802V9.00002C54.6664 9.06402 54.6345 9.12002 54.6345 9.16802C54.6345 9.19202 54.6385 9.20802 54.6465 9.21602C54.5505 9.36002 54.4705 9.58002 54.4065 9.87602L54.3344 10.176L54.2384 10.464C54.2064 10.456 54.1865 10.476 54.1785 10.524C54.1705 10.572 54.1624 10.608 54.1544 10.632C54.1144 10.696 54.0665 10.772 54.0105 10.86C53.9545 10.94 53.8945 11.04 53.8305 11.16C53.7665 11.272 53.7225 11.38 53.6985 11.484C53.6825 11.508 53.6625 11.544 53.6385 11.592C53.6145 11.632 53.5905 11.664 53.5665 11.688C53.5585 11.744 53.5344 11.808 53.4944 11.88C53.4544 11.944 53.4224 11.996 53.3984 12.036L53.1585 12.612C53.1185 12.628 53.0905 12.66 53.0745 12.708C53.0585 12.764 53.0465 12.804 53.0385 12.828C53.0305 12.9 53.0025 12.976 52.9545 13.056C52.9145 13.136 52.8864 13.2 52.8704 13.248C52.8464 13.272 52.8225 13.312 52.7985 13.368C52.7825 13.424 52.7665 13.472 52.7505 13.512C52.7345 13.536 52.7065 13.564 52.6665 13.596C52.6265 13.628 52.6025 13.664 52.5945 13.704C52.5465 13.736 52.5025 13.784 52.4625 13.848C52.4225 13.912 52.3905 13.96 52.3665 13.992C52.2625 14.096 52.1905 14.16 52.1505 14.184L51.7425 14.556C51.6705 14.548 51.5385 14.56 51.3465 14.592C51.3065 14.6 51.2545 14.608 51.1905 14.616C51.1345 14.624 51.0705 14.628 50.9985 14.628C50.7905 14.628 50.6384 14.56 50.5424 14.424C50.5184 14.416 50.4744 14.4 50.4104 14.376C50.3544 14.36 50.3064 14.332 50.2664 14.292C50.2584 14.236 50.2185 14.192 50.1465 14.16C50.0745 14.128 50.0225 14.104 49.9905 14.088C49.9745 14.048 49.9385 13.988 49.8825 13.908C49.8185 13.836 49.7785 13.772 49.7625 13.716C49.8185 13.684 49.8785 13.668 49.9425 13.668L50.0385 13.68C50.0705 13.704 50.1105 13.716 50.1585 13.716C50.1985 13.716 50.2585 13.696 50.3385 13.656C50.4265 13.624 50.4944 13.604 50.5424 13.596C50.6464 13.564 50.7585 13.512 50.8785 13.44C50.9985 13.368 51.0825 13.32 51.1305 13.296C51.3705 13.096 51.5984 12.8 51.8144 12.408C51.8384 12.344 51.9185 12.184 52.0545 11.928C52.0785 11.872 52.1024 11.82 52.1264 11.772C52.1584 11.724 52.1825 11.684 52.1985 11.652C52.3105 11.436 52.3705 11.312 52.3785 11.28C52.4025 11.256 52.4145 11.224 52.4145 11.184C52.4145 11.144 52.3865 11.092 52.3305 11.028C52.2825 10.964 52.2465 10.912 52.2225 10.872C52.0785 10.64 51.9345 10.384 51.7905 10.104C51.6465 9.81602 51.5545 9.63602 51.5145 9.56402L51.2384 9.01202C51.1824 8.91602 51.0824 8.78002 50.9384 8.60402C50.7864 8.42002 50.6705 8.25602 50.5905 8.11202C50.5745 8.06402 50.5785 8.02402 50.6025 7.99202C50.6345 7.95202 50.6704 7.91202 50.7104 7.87202C50.7584 7.83202 50.7904 7.79602 50.8064 7.76402C50.8704 7.76402 50.9505 7.76802 51.0465 7.77602C51.1425 7.77602 51.2545 7.78402 51.3825 7.80002C51.4225 7.81602 51.4705 7.83202 51.5265 7.84802C51.5905 7.86402 51.6424 7.88002 51.6824 7.89602C51.7064 7.96002 51.7384 8.00802 51.7785 8.04002C51.8264 8.06402 51.8945 8.09602 51.9825 8.13602C51.9425 8.16002 51.9304 8.19202 51.9464 8.23202C51.9704 8.26402 52.0024 8.29602 52.0424 8.32802C52.0664 8.36802 52.0745 8.41202 52.0665 8.46002C52.0585 8.50002 52.0425 8.54802 52.0185 8.60402C51.9945 8.66002 51.9864 8.71202 51.9944 8.76002C52.1464 9.04802 52.2784 9.32802 52.3904 9.60002C52.4384 9.70402 52.4945 9.82802 52.5585 9.97202C52.6225 10.108 52.6984 10.264 52.7864 10.44C52.8104 10.464 52.8264 10.456 52.8344 10.416C52.8504 10.368 52.8665 10.336 52.8825 10.32C52.9145 10.176 52.9505 10.08 52.9905 10.032C53.0145 9.96802 53.0504 9.87602 53.0984 9.75602C53.1464 9.63602 53.1744 9.53202 53.1824 9.44402C53.4464 8.84402 53.6025 8.32802 53.6505 7.89602C53.6505 7.86402 53.6505 7.82802 53.6505 7.78802C53.6585 7.74802 53.6585 7.70402 53.6505 7.65602C53.6425 7.60002 53.6225 7.55602 53.5905 7.52402C53.5825 7.49202 53.5665 7.46002 53.5424 7.42802C53.5185 7.39602 53.5065 7.36402 53.5065 7.33202V7.32002C53.5305 7.29602 53.5704 7.27202 53.6264 7.24802C53.6824 7.21602 53.7305 7.18802 53.7705 7.16402L53.8665 7.08002Z" fill="black"/>
<path d="M46.2225 7.14002L46.2705 7.11602C46.3905 7.03602 46.5265 6.98402 46.6785 6.96002C46.8385 6.92802 46.9305 6.90802 46.9545 6.90002C47.0745 6.90002 47.1625 6.90402 47.2185 6.91202C47.4665 6.91202 47.6665 6.92802 47.8185 6.96002C47.9705 6.98402 48.0985 7.05202 48.2025 7.16402C48.2745 7.18802 48.3425 7.23202 48.4065 7.29602C48.5025 7.36002 48.5785 7.40402 48.6345 7.42802C48.8905 7.60402 49.0465 7.71602 49.1025 7.76402C49.1425 7.80402 49.1825 7.86402 49.2225 7.94402C49.2705 8.01602 49.3145 8.07602 49.3545 8.12402C49.4105 8.14802 49.4385 8.19202 49.4385 8.25602C49.4385 8.28002 49.4305 8.31603 49.4145 8.36403C49.4145 8.38803 49.4105 8.42803 49.4025 8.48403C49.4025 8.53203 49.3905 8.57203 49.3665 8.60402C49.3425 8.70002 49.3265 8.81602 49.3185 8.95202C49.3105 9.08802 49.3025 9.19202 49.2945 9.26402L49.2225 9.63602C49.1905 9.64402 49.1665 9.66002 49.1505 9.68402C49.1345 9.70802 49.1225 9.74402 49.1145 9.79202C49.1145 9.83202 49.1105 9.86402 49.1025 9.88802C49.0465 9.92802 49.0025 9.99202 48.9705 10.08C49.0425 10.088 49.0785 10.14 49.0785 10.236C49.0785 10.276 49.0745 10.316 49.0665 10.356C49.0585 10.388 49.0545 10.424 49.0545 10.464C49.0865 10.672 49.1145 10.824 49.1385 10.92C49.1865 11 49.2225 11.084 49.2465 11.172C49.2945 11.3 49.3385 11.392 49.3785 11.448C49.4585 11.512 49.5545 11.576 49.6665 11.64C49.7865 11.696 49.8705 11.736 49.9185 11.76C49.9505 11.784 49.9705 11.82 49.9785 11.868C49.9865 11.908 49.9945 11.936 50.0025 11.952C50.0585 11.992 50.1025 12.036 50.1345 12.084C50.1665 12.132 50.2025 12.2 50.2425 12.288C50.2345 12.36 50.1985 12.428 50.1345 12.492C50.1265 12.5 50.1025 12.516 50.0625 12.54C50.0225 12.564 49.9825 12.576 49.9425 12.576H49.9185C49.8145 12.624 49.7465 12.652 49.7145 12.66C49.6585 12.668 49.5945 12.676 49.5225 12.684C49.4505 12.692 49.3625 12.696 49.2585 12.696C49.1705 12.656 49.0665 12.628 48.9465 12.612C48.9305 12.612 48.8825 12.604 48.8025 12.588C48.7305 12.572 48.6625 12.544 48.5985 12.504C48.5505 12.504 48.5065 12.488 48.4665 12.456C48.4345 12.432 48.3945 12.392 48.3465 12.336C48.3065 12.288 48.2745 12.252 48.2505 12.228C48.2025 12.14 48.1385 12 48.0585 11.808C48.0345 11.776 48.0025 11.728 47.9625 11.664C47.9305 11.6 47.8905 11.564 47.8425 11.556C47.8425 11.524 47.8305 11.512 47.8065 11.52C47.7825 11.528 47.7585 11.54 47.7345 11.556C47.7105 11.572 47.6905 11.584 47.6745 11.592C47.6505 11.616 47.6105 11.648 47.5545 11.688C47.4985 11.72 47.4585 11.748 47.4345 11.772C47.3785 11.804 47.3065 11.864 47.2185 11.952C47.1865 11.968 47.1345 11.992 47.0625 12.024C46.9905 12.056 46.9385 12.1 46.9065 12.156C46.8585 12.172 46.7745 12.224 46.6545 12.312C46.6145 12.328 46.5665 12.348 46.5105 12.372C46.4545 12.404 46.4065 12.432 46.3665 12.456C46.1585 12.536 46.0025 12.592 45.8985 12.624C45.8025 12.64 45.7345 12.648 45.6945 12.648L45.4185 12.636C45.3785 12.66 45.3425 12.672 45.3105 12.672C45.2785 12.672 45.2385 12.664 45.1905 12.648C45.1505 12.64 45.1145 12.632 45.0825 12.624C45.0105 12.6 44.9305 12.56 44.8425 12.504C44.7625 12.456 44.6945 12.416 44.6385 12.384C44.6225 12.368 44.5865 12.328 44.5305 12.264C44.4745 12.208 44.4345 12.144 44.4105 12.072C44.3705 12.04 44.3425 11.972 44.3265 11.868C44.2865 11.772 44.2505 11.636 44.2185 11.46C44.2185 11.356 44.2305 11.28 44.2545 11.232C44.2625 11.208 44.2665 11.172 44.2665 11.124L44.2545 10.896C44.3185 10.616 44.4345 10.364 44.6025 10.14C44.7705 9.90803 44.9785 9.73602 45.2265 9.62402C45.2425 9.57602 45.2905 9.52002 45.3705 9.45602C45.4505 9.41602 45.5785 9.37203 45.7545 9.32403C45.8905 9.32403 46.0425 9.31603 46.2105 9.30002C46.3865 9.28402 46.5105 9.27202 46.5825 9.26402C46.7105 9.25602 46.8465 9.26802 46.9905 9.30002C47.1345 9.32402 47.2745 9.35602 47.4105 9.39602C47.7225 9.46002 47.8985 9.49602 47.9385 9.50402C47.9785 9.46402 48.0105 9.41202 48.0345 9.34802C48.0665 9.28402 48.0905 9.23602 48.1065 9.20402C48.1305 9.13202 48.1625 9.04002 48.2025 8.92802C48.2425 8.81602 48.2745 8.70402 48.2985 8.59202C48.3225 8.48002 48.3305 8.36802 48.3225 8.25602C48.3145 8.22402 48.2945 8.20002 48.2625 8.18402C48.2305 8.16002 48.2065 8.14402 48.1905 8.13602C48.1505 8.12002 48.0945 8.08802 48.0225 8.04002C47.9505 7.98402 47.8825 7.96002 47.8185 7.96802C47.8025 7.96002 47.7745 7.95202 47.7345 7.94402C47.7025 7.92802 47.6745 7.90802 47.6505 7.88402C47.5945 7.87602 47.5265 7.86402 47.4465 7.84802C47.3745 7.82402 47.3105 7.81602 47.2545 7.82402C47.1425 7.85602 47.0625 7.87202 47.0145 7.87202C46.9665 7.89602 46.9065 7.91602 46.8345 7.93202C46.7625 7.94002 46.7065 7.95202 46.6665 7.96802L46.2825 8.13602C46.2505 8.16002 46.1985 8.18403 46.1265 8.20802C46.0625 8.23202 46.0145 8.25202 45.9825 8.26802C45.9265 8.33202 45.8585 8.38802 45.7785 8.43602C45.7065 8.47602 45.6625 8.50002 45.6465 8.50802C45.5985 8.54002 45.5465 8.58003 45.4905 8.62803C45.4345 8.66803 45.3705 8.71202 45.2985 8.76003C45.2505 8.77603 45.1785 8.79202 45.0825 8.80802C44.9785 8.77602 44.8385 8.71603 44.6625 8.62803C44.6305 8.53203 44.6145 8.46002 44.6145 8.41202C44.6145 8.31602 44.6545 8.19602 44.7345 8.05202C44.8465 7.98802 44.9745 7.90002 45.1185 7.78802C45.3265 7.63602 45.4825 7.53602 45.5865 7.48802C45.6745 7.42402 45.7265 7.38802 45.7425 7.38002C45.7825 7.34802 45.8305 7.32002 45.8865 7.29602C45.9505 7.27202 45.9985 7.25202 46.0305 7.23602C46.0545 7.21202 46.0865 7.19202 46.1265 7.17602C46.1665 7.16002 46.1985 7.14802 46.2225 7.14002ZM47.2905 10.164L47.2785 10.152C47.2545 10.12 47.2105 10.1 47.1465 10.092C47.0905 10.084 47.0505 10.076 47.0265 10.068C46.8585 10.06 46.6945 10.08 46.5345 10.128C46.3745 10.168 46.1865 10.236 45.9705 10.332C45.8185 10.364 45.7145 10.408 45.6585 10.464C45.4345 10.728 45.3065 11.12 45.2745 11.64C45.3385 11.648 45.4105 11.64 45.4905 11.616C45.5785 11.584 45.6385 11.564 45.6705 11.556C45.9185 11.372 46.0905 11.256 46.1865 11.208C46.3545 11.072 46.5145 10.936 46.6665 10.8C46.7065 10.744 46.7585 10.684 46.8225 10.62C46.8945 10.556 46.9505 10.508 46.9905 10.476C47.0465 10.436 47.1225 10.368 47.2185 10.272L47.2905 10.164Z" fill="black"/>
<path d="M42.4929 4.66798L42.5048 4.63198C42.5448 4.59998 42.5969 4.58398 42.6609 4.58398C42.7649 4.58398 42.8608 4.61998 42.9488 4.69198C43.0448 4.81998 43.1249 4.90798 43.1889 4.95598C43.2129 4.98798 43.2289 5.03198 43.2369 5.08798C43.2449 5.13598 43.2528 5.17198 43.2608 5.19598C43.2688 5.29198 43.2609 5.39198 43.2369 5.49598C43.2129 5.59998 43.1969 5.66798 43.1889 5.69998C43.1649 5.75598 43.1448 5.84798 43.1288 5.97598C43.1208 6.04798 43.1169 6.15598 43.1169 6.29998L43.1288 6.95998C43.1688 7.64798 43.1889 8.67998 43.1889 10.056V11.088C43.1969 11.2 43.2009 11.364 43.2009 11.58V12.084C43.1689 12.244 43.0969 12.324 42.9849 12.324C42.9369 12.356 42.8889 12.36 42.8409 12.336C42.8009 12.32 42.7569 12.288 42.7089 12.24C42.6609 12.192 42.6169 12.156 42.5769 12.132C42.5449 12.116 42.5009 12.072 42.4449 12C42.3009 11.84 42.2048 11.712 42.1568 11.616C42.1328 11.552 42.1208 11.488 42.1208 11.424C42.1208 11.328 42.1488 11.216 42.2048 11.088C42.2688 10.928 42.2968 10.8 42.2888 10.704C42.3048 10.352 42.3129 10.092 42.3129 9.92398C42.3449 9.21998 42.3609 8.69598 42.3609 8.35198C42.3609 7.71198 42.3248 7.15998 42.2528 6.69598C42.2288 6.35998 42.2169 6.02798 42.2169 5.69998C42.2089 5.62798 42.2048 5.51998 42.2048 5.37598C42.2048 5.34398 42.2009 5.29598 42.1929 5.23198C42.1849 5.16798 42.1768 5.11598 42.1688 5.07598C42.1928 5.03598 42.2249 4.98398 42.2649 4.91998C42.3049 4.84798 42.3448 4.79198 42.3848 4.75198C42.4488 4.71198 42.4849 4.68398 42.4929 4.66798Z" fill="black"/>
<path d="M37.491 6.97202L37.515 6.96002C37.707 6.92002 37.943 6.90002 38.223 6.90002L38.835 6.91202C38.971 6.92002 39.123 6.96002 39.291 7.03202C39.419 7.06402 39.519 7.10802 39.591 7.16402C39.623 7.18002 39.679 7.20802 39.759 7.24802C39.847 7.28002 39.919 7.32002 39.975 7.36802C40.183 7.49602 40.327 7.59602 40.407 7.66802C40.495 7.77202 40.547 7.84402 40.563 7.88402C40.603 7.90002 40.639 7.94002 40.671 8.00402C40.703 8.06802 40.727 8.11202 40.743 8.13602C40.903 8.29602 41.003 8.45202 41.043 8.60402C41.091 8.63602 41.115 8.69202 41.115 8.77202L41.103 8.91603C41.127 8.94802 41.139 8.98402 41.139 9.02402C41.139 9.08802 41.087 9.18002 40.983 9.30002C40.967 9.34002 40.939 9.36802 40.899 9.38402C40.867 9.39202 40.823 9.39602 40.767 9.39602C40.719 9.39602 40.679 9.40402 40.647 9.42002C40.591 9.41202 40.527 9.42402 40.455 9.45602C40.391 9.48002 40.335 9.49602 40.287 9.50402C40.151 9.50402 40.051 9.49202 39.987 9.46802C39.939 9.46002 39.875 9.45203 39.795 9.44403C39.715 9.43603 39.619 9.43202 39.507 9.43202C39.363 9.43202 39.239 9.44802 39.135 9.48002C39.055 9.48802 38.927 9.49202 38.751 9.49202C38.575 9.49202 38.427 9.50002 38.307 9.51602C38.187 9.52402 38.075 9.55203 37.971 9.60003C37.899 9.60803 37.807 9.61202 37.695 9.61202C37.591 9.61202 37.495 9.62002 37.407 9.63602C37.319 9.64402 37.239 9.67603 37.167 9.73203C37.151 9.76403 37.119 9.80002 37.071 9.84002C37.031 9.87202 36.999 9.90402 36.975 9.93602C36.967 9.97602 36.955 10.02 36.939 10.068C36.923 10.108 36.915 10.14 36.915 10.164C36.915 10.196 36.927 10.232 36.951 10.272C36.943 10.32 36.955 10.372 36.987 10.428C37.019 10.484 37.039 10.528 37.047 10.56C37.063 10.576 37.099 10.616 37.155 10.68C37.211 10.736 37.271 10.792 37.335 10.848C37.407 10.904 37.487 10.944 37.575 10.968C37.695 10.976 37.799 10.98 37.887 10.98C37.975 10.972 38.051 10.968 38.115 10.968C38.171 10.952 38.259 10.936 38.379 10.92C38.499 10.896 38.599 10.86 38.679 10.812C38.775 10.788 38.879 10.752 38.991 10.704C39.111 10.656 39.191 10.624 39.231 10.608C39.359 10.576 39.451 10.544 39.507 10.512C39.627 10.52 39.763 10.504 39.915 10.464C40.059 10.432 40.167 10.416 40.239 10.416C40.295 10.416 40.335 10.42 40.359 10.428C40.399 10.444 40.439 10.456 40.479 10.464C40.527 10.472 40.559 10.476 40.575 10.476C40.631 10.492 40.663 10.544 40.671 10.632C40.687 10.712 40.719 10.76 40.767 10.776C40.783 10.784 40.811 10.792 40.851 10.8C40.891 10.808 40.919 10.828 40.935 10.86C40.927 10.892 40.931 10.936 40.947 10.992C40.971 11.048 40.983 11.088 40.983 11.112C40.983 11.144 40.971 11.172 40.947 11.196C40.931 11.276 40.903 11.344 40.863 11.4C40.799 11.408 40.743 11.452 40.695 11.532C40.647 11.604 40.607 11.656 40.575 11.688L40.275 11.856C40.131 11.92 40.027 11.976 39.963 12.024C39.683 12.136 39.479 12.208 39.351 12.24C39.263 12.264 39.159 12.28 39.039 12.288C38.927 12.296 38.839 12.304 38.775 12.312H38.211C37.963 12.312 37.775 12.308 37.647 12.3C37.607 12.292 37.523 12.272 37.395 12.24C37.267 12.216 37.151 12.18 37.047 12.132C37.031 12.116 37.003 12.1 36.963 12.084C36.931 12.076 36.911 12.06 36.903 12.036C36.855 12.02 36.775 11.964 36.663 11.868C36.591 11.836 36.523 11.792 36.459 11.736C36.395 11.672 36.351 11.628 36.327 11.604C36.199 11.452 36.063 11.304 35.919 11.16L35.715 10.8C35.707 10.768 35.691 10.72 35.667 10.656C35.651 10.592 35.627 10.54 35.595 10.5C35.595 10.492 35.591 10.472 35.583 10.44C35.583 10.4 35.591 10.368 35.607 10.344L35.595 9.88802C35.611 9.82402 35.619 9.78002 35.619 9.75602C35.619 9.70002 35.607 9.63202 35.583 9.55202C35.567 9.46402 35.555 9.38803 35.547 9.32403L35.559 9.21602C35.559 9.20002 35.551 9.17602 35.535 9.14402C35.527 9.08802 35.543 9.03602 35.583 8.98802C35.623 8.94002 35.647 8.91202 35.655 8.90402C35.663 8.87202 35.675 8.81602 35.691 8.73602C35.715 8.65602 35.743 8.59202 35.775 8.54402C35.799 8.47202 35.847 8.38802 35.919 8.29202C35.991 8.18002 36.035 8.10002 36.051 8.05202C36.091 8.00402 36.135 7.96002 36.183 7.92002C36.231 7.84002 36.319 7.72802 36.447 7.58402C36.615 7.44802 36.763 7.34402 36.891 7.27202C36.915 7.23202 36.963 7.19602 37.035 7.16402C37.115 7.12402 37.167 7.08802 37.191 7.05602L37.491 6.97202ZM39.135 7.98002L39.039 7.95602C38.991 7.94802 38.919 7.94402 38.823 7.94402C38.631 7.94402 38.387 7.98802 38.091 8.07603C37.971 8.12403 37.831 8.21202 37.671 8.34002L37.431 8.58002C37.463 8.61202 37.499 8.62803 37.539 8.62803L37.671 8.61602H37.695C37.727 8.60802 37.771 8.60002 37.827 8.59202C37.883 8.57602 37.931 8.56002 37.971 8.54402C38.035 8.53602 38.131 8.53202 38.259 8.53202C38.387 8.52402 38.487 8.49202 38.559 8.43602L38.667 8.44802C38.723 8.44802 38.775 8.44402 38.823 8.43602C38.879 8.42802 38.939 8.42402 39.003 8.42402C39.035 8.42402 39.091 8.42802 39.171 8.43602C39.251 8.43602 39.315 8.44802 39.363 8.47202C39.435 8.48002 39.495 8.48403 39.543 8.48403C39.599 8.47603 39.643 8.47202 39.675 8.47202C39.723 8.44802 39.747 8.42002 39.747 8.38802C39.747 8.34802 39.695 8.27602 39.591 8.17202C39.359 8.06002 39.207 7.99602 39.135 7.98002Z" fill="black"/>
<path d="M30.6404 4.13997H30.7724C30.8844 4.12397 31.0564 4.11597 31.2884 4.11597C31.5124 4.11597 31.6804 4.11997 31.7924 4.12797C31.9524 4.15197 32.0964 4.19197 32.2244 4.24797C32.2484 4.26397 32.3004 4.29597 32.3804 4.34397C32.4684 4.38397 32.5404 4.42797 32.5964 4.47597C32.6204 4.49997 32.6604 4.54797 32.7164 4.61997C32.7724 4.68397 32.8324 4.72397 32.8964 4.73997C32.9844 4.81197 33.0684 4.90797 33.1484 5.02797C33.2364 5.13997 33.3004 5.21997 33.3404 5.26797C33.3484 5.32397 33.3764 5.39997 33.4244 5.49597C33.4724 5.58397 33.5004 5.65597 33.5084 5.71197C33.5404 5.83197 33.5564 5.95997 33.5564 6.09597C33.5564 6.23197 33.5364 6.35197 33.4964 6.45597C33.4164 6.55997 33.3484 6.66397 33.2924 6.76797C33.1884 6.93597 33.0924 7.07197 33.0044 7.17597C32.9244 7.27197 32.8244 7.33997 32.7044 7.37997L32.2964 7.58397C32.2884 7.61597 32.2884 7.65197 32.2964 7.69197C32.3124 7.72397 32.3204 7.74797 32.3204 7.76397C32.3124 7.82797 32.3164 7.88797 32.3324 7.94397C32.3484 7.99997 32.3724 8.06397 32.4044 8.13597C32.4444 8.20797 32.4724 8.26797 32.4884 8.31597C32.5044 8.35597 32.5204 8.40797 32.5364 8.47197C32.5604 8.53597 32.5884 8.58397 32.6204 8.61597C32.6284 8.63197 32.6404 8.65997 32.6564 8.69997C32.6804 8.73997 32.7084 8.76797 32.7404 8.78397L32.7284 8.79597C32.7524 8.86797 32.7924 8.94797 32.8484 9.03597C32.9124 9.12397 32.9604 9.19597 32.9924 9.25197C33.0004 9.29997 33.0244 9.35597 33.0644 9.41997C33.1044 9.48397 33.1324 9.53597 33.1484 9.57597C33.3004 9.83197 33.4724 10.08 33.6644 10.32C33.6884 10.352 33.7804 10.448 33.9404 10.608C33.9564 10.624 34.0084 10.676 34.0964 10.764C34.1844 10.852 34.2564 10.944 34.3124 11.04C34.3364 11.072 34.3484 11.112 34.3484 11.16L34.3364 11.244C34.3524 11.252 34.3844 11.268 34.4324 11.292C34.4884 11.308 34.5244 11.34 34.5404 11.388C34.5084 11.436 34.5044 11.492 34.5284 11.556C34.5524 11.612 34.5684 11.656 34.5764 11.688C34.5684 11.744 34.5324 11.792 34.4684 11.832C34.4044 11.864 34.3604 11.892 34.3364 11.916C34.2404 11.972 34.1284 12.004 34.0004 12.012C33.8724 12.02 33.7844 12.028 33.7364 12.036C33.6724 12.052 33.5844 12.08 33.4724 12.12C33.3604 12.16 33.2604 12.168 33.1724 12.144C33.1564 12.152 33.1364 12.16 33.1124 12.168C33.0884 12.176 33.0604 12.18 33.0284 12.18C33.0044 12.18 32.9764 12.172 32.9444 12.156C32.9044 12.092 32.8484 12.036 32.7764 11.988C32.7124 11.94 32.6724 11.908 32.6564 11.892C32.5684 11.852 32.4884 11.784 32.4164 11.688C32.3444 11.584 32.2924 11.512 32.2604 11.472C32.1644 11.28 32.0964 11.136 32.0564 11.04C31.9124 10.528 31.7964 10.144 31.7084 9.88797C31.7004 9.87197 31.6804 9.84397 31.6484 9.80397C31.6164 9.75597 31.5964 9.70797 31.5884 9.65997C31.5644 9.63597 31.5444 9.59997 31.5284 9.55197C31.5124 9.49597 31.4964 9.45597 31.4804 9.43197C31.4724 9.39997 31.4564 9.33997 31.4324 9.25197C31.4164 9.15597 31.3884 9.07197 31.3484 8.99997C31.3324 8.93597 31.3124 8.84797 31.2884 8.73597C31.2644 8.62397 31.2244 8.53197 31.1684 8.45997C31.1524 8.41197 31.1124 8.34797 31.0484 8.26797C30.9524 8.10797 30.7684 8.02797 30.4964 8.02797C30.3924 8.02797 30.3124 8.03197 30.2564 8.03997L30.0164 8.05197C29.9284 8.05197 29.8644 8.04797 29.8244 8.03997L29.2364 8.02797C29.1724 8.09197 29.1124 8.17197 29.0564 8.26797V8.93997C29.0564 9.36397 29.0764 9.71997 29.1164 10.008C29.1244 10.392 29.0724 10.788 28.9604 11.196C28.9524 11.3 28.9604 11.412 28.9844 11.532C29.0084 11.652 29.0244 11.728 29.0324 11.76C29.0324 11.92 29.0164 12.06 28.9844 12.18C28.9684 12.204 28.9524 12.232 28.9364 12.264C28.9204 12.296 28.9044 12.32 28.8884 12.336C28.8324 12.368 28.7724 12.384 28.7084 12.384C28.6444 12.384 28.5924 12.368 28.5524 12.336C28.4964 12.368 28.4444 12.372 28.3964 12.348C28.3564 12.324 28.3004 12.276 28.2284 12.204C28.1644 12.14 28.1164 12.1 28.0844 12.084C28.0524 12.052 27.9924 11.992 27.9044 11.904C27.8164 11.816 27.7284 11.72 27.6404 11.616C27.5604 11.504 27.5124 11.38 27.4964 11.244C27.4804 11.22 27.4724 11.192 27.4724 11.16C27.4804 11.128 27.4964 11.096 27.5204 11.064C27.5444 11.024 27.5604 10.996 27.5684 10.98C27.5924 10.964 27.6164 10.952 27.6404 10.944C27.6724 10.936 27.6884 10.92 27.6884 10.896L27.6764 10.824C27.7244 10.72 27.7684 10.572 27.8084 10.38C27.8084 10.14 27.8324 9.97197 27.8804 9.87597C27.8804 9.80397 27.8804 9.70397 27.8804 9.57597C27.8884 9.43997 27.9004 9.32397 27.9164 9.22797C27.8844 9.13197 27.8684 9.01597 27.8684 8.87997C27.8684 8.80797 27.8764 8.69197 27.8924 8.53197C27.8924 8.49197 27.8964 8.42797 27.9044 8.33997C27.9204 8.25197 27.9244 8.17597 27.9164 8.11197C27.9164 7.91997 27.9204 7.75197 27.9284 7.60797C27.9364 7.46397 27.9444 7.34397 27.9524 7.24797C27.9844 6.78397 28.0004 6.43597 28.0004 6.20397L27.9884 5.84397C28.0044 5.79597 28.0124 5.72397 28.0124 5.62797V5.48397C28.0284 5.38797 28.0364 5.31997 28.0364 5.27997L28.0244 4.99197C27.9924 4.84797 27.9604 4.74797 27.9284 4.69197C27.9364 4.65997 27.9404 4.60797 27.9404 4.53597C27.9484 4.46397 27.9684 4.40797 28.0004 4.36797C28.0244 4.35197 28.0564 4.32797 28.0964 4.29597C28.1364 4.25597 28.1804 4.23597 28.2284 4.23597H28.2524C28.3404 4.21197 28.4204 4.19997 28.4924 4.19997C28.5564 4.19997 28.6404 4.20797 28.7444 4.22397C28.8484 4.23997 28.9364 4.25197 29.0084 4.25997C29.0404 4.26797 29.0804 4.28397 29.1284 4.30797C29.1764 4.33197 29.2204 4.34397 29.2604 4.34397C29.2844 4.34397 29.3044 4.33997 29.3204 4.33197C29.4244 4.28397 29.5404 4.25197 29.6684 4.23597C29.7964 4.21197 29.8764 4.19597 29.9084 4.18797L30.6404 4.13997ZM32.1284 5.56797L32.0924 5.49597C32.0364 5.42397 32.0004 5.38397 31.9844 5.37597C31.8564 5.33597 31.6884 5.31597 31.4804 5.31597H31.0484H30.6764C30.5084 5.31597 30.3804 5.31997 30.2924 5.32797C30.2364 5.34397 30.1484 5.36397 30.0284 5.38797C29.9084 5.41197 29.7884 5.43997 29.6684 5.47197C29.5484 5.50397 29.4364 5.55197 29.3324 5.61597C29.2364 5.71197 29.1804 5.79197 29.1644 5.85597L29.1284 6.14397C29.0884 6.38397 29.0684 6.60797 29.0684 6.81597C29.0764 6.87997 29.1204 6.93597 29.2004 6.98397C29.3124 6.99997 29.4364 7.00797 29.5724 7.00797C29.7164 7.00797 29.8084 7.00797 29.8484 7.00797L30.5324 6.98397C30.5884 6.95997 30.6484 6.93197 30.7124 6.89997C30.7764 6.85997 30.8244 6.82797 30.8564 6.80397L31.0964 6.70797C31.3284 6.61997 31.5084 6.52797 31.6364 6.43197C31.6924 6.37597 31.7604 6.31197 31.8404 6.23997C31.9284 6.16797 32.0044 6.09597 32.0684 6.02397C32.1324 5.95197 32.1804 5.87197 32.2124 5.78397C32.2204 5.74397 32.2084 5.70397 32.1764 5.66397C32.1524 5.61597 32.1364 5.58397 32.1284 5.56797Z" fill="black"/>
<path d="M22.0923 6.85198L22.1283 6.75598C22.2563 6.76398 22.3963 6.78798 22.5483 6.82798C22.5803 6.84398 22.6003 6.87598 22.6083 6.92398C22.6243 6.96398 22.6363 6.99198 22.6443 7.00798C22.6683 7.02398 22.7083 7.05198 22.7643 7.09198C22.8203 7.13198 22.8563 7.17998 22.8723 7.23598C22.8723 7.29998 22.8803 7.39598 22.8963 7.52398C22.9283 7.54798 22.9403 7.57598 22.9323 7.60798C22.9243 7.63998 22.9083 7.67998 22.8843 7.72798C22.8603 7.76798 22.8483 7.79998 22.8483 7.82398C22.8403 7.98398 22.8123 8.21598 22.7643 8.51998C22.7163 9.03198 22.6923 9.80798 22.6923 10.848C22.6923 11.328 22.6883 11.688 22.6803 11.928C22.6643 11.976 22.6403 12.004 22.6083 12.012C22.5763 12.028 22.5323 12.04 22.4763 12.048C22.4283 12.056 22.3883 12.072 22.3563 12.096C22.3323 12.064 22.3003 12.024 22.2603 11.976C22.2283 11.928 22.1923 11.888 22.1523 11.856C22.1283 11.84 22.0923 11.812 22.0443 11.772C22.0043 11.724 21.9683 11.692 21.9363 11.676C21.8883 11.596 21.8603 11.516 21.8523 11.436C21.8443 11.348 21.8403 11.224 21.8403 11.064C21.8083 10.984 21.7683 10.944 21.7203 10.944C21.6803 10.944 21.6363 10.968 21.5883 11.016C21.5403 11.056 21.4883 11.112 21.4323 11.184C21.3763 11.256 21.3323 11.312 21.3003 11.352C21.2843 11.36 21.2523 11.376 21.2043 11.4C21.1643 11.416 21.1403 11.444 21.1323 11.484C21.1083 11.508 21.0403 11.576 20.9283 11.688C20.8243 11.792 20.7123 11.884 20.5923 11.964C20.5523 12.02 20.4883 12.064 20.4003 12.096C20.3203 12.128 20.2603 12.156 20.2203 12.18C20.1403 12.204 20.0603 12.216 19.9803 12.216C19.9403 12.208 19.8643 12.188 19.7523 12.156C19.6483 12.132 19.5523 12.124 19.4643 12.132C19.3443 12.116 19.2243 12.076 19.1043 12.012C18.9843 11.956 18.9083 11.92 18.8763 11.904C18.5643 11.696 18.3603 11.412 18.2643 11.052C18.1763 10.684 18.1363 10.244 18.1443 9.73198C18.1603 9.61998 18.1923 9.54398 18.2403 9.50398C18.2803 9.39998 18.3003 9.23998 18.3003 9.02398C18.3003 8.91998 18.3043 8.83998 18.3123 8.78398L18.3243 8.42398C18.3403 8.13598 18.3483 7.91598 18.3483 7.76398C18.3483 7.59598 18.3443 7.47198 18.3363 7.39198C18.3043 7.35998 18.2883 7.31598 18.2883 7.25998C18.2883 7.21998 18.2923 7.18398 18.3003 7.15198C18.3083 7.11998 18.3123 7.08798 18.3123 7.05598C18.4883 6.97598 18.7083 6.92798 18.9723 6.91198C19.0283 6.94398 19.1203 6.97598 19.2483 7.00798C19.2563 7.07998 19.2923 7.15198 19.3563 7.22398C19.4283 7.28798 19.4763 7.33598 19.5003 7.36798L19.5123 7.53598C19.5123 7.63998 19.4923 7.72398 19.4523 7.78798C19.4043 7.81198 19.3723 7.84798 19.3563 7.89598C19.3403 7.94398 19.3283 8.00398 19.3203 8.07598C19.3123 8.13998 19.3003 8.19598 19.2843 8.24398C19.2523 8.52398 19.2283 8.94398 19.2123 9.50398C19.2203 9.60798 19.2203 9.69998 19.2123 9.77998C19.2123 9.85198 19.2123 9.91198 19.2123 9.95998C19.2043 10.024 19.2003 10.124 19.2003 10.26C19.2003 10.476 19.2203 10.66 19.2603 10.812C19.2843 10.852 19.3123 10.88 19.3443 10.896C19.3843 10.904 19.4323 10.912 19.4883 10.92C19.5443 10.92 19.5843 10.92 19.6083 10.92C19.7123 10.888 19.7963 10.856 19.8603 10.824C19.9243 10.784 19.9683 10.728 19.9923 10.656C20.0563 10.648 20.0883 10.636 20.0883 10.62C20.0963 10.596 20.1283 10.58 20.1843 10.572L20.1963 10.56L20.1843 10.548C20.1763 10.556 20.1643 10.556 20.1483 10.548C20.1963 10.532 20.2443 10.504 20.2923 10.464C20.3403 10.424 20.3763 10.396 20.4003 10.38C20.6243 10.132 20.7643 9.97198 20.8203 9.89998L21.0003 9.45598C21.1043 9.19998 21.1643 9.05198 21.1803 9.01198C21.2283 8.78798 21.2563 8.61998 21.2643 8.50798C21.2803 8.44398 21.3043 8.33998 21.3363 8.19598C21.3763 8.04398 21.3923 7.90798 21.3843 7.78798C21.3603 7.75598 21.3563 7.71998 21.3723 7.67998C21.3883 7.63998 21.4163 7.59198 21.4563 7.53598C21.4963 7.47198 21.5203 7.42398 21.5283 7.39198C21.5843 7.30398 21.6803 7.18398 21.8163 7.03198C21.8403 7.02398 21.8803 7.01198 21.9363 6.99598C21.9923 6.97198 22.0363 6.94398 22.0683 6.91198L22.0923 6.85198Z" fill="black"/>
<path d="M13.7682 4.47598L14.9922 4.33198L15.3762 4.31998C15.4562 4.31198 15.5762 4.30798 15.7362 4.30798C16.0402 4.30798 16.3042 4.33998 16.5282 4.40398C16.6642 4.45998 16.7682 4.52798 16.8402 4.60798C16.8722 4.60798 16.8962 4.62398 16.9122 4.65598C16.9362 4.67998 16.9522 4.71598 16.9602 4.76398C16.9762 4.80398 16.9922 4.83998 17.0082 4.87198C17.0882 4.93598 17.1442 4.98798 17.1762 5.02798C17.1922 5.05198 17.1922 5.07998 17.1762 5.11198C17.1682 5.14398 17.1602 5.16798 17.1522 5.18398C17.1602 5.24798 17.1522 5.31998 17.1282 5.39998C17.0962 5.42398 17.0442 5.45198 16.9722 5.48398C16.9082 5.51598 16.8602 5.54398 16.8282 5.56798C16.7242 5.59998 16.6562 5.61998 16.6242 5.62798C16.4882 5.62798 16.3682 5.62398 16.2642 5.61598C16.1682 5.60798 16.0842 5.59998 16.0122 5.59198C15.6922 5.55998 15.4562 5.54398 15.3042 5.54398C15.0402 5.54398 14.8002 5.57598 14.5842 5.63998C14.5442 5.67198 14.5122 5.71598 14.4882 5.77198C14.4642 5.81998 14.4442 5.85598 14.4282 5.87998C14.3882 5.99998 14.3602 6.17998 14.3442 6.41998C14.3442 6.47598 14.3362 6.56798 14.3202 6.69598C14.2882 6.89598 14.2722 7.13198 14.2722 7.40398C14.2722 7.48398 14.2722 7.58398 14.2722 7.70398C14.2802 7.81598 14.2802 7.95198 14.2722 8.11198C14.2562 8.16798 14.2442 8.23198 14.2362 8.30398C14.2282 8.36798 14.2242 8.41598 14.2242 8.44798L14.2122 9.53998C14.2122 9.78798 14.2162 9.97198 14.2242 10.092C14.2482 10.172 14.2602 10.272 14.2602 10.392C14.2682 10.504 14.2722 10.588 14.2722 10.644C14.2722 10.732 14.2682 10.808 14.2602 10.872C14.2522 10.928 14.2442 10.98 14.2362 11.028C14.2362 11.052 14.2362 11.084 14.2362 11.124C14.2362 11.164 14.2482 11.196 14.2722 11.22C14.2402 11.252 14.2242 11.292 14.2242 11.34C14.2242 11.372 14.2322 11.412 14.2482 11.46C14.2642 11.508 14.2762 11.552 14.2842 11.592C14.2842 11.656 14.2922 11.732 14.3082 11.82C14.3242 11.9 14.3362 11.956 14.3442 11.988C14.3522 12.036 14.3402 12.092 14.3082 12.156C14.2762 12.22 14.2562 12.264 14.2482 12.288C14.2482 12.336 14.2202 12.376 14.1642 12.408C14.1162 12.44 14.0602 12.456 13.9962 12.456H13.9602C13.9202 12.416 13.8562 12.38 13.7682 12.348C13.6802 12.324 13.6202 12.284 13.5882 12.228C13.4842 12.188 13.3802 12.116 13.2762 12.012C13.2362 11.964 13.1842 11.904 13.1202 11.832C13.0562 11.76 12.9962 11.684 12.9402 11.604C12.8842 11.524 12.8442 11.44 12.8202 11.352C12.7802 11.336 12.7602 11.304 12.7602 11.256C12.7602 11.2 12.7562 11.156 12.7482 11.124C12.7402 11.076 12.7442 11.036 12.7602 11.004C12.7842 10.964 12.8162 10.924 12.8562 10.884C12.9042 10.844 12.9442 10.804 12.9762 10.764C13.0082 10.7 13.0282 10.616 13.0362 10.512C13.0442 10.408 13.0522 10.332 13.0602 10.284C13.0922 9.89198 13.1162 9.29998 13.1322 8.50798C13.1322 8.29198 13.1402 7.95998 13.1562 7.51198C13.1642 7.39198 13.1842 7.19198 13.2162 6.91198V6.52798C13.2162 6.26398 13.2082 6.06798 13.1922 5.93998C13.1682 5.83598 13.1002 5.78398 12.9882 5.78398H12.9522C12.8722 5.79998 12.7162 5.82798 12.4842 5.86798C12.2522 5.89998 12.0442 5.93998 11.8602 5.98798C11.8282 6.01198 11.7682 6.03598 11.6802 6.05998C11.6002 6.07598 11.5402 6.10398 11.5002 6.14398C11.4602 6.15998 11.4122 6.16398 11.3562 6.15598C11.3082 6.13998 11.2722 6.13198 11.2482 6.13198C11.2162 6.09998 11.1762 6.08398 11.1282 6.08398L11.0682 6.09598C11.0282 6.02398 10.9602 5.95998 10.8642 5.90398C10.8242 5.89598 10.7842 5.85998 10.7442 5.79598C10.7122 5.73198 10.6762 5.69598 10.6362 5.68798C10.6202 5.64798 10.6082 5.60398 10.6002 5.55598C10.5922 5.50798 10.5802 5.46398 10.5642 5.42398L10.5762 5.32798C10.5762 5.23198 10.5482 5.11998 10.4922 4.99198L10.4802 4.85998C10.4802 4.81998 10.4882 4.79198 10.5042 4.77598C10.5682 4.74398 10.6522 4.72798 10.7562 4.72798C10.8602 4.72798 10.9402 4.72398 10.9962 4.71598C11.2842 4.70798 11.5722 4.68398 11.8602 4.64398C12.2442 4.61198 12.5322 4.59198 12.7242 4.58398L13.3602 4.49998C13.3842 4.50798 13.4202 4.51198 13.4682 4.51198C13.5402 4.51198 13.6002 4.50798 13.6482 4.49998C13.6962 4.49198 13.7362 4.48398 13.7682 4.47598Z" fill="black"/>
</svg>
