<svg width="24" height="24" viewBox="0 0 24 24" fill="none" xmlns="http://www.w3.org/2000/svg">
<g clip-path="url(#clip0_732_12945)">
<path d="M6.3 3.44531L6.675 3.37188L7.05312 3.32188L7.30625 3.30156L7.56094 3.2875L7.81563 3.28125L8.19844 3.28281L8.57969 3.29375L8.73281 3.30312L9.0375 3.33437L9.26406 3.36875L9.48906 3.41094L9.93906 3.50781L10.1047 3.55781L10.2703 3.61562L10.4344 3.67969L10.5969 3.75156L10.7531 3.82969L10.9047 3.91719L11.0156 3.9875L11.1219 4.06406L11.2234 4.14531L11.3219 4.23125L11.4156 4.32344L11.5031 4.42188L11.5844 4.525L11.7312 4.74531L11.7937 4.85781L11.85 4.97344L11.9 5.09062L11.9812 5.33281L12.0406 5.58125L12.0672 5.74844L12.0875 5.91875L12.0984 6.09062L12.1016 6.43437L12.0938 6.60781L12.0797 6.77812L12.0391 7.11719L11.9516 7.43281L11.9 7.58906L11.8406 7.74062L11.7937 7.83906L11.7422 7.93594L11.6844 8.02812L11.6031 8.14062L11.5156 8.24687L11.4219 8.34844L11.3234 8.44531L11.1156 8.62656L10.9859 8.71719L10.8516 8.8L10.7125 8.87344L10.5719 8.94063L10.4266 9.00156L10.2781 9.05625L9.97656 9.15L9.82344 9.19063L9.36406 9.29375L9.14844 9.32812L8.93281 9.35469L8.71719 9.375L8.49844 9.38906L8.28125 9.39531L8.0625 9.39688L7.84531 9.39062L7.62813 9.37813L7.41094 9.35781L7.19375 9.33281L6.97813 9.3L6.76406 9.25937L6.55312 9.2125L6.34219 9.15938L6.13281 9.1L5.98906 9.05313L5.84844 9L5.70937 8.94219L5.57344 8.87656L5.44063 8.80469L5.31094 8.72656L5.1875 8.64219L5.06563 8.55313L4.95 8.45781L4.83906 8.35625L4.73438 8.24844L4.63594 8.13594L4.54375 8.01719L4.45781 7.89375L4.37969 7.76406L4.25 7.50625L4.2 7.38125L4.15625 7.25469L4.12031 7.12656L4.09062 6.99687L4.04844 6.73281L4.03594 6.59844L4.02656 6.42031L4.02344 6.24062L4.02656 6.05937L4.04063 5.79063L4.06094 5.525L4.13906 5.29688L4.225 5.07188L4.28906 4.925L4.35781 4.77969L4.43437 4.63906L4.5625 4.4375L4.63438 4.34219L4.79063 4.16563L4.87187 4.08594L4.95781 4.01406L5.04844 3.94688L5.17344 3.86406L5.30312 3.78906L5.43906 3.72344L5.57812 3.6625L5.71875 3.60938L5.8625 3.56094L6.08125 3.49844L6.3 3.44531ZM4.8375 4.55L4.79844 4.61875L4.76719 4.68906L4.74375 4.76094L4.7125 4.90938L4.70469 4.9875L4.7 5.10313L4.70156 5.21875L4.7125 5.45L4.7375 5.59375L4.78125 5.74062L4.84531 5.87656L4.88594 5.93906L4.93281 5.99531L4.98594 6.04531L5.02969 6.07656L5.07812 6.10313L5.12969 6.125L5.18594 6.14219L5.22344 6.13594L5.25625 6.12344L5.28438 6.10625L5.32188 6.07344L5.35469 6.02969L5.40469 5.93281L5.44219 5.83594L5.53125 5.52187L5.61094 5.20625L5.68125 4.88906L5.74219 4.56875L5.79531 4.24844L5.84062 3.92656L5.69531 3.96563L5.55 4.01406L5.45469 4.05156L5.27344 4.13906L5.18594 4.19219L5.10469 4.25L5.02812 4.31406L4.975 4.36719L4.87969 4.48438L4.8375 4.55ZM6.25625 6.1375L6.18906 6.17031L6.12813 6.20937L6.07344 6.25469L6.025 6.30781L5.98125 6.36406L5.94219 6.42656L5.91094 6.49219L5.8625 6.62969L6.06094 6.41719L6.17969 6.30937L6.28594 6.24375L6.34375 6.22188L6.40625 6.20781L6.475 6.20312L6.54219 6.20156L6.60469 6.20781L6.66406 6.22188L6.72031 6.24375L6.775 6.27187L6.82656 6.30625L6.9 6.36406L6.97031 6.42969L7.1 6.56563L7.07344 6.45469L7.02656 6.35781L6.98438 6.29844L6.93594 6.24844L6.87969 6.20156L6.81875 6.16406L6.75313 6.13281L6.68437 6.10781L6.6125 6.09219L6.54063 6.08437H6.46875L6.39531 6.09219L6.325 6.11094L6.25625 6.1375ZM9.09844 6.56094L9.3125 6.35625L9.3875 6.29063L9.43281 6.25781L9.47969 6.23281L9.53125 6.21406L9.6375 6.19688L9.69375 6.19531L9.77656 6.2L9.85625 6.21094L9.90469 6.225L9.99063 6.26562L10.0484 6.30625L10.1031 6.35313L10.3 6.56719L10.2828 6.49531L10.2563 6.42812L10.2219 6.36406L10.1812 6.30469L10.1328 6.25156L10.0781 6.20469L10.0188 6.16406L9.95625 6.13125L9.8875 6.10625L9.81875 6.08906L9.74531 6.08281L9.60312 6.09062L9.5375 6.10313L9.475 6.12344L9.41562 6.15156L9.36094 6.18594L9.30781 6.22813L9.26094 6.27344L9.21719 6.32344L9.17969 6.37813L9.14688 6.4375L9.12031 6.49844L9.09844 6.56094ZM4.23125 6.46406L4.2375 6.58125L4.25156 6.69688L4.27344 6.81094L4.31719 6.97813L4.37031 7.14531L4.54375 7.63906L4.59375 7.80469L4.71875 7.88438L4.79844 8.02188L4.84531 8.08594L4.92344 8.17656L5.09844 8.34219L5.18906 8.42031L5.29688 8.5L5.52031 8.64375L5.63594 8.70938L5.79531 8.7875L5.95781 8.85938L6.12344 8.92344L6.29219 8.97969L6.4625 9.02812L6.81094 9.10781L7.16094 9.16406L7.59531 9.21094L7.8125 9.22656L8.03125 9.23438L8.25 9.23594L8.46719 9.22812L8.68594 9.21406L8.90312 9.18906L9.29844 9.13281L9.47812 9.10156L9.65781 9.06406L9.83594 9.01875L10.0125 8.96719L10.1859 8.90781L10.3562 8.84062L10.5234 8.76562L10.6531 8.69844L10.7812 8.62813L10.9047 8.55L11.0266 8.46875L11.1438 8.37969L11.2328 8.3L11.3156 8.21406L11.3672 8.15469L11.4578 8.02344L11.4937 7.95469L11.5234 7.88125L11.5453 7.80312L11.5078 7.74844L11.4234 7.65L11.35 7.58594L11.2719 7.52656L11.1047 7.425L11.0234 7.38594L10.8578 7.32812L10.7734 7.30625L10.6578 7.28594L10.5422 7.27187L10.4234 7.26562H10.2469L10.0688 7.27344L9.71719 7.3L9.69844 7.75L9.65781 7.86406L9.61094 7.975L9.53438 8.11563L9.4875 8.18125L9.4375 8.24375L9.38125 8.3L9.31719 8.35156L9.23281 8.40938L9.14375 8.46094L9.05313 8.50313L8.95781 8.5375L8.7625 8.59219L8.61094 8.61875L8.30469 8.65156L8.15469 8.6625L7.81094 8.66094L7.6375 8.65156L7.46562 8.63437L7.35156 8.61406L7.24062 8.58906L7.13281 8.55625L7.02656 8.51562L6.92344 8.46562L6.82344 8.40625L6.75313 8.35469L6.69063 8.29688L6.63438 8.23281L6.58594 8.1625L6.54219 8.08906L6.50625 8.01094L6.44844 7.85L6.42656 7.76719L6.40312 7.42188L6.18437 7.3375L6.07031 7.30312L5.95469 7.275L5.83906 7.25313L5.72188 7.23906L5.60469 7.23281H5.4875L5.37031 7.24062L5.25469 7.25781L5.13906 7.28438L5.025 7.32031L4.91406 7.24844L4.80937 7.17031L4.70937 7.08437L4.61562 6.99375L4.52812 6.89687L4.44531 6.79531L4.36875 6.6875L4.29688 6.57812L4.23125 6.46406ZM7.69063 6.91094L7.80469 6.97031L7.88594 6.99219L8.20938 6.99375L8.27812 6.9875L8.3875 6.95781L8.47031 6.91094L8.29844 6.8625L8.21094 6.84531L8.12344 6.83594L8.03438 6.83437L7.94688 6.83906L7.86094 6.85313L7.775 6.87813L7.69063 6.91094ZM7.06719 7.07188L7.07969 7.33125L7.09062 7.41875L7.12813 7.58906L7.15469 7.67031L7.19063 7.75L7.23281 7.82656L7.27187 7.875L7.31719 7.91406L7.36562 7.94531L7.41875 7.97188L7.475 7.99219L7.53281 8.00469L7.65469 8.01719L7.71562 8.01562L7.80625 8.00313L7.89062 7.98438L7.92969 7.96094L7.96094 7.93437L7.98281 7.90469L8.01094 7.83437L8.025 7.73281L8.02812 7.55L7.95625 7.49531L7.89062 7.43594L7.77344 7.30312L7.67344 7.15625L7.60938 7.03906L7.55312 6.91719L7.30781 6.99062L7.06719 7.07188ZM8.59531 6.92344L8.48438 7.15312L8.42188 7.2625L8.35 7.36719L8.29688 7.43281L8.23906 7.49375L8.175 7.55156L8.18125 7.79531L8.19844 7.87344L8.21406 7.90781L8.23438 7.93906L8.26406 7.96719L8.3 7.99219L8.36875 8.00625L8.51094 8.01875L8.58125 8.01562L8.65156 8.00469L8.71875 7.98594L8.76719 7.96719L8.8125 7.94063L8.85469 7.90938L8.89375 7.87187L8.94063 7.81563L8.97969 7.75469L9.01094 7.69219L9.03594 7.625L9.07344 7.48594L9.14062 7.05781L9.00781 7.0125L8.87187 6.975L8.73438 6.94531L8.59531 6.92344ZM7.85156 7.12813L8.05625 7.42812L8.13594 7.3625L8.20781 7.29063L8.275 7.21406L8.33594 7.12969L8.09375 7.125L7.85156 7.12813ZM9.25781 7.12656L9.20312 7.48906L9.175 7.60781L9.15156 7.68594L9.12187 7.76094L9.08594 7.83125L9.05313 7.88281L8.975 7.97344L8.92656 8.01562L8.8625 8.05937L8.79688 8.09531L8.72812 8.12187L8.65469 8.14062L8.58281 8.15L8.50781 8.15312L8.43437 8.14844L8.3625 8.13437L8.29062 8.11406L8.22031 8.08594L8.15469 8.05L8.09219 8.00625L8.0125 8.05156L7.93125 8.08906L7.84688 8.11875L7.71562 8.14531L7.58437 8.14844L7.51875 8.14062L7.45469 8.12344L7.39219 8.1L7.26719 8.03125L7.2125 7.9875L7.16719 7.94063L7.12813 7.88906L7.09375 7.83281L7.06406 7.77187L7.02969 7.67656L7.00469 7.57656L6.97031 7.37187L6.94688 7.17188L6.74531 7.27812L6.61875 7.36094L6.56094 7.4125L6.54688 7.5625V7.63906L6.55156 7.71562L6.57969 7.86562L6.60313 7.9375L6.63281 8.00625L6.66875 8.07344L6.71094 8.13437L6.76094 8.19219L6.81875 8.24375L6.88594 8.29219L7.02344 8.37187L7.09688 8.40156L7.19688 8.43594L7.29844 8.4625L7.40312 8.48125L7.5625 8.5L7.725 8.50937L8.04375 8.51406L8.36875 8.50469L8.47812 8.49687L8.69531 8.46719L8.80156 8.44375L8.90469 8.4125L9.00625 8.375L9.07812 8.34062L9.21719 8.25625L9.28281 8.20469L9.34531 8.14531L9.4 8.08281L9.44531 8.01406L9.48438 7.94063L9.51562 7.86562L9.54219 7.78594L9.575 7.62187L9.58281 7.5375L9.58906 7.41094L9.58438 7.28594L9.25781 7.12656Z" fill="#311B30"/>
<path d="M9.09863 6.56095L9.12051 6.49845L9.14707 6.43751L9.17988 6.37814L9.21738 6.32345L9.26113 6.27345L9.30801 6.22814L9.36113 6.18595L9.41582 6.15158L9.4752 6.12345L9.5377 6.10314L9.60332 6.09064L9.74551 6.08282L9.81895 6.08908L9.8877 6.10626L9.95645 6.13126L10.0189 6.16407L10.0783 6.2047L10.133 6.25157L10.1814 6.3047L10.2221 6.36407L10.2564 6.42814L10.283 6.49533L10.3002 6.5672L10.1033 6.35314L10.0486 6.30626L9.99082 6.26564L9.90488 6.22501L9.85645 6.21095L9.77676 6.20001L9.69395 6.19532L9.6377 6.19689L9.53145 6.21408L9.47988 6.23282L9.43301 6.25782L9.3877 6.29064L9.3127 6.35626L9.09863 6.56095Z" fill="#F2DDC9"/>
<path d="M3.43574 8.75466L3.43262 8.69216L3.4373 8.63123L3.45137 8.56716L3.47168 8.50623L3.49824 8.44841L3.53262 8.39373L3.57324 8.34529L3.61855 8.3031L3.67012 8.26716L3.71074 8.24685L3.75449 8.23123L3.80137 8.22185L4.05449 8.20935L4.15449 8.34685L4.25918 8.4781L4.37012 8.60466L4.60449 8.84529L4.72793 8.95935L4.91855 9.12654L5.11387 9.28748L5.5123 9.59841L5.60293 9.69216L5.69824 9.77654L5.7998 9.85154L5.90449 9.92029L6.01387 9.98279L6.12637 10.039L6.30137 10.114L6.48105 10.1812L6.66387 10.2422L7.20762 10.4172L7.16387 10.5312L7.09199 10.7656L7.06387 10.8859L7.03574 11.0469L7.01543 11.2094L7.00293 11.3719L6.99512 11.5375L6.99668 11.864L7.12324 11.9062L7.37949 11.9734L7.50918 11.9969L7.68418 12.0219L7.86074 12.0359L8.03887 12.0422L8.21543 12.039L8.39199 12.0297L8.56855 12.0109L8.68887 11.9828L8.7498 11.9625L8.80918 11.9375L8.87793 11.8937L8.90605 11.8656L8.92949 11.8344L8.94668 11.7969L8.95762 11.7531L8.97168 11.5531L8.97637 11.3531L8.97324 11.1531L8.94199 10.5515L8.94043 10.4078L9.10137 10.3719L9.25918 10.3281L9.41543 10.2797L9.57012 10.2234L9.72168 10.1609L9.87012 10.0922L10.0154 10.0172L10.1576 9.93591L10.2951 9.84685L10.4279 9.75154L10.5561 9.64997L10.6811 9.54216L11.0529 9.26248L11.2357 9.11872L11.4123 8.96716L11.9607 9.21404L12.0967 9.28123L12.2279 9.35466L12.3107 9.40779L12.4686 9.5281L12.5404 9.59529L12.6076 9.67029L12.6701 9.7531L12.5982 9.91873L12.4779 9.84216L12.4154 9.80622L12.3514 9.77654L12.2373 9.87029L12.1857 9.92341L11.9045 10.2734L11.8029 10.3781L11.7467 10.4234L11.6857 10.464L11.6186 10.4969L11.4873 10.5422L11.4295 10.5515L11.3717 10.5547L11.2576 10.5422L11.2014 10.5297L11.117 10.5031L11.0357 10.4687L10.8779 10.3922L10.8451 10.2094L10.7498 10.3781L10.7107 10.4578L10.6795 10.5375L10.6389 10.6625L10.6092 10.789L10.5842 10.9187L10.5217 11.3094L10.4951 11.4375L10.3936 11.8094L10.3107 12.0547L10.2389 12.2078L10.1951 12.2812L10.1482 12.35L10.0936 12.414L10.0311 12.475L9.92168 12.5437L9.80918 12.6047L9.69199 12.6547L9.44824 12.7375L9.32324 12.7703L8.94668 12.85L8.67324 12.8875L8.3998 12.9172L8.1248 12.9406L7.84824 12.9562L7.57324 12.9656L7.29668 12.9687L7.02012 12.964L6.74512 12.9531L6.47012 12.9344L6.19512 12.9094L6.29355 12.9734L6.49824 13.0859L6.60449 13.1343L6.71387 13.1765L6.8248 13.2109L6.92012 13.4734L6.7998 13.5125L6.67949 13.5437L6.55762 13.5703L5.81855 13.689L5.5748 13.7453L5.45449 13.7828L5.46543 13.675L5.46699 13.5672L5.4623 13.4609L5.44668 13.3015L5.36699 12.825L5.34199 12.6125L5.31543 12.2906L5.30293 12.0765L5.2748 11.2203L5.2498 10.9359L5.22949 10.7937L5.26074 10.4062L5.26387 10.1469L5.25605 10.0187L5.19199 10.1469L5.1373 10.2797L5.07637 10.5172L4.95605 10.4453L4.84199 10.3703L4.6248 10.2015L4.42012 10.0187L4.27324 9.87498L3.84199 9.42654L3.69512 9.27966L3.54512 9.13904L3.52168 9.10154L3.48574 9.01873L3.45605 8.88748L3.43574 8.75466ZM5.42793 9.99372L5.42012 10.3234V10.6531L5.42637 10.9828L5.45449 11.5531L5.46543 11.6719L5.48418 11.7906L5.50293 11.8687L5.52637 11.9437L5.55762 12.0187L5.57168 11.8922L5.58262 11.639L5.57324 11.0703L5.58262 10.664V10.4468L5.5748 10.2312L5.55918 10.0156L5.42793 9.99372Z" fill="#F3DDC8"/>
<path d="M12.3485 5.79065L12.4938 5.8344L12.636 5.8844L12.7767 5.94221L12.7329 6.47502L12.7267 6.60784L12.7173 6.99534L12.7079 7.05784L12.6907 7.11877L12.6548 7.19221L12.6267 7.22815L12.6157 7.12346L12.6063 6.91409L12.6095 6.75784L12.6595 6.13284L12.6673 5.97659L12.6001 5.96721L12.5813 6.39221L12.522 7.24065L12.2563 7.26409L12.286 7.01877L12.3063 6.77346L12.3204 6.52815L12.3485 5.79065Z" fill="#C57F97"/>
<path d="M4.5126 2.76251L4.63447 2.63595L4.75947 2.51251L4.88916 2.39532L5.02354 2.28282L5.1626 2.17657L5.30635 2.07501L5.45166 1.9797L5.60166 1.88907L5.75479 1.80314L5.91104 1.72345L6.10947 1.63126L6.3126 1.55001L6.51885 1.47501L6.72822 1.41095L6.94072 1.3547L7.15479 1.30782L7.37197 1.27032L7.58916 1.2422L7.80791 1.22501L8.02666 1.21564L8.24541 1.2172L8.46416 1.22657L8.63916 1.2422L8.8126 1.26407L8.98447 1.2922L9.15635 1.32814L9.32666 1.36876L9.49541 1.4172L9.66104 1.47032L9.8251 1.53282L9.9876 1.60001L10.2829 1.74064L10.4142 1.81251L10.5423 1.88907L10.6657 1.97032L10.786 2.05782L10.9313 2.17345L11.072 2.29532L11.2063 2.42345L11.3376 2.55782L11.4626 2.69689L11.5813 2.84064L11.8063 3.13751L12.1892 3.16251L12.3157 3.17657L12.4423 3.19689L12.5657 3.22657L12.6454 3.25314L12.7235 3.28595L12.8001 3.32657L12.8704 3.37189L12.936 3.42501L12.9938 3.48595L13.0454 3.55314L13.0892 3.62501L13.1235 3.70157L13.1501 3.78126L13.1673 3.86407L13.1751 3.94845L13.1767 4.10157L13.1579 4.40939L13.1001 5.02189L13.0938 5.24376L13.097 5.31095L13.1267 5.47345L13.236 5.86095L13.2579 5.95782L13.2751 6.09064L13.2798 6.51095L13.2735 6.68907L13.2579 6.86564L13.2392 6.98282L13.2142 7.09689L13.1829 7.20939L13.1517 7.2922L13.1157 7.37189L13.0735 7.45001L13.0251 7.52501L12.9892 7.57032L12.9501 7.60939L12.9063 7.64064L12.8095 7.68907L12.6767 7.73126L12.4329 7.78907L12.3345 8.08751L12.2798 8.23439L12.1751 8.47501L12.0751 8.65939L12.1813 8.73439L12.5188 8.94376L12.7376 9.09064L12.8048 9.14376L12.9313 9.26251L12.9876 9.32814L13.0376 9.40001L13.1282 9.56095L13.1657 9.64689L13.2001 9.73751L13.2267 9.83126L13.247 9.92501L13.261 10.0219L13.2688 10.1188L13.2673 10.2141L13.2579 10.3078L13.2407 10.4016L13.2142 10.4922L13.1782 10.5797L13.1454 10.6422L13.1079 10.7016L13.0626 10.7594L12.9626 10.8594L12.9126 10.8969L12.8579 10.9266L12.7438 10.9719L12.6829 10.9875L12.5892 11.0078L12.3048 11.0531L12.2126 11.075L11.8704 11.1906L11.4892 11.3078L11.3626 11.3516L11.3438 11.4109L11.3267 11.5328L11.3251 11.7188L11.3329 12.2313L11.322 12.7438L11.286 13.2547L11.2579 13.5094L11.222 13.7641L11.1657 14.0859L11.1454 14.1516L11.1204 14.2156L11.0892 14.2781L11.011 14.3922L10.9142 14.4906L10.8595 14.5328L10.8017 14.5703L10.7392 14.6031L10.6735 14.6297L10.5423 14.6719L10.4095 14.7078L10.2751 14.7344L10.1392 14.7547L10.0017 14.7672L9.86416 14.7734H9.72666L9.58916 14.7688L9.40479 14.7516L9.22354 14.7266L9.04385 14.6922L8.89072 14.65L8.74541 14.5891L8.67666 14.55L8.6126 14.5047L8.55166 14.4547L8.49541 14.4L8.44541 14.3375L8.39228 14.2328L8.29853 13.9203L8.26885 13.8375L8.14228 13.8031L8.07822 13.7953L7.98135 13.7922L7.6876 13.811L7.6251 14.0359L7.58604 14.15L7.54072 14.2594L7.50479 14.3297L7.4626 14.3953L7.41416 14.4547L7.32979 14.5328L7.2251 14.5953L7.11729 14.6406L7.00791 14.6781L6.89697 14.7078L6.78447 14.7297L6.55479 14.7563L6.37979 14.7641L6.20635 14.7625L5.85947 14.7438L5.62979 14.7109L5.51416 14.6875L5.40166 14.6563L5.32666 14.6313L5.1876 14.5656L5.12197 14.525L5.06104 14.4781L5.00322 14.4234L4.95791 14.3719L4.91885 14.3172L4.88604 14.2594L4.83447 14.136L4.81572 14.0719L4.7751 13.8719L4.7501 13.6719L4.6626 12.7891L4.64541 12.4938L4.64072 12.2969L4.64385 12.0984L4.6751 11.5703L4.67354 11.4875L4.66416 11.4047L4.61572 11.3422L4.55791 11.2859L4.2876 11.0625L4.14385 10.9328L4.00635 10.7984L3.87354 10.6547L3.74854 10.5063L3.63291 10.3531L3.52354 10.1938L3.42197 10.0281L3.34697 9.89376L3.27822 9.7547L3.21572 9.61407L3.15791 9.47032L3.10791 9.32345L3.07197 9.1922L3.04229 9.05783L3.01885 8.87501L3.01416 8.6922L3.02197 8.60157L3.03604 8.51251L3.05635 8.42501L3.08604 8.33908L3.12354 8.2547L3.21885 8.13126L3.35791 7.99376L3.53135 7.83595L3.6126 7.75314L3.50479 7.69064L3.06104 7.47032L2.95322 7.40626L2.90322 7.3672L2.86104 7.32345L2.82666 7.27501L2.8001 7.22189L2.77822 7.1672L2.76104 7.10782L2.74541 7.0172L2.73291 6.83126L2.73916 6.42657L2.7501 6.10939L2.76416 5.95314L2.7876 5.79689L2.8001 5.74064L2.84072 5.63439L3.0001 5.33126L3.03916 5.22501L3.0501 5.16876L3.04854 5.01876L3.03604 4.86876L2.95166 4.27189L2.9376 4.12189L2.93135 3.97345L2.93291 3.87345L2.94229 3.77345L2.95791 3.67345L2.97666 3.60001L3.00166 3.5297L3.03135 3.46251L3.06885 3.40001L3.15947 3.28439L3.26729 3.18282L3.34854 3.12501L3.43291 3.07657L3.52354 3.03439L3.61885 3.00157L3.71416 2.9797L3.88447 2.95782L4.19072 2.93595L4.3126 2.90939L4.4001 2.86876L4.43916 2.84064L4.47666 2.80626L4.5126 2.76251ZM4.45791 3.2422L4.33447 3.21407L4.20947 3.19376L4.04072 3.18282L3.95635 3.18751L3.87197 3.19689L3.79072 3.21564L3.70947 3.24064L3.64072 3.26564L3.57666 3.29845L3.5126 3.33751L3.45479 3.38126L3.4001 3.43126L3.3501 3.48439L3.30635 3.54376L3.26885 3.60626L3.2376 3.67189L3.21416 3.74064L3.19854 3.81095L3.1876 4.0172V4.14845L3.20947 4.47501L3.26572 5.06407L3.27822 5.32657L3.27666 5.45782L3.16572 5.5547L3.11416 5.60626L3.07041 5.66407L3.04697 5.7047L3.02822 5.74845L3.01572 5.79845L3.0001 5.88282L2.98447 6.05314L2.98604 6.88282L2.99541 6.96095L3.0126 7.03439L3.03135 7.08126L3.05635 7.12501L3.0876 7.16876L3.13135 7.20939L3.17666 7.24376L3.2251 7.27189L3.30322 7.30939L3.38604 7.33751L3.72354 7.42032L3.82822 7.70939L3.88604 7.85157L3.95166 7.99064L3.79854 8.02501L3.64854 8.07189L3.57822 8.1047L3.5126 8.14532L3.43604 8.21251L3.35635 8.31251L3.31885 8.37189L3.29072 8.43439L3.26885 8.50001L3.25322 8.5672L3.24541 8.63751L3.24072 8.7422L3.24697 8.85001L3.27822 9.05783L3.31885 9.19376L3.36416 9.32814L3.41416 9.45939L3.47197 9.58908L3.53447 9.71564L3.62197 9.87033L3.71416 10.0203L3.81572 10.1656L3.92354 10.3063L4.0376 10.4422L4.15635 10.5735L4.27979 10.7L4.40947 10.8203L4.49541 10.8953L4.8626 11.1578L4.94854 11.2328L4.93447 11.9219L4.93291 12.2688L4.93604 12.6141L4.95791 13.0735L4.9751 13.3031L5.0001 13.5313L5.03135 13.7594L5.07041 13.9859L5.0876 14.0469L5.1126 14.1031L5.14541 14.1547L5.18604 14.2016L5.22979 14.2453L5.33135 14.3172L5.44229 14.3703L5.57041 14.4125L5.69854 14.4469L5.82979 14.4703L5.9626 14.4875L6.09541 14.4953L6.22979 14.4985L6.43135 14.4938L6.63135 14.4797L6.89697 14.4219L7.04072 14.3719L7.14541 14.3141L7.19229 14.2781L7.23604 14.2359L7.27354 14.1891L7.30791 14.1188L7.36104 13.975L7.39229 13.8641L7.46729 13.525L8.50322 13.5266L8.57666 13.8781L8.60166 13.9656L8.63135 14.05L8.68604 14.1531L8.71885 14.2L8.75791 14.2438L8.80322 14.2828L8.85635 14.3188L8.96104 14.3672L9.06729 14.4078L9.17666 14.4391L9.2876 14.4641L9.4001 14.4813L9.51416 14.4922L9.68604 14.5L9.85791 14.4985L10.2001 14.4797L10.3798 14.4438L10.4704 14.4188L10.561 14.386L10.6173 14.3594L10.722 14.2953L10.7688 14.2578L10.8095 14.2141L10.8454 14.1672L10.8751 14.1141L10.897 14.0563L10.911 13.9906L10.9501 13.7531L10.9798 13.5141L11.0032 13.275L11.0313 12.7953L11.0376 12.5531L11.0423 12.1922L11.0407 11.1078L11.4548 11.0484L11.6813 11.0016L11.8579 10.9438L11.922 10.9156L12.111 10.8172L12.2407 10.7625L12.4876 10.7531L12.5704 10.7438L12.6751 10.7203L12.7251 10.7L12.7704 10.675L12.8157 10.6438L12.8579 10.6031L12.9032 10.5469L12.9392 10.4906L12.9657 10.4297L12.9845 10.3672L12.997 10.3016L13.0017 10.1672L12.986 10.0297L12.9642 9.92657L12.9345 9.82658L12.8626 9.63751L12.8079 9.55314L12.7485 9.47501L12.6813 9.40314L12.611 9.33751L12.4563 9.22032L12.3313 9.1422L11.8095 8.85626L11.686 8.7797L11.7876 8.63751L11.8813 8.49376L11.9673 8.34376L12.047 8.18907L12.1032 8.06251L12.1532 7.93439L12.197 7.80314L12.236 7.67032L12.2673 7.53439L12.5767 7.48439L12.6532 7.46564L12.7251 7.43907L12.772 7.4172L12.8563 7.35626L12.8923 7.30314L12.9204 7.24689L12.9438 7.18907L12.9688 7.10001L12.9845 7.00626L12.9985 6.81564L13.0095 6.20939L13.0017 5.93126L12.986 5.7922L12.9563 5.74689L12.922 5.70782L12.7563 5.57657L12.8454 4.97657L12.8704 4.77501L12.9032 4.37189L12.9251 4.22032L12.9267 4.06095L12.9188 3.98282L12.9048 3.90626L12.8829 3.83126L12.8532 3.76095L12.8142 3.69532L12.7798 3.65001L12.7407 3.60939L12.6954 3.57189L12.5688 3.49532L12.4923 3.46251L12.4157 3.43751L12.2548 3.41095L12.172 3.40782H12.0485L11.6767 3.43751L11.5673 3.27032L11.4517 3.10626L11.3298 2.94689L11.2017 2.7922L11.0657 2.64532L10.9235 2.5047L10.697 2.30626L10.4563 2.12814L10.3313 2.04689L10.2017 1.97189L10.0673 1.90314L9.76885 1.76876L9.60635 1.70626L9.44229 1.65157L9.2751 1.60314L9.10635 1.56095L8.93604 1.52501L8.76416 1.49689L8.59229 1.47501L8.41885 1.46095L8.24385 1.45157L8.06885 1.45001L7.89541 1.4547L7.72197 1.46564L7.54854 1.48282L7.3751 1.50782L7.15947 1.54532L6.94697 1.59376L6.7376 1.65157L6.52979 1.72032L6.36572 1.78126L6.20479 1.84845L6.04854 1.92032L5.89385 2.00001L5.74072 2.08439L5.59229 2.17501L5.44854 2.27032L5.30791 2.37345L5.17197 2.4797L5.03916 2.59376L4.9126 2.71251L4.79072 2.83595L4.6751 2.96564L4.56416 3.10157L4.45791 3.2422Z" fill="#FDFBF8"/>
<path d="M4.58594 2.55625L4.70781 2.43594L4.83594 2.32031L4.96719 2.21094L5.10156 2.10625L5.24062 2.00625L5.41875 1.88906L5.60313 1.77969L5.79063 1.67813L5.98438 1.58594L6.18125 1.5L6.37969 1.425L6.58281 1.35625L6.78906 1.29688L6.99844 1.24688L7.20781 1.20469L7.41875 1.17188L7.63281 1.14688L7.84688 1.13125L8.05937 1.125L8.27344 1.12812L8.4875 1.13906L8.7 1.16094L8.91094 1.19062L9.12031 1.22969L9.32969 1.27969L9.49375 1.325L9.65625 1.37656L9.81719 1.43594L9.97656 1.5L10.2984 1.65156L10.4594 1.73906L10.6172 1.83438L10.7703 1.93438L10.9187 2.04219L11.0625 2.15625L11.2 2.27813L11.3328 2.40469L11.4578 2.53906L11.5281 2.62031L11.725 2.87344L11.8219 2.97813L11.875 3.02656L11.9891 3.05312L12.1062 3.07188L12.4609 3.11406L12.5766 3.13594L12.6516 3.15625L12.725 3.18438L12.8672 3.25469L12.9312 3.29688L12.9906 3.34531L13.0453 3.39844L13.0953 3.45781L13.1391 3.52031L13.1766 3.58594L13.2109 3.65625L13.2375 3.72969L13.2578 3.80312L13.2719 3.87812L13.2797 3.95625L13.2812 4.11562L13.275 4.275L13.2188 4.9125L13.2094 5.07188L13.2063 5.23281L13.2125 5.33125L13.2281 5.42969L13.3234 5.81406L13.3422 5.91094L13.3641 6.17656L13.3687 6.34375L13.3609 6.67656L13.35 6.84219L13.3328 7.00781L13.3188 7.09219L13.2781 7.25625L13.2172 7.41563L13.1781 7.49062L13.1328 7.5625L13.0813 7.62969L13.0234 7.69219L12.975 7.72656L12.8734 7.78125L12.7922 7.81406L12.5422 7.89531L12.3969 8.27656L12.2406 8.65469L12.725 8.96875L12.8781 9.08438L12.9484 9.14844L13.0156 9.21719L13.075 9.29062L13.1297 9.37344L13.1828 9.4625L13.2297 9.55625L13.2703 9.65469L13.3031 9.75625L13.3281 9.85938L13.3469 9.96562L13.3562 10.0719L13.3578 10.1781L13.3516 10.2844L13.3359 10.3891L13.3109 10.4906L13.2766 10.5891L13.2437 10.6609L13.2063 10.7297L13.1641 10.7969L13.1141 10.8609L13.0625 10.9125L13.0094 10.9547L12.9531 10.9891L12.8313 11.0437L12.7672 11.0625L12.6672 11.0859L12.3609 11.1422L12.2609 11.1656L11.8172 11.3172L11.6406 11.3672L11.4594 11.4062L11.4438 11.5938L11.4359 11.7812V12.5312L11.4312 12.7188L11.3891 13.3125L11.3484 13.7172L11.3062 13.9844L11.2781 14.1172L11.2578 14.1953L11.2281 14.2672L11.1922 14.3375L11.15 14.4047L11.1016 14.4656L11.0484 14.5234L10.9891 14.5766L10.9266 14.6234L10.8594 14.6672L10.7875 14.7031L10.7156 14.7344L10.6406 14.7578L10.4875 14.7969L10.3313 14.8281L10.175 14.85L10.0172 14.8656L9.85938 14.8734L9.70156 14.875L9.54219 14.8672L9.38594 14.8547L9.22812 14.8344L9.13125 14.8172L8.93594 14.7688L8.84062 14.7359L8.75 14.6984L8.66094 14.6531L8.575 14.6016L8.49687 14.5422L8.42188 14.4734L8.37656 14.4219L8.33906 14.3656L8.30625 14.3078L8.26406 14.2141L8.23125 14.1187L8.17188 13.9234L8.00625 13.9141L7.83906 13.9172L7.77812 14.0172L7.65312 14.3188L7.61406 14.3984L7.58281 14.4469L7.54688 14.4937L7.43281 14.5984L7.35781 14.65L7.27969 14.6938L7.19688 14.7312L7.11094 14.7609L7.02344 14.7859L6.8875 14.8156L6.75 14.8359L6.47813 14.8641L6.17812 14.8703L6.02656 14.8656L5.875 14.8547L5.72656 14.8344L5.57812 14.8078L5.46875 14.7812L5.36094 14.7484L5.25469 14.7109L5.15 14.6656L5.07656 14.6266L5.01094 14.5797L4.95156 14.525L4.89687 14.4656L4.85 14.4016L4.80781 14.3328L4.74062 14.1859L4.71406 14.1078L4.67969 13.95L4.60156 13.1797L4.54375 12.4891L4.53594 12.3328L4.5375 12.1766L4.57188 11.5531L4.56406 11.4906L4.53125 11.4234L4.50156 11.3875L4.3625 11.2609L4.22656 11.1516L4.09688 11.0359L3.97031 10.9141L3.84844 10.7875L3.73281 10.6562L3.62344 10.5219L3.51875 10.3813L3.42031 10.2359L3.32969 10.0875L3.24375 9.93437L3.16563 9.77969L3.09531 9.61875L3.04531 9.49219L3.00156 9.3625L2.96563 9.22969L2.9375 9.09375L2.92031 8.95938L2.91094 8.82344V8.72031L2.91719 8.61875L2.93125 8.51719L2.95156 8.41562L2.97187 8.35L2.99688 8.28906L3.02813 8.23125L3.08281 8.14844L3.14687 8.07187L3.21563 7.99844L3.42812 7.7875L3.34063 7.73125L3.05469 7.57344L2.96094 7.51719L2.875 7.45469L2.82188 7.40781L2.775 7.35781L2.73438 7.30312L2.68594 7.21094L2.65625 7.1L2.63125 6.84375L2.62656 6.71562L2.625 6.52187L2.63125 6.32812L2.65313 5.94219L2.67188 5.80312L2.69062 5.73594L2.725 5.63906L2.9 5.25781L2.9375 5.16094L2.94219 5.06406L2.93438 4.87031L2.91406 4.725L2.8375 4.28906L2.81719 4.14375L2.80625 3.99844V3.90156L2.8125 3.80469L2.82812 3.70625L2.85 3.61406L2.88125 3.52656L2.92188 3.44375L2.97031 3.36406L3.025 3.29063L3.0875 3.22031L3.15469 3.15625L3.22656 3.09844L3.30469 3.04531L3.38594 3L3.47031 2.96094L3.55625 2.92812L3.65937 2.9L3.86562 2.86719L4.17969 2.83281L4.2625 2.81562L4.35313 2.76719L4.40312 2.72969L4.58594 2.55625ZM4.5125 2.7625L4.47656 2.80625L4.43906 2.84063L4.4 2.86875L4.3125 2.90937L4.19063 2.93594L3.88438 2.95781L3.71406 2.97969L3.61875 3.00156L3.52344 3.03437L3.43281 3.07656L3.34844 3.125L3.26719 3.18281L3.15937 3.28437L3.06875 3.4L3.03125 3.4625L3.00156 3.52969L2.97656 3.6L2.95781 3.67344L2.94219 3.77344L2.93281 3.87344L2.93125 3.97344L2.9375 4.12187L2.95156 4.27187L3.03594 4.86875L3.04844 5.01875L3.05 5.16875L3.03906 5.225L3 5.33125L2.84063 5.63438L2.8 5.74062L2.7875 5.79688L2.76406 5.95312L2.75 6.10938L2.73906 6.42656L2.73281 6.83125L2.74531 7.01719L2.76094 7.10781L2.77813 7.16719L2.8 7.22188L2.82656 7.275L2.86094 7.32344L2.90313 7.36719L2.95312 7.40625L3.06094 7.47031L3.50469 7.69063L3.6125 7.75313L3.53125 7.83594L3.35781 7.99375L3.21875 8.13125L3.12344 8.25469L3.08594 8.33906L3.05625 8.425L3.03594 8.5125L3.02187 8.60156L3.01406 8.69219L3.01875 8.875L3.04219 9.05781L3.07188 9.19219L3.10781 9.32344L3.15781 9.47031L3.21563 9.61406L3.27813 9.75469L3.34687 9.89375L3.42188 10.0281L3.52344 10.1938L3.63281 10.3531L3.74844 10.5063L3.87344 10.6547L4.00625 10.7984L4.14375 10.9328L4.2875 11.0625L4.55781 11.2859L4.61562 11.3422L4.66406 11.4047L4.67344 11.4875L4.675 11.5703L4.64375 12.0984L4.64062 12.2969L4.64531 12.4937L4.6625 12.7891L4.75 13.6719L4.775 13.8719L4.81563 14.0719L4.83437 14.1359L4.88594 14.2594L4.91875 14.3172L4.95781 14.3719L5.00313 14.4234L5.06094 14.4781L5.12187 14.525L5.1875 14.5656L5.32656 14.6313L5.40156 14.6562L5.51406 14.6875L5.62969 14.7109L5.85938 14.7437L6.20625 14.7625L6.37969 14.7641L6.55469 14.7563L6.78438 14.7297L6.89687 14.7078L7.00781 14.6781L7.11719 14.6406L7.225 14.5953L7.32969 14.5328L7.41406 14.4547L7.4625 14.3953L7.50469 14.3297L7.54063 14.2594L7.58594 14.15L7.625 14.0359L7.6875 13.8109L7.98125 13.7922L8.07812 13.7953L8.14219 13.8031L8.26875 13.8375L8.29844 13.9203L8.39219 14.2328L8.44531 14.3375L8.49531 14.4L8.55156 14.4547L8.6125 14.5047L8.67656 14.55L8.74531 14.5891L8.89062 14.65L9.04375 14.6922L9.22344 14.7266L9.40469 14.7516L9.58906 14.7688L9.86406 14.7734L10.0016 14.7672L10.1391 14.7547L10.275 14.7344L10.4094 14.7078L10.5422 14.6719L10.6734 14.6297L10.7391 14.6031L10.8016 14.5703L10.8594 14.5328L10.9641 14.4438L11.0516 14.3375L11.0891 14.2781L11.1203 14.2156L11.1453 14.1516L11.1656 14.0859L11.1797 14.0156L11.2219 13.7641L11.2578 13.5094L11.2859 13.2547L11.3219 12.7437L11.3328 12.2312L11.325 11.7188L11.3266 11.5328L11.3438 11.4109L11.3625 11.3516L11.4891 11.3078L11.8703 11.1906L12.2125 11.075L12.3047 11.0531L12.5891 11.0078L12.6828 10.9875L12.7437 10.9719L12.8578 10.9266L12.9125 10.8969L12.9625 10.8594L13.0625 10.7594L13.1078 10.7016L13.1453 10.6422L13.1781 10.5797L13.2141 10.4922L13.2406 10.4016L13.2578 10.3078L13.2672 10.2141L13.2688 10.1187L13.2609 10.0219L13.2469 9.925L13.2266 9.83125L13.2 9.7375L13.1656 9.64688L13.1281 9.56094L13.0375 9.4L12.9875 9.32812L12.9312 9.2625L12.8047 9.14375L12.7359 9.09062L12.6297 9.01406L12.2922 8.80469L12.075 8.65938L12.175 8.475L12.2797 8.23438L12.3344 8.0875L12.4328 7.78906L12.6766 7.73125L12.8094 7.68906L12.9062 7.64062L12.95 7.60938L12.9891 7.57031L13.025 7.525L13.0734 7.45L13.1156 7.37187L13.1516 7.29219L13.1828 7.20937L13.2141 7.09688L13.2391 6.98281L13.2578 6.86562L13.2734 6.68906L13.2797 6.51094L13.275 6.09062L13.2578 5.95781L13.2359 5.86094L13.1266 5.47344L13.0969 5.31094L13.0938 5.24375L13.1 5.02187L13.1578 4.40938L13.1766 4.10156L13.175 3.94844L13.1672 3.86406L13.15 3.78125L13.1234 3.70156L13.0891 3.625L13.0453 3.55312L12.9937 3.48594L12.9359 3.425L12.8703 3.37188L12.8 3.32656L12.7234 3.28594L12.6453 3.25312L12.5641 3.22656L12.4422 3.19688L12.3156 3.17656L12.1891 3.1625L11.8062 3.1375L11.5813 2.84063L11.4625 2.69688L11.3375 2.55781L11.2063 2.42344L11.0719 2.29531L10.9312 2.17344L10.7859 2.05781L10.6656 1.97031L10.5422 1.88906L10.4141 1.8125L10.2828 1.74063L9.9875 1.6L9.825 1.53281L9.66094 1.47031L9.49531 1.41719L9.32656 1.36875L9.15625 1.32812L8.98438 1.29219L8.8125 1.26406L8.63906 1.24219L8.46406 1.22656L8.24531 1.21719L8.02656 1.21563L7.80781 1.225L7.58906 1.24219L7.37187 1.27031L7.15469 1.30781L6.94063 1.35469L6.72813 1.41094L6.51875 1.475L6.3125 1.55L6.10938 1.63125L5.91094 1.72344L5.75469 1.80313L5.60156 1.88906L5.45156 1.97969L5.30625 2.075L5.1625 2.17656L5.02344 2.28281L4.88906 2.39531L4.75938 2.5125L4.63438 2.63594L4.5125 2.7625Z" fill="#EAD6D3"/>
<path d="M4.45781 3.2422L4.56406 3.10157L4.675 2.96564L4.79063 2.83595L4.9125 2.71251L5.03906 2.59376L5.17188 2.4797L5.30781 2.37345L5.44844 2.27032L5.59219 2.17501L5.74062 2.08439L5.89375 2.00001L6.04844 1.92032L6.20625 1.84845L6.36562 1.78126L6.52969 1.72032L6.7375 1.65157L6.94688 1.59376L7.15938 1.54532L7.375 1.50782L7.54844 1.48282L7.72188 1.46564L7.89531 1.4547L8.06875 1.45001L8.24375 1.45157L8.41875 1.46095L8.59219 1.47501L8.76406 1.49689L8.93594 1.52501L9.10625 1.56095L9.275 1.60314L9.44219 1.65157L9.60625 1.70626L9.76875 1.76876L10.0672 1.90314L10.2016 1.97189L10.3313 2.04689L10.4563 2.12814L10.6969 2.30626L10.9234 2.5047L11.0656 2.64532L11.2016 2.7922L11.3297 2.94689L11.4516 3.10626L11.5672 3.27032L11.6766 3.43751L12.0484 3.40782H12.1719L12.3359 3.42189L12.4156 3.43751L12.4922 3.46251L12.5688 3.49532L12.6953 3.57189L12.7406 3.60939L12.7797 3.65001L12.8141 3.69532L12.8531 3.76095L12.8828 3.83126L12.9047 3.90626L12.9187 3.98282L12.9266 4.06095L12.925 4.22032L12.9031 4.37189L12.8703 4.77501L12.8031 5.27657L12.7563 5.57657L12.9219 5.70782L12.9563 5.74689L12.9859 5.7922L13.0016 5.93126L13.0094 6.20939L12.9984 6.81564L12.9844 7.00626L12.9688 7.10001L12.9438 7.18907L12.9203 7.24689L12.8922 7.30314L12.8562 7.35626L12.7719 7.4172L12.725 7.43907L12.6531 7.46564L12.5766 7.48439L12.2672 7.53439L12.2359 7.67032L12.1969 7.80314L12.1531 7.93439L12.1031 8.06251L12.0469 8.18907L11.9672 8.34376L11.8813 8.49376L11.7875 8.63751L11.6859 8.7797L11.8094 8.85626L12.3313 9.1422L12.4563 9.22032L12.6109 9.33751L12.6812 9.40314L12.7484 9.47501L12.8078 9.55314L12.8625 9.63751L12.9344 9.82658L12.9641 9.92657L12.9859 10.0297L13.0016 10.1672L12.9969 10.3016L12.9844 10.3672L12.9656 10.4297L12.9391 10.4906L12.9031 10.5469L12.8578 10.6031L12.8156 10.6438L12.7703 10.675L12.725 10.7L12.675 10.7203L12.5703 10.7438L12.4875 10.7531L12.2406 10.7625L12.1109 10.8172L11.9219 10.9156L11.8578 10.9438L11.6812 11.0016L11.4547 11.0484L11.0406 11.1078L11.0422 12.1922L11.0375 12.5531L11.0203 13.0344L11.0031 13.275L10.9797 13.5141L10.95 13.7531L10.8969 14.0563L10.875 14.1141L10.8453 14.1672L10.8094 14.2141L10.7688 14.2578L10.7219 14.2953L10.6172 14.3594L10.4703 14.4188L10.2875 14.4641L10.2 14.4797L10.0312 14.4906L9.85781 14.4985L9.68594 14.5L9.51406 14.4922L9.4 14.4813L9.2875 14.4641L9.17656 14.4391L9.06719 14.4078L8.96094 14.3672L8.85625 14.3188L8.80313 14.2828L8.75781 14.2438L8.71875 14.2L8.65625 14.1031L8.60156 13.9656L8.57656 13.8781L8.50313 13.5266L7.46719 13.525L7.39219 13.8641L7.36094 13.975L7.30781 14.1188L7.27344 14.1891L7.23594 14.2359L7.19219 14.2781L7.09531 14.3453L6.98438 14.3953L6.89687 14.4219L6.63125 14.4797L6.43125 14.4938L6.22969 14.4985L6.09531 14.4953L5.9625 14.4875L5.82969 14.4703L5.69844 14.4469L5.57031 14.4125L5.44219 14.3703L5.33125 14.3172L5.27812 14.2828L5.22969 14.2453L5.18594 14.2016L5.14687 14.1547L5.1125 14.1031L5.0875 14.0469L5.07031 13.9859L5.03125 13.7594L5 13.5313L4.975 13.3031L4.94375 12.8438L4.93281 12.2688L4.93437 11.9219L4.94844 11.2328L4.8625 11.1578L4.49531 10.8953L4.40938 10.8203L4.27969 10.7L4.15625 10.5735L4.0375 10.4422L3.92344 10.3063L3.81562 10.1656L3.71406 10.0203L3.62188 9.87033L3.53437 9.71564L3.47187 9.58908L3.41406 9.45939L3.36406 9.32814L3.31875 9.19376L3.27813 9.05783L3.24688 8.85001L3.24062 8.7422L3.24531 8.63751L3.25312 8.5672L3.26875 8.50001L3.29063 8.43439L3.31875 8.37189L3.35625 8.31251L3.43594 8.21251L3.47187 8.17657L3.5125 8.14532L3.57812 8.1047L3.64844 8.07189L3.72344 8.04689L3.95156 7.99064L3.88594 7.85157L3.82812 7.70939L3.72344 7.42032L3.38594 7.33751L3.30312 7.30939L3.225 7.27189L3.17656 7.24376L3.13125 7.20939L3.0875 7.16876L3.05625 7.12501L3.03125 7.08126L3.0125 7.03439L2.99531 6.96095L2.98594 6.88282L2.98438 6.05314L3 5.88282L3.01562 5.79845L3.02813 5.74845L3.04688 5.7047L3.07031 5.66407L3.11406 5.60626L3.16563 5.5547L3.27656 5.45782L3.27813 5.32657L3.26719 5.06407L3.20937 4.47501L3.1875 4.14845V4.0172L3.19844 3.81095L3.21406 3.74064L3.2375 3.67189L3.26875 3.60626L3.30625 3.54376L3.35 3.48439L3.4 3.43126L3.45469 3.38126L3.5125 3.33751L3.57656 3.29845L3.64062 3.26564L3.70937 3.24064L3.79063 3.21564L3.87188 3.19689L3.95625 3.18751L4.04063 3.18282L4.20937 3.19376L4.33437 3.21407L4.45781 3.2422ZM6.52969 1.96564L6.35 2.03126L6.175 2.10626L6.00625 2.19064L5.84062 2.28282L5.67969 2.38282L5.525 2.49064L5.375 2.60626L5.23125 2.72814L5.09219 2.85782L4.96094 2.99376L4.83437 3.13439L4.71406 3.28282L4.60156 3.43595L4.49531 3.5922L4.39531 3.75314L4.30312 3.92032L4.21719 4.09064L4.14062 4.26251L4.07031 4.43907L4.00781 4.6172L3.95156 4.80626L3.90156 4.99845L3.85781 5.19064L3.82031 5.38751L3.79219 5.58439L3.77187 5.78126L3.75781 5.97814L3.75312 6.17657L3.75781 6.37501L3.77031 6.57345L3.79219 6.76876L3.82344 6.96408L3.85625 7.11876L3.89375 7.27189L3.93906 7.42345L3.99062 7.57501L4.05 7.72345L4.12344 7.8797L4.20469 8.03126L4.32812 8.22501L4.39687 8.3172L4.47188 8.41407L4.55156 8.5047L4.63594 8.59064L4.72656 8.67033L4.85156 8.77189L4.98281 8.86407L5.12031 8.95001L5.26094 9.02814L5.40625 9.10001L5.55469 9.16564L5.85781 9.2797L6.00938 9.3297L6.25313 9.3922L6.49687 9.44689L6.74375 9.4922L6.99219 9.52814L7.24219 9.55626L7.49219 9.57658L7.74219 9.58908L7.99375 9.5922L8.24531 9.59064L8.49531 9.58126L8.74531 9.56564L8.99531 9.54376L9.25156 9.50001L9.50781 9.44845L9.76094 9.38751L9.95 9.33595L10.1375 9.27658L10.3203 9.21095L10.5031 9.13908L10.6812 9.05939L10.8547 8.97189L11.025 8.87501L11.1906 8.77032L11.3047 8.68126L11.4141 8.58439L11.5172 8.48126L11.6156 8.37033L11.7063 8.2547L11.7891 8.13439L11.8453 8.03907L11.8953 7.9422L11.9812 7.7422L12.0156 7.63907L12.0422 7.53439L12.0625 7.42657L12.075 7.31876L12.1203 7.07814L12.1562 6.83595L12.1828 6.59064L12.1969 6.40626L12.2031 6.22189L12.2047 6.03595L12.1984 5.85157L12.1859 5.6672L12.1641 5.48439L12.1375 5.30314L12.1016 5.12345L12.0578 4.94376L12.0063 4.7672L11.9453 4.59376L11.7781 4.20001L11.6734 3.98126L11.5594 3.76407L11.4672 3.60314L11.3703 3.44845L11.2688 3.29689L11.1594 3.14845L11.0453 3.00626L10.925 2.86876L10.7984 2.73907L10.6656 2.61564L10.5547 2.52189L10.4391 2.43282L10.3188 2.35001L10.1938 2.27345L9.9 2.11251L9.73281 2.03439L9.5625 1.96564L9.38906 1.9047L9.21094 1.85157L9.03281 1.80626L8.85156 1.77032L8.66875 1.74064L8.48438 1.71876L8.3 1.7047L8.11563 1.69689H7.93125L7.45469 1.73751L7.13906 1.78439L6.86719 1.84532L6.64062 1.92032L6.52969 1.96564ZM3.71875 3.47032L3.66406 3.49532L3.61406 3.52657L3.56562 3.56407L3.52344 3.60782L3.48438 3.65314L3.45156 3.7047L3.425 3.75939L3.40313 3.81564L3.38906 3.87345L3.38125 3.93282V3.99376L3.41406 4.22032L3.46719 4.72657L3.49375 5.19845L3.52187 5.35157L3.56562 5.47189L3.6 5.40314L3.65313 5.26095L3.68125 5.15001L3.74375 4.80939L3.77031 4.69689L3.85 4.43595L3.90625 4.28907L3.96719 4.14376L4.31094 3.43282L4.11094 3.41251L4.01094 3.40939L3.91094 3.41564L3.84687 3.42657L3.78281 3.44376L3.71875 3.47032ZM11.7953 3.65314L12.0281 4.17345L12.0813 4.30626L12.1719 4.5672L12.2406 4.82345L12.2828 5.01876L12.3938 5.60939L12.5391 5.55314L12.5688 5.30314L12.6391 4.8047L12.6859 4.38751L12.7031 4.05157L12.6984 4.00001L12.6891 3.95001L12.6734 3.90314L12.65 3.85782L12.6125 3.80314L12.5688 3.7547L12.5156 3.71095L12.4578 3.67501L12.3969 3.64689L12.2734 3.61095L12.2125 3.60157L12.1531 3.59845L12.0641 3.6047L11.9734 3.61876L11.7953 3.65314ZM3.28906 5.73595L3.27656 5.88439L3.26562 6.1797L3.26719 6.40158L3.29688 7.06876L3.47031 7.08282L3.475 7.13907L3.70469 7.15939L3.68281 7.03751L3.65625 6.79532L3.64687 6.61095L3.63438 5.87657L3.62344 5.6922L3.45625 5.70939L3.28906 5.73595ZM12.3484 5.79064L12.3203 6.52814L12.3062 6.77345L12.2859 7.01876L12.2563 7.26407L12.5219 7.24064L12.5813 6.3922L12.6 5.9672L12.6672 5.97657L12.6594 6.13282L12.6094 6.75782L12.6062 6.91407L12.6156 7.12345L12.6266 7.22814L12.6547 7.1922L12.6906 7.11876L12.7078 7.05783L12.7172 6.99533L12.7266 6.60782L12.7328 6.47501L12.7766 5.9422L12.6359 5.88439L12.4937 5.83439L12.3484 5.79064ZM3.43594 8.7547L3.45625 8.88751L3.48594 9.01876L3.52187 9.10157L3.54531 9.13908L3.57344 9.24064L3.60625 9.34064L3.69062 9.53126L3.79531 9.71251L3.88438 9.84376L3.97969 9.97032L4.17969 10.2125L4.44063 10.4859L4.625 10.6594L4.72031 10.7406L4.82031 10.8172L4.925 10.8875L5.03438 10.9516L5.07656 10.5172L5.1375 10.2797L5.16875 10.4188L5.19375 10.5594L5.22656 10.8422L5.17969 11.5266L5.16875 11.7547L5.16563 12.2109L5.17188 12.4391L5.18594 12.6672L5.20625 12.8953L5.2125 13.0516L5.28125 13.6719L5.28906 13.8281L5.34844 13.9625L5.37187 14.0063L5.43125 14.0828L5.46562 14.1125L5.50781 14.136L5.55781 14.1531L5.7 14.1938L5.84531 14.225L5.99219 14.2485L6.14219 14.2625L6.29063 14.2672L6.43906 14.2625L6.55156 14.2516L6.77031 14.2156L6.87813 14.1891L6.97188 14.1469L7.01094 14.1203L7.04375 14.0891L7.08125 14.0422L7.11406 13.9906L7.13906 13.9328L7.16875 13.8422L7.19063 13.7438L7.24687 13.3609L7.30781 13.2703L7.76406 13.2766L7.99219 13.2719L8.37187 13.2453L8.85625 13.1766L9.58125 13.0531L9.7625 13.0313L9.62969 13.0625L9.35625 13.1125L9.22031 13.1453L8.95156 13.2313L8.6875 13.3297L8.70938 13.4172L8.76562 13.7063L8.78906 13.8016L8.82031 13.8922L8.84688 13.9485L8.87969 14.0016L8.94844 14.0797L9.02656 14.1344L9.075 14.1563L9.18437 14.1922L9.29531 14.2219L9.40938 14.2453L9.52344 14.261L9.63906 14.2703L9.87031 14.2734L10.1031 14.25L10.3297 14.2063L10.4969 14.1578L10.5422 14.1328L10.5797 14.1031L10.6094 14.0672L10.6359 14.0266L10.6547 13.9813L10.6766 13.9094L10.6906 13.8297L10.725 13.5203L10.7734 12.8063L10.7891 12.4485L10.8031 11.9125L10.8078 11.375L10.7937 10.3016L10.8453 10.2094L10.8781 10.3922L10.9922 10.8578L11.2578 10.8391L11.3938 10.825L11.6187 10.7859L11.7906 10.7359L11.875 10.7047L11.9547 10.6656L12.0312 10.6219L12.1031 10.5703L12.1703 10.511L12.2328 10.4438L12.3094 10.4734L12.4469 10.5094L12.5562 10.5156L12.6094 10.5063L12.6625 10.4891L12.7141 10.4594L12.7375 10.4141L12.7531 10.3688L12.7641 10.3203L12.7688 10.2469L12.7641 10.1719L12.7531 10.0969L12.6703 9.75314L12.6078 9.67033L12.5406 9.59532L12.4688 9.52814L12.3109 9.40782L12.2281 9.3547L12.0969 9.28126L11.9609 9.21408L11.4125 8.9672L11.2359 9.11876L11.0531 9.26251L10.6812 9.5422L10.2703 9.70626L10.0609 9.7797L9.84844 9.84689L9.63594 9.90626L9.42031 9.95939L9.20312 10.0047L8.98438 10.0406L8.76406 10.0688L8.33594 10.0844L7.47969 10.0797L7.30937 10.0719L7.14062 10.0578L6.97188 10.0344L6.64062 9.97032L6.475 9.92814L6.23125 9.85783L5.98906 9.77658L5.5125 9.59845L5.11406 9.28751L4.91875 9.12657L4.72813 8.95939L4.60469 8.84532L4.37031 8.6047L4.25938 8.47814L4.15469 8.34689L4.05469 8.20939L3.80156 8.22189L3.75469 8.23126L3.71094 8.24689L3.67031 8.2672L3.61875 8.30314L3.57344 8.34532L3.53281 8.39376L3.49844 8.44845L3.47187 8.50626L3.45156 8.5672L3.4375 8.63126L3.43281 8.6922L3.43594 8.7547ZM6.18437 9.55626L6.05312 9.52032L5.5375 9.34689L5.40625 9.31095L5.51875 9.38595L5.63594 9.45314L5.75625 9.51251L6.00469 9.61251L6.32656 9.71408L6.52031 9.7672L6.67344 9.80314L6.825 9.83439L6.97969 9.85783L7.21094 9.88439L7.44531 9.90001L7.67812 9.90939H8.37969L8.56563 9.9047L8.75156 9.89064L8.93594 9.87033L9.12031 9.8422L9.30313 9.80783L9.66406 9.72032L10.0188 9.61095L10.1766 9.5547L10.3297 9.4922L10.4797 9.42189L10.5891 9.36407L10.6953 9.30001L10.7984 9.23126L10.8984 9.15626L10.6781 9.25782L10.4531 9.34845L10.2266 9.4297L9.99844 9.50314L9.76562 9.5672L9.53125 9.62189L9.29531 9.66876L9.05781 9.70626L8.81875 9.73595L8.57812 9.75782L8.3375 9.77189L8.09688 9.77814L7.85469 9.77658L7.61406 9.7672L7.37344 9.75001L7.13281 9.72501L6.89219 9.69376L6.65469 9.6547L6.41875 9.60939L6.18437 9.55626Z" fill="#26182B"/>
<path d="M6.52979 1.96565L6.64072 1.92034L6.86729 1.84534L7.13916 1.7844L7.45479 1.73752L7.69385 1.71409L7.93135 1.6969H8.11572L8.3001 1.70471L8.48447 1.71877L8.66885 1.74065L8.85166 1.77034L9.03291 1.80627L9.21104 1.85159L9.38916 1.90471L9.5626 1.96565L9.73291 2.0344L9.9001 2.11252L10.0642 2.20002L10.1095 2.34221L10.147 2.48596L10.1782 2.63127L10.1938 2.74221L10.2032 2.85159L10.2079 2.96252L10.2032 3.07346L10.1938 3.18284L10.1735 3.29065L10.1454 3.40002L10.1079 3.50784H9.93916L9.48916 3.41096L9.26416 3.36877L8.88447 3.31721L8.57978 3.29377L8.19854 3.28284L7.81572 3.28127L7.56104 3.28752L7.30635 3.30159L7.05322 3.3219L6.6751 3.3719L6.3001 3.44534L6.08135 3.49846L5.8626 3.56096L5.71885 3.6094L5.57822 3.66252L5.43916 3.72346L5.30322 3.78909L5.17354 3.86409L5.04854 3.9469L4.95791 4.01409L4.87197 4.08596L4.79072 4.16565L4.7126 4.24846L4.63447 4.34221L4.49541 4.53752L4.43447 4.63909L4.35791 4.77971L4.28916 4.92502L4.2251 5.0719L4.13916 5.2969L4.06104 5.52502L4.05322 5.25315L4.06572 5.10315L4.09541 4.98596L4.1751 4.7719L4.2626 4.56096L4.35947 4.35471L4.46572 4.15159L4.57979 3.95315L4.70166 3.76096L4.82979 3.5719L4.96729 3.38752L5.11104 3.2094L5.25947 3.03752L5.41572 2.87034L5.57666 2.70784L5.74072 2.56409L5.95947 2.40627L6.51729 2.06721L6.65322 1.97815L6.52979 1.96565Z" fill="#ECB1B7"/>
<path d="M4.00762 4.6172L4.07012 4.43907L4.14043 4.26251L4.21699 4.09064L4.30293 3.92032L4.39512 3.75314L4.49512 3.5922L4.60137 3.43595L4.71387 3.28282L4.83418 3.13439L4.96074 2.99376L5.09199 2.85782L5.23105 2.72814L5.3748 2.60626L5.5248 2.49064L5.67949 2.38282L5.84043 2.28282L6.00605 2.19064L6.1748 2.10626L6.3498 2.03126L6.52949 1.96564L6.65293 1.97814L6.51699 2.0672L6.09668 2.31876L5.95918 2.40626L5.82637 2.49845L5.65762 2.63439L5.57637 2.70782L5.41543 2.87032L5.25918 3.03751L5.11074 3.20939L4.96699 3.38751L4.82949 3.57189L4.70137 3.76095L4.57949 3.95314L4.46543 4.15157L4.35918 4.3547L4.2623 4.56095L4.1748 4.77189L4.09512 4.98595L4.07793 5.04532L4.05918 5.16251L4.05449 5.34376L4.06074 5.52501L4.04043 5.79064L4.02637 6.05939L4.02324 6.24064L4.02637 6.42032L4.04824 6.73282L4.06699 6.86564L4.12012 7.12657L4.15605 7.2547L4.1998 7.38126L4.2498 7.50626L4.30918 7.6297L4.27168 7.78126L4.0498 7.72345L3.99043 7.57501L3.93887 7.42345L3.89355 7.27189L3.85605 7.11876L3.82324 6.96408L3.79199 6.76876L3.77012 6.57345L3.75762 6.37501L3.75293 6.17657L3.75762 5.97814L3.77168 5.78126L3.79199 5.58439L3.82012 5.38751L3.85762 5.19064L3.90137 4.99845L3.95137 4.80626L4.00762 4.6172Z" fill="#E5D2CB"/>
<path d="M10.064 2.20001L10.1937 2.27345L10.3187 2.35001L10.439 2.43282L10.5546 2.52189L10.6655 2.61564L10.7983 2.73907L10.9249 2.86876L11.0452 3.00626L11.1593 3.14845L11.2687 3.29689L11.3702 3.44845L11.4671 3.60314L11.5593 3.76407L11.6733 3.98126L11.778 4.20001L11.8749 4.42189L11.9452 4.59376L12.0062 4.7672L12.0577 4.94376L12.1015 5.12345L12.1374 5.30314L12.164 5.48439L12.1858 5.6672L12.1983 5.85157L12.2046 6.03595L12.203 6.22189L12.1968 6.40626L12.1827 6.59064L12.1562 6.83595L12.1202 7.07814L12.0749 7.31876L12.039 7.1172L12.0796 6.77814L12.1015 6.43439L12.103 6.26251L12.0983 6.09064L12.0874 5.91876L12.0671 5.74845L12.0405 5.58126L12.014 5.45626L11.9437 5.21095L11.8999 5.09064L11.8499 4.97345L11.7937 4.85782L11.7312 4.74532L11.5843 4.52501L11.503 4.42032L11.4155 4.32345L11.3218 4.23126L11.2233 4.14532L11.1218 4.06407L11.0155 3.98751L10.9046 3.9172L10.753 3.8297L10.5968 3.75157L10.4343 3.6797L10.2702 3.61564L10.1046 3.55782L9.93896 3.50782H10.1077L10.1452 3.40001L10.1733 3.29064L10.1937 3.18282L10.203 3.07345L10.2077 2.96251L10.203 2.85157L10.1937 2.7422L10.178 2.63126L10.1468 2.48595L10.1093 2.3422L10.064 2.20001Z" fill="#CD869C"/>
<path d="M3.71885 3.4703L3.78291 3.44374L3.84697 3.42655L3.91104 3.41561L4.01104 3.40936L4.11104 3.41249L4.31104 3.4328L3.96729 4.14374L3.90635 4.28905L3.8501 4.43593L3.77041 4.69686L3.74385 4.80936L3.68135 5.14999L3.65322 5.26093L3.6001 5.40311L3.56572 5.47186L3.52197 5.35155L3.49385 5.19843L3.46729 4.72655L3.41416 4.2203L3.38135 3.99374V3.9328L3.38916 3.87343L3.40322 3.81561L3.4251 3.75936L3.45166 3.70468L3.48447 3.65311L3.52354 3.6078L3.56572 3.56405L3.61416 3.52655L3.66416 3.4953L3.71885 3.4703Z" fill="#F8DAD2"/>
<path d="M11.7954 3.65314L11.9735 3.61876L12.0642 3.6047L12.1532 3.59845L12.2126 3.60157L12.2735 3.61095L12.3329 3.62657L12.397 3.64689L12.4579 3.67501L12.5157 3.71095L12.5688 3.7547L12.6126 3.80314L12.6501 3.85782L12.6735 3.90314L12.6892 3.95001L12.6985 4.00001L12.7032 4.05157L12.686 4.38751L12.6392 4.8047L12.5688 5.30314L12.5392 5.55314L12.3938 5.60939L12.2829 5.01876L12.2407 4.82345L12.172 4.5672L12.0813 4.30626L12.0282 4.17345L11.7954 3.65314Z" fill="#C5839A"/>
<path d="M4.8377 4.55001L4.87988 4.48439L4.9752 4.3672L5.02832 4.31407L5.10488 4.25001L5.18613 4.1922L5.27363 4.13907L5.45488 4.05157L5.5502 4.01407L5.69551 3.96564L5.84082 3.92657L5.79551 4.24845L5.74238 4.56876L5.68145 4.88907L5.61113 5.20626L5.53145 5.52189L5.44238 5.83595L5.40488 5.93282L5.35488 6.0297L5.32207 6.07345L5.28457 6.10626L5.25645 6.12345L5.22363 6.13595L5.18613 6.1422L5.12988 6.12501L5.07832 6.10314L5.02988 6.07657L4.98613 6.04532L4.93301 5.99532L4.88613 5.93907L4.84551 5.87657L4.78145 5.74064L4.7377 5.59376L4.7127 5.45001L4.70176 5.21876L4.7002 5.10314L4.70488 4.98751L4.7127 4.90939L4.74395 4.76095L4.76738 4.68907L4.79863 4.61876L4.8377 4.55001Z" fill="#FDFEFC"/>
<path d="M3.28906 5.73595L3.45625 5.70939L3.62344 5.6922L3.63438 5.87657L3.64687 6.61095L3.65625 6.79532L3.68281 7.03751L3.70469 7.15939L3.475 7.13907L3.45469 6.91407L3.42969 6.40001L3.40781 6.17345L3.39062 6.06251L3.36562 5.95314L3.33125 5.84376L3.28906 5.73595Z" fill="#EAB7BB"/>
<path d="M3.28906 5.73596L3.33125 5.84377L3.36562 5.95315L3.39062 6.06252L3.40781 6.17346L3.42969 6.40002L3.45469 6.91409L3.47031 7.08284L3.29688 7.06877L3.26719 6.40159L3.26562 6.17971L3.27656 5.8844L3.28906 5.73596Z" fill="#A0566E"/>
<path d="M6.25605 6.13748L6.3248 6.11091L6.39512 6.09216L6.46855 6.08435H6.54043L6.6123 6.09216L6.68418 6.10779L6.75293 6.13279L6.81855 6.16404L6.87949 6.20154L6.93574 6.24841L6.98418 6.29841L7.02637 6.35779L7.07324 6.45466L7.0998 6.5656L6.97012 6.42966L6.8998 6.36404L6.82637 6.30623L6.7748 6.27185L6.72012 6.24373L6.66387 6.22185L6.60449 6.20779L6.54199 6.20154L6.4748 6.2031L6.40605 6.20779L6.34355 6.22185L6.28574 6.24373L6.17949 6.30935L6.06074 6.41716L5.8623 6.62966L5.91074 6.49216L5.94199 6.42654L5.98105 6.36404L6.0248 6.30779L6.07324 6.25466L6.12793 6.20935L6.18887 6.17029L6.25605 6.13748Z" fill="#E2D7D0"/>
<path d="M4.23145 6.46405L4.29707 6.57811L4.36895 6.68749L4.44551 6.7953L4.52832 6.89686L4.61582 6.99374L4.70957 7.08436L4.80957 7.1703L4.91426 7.24843L5.0252 7.3203L4.95488 7.35155L4.88926 7.38905L4.82676 7.43124L4.76895 7.47968L4.71738 7.5328L4.67363 7.59218L4.64551 7.64061L4.60645 7.74686L4.59395 7.80468L4.54395 7.63905L4.37051 7.1453L4.31738 6.97811L4.27363 6.81093L4.25176 6.69686L4.2377 6.58124L4.23145 6.46405Z" fill="#5E4563"/>
<path d="M7.69043 6.91091L7.7748 6.8781L7.86074 6.8531L7.94668 6.83904L8.03418 6.83435L8.12324 6.83591L8.21074 6.84529L8.29824 6.86248L8.47012 6.91091L8.42949 6.93748L8.34512 6.97185L8.27793 6.98748L8.14043 6.99685L7.88574 6.99216L7.80449 6.97029L7.69043 6.91091Z" fill="#E9C0B3"/>
<path d="M7.06738 7.07186L7.30801 6.99061L7.55332 6.91718L7.60957 7.03905L7.67363 7.15624L7.77363 7.30311L7.82988 7.37186L7.89082 7.43593L7.95645 7.4953L8.02832 7.54999L8.0252 7.7328L8.01113 7.83436L7.98301 7.90468L7.96113 7.93436L7.92988 7.96093L7.89082 7.98436L7.80645 8.00311L7.71582 8.01561L7.65488 8.01717L7.53301 8.00467L7.4752 7.99218L7.41895 7.97186L7.36582 7.9453L7.31738 7.91405L7.27207 7.87499L7.23301 7.82655L7.19082 7.74999L7.15488 7.6703L7.12832 7.58905L7.09082 7.41874L7.07051 7.19999L7.06738 7.07186Z" fill="#F0DFD1"/>
<path d="M8.59512 6.92346L8.73418 6.94534L8.87168 6.97502L9.00762 7.01252L9.14043 7.05784L9.07324 7.48596L9.05605 7.55784L9.01074 7.69221L8.97949 7.75471L8.94043 7.81565L8.89355 7.8719L8.85449 7.9094L8.8123 7.94065L8.76699 7.96721L8.71855 7.98596L8.65137 8.00471L8.58105 8.01565L8.51074 8.01877L8.4373 8.01565L8.2998 7.99221L8.26387 7.96721L8.23418 7.93909L8.21387 7.90784L8.1873 7.83596L8.18105 7.79534L8.1748 7.55159L8.23887 7.49377L8.29668 7.43284L8.3498 7.36721L8.42168 7.26252L8.48418 7.15315L8.59512 6.92346Z" fill="#E6DCD2"/>
<path d="M7.85156 7.12813L8.09375 7.125L8.33594 7.12969L8.275 7.21406L8.20781 7.29063L8.13594 7.3625L8.05625 7.42812L7.85156 7.12813Z" fill="#B0577F"/>
<path d="M9.25781 7.12659L9.58438 7.28596L9.58906 7.41096L9.58281 7.53752L9.56094 7.70471L9.54219 7.78596L9.51562 7.86565L9.48438 7.94065L9.44531 8.01409L9.4 8.08284L9.34531 8.14534L9.28281 8.20471L9.21719 8.25627L9.07812 8.34065L9.00625 8.37502L8.90469 8.41252L8.80156 8.44377L8.69531 8.46721L8.47812 8.4969L8.20469 8.51252L8.04375 8.51409L7.725 8.5094L7.5625 8.50002L7.40312 8.48127L7.29844 8.46252L7.19688 8.43596L7.09688 8.40159L6.95312 8.3344L6.81875 8.24377L6.76094 8.19221L6.71094 8.1344L6.66875 8.07346L6.63281 8.00627L6.60313 7.93752L6.57969 7.86565L6.55156 7.71565L6.54688 7.56252L6.56094 7.41252L6.61875 7.36096L6.67969 7.31721L6.94688 7.1719L6.97031 7.3719L7.00469 7.57659L7.02969 7.67659L7.06406 7.7719L7.09375 7.83284L7.12813 7.88909L7.16719 7.94065L7.2125 7.98752L7.26719 8.03127L7.32969 8.06877L7.39219 8.10002L7.45469 8.12346L7.51875 8.14065L7.58437 8.14846L7.71562 8.14534L7.78125 8.13596L7.84688 8.11877L7.93125 8.08909L8.0125 8.05159L8.09219 8.00627L8.15469 8.05002L8.22031 8.08596L8.29062 8.11409L8.3625 8.1344L8.43437 8.14846L8.50781 8.15315L8.58281 8.15002L8.65469 8.14065L8.72812 8.1219L8.79688 8.09534L8.8625 8.0594L8.92656 8.01565L8.975 7.97346L9.05313 7.88284L9.08594 7.83127L9.12187 7.76096L9.15156 7.68596L9.175 7.60784L9.20312 7.48909L9.25781 7.12659Z" fill="#E1CDBD"/>
<path d="M12.0392 7.11719L12.0751 7.31875L12.0626 7.42656L12.0423 7.53438L12.0157 7.63906L11.9813 7.74219L11.9407 7.84375L11.8454 8.03906L11.7892 8.13437L11.7063 8.25469L11.6157 8.37031L11.5173 8.48125L11.4142 8.58438L11.3048 8.68125L11.1907 8.77031L11.1157 8.62656L11.3235 8.44531L11.422 8.34844L11.5157 8.24687L11.6032 8.14062L11.6845 8.02812L11.7423 7.93594L11.7938 7.83906L11.8407 7.74062L11.9001 7.58906L11.9517 7.43281L12.0392 7.11719Z" fill="#9A9FAE"/>
<path d="M5.025 7.32029L5.13906 7.28435L5.25469 7.25779L5.37031 7.2406L5.4875 7.23279H5.60469L5.72188 7.23904L5.83906 7.2531L5.95469 7.27498L6.07031 7.3031L6.18437 7.33748L6.40312 7.42185L6.42656 7.76716L6.16406 7.92966L6.0125 8.00779L5.88281 8.05154L5.82969 8.05935H5.72656L5.64844 8.04998L5.57188 8.03435L5.17969 7.92498L4.99687 7.89998L4.71875 7.88435L4.59375 7.80466L4.60625 7.74685L4.64531 7.6406L4.67344 7.59216L4.71719 7.53279L4.76875 7.47966L4.82656 7.43123L4.88906 7.38904L4.95469 7.35154L5.025 7.32029Z" fill="#E79FA6"/>
<path d="M9.71699 7.3L10.0686 7.27344L10.2467 7.26562H10.4232L10.542 7.27187L10.6576 7.28594L10.7732 7.30625L10.8576 7.32812L11.0232 7.38594L11.1045 7.425L11.2717 7.52656L11.3498 7.58594L11.4232 7.65L11.5076 7.74844L11.5451 7.80312L11.5232 7.88125L11.4936 7.95469L11.4576 8.02344L11.4154 8.09062L11.3154 8.21406L11.2326 8.3L11.1436 8.37969L10.8998 8.25937L10.6529 8.14688L10.4045 8.04219L10.1514 7.94375L9.89512 7.85313L9.69824 7.75L9.71699 7.3Z" fill="#DC969F"/>
<path d="M4.30918 7.6297L4.37949 7.76407L4.45762 7.89376L4.54355 8.0172L4.63574 8.13595L4.73418 8.24845L4.83887 8.35626L4.9498 8.45782L5.06543 8.55314L5.18574 8.6422L5.31074 8.72657L5.44043 8.8047L5.57324 8.87657L5.70918 8.9422L5.84824 9.00001L5.98887 9.05314L6.34199 9.15939L6.55293 9.21251L6.76387 9.25939L6.97793 9.30001L7.19355 9.33282L7.41074 9.35783L7.62793 9.37814L7.84512 9.39064L8.0623 9.39689L8.28105 9.39532L8.49824 9.38908L8.71699 9.37501L8.93262 9.3547L9.14824 9.32814L9.36387 9.29376L9.82324 9.19064L9.97637 9.15001L10.2779 9.05626L10.4264 9.00157L10.5717 8.94064L10.7123 8.87345L10.8514 8.80001L10.9857 8.7172L11.1154 8.62657L11.1904 8.77032L11.0248 8.87501L10.8545 8.97032L10.6811 9.05939L10.5029 9.13908L10.3201 9.21095L10.1373 9.27658L9.9498 9.33595L9.76074 9.38751L9.50762 9.44845L9.25137 9.50001L8.99512 9.54376L8.74512 9.56564L8.49512 9.58126L8.24512 9.59064L7.99355 9.5922L7.74199 9.58908L7.49199 9.57658L7.24199 9.55626L6.99199 9.52814L6.74355 9.4922L6.49668 9.44689L6.25293 9.3922L6.00918 9.3297L5.70605 9.22501L5.40605 9.10001L5.26074 9.02814L5.12012 8.95001L4.98262 8.86407L4.85137 8.77189L4.72637 8.67033L4.63574 8.59064L4.55137 8.5047L4.47168 8.41407L4.32793 8.22501L4.26387 8.1297L4.20449 8.03126L4.12324 7.8797L4.0498 7.72345L4.27168 7.78126L4.30918 7.6297Z" fill="#A3B6BC"/>
<path d="M5.88281 8.05156L5.94844 8.03125L6.07344 7.97969L6.16406 7.92969L6.42656 7.76719L6.47344 7.93125L6.50625 8.01094L6.54219 8.08906L6.58594 8.1625L6.63438 8.23281L6.69063 8.29688L6.75313 8.35469L6.82344 8.40625L6.92344 8.46562L7.02656 8.51562L7.13281 8.55625L7.24062 8.58906L7.35156 8.61406L7.46562 8.63437L7.6375 8.65156L7.81094 8.66094L7.98438 8.66406L8.15469 8.6625L8.30469 8.65156L8.61094 8.61875L8.7625 8.59219L8.86094 8.56875L9.05313 8.50313L9.14375 8.46094L9.23281 8.40938L9.31719 8.35156L9.38125 8.3L9.4375 8.24375L9.4875 8.18125L9.575 8.04688L9.61094 7.975L9.65781 7.86406L9.69844 7.75L9.89531 7.85313L10.0531 8.08281L10.0078 8.16875L9.95781 8.25156L9.90312 8.32812L9.84375 8.40156L9.75937 8.49375L9.66875 8.57969L9.57187 8.66094L9.36719 8.80937L8.93594 9.07656L9.11875 9.15625L8.90312 9.18906L8.68594 9.21406L8.46719 9.22812L8.25 9.23594L8.03125 9.23438L7.8125 9.22656L7.37656 9.19063L6.98594 9.13906L6.63594 9.07187L6.4625 9.02812L6.29219 8.97969L6.12344 8.92344L5.95781 8.85938L5.79531 8.7875L5.63594 8.70938L5.40781 8.575L5.29688 8.5L5.18906 8.42031L5.09844 8.34219L4.92344 8.17656L4.84531 8.08594L4.79844 8.02188L4.71875 7.88438L4.99687 7.9L5.17969 7.925L5.57188 8.03438L5.64844 8.05L5.77812 8.06094L5.88281 8.05156Z" fill="#F1DBC4"/>
<path d="M9.89541 7.85315L10.1517 7.94377L10.4048 8.04221L10.6532 8.1469L10.9001 8.2594L11.1438 8.37971L11.0267 8.46877L10.9048 8.55002L10.7813 8.62815L10.6532 8.69846L10.5235 8.76565L10.3563 8.84065L10.186 8.90784L10.0126 8.96721L9.83603 9.01877L9.65791 9.06409L9.47822 9.10159L9.29853 9.13284L9.11885 9.15627L8.93604 9.07659L9.36728 8.8094L9.57197 8.66096L9.66885 8.57971L9.75947 8.49377L9.84385 8.40159L9.90322 8.32815L9.95791 8.25159L10.0079 8.16877L10.0532 8.08284L9.89541 7.85315Z" fill="#DEB6AB"/>
<path d="M3.54541 9.13904L3.69541 9.27966L3.84229 9.42654L4.27354 9.87498L4.52041 10.1125L4.73135 10.2875L4.84229 10.3703L4.95635 10.4453L5.07666 10.5172L5.03447 10.9515L4.9251 10.8875L4.82041 10.8172L4.72041 10.7406L4.6251 10.6594L4.44072 10.4859L4.17979 10.2125L3.97979 9.97029L3.88447 9.84373L3.74072 9.62341L3.64541 9.43748L3.60635 9.3406L3.57354 9.2406L3.54541 9.13904Z" fill="#DFB8B1"/>
<path d="M6.18437 9.55625L6.41875 9.60938L6.65469 9.65469L6.89219 9.69375L7.13281 9.725L7.37344 9.75L7.61406 9.76719L7.85469 9.77656L8.09688 9.77812L8.3375 9.77188L8.57812 9.75781L8.81875 9.73594L9.05781 9.70625L9.29531 9.66875L9.53125 9.62187L9.76562 9.56719L9.99844 9.50313L10.2266 9.42969L10.4531 9.34844L10.6781 9.25781L10.8984 9.15625L10.7984 9.23125L10.6953 9.3L10.5891 9.36406L10.4797 9.42188L10.3297 9.49219L10.1766 9.55469L10.0188 9.61094L9.66406 9.72031L9.30313 9.80781L9.12031 9.84219L8.93594 9.87031L8.75156 9.89062L8.56563 9.90469L8.37969 9.90938H7.67812L7.44531 9.9L7.21094 9.88437L6.97969 9.85781L6.825 9.83438L6.67344 9.80313L6.52031 9.76719L6.32656 9.71406L6.00469 9.6125L5.75625 9.5125L5.63594 9.45312L5.51875 9.38594L5.40625 9.31094L5.5375 9.34688L6.05312 9.52031L6.18437 9.55625Z" fill="#A98F8E"/>
<path d="M8.76426 10.0687L8.98457 10.0406L9.20332 10.0047L9.42051 9.95936L9.63613 9.90624L9.84863 9.84686L10.0611 9.77968L10.2705 9.70624L10.6814 9.54218L10.5564 9.64999L10.4283 9.75155L10.2955 9.84686L10.158 9.93593L10.0158 10.0172L9.87051 10.0922L9.72207 10.1609L9.57051 10.2234L9.41582 10.2797L9.25957 10.3281L9.10176 10.3719L8.94082 10.4078L8.94238 10.5515L8.86582 10.3781L8.84082 10.3359L8.79082 10.2812L8.73457 10.25L8.64707 10.2297L8.46895 10.2031L8.2002 10.1906L7.83301 10.189L7.63457 10.2016L7.53926 10.2203L7.47676 10.2375L7.35801 10.2891L7.30488 10.3234L7.25488 10.3656L7.20801 10.4172L6.48145 10.1812L6.30176 10.114L6.12676 10.0391L6.01426 9.9828L5.90488 9.9203L5.8002 9.85155L5.69863 9.77655L5.60332 9.69217L5.5127 9.59842L5.98926 9.77655L6.23145 9.8578L6.4752 9.92811L6.64082 9.9703L6.97207 10.0344L7.14082 10.0578L7.30957 10.0719L7.47988 10.0797L8.33613 10.0844L8.76426 10.0687Z" fill="#C9A39F"/>
<path d="M11.5467 10.525L11.6186 10.4969L11.6857 10.4641L11.7467 10.4234L11.8029 10.3781L11.9045 10.2734L12.1857 9.92342L12.2373 9.8703L12.3514 9.77655L12.4779 9.84218L12.5982 9.91874L12.6701 9.75311L12.6998 9.87655L12.6951 10.1469L12.6201 10.1578L12.5514 10.175L12.4857 10.2016L12.4264 10.2359L12.3701 10.2781L12.3186 10.3266L12.2732 10.3812L12.2326 10.4437L12.1701 10.5109L12.1029 10.5703L12.0311 10.6219L11.9545 10.6656L11.8748 10.7047L11.7061 10.7625L11.5279 10.8031L11.2576 10.8391L10.992 10.8578L10.8779 10.3922L11.0357 10.4687L11.117 10.5031L11.2576 10.5422L11.3717 10.5547L11.4295 10.5515L11.4873 10.5422L11.5467 10.525Z" fill="#CFA7A5"/>
<path d="M12.7001 9.87659L12.7532 10.0969L12.7642 10.1719L12.7688 10.2469L12.7642 10.3203L12.7532 10.3688L12.7376 10.4141L12.7142 10.4594L12.6626 10.4891L12.6095 10.5063L12.5563 10.5156H12.5017L12.3907 10.4985L12.2329 10.4438L12.2735 10.3813L12.3188 10.3266L12.3704 10.2781L12.4267 10.236L12.486 10.2016L12.5517 10.175L12.6204 10.1578L12.6954 10.1469L12.7001 9.87659Z" fill="#C19396"/>
<path d="M5.42822 9.99377L5.55947 10.0156L5.5751 10.2313L5.58291 10.4469L5.57354 11.0703L5.58135 11.45L5.57979 11.7656L5.55791 12.0188L5.52666 11.9438L5.50322 11.8688L5.48447 11.7906L5.46572 11.6719L5.45479 11.5532L5.42666 10.9828L5.42041 10.6531V10.3235L5.42822 9.99377Z" fill="#FBF7F0"/>
<path d="M5.1377 10.2797L5.19238 10.1469L5.25645 10.0187L5.26582 10.2766L5.26113 10.4062L5.22676 10.8422L5.19395 10.5594L5.16895 10.4187L5.1377 10.2797Z" fill="#71637B"/>
<path d="M7.20762 10.4172L7.25449 10.3657L7.30449 10.3235L7.35762 10.2891L7.41543 10.261L7.53887 10.2203L7.63418 10.2016L7.73418 10.1922L7.83262 10.1891L8.1998 10.1906L8.46855 10.2031L8.64668 10.2297L8.73418 10.25L8.79043 10.2813L8.84043 10.336L8.86543 10.3781L8.94199 10.5516L8.97324 11.1531L8.97637 11.3531L8.97168 11.5532L8.95762 11.7531L8.94668 11.7969L8.92949 11.8344L8.90605 11.8657L8.87793 11.8938L8.80918 11.9375L8.7498 11.9625L8.68887 11.9828L8.56855 12.011L8.39199 12.0297L8.21543 12.0391L8.03887 12.0422L7.86074 12.036L7.68418 12.0219L7.50918 11.9969L7.2498 11.9422L6.99668 11.8641L6.99512 11.5375L7.00293 11.3719L7.01543 11.2094L7.03574 11.0469L7.06387 10.886L7.09199 10.7656L7.16387 10.5313L7.20762 10.4172ZM7.28574 10.5656L7.24355 10.6891L7.20762 10.8141L7.15605 11.0672L7.1248 11.3266L7.11074 11.5219L7.10605 11.7156L7.21387 11.7563L7.3248 11.7906L7.43574 11.8203L7.5498 11.8422L7.70137 11.8641L7.85449 11.8766L8.00918 11.8813L8.31855 11.875L8.47168 11.8625L8.57637 11.8453L8.63105 11.8313L8.71387 11.7953L8.76699 11.7516L8.78574 11.725L8.7998 11.6922L8.80762 11.6531L8.81699 11.4938L8.82012 11.3344L8.8123 11.0156L8.79512 10.6422L8.7748 10.5281L8.75605 10.4735L8.74043 10.4406L8.69512 10.386L8.66543 10.3657L8.63262 10.35L8.59043 10.3391L8.43574 10.3172L8.27793 10.3032L8.12168 10.2985H7.96387L7.59668 10.3203L7.49668 10.3485L7.4498 10.3719L7.40762 10.4L7.36855 10.4344L7.33418 10.4735L7.30762 10.5172L7.28574 10.5656Z" fill="#251930"/>
<path d="M7.28613 10.5656L7.30801 10.5172L7.33457 10.4735L7.36895 10.4344L7.40801 10.4L7.4502 10.3719L7.49707 10.3485L7.59707 10.3203L7.96426 10.2985H8.12207L8.27832 10.3032L8.43613 10.3172L8.59082 10.3391L8.63301 10.35L8.66738 10.3657L8.69551 10.386L8.74082 10.4406L8.75645 10.4735L8.7752 10.5281L8.79551 10.6422L8.8127 11.0156L8.82051 11.3344L8.81738 11.4938L8.80801 11.6531L8.8002 11.6922L8.78613 11.7235L8.74238 11.775L8.68301 11.8125L8.63145 11.8313L8.57676 11.8453L8.47207 11.8625L8.16426 11.8813H8.00957L7.85488 11.8766L7.70176 11.8641L7.5502 11.8422L7.43613 11.8203L7.3252 11.7906L7.21426 11.7563L7.10645 11.7156L7.11113 11.5219L7.1252 11.3266L7.15645 11.0672L7.20801 10.8141L7.24395 10.6891L7.28613 10.5656ZM7.34082 10.6875L7.30645 10.8469L7.27676 11.0063L7.25488 11.1672L7.22988 11.411L7.2127 11.6547L7.36113 11.6938L7.51113 11.725L7.6627 11.75L7.81582 11.7672L7.96895 11.7766L8.12207 11.7797L8.2752 11.775L8.42832 11.7625L8.5252 11.7438L8.57363 11.7281L8.64707 11.6906L8.68926 11.6469L8.70332 11.6188L8.7127 11.5875L8.71582 11.55L8.71738 11.3625L8.71113 11.1735L8.67676 10.611L8.66895 10.4235L8.29551 10.4031L7.92051 10.3953L7.79551 10.4L7.54707 10.4219L7.50488 10.4328L7.47051 10.45L7.44238 10.4735L7.41738 10.5031L7.37832 10.5735L7.34082 10.6875Z" fill="#938491"/>
<path d="M10.4641 11.5641L10.4953 11.4375L10.5219 11.3094L10.5844 10.9188L10.6094 10.7891L10.6391 10.6625L10.6797 10.5375L10.7109 10.4578L10.75 10.3781L10.7937 10.3016L10.8078 11.375L10.8031 11.9125L10.7891 12.4485L10.7734 12.8063L10.725 13.5203L10.4797 13.5234L10.2328 13.5203L9.98594 13.5094L9.61875 13.4781L9.25313 13.4219L9.49531 13.0859L9.62969 13.0625L9.7625 13.0313L9.58125 13.0531L8.85625 13.1766L8.37187 13.2453L7.99219 13.2719L7.76406 13.2766L7.30781 13.2703L7.24687 13.3609L7.0375 13.2813L6.71406 13.1766L6.60469 13.1344L6.49844 13.0859L6.39375 13.0313L6.19531 12.9094L6.47031 12.9344L6.74531 12.9531L7.02031 12.9641L7.29688 12.9688L7.57344 12.9656L7.84844 12.9563L8.125 12.9406L8.4 12.9172L8.67344 12.8875L8.94687 12.85L9.32344 12.7703L9.57187 12.6985L9.69219 12.6547L9.80937 12.6047L9.92188 12.5438L10.0312 12.475L10.0938 12.4141L10.1484 12.35L10.1953 12.2813L10.2391 12.2078L10.3109 12.0547L10.3938 11.8094L10.4641 11.5641Z" fill="#D2A9A6"/>
<path d="M7.34053 10.6875L7.37803 10.5735L7.41709 10.5031L7.44209 10.4734L7.47021 10.45L7.50459 10.4328L7.54678 10.4219L7.79521 10.4L7.92021 10.3953L8.29522 10.4031L8.66865 10.4234L8.67646 10.6109L8.71084 11.1734L8.71709 11.3625L8.7124 11.5875L8.70303 11.6188L8.66865 11.6703L8.61865 11.7078L8.57334 11.7281L8.5249 11.7438L8.42803 11.7625L8.2749 11.775L8.12178 11.7797L7.96865 11.7766L7.81553 11.7672L7.6624 11.75L7.51084 11.725L7.36084 11.6938L7.2124 11.6547L7.22959 11.4109L7.25459 11.1672L7.27646 11.0063L7.30615 10.8469L7.34053 10.6875ZM7.41709 10.8156L7.36084 10.875L7.4999 10.8422L7.55928 10.9016L7.68896 11.011L7.83115 11.1047L7.90459 11.1453L7.92021 11.6563L8.23896 11.636L8.55459 11.6L8.59365 11.6031L8.57178 11.1406L8.13897 11.0281L8.4499 10.975L8.59365 10.9828L8.5624 10.8797L8.49521 10.7391L8.44365 10.6734L8.38584 10.6344L8.55928 10.6406L8.48896 10.6063L8.41709 10.5781L8.34365 10.5594L8.19209 10.5391L7.99834 10.5359L7.76396 10.5453L7.60928 10.5438L7.57646 10.5484L7.5499 10.561L7.50615 10.6016L7.46709 10.6719L7.41709 10.8156ZM7.37334 10.9891L7.34834 11.1391L7.33271 11.2891L7.3249 11.4391L7.32334 11.5906L7.78584 11.6672L7.7999 11.2016L7.66084 11.1235L7.51865 11.0531L7.37334 10.9891Z" fill="#5B344F"/>
<path d="M7.41699 10.8156L7.46699 10.6719L7.50605 10.6016L7.5498 10.561L7.57637 10.5484L7.60918 10.5438L7.76387 10.5453L7.99824 10.5359L8.19199 10.5391L8.34355 10.5594L8.41699 10.5781L8.48887 10.6063L8.55918 10.6406L8.38574 10.6344L8.16074 10.6156L7.93574 10.6047L7.82324 10.6063L7.71074 10.6156L7.67012 10.6219L7.59668 10.6531L7.54824 10.6891L7.41699 10.8156Z" fill="#8C5D72"/>
<path d="M7.41709 10.8156L7.54834 10.6891L7.59678 10.6531L7.63271 10.6344L7.67021 10.6219L7.82334 10.6063L8.04834 10.6078L8.38584 10.6344L8.41709 10.6516L8.46553 10.6969L8.49521 10.7391L8.5624 10.8797L8.16396 10.8156L8.02959 10.7984L7.85303 10.7875L7.76396 10.7906L7.6749 10.8L7.5874 10.8172L7.36084 10.875L7.41709 10.8156Z" fill="#8A3A53"/>
<path d="M7.5 10.8422L7.5875 10.8172L7.675 10.8L7.76406 10.7906H7.94063L8.16406 10.8156L8.5625 10.8797L8.59375 10.9828L8.07969 10.9594L8.00937 11.1141L8.29688 11.1531L8.2375 11.2078L8.1875 11.2672L8.14531 11.3313L8.10938 11.4016L8.08281 11.475L8.0625 11.5532L8.55469 11.6L8.23906 11.636L7.92031 11.6563L7.90469 11.1453L7.83125 11.1047L7.68906 11.011L7.55937 10.9016L7.5 10.8422Z" fill="#E4ABAB"/>
<path d="M5.22656 10.8422L5.22969 10.7938L5.25 10.936L5.275 11.2203L5.30312 12.0766L5.31563 12.2906L5.34219 12.6125L5.36719 12.825L5.44688 13.3016L5.4625 13.4609L5.46719 13.5672L5.46562 13.675L5.45469 13.7828L5.28906 13.8281L5.27969 13.6719L5.2125 13.0516L5.20625 12.8953L5.18437 12.6672L5.17188 12.4391L5.16406 11.9828L5.17969 11.5266L5.22656 10.8422Z" fill="#FBF3E8"/>
<path d="M8.07959 10.9594L8.4499 10.975L8.13897 11.0281L8.57178 11.1406L8.59365 11.6031L8.0624 11.5531L8.08272 11.475L8.10928 11.4015L8.14522 11.3312L8.1874 11.2672L8.2374 11.2078L8.29678 11.1531L8.00928 11.114L8.07959 10.9594Z" fill="#8A3254"/>
<path d="M7.37324 10.9891L7.51855 11.0531L7.66074 11.1235L7.7998 11.2016L7.78574 11.6672L7.32324 11.5906L7.3248 11.4391L7.33262 11.2891L7.34824 11.1391L7.37324 10.9891Z" fill="#B0CCCC"/>
<path d="M8.6875 13.3297L9.08438 13.1859L9.22031 13.1453L9.35625 13.1125L9.49531 13.0859L9.25313 13.4219L9.61875 13.4781L9.98594 13.5094L10.2328 13.5203L10.4797 13.5234L10.725 13.5203L10.6906 13.8297L10.6766 13.9094L10.6547 13.9812L10.6359 14.0266L10.6094 14.0672L10.5797 14.1031L10.5422 14.1328L10.4969 14.1578L10.3297 14.2063L10.1031 14.25L9.87031 14.2734L9.75469 14.275L9.52344 14.2609L9.40938 14.2453L9.29531 14.2219L9.18437 14.1922L9.075 14.1562L8.98594 14.1094L8.91719 14.0484L8.87969 14.0016L8.84688 13.9484L8.82031 13.8922L8.78906 13.8016L8.76562 13.7063L8.70938 13.4172L8.6875 13.3297Z" fill="#C48A96"/>
<path d="M6.825 13.2109L7.0375 13.2812L7.24687 13.3609L7.19063 13.7437L7.16875 13.8422L7.13906 13.9328L7.11406 13.9906L7.08125 14.0422L7.04375 14.0891L6.97188 14.1469L6.92812 14.1703L6.87813 14.1891L6.66094 14.2359L6.43906 14.2625L6.29063 14.2672L6.14219 14.2625L5.99219 14.2484L5.84531 14.225L5.7 14.1938L5.55781 14.1531L5.50781 14.1359L5.46562 14.1125L5.43125 14.0828L5.37187 14.0063L5.34844 13.9625L5.28906 13.8281L5.69531 13.7141L6.00313 13.6562L6.37344 13.6031L6.55781 13.5703L6.67969 13.5437L6.8 13.5125L6.92031 13.4734L6.825 13.2109Z" fill="#C79698"/>
</g>
<defs>
<clipPath id="clip0_732_12945">
<rect width="24" height="24" fill="white"/>
</clipPath>
</defs>
</svg>
