<svg width="30" height="30" viewBox="0 0 30 30" fill="none" xmlns="http://www.w3.org/2000/svg">
<g clip-path="url(#clip0_732_12945)">
<path d="M11.8125 6.45996L12.5156 6.32227L13.2246 6.22852L13.6992 6.19043L14.1768 6.16406L14.6543 6.15234L15.3721 6.15527L16.0869 6.17578L16.374 6.19336L16.9453 6.25195L17.3701 6.31641L17.792 6.39551L18.6357 6.57715L18.9463 6.6709L19.2568 6.7793L19.5645 6.89941L19.8691 7.03418L20.1621 7.18066L20.4463 7.34473L20.6543 7.47656L20.8535 7.62012L21.0439 7.77246L21.2285 7.93359L21.4043 8.10645L21.5684 8.29102L21.7207 8.48438L21.9961 8.89746L22.1133 9.1084L22.2188 9.32519L22.3125 9.54492L22.4648 9.99902L22.5762 10.4648L22.626 10.7783L22.6641 11.0977L22.6846 11.4199L22.6904 12.0645L22.6758 12.3896L22.6494 12.709L22.5732 13.3447L22.4092 13.9365L22.3125 14.2295L22.2012 14.5137L22.1133 14.6982L22.0166 14.8799L21.9082 15.0527L21.7559 15.2637L21.5918 15.4629L21.416 15.6533L21.2314 15.835L20.8418 16.1748L20.5986 16.3447L20.3467 16.5L20.0859 16.6377L19.8223 16.7637L19.5498 16.8779L19.2715 16.9805L18.7061 17.1562L18.4189 17.2324L17.5576 17.4258L17.1533 17.4902L16.749 17.54L16.3447 17.5781L15.9346 17.6045L15.5273 17.6162L15.1172 17.6191L14.71 17.6074L14.3027 17.584L13.8955 17.5459L13.4883 17.499L13.084 17.4375L12.6826 17.3613L12.2871 17.2734L11.8916 17.1738L11.499 17.0625L11.2295 16.9746L10.9658 16.875L10.7051 16.7666L10.4502 16.6436L10.2012 16.5088L9.95801 16.3623L9.72656 16.2041L9.49805 16.0371L9.28125 15.8584L9.07324 15.668L8.87695 15.4658L8.69238 15.2549L8.51953 15.0322L8.3584 14.8008L8.21191 14.5576L7.96875 14.0742L7.875 13.8398L7.79297 13.6025L7.72559 13.3623L7.66992 13.1191L7.59082 12.624L7.56738 12.3721L7.54981 12.0381L7.54395 11.7012L7.54981 11.3613L7.57617 10.8574L7.61426 10.3594L7.76074 9.93164L7.92187 9.50977L8.04199 9.23438L8.1709 8.96191L8.31445 8.69824L8.55469 8.32031L8.68945 8.1416L8.98242 7.81055L9.13477 7.66113L9.2959 7.52637L9.46582 7.40039L9.7002 7.24512L9.94336 7.10449L10.1982 6.98145L10.459 6.86719L10.7227 6.76758L10.9922 6.67676L11.4023 6.55957L11.8125 6.45996ZM9.07031 8.53125L8.99707 8.66016L8.93848 8.79199L8.89453 8.92676L8.83594 9.20508L8.82129 9.35156L8.8125 9.56836L8.81543 9.78516L8.83594 10.2187L8.88281 10.4883L8.96484 10.7637L9.08496 11.0186L9.16113 11.1357L9.24902 11.2412L9.34863 11.335L9.43066 11.3936L9.52148 11.4434L9.61816 11.4844L9.72363 11.5166L9.79394 11.5049L9.85547 11.4814L9.9082 11.4492L9.97852 11.3877L10.04 11.3057L10.1338 11.124L10.2041 10.9424L10.3711 10.3535L10.5205 9.76172L10.6523 9.16699L10.7666 8.56641L10.8662 7.96582L10.9512 7.3623L10.6787 7.43555L10.4063 7.52637L10.2275 7.59668L9.8877 7.76074L9.72363 7.86035L9.57129 7.96875L9.42773 8.08887L9.32812 8.18848L9.14941 8.4082L9.07031 8.53125ZM11.7305 11.5078L11.6045 11.5693L11.4902 11.6426L11.3877 11.7275L11.2969 11.8271L11.2148 11.9326L11.1416 12.0498L11.083 12.1729L10.9922 12.4307L11.3643 12.0322L11.5869 11.8301L11.7861 11.707L11.8945 11.666L12.0117 11.6396L12.1406 11.6309L12.2666 11.6279L12.3838 11.6396L12.4951 11.666L12.6006 11.707L12.7031 11.7598L12.7998 11.8242L12.9375 11.9326L13.0693 12.0557L13.3125 12.3105L13.2627 12.1025L13.1748 11.9209L13.0957 11.8096L13.0049 11.7158L12.8994 11.6279L12.7852 11.5576L12.6621 11.499L12.5332 11.4521L12.3984 11.4229L12.2637 11.4082H12.1289L11.9912 11.4229L11.8594 11.458L11.7305 11.5078ZM17.0596 12.3018L17.4609 11.918L17.6016 11.7949L17.6865 11.7334L17.7744 11.6865L17.8711 11.6514L18.0703 11.6191L18.1758 11.6162L18.3311 11.625L18.4805 11.6455L18.5713 11.6719L18.7324 11.748L18.8408 11.8242L18.9434 11.9121L19.3125 12.3135L19.2803 12.1787L19.2305 12.0527L19.166 11.9326L19.0898 11.8213L18.999 11.7217L18.8965 11.6338L18.7852 11.5576L18.668 11.4961L18.5391 11.4492L18.4102 11.417L18.2725 11.4053L18.0059 11.4199L17.8828 11.4434L17.7656 11.4814L17.6543 11.5342L17.5518 11.5986L17.4521 11.6777L17.3643 11.7627L17.2822 11.8564L17.2119 11.959L17.1504 12.0703L17.1006 12.1846L17.0596 12.3018ZM7.93359 12.1201L7.94531 12.3398L7.97168 12.5566L8.0127 12.7705L8.09473 13.084L8.19434 13.3975L8.51953 14.3232L8.61328 14.6338L8.84766 14.7832L8.99707 15.041L9.08496 15.1611L9.23145 15.3311L9.55957 15.6416L9.72949 15.7881L9.93164 15.9375L10.3506 16.207L10.5674 16.3301L10.8662 16.4766L11.1709 16.6113L11.4814 16.7314L11.7979 16.8369L12.1172 16.9277L12.7705 17.0771L13.4268 17.1826L14.2412 17.2705L14.6484 17.2998L15.0586 17.3145L15.4688 17.3174L15.876 17.3027L16.2861 17.2764L16.6934 17.2295L17.4346 17.124L17.7715 17.0654L18.1084 16.9951L18.4424 16.9102L18.7734 16.8135L19.0986 16.7021L19.418 16.5762L19.7314 16.4355L19.9746 16.3096L20.2148 16.1777L20.4463 16.0313L20.6748 15.8789L20.8945 15.7119L21.0615 15.5625L21.2168 15.4014L21.3135 15.29L21.4834 15.0439L21.5508 14.915L21.6064 14.7773L21.6475 14.6309L21.5771 14.5283L21.4189 14.3438L21.2813 14.2236L21.1348 14.1123L20.8213 13.9219L20.6689 13.8486L20.3584 13.7402L20.2002 13.6992L19.9834 13.6611L19.7666 13.6348L19.5439 13.623H19.2129L18.8789 13.6377L18.2197 13.6875L18.1846 14.5312L18.1084 14.7451L18.0205 14.9531L17.877 15.2168L17.7891 15.3398L17.6953 15.457L17.5898 15.5625L17.4697 15.6592L17.3115 15.7676L17.1445 15.8643L16.9746 15.9434L16.7959 16.0078L16.4297 16.1104L16.1455 16.1602L15.5713 16.2217L15.29 16.2422L14.6455 16.2393L14.3203 16.2217L13.998 16.1895L13.7842 16.1514L13.5762 16.1045L13.374 16.043L13.1748 15.9668L12.9814 15.873L12.7939 15.7617L12.6621 15.665L12.5449 15.5566L12.4395 15.4365L12.3486 15.3047L12.2666 15.167L12.1992 15.0205L12.0908 14.7187L12.0498 14.5635L12.0059 13.916L11.5957 13.7578L11.3818 13.6934L11.165 13.6406L10.9482 13.5996L10.7285 13.5732L10.5088 13.5615H10.2891L10.0693 13.5762L9.85254 13.6084L9.63574 13.6582L9.42188 13.7256L9.21387 13.5908L9.01758 13.4443L8.83008 13.2832L8.6543 13.1133L8.49023 12.9316L8.33496 12.7412L8.19141 12.5391L8.05664 12.334L7.93359 12.1201ZM14.4199 12.958L14.6338 13.0693L14.7861 13.1104L15.3926 13.1133L15.5215 13.1016L15.7266 13.0459L15.8818 12.958L15.5596 12.8672L15.3955 12.835L15.2314 12.8174L15.0645 12.8145L14.9004 12.8232L14.7393 12.8496L14.5781 12.8965L14.4199 12.958ZM13.251 13.2598L13.2744 13.7461L13.2949 13.9102L13.3652 14.2295L13.415 14.3818L13.4824 14.5312L13.5615 14.6748L13.6348 14.7656L13.7197 14.8389L13.8105 14.8975L13.9102 14.9473L14.0156 14.9854L14.124 15.0088L14.3525 15.0322L14.4668 15.0293L14.6367 15.0059L14.7949 14.9707L14.8682 14.9268L14.9268 14.877L14.9678 14.8213L15.0205 14.6895L15.0469 14.499L15.0527 14.1563L14.918 14.0537L14.7949 13.9424L14.5752 13.6934L14.3877 13.418L14.2676 13.1982L14.1621 12.9697L13.7021 13.1074L13.251 13.2598ZM16.1162 12.9814L15.9082 13.4121L15.791 13.6172L15.6563 13.8135L15.5566 13.9365L15.4482 14.0508L15.3281 14.1592L15.3398 14.6162L15.3721 14.7627L15.4014 14.8271L15.4395 14.8857L15.4951 14.9385L15.5625 14.9854L15.6914 15.0117L15.958 15.0352L16.0898 15.0293L16.2217 15.0088L16.3477 14.9736L16.4385 14.9385L16.5234 14.8887L16.6025 14.8301L16.6758 14.7598L16.7637 14.6543L16.8369 14.54L16.8955 14.4229L16.9424 14.2969L17.0127 14.0361L17.1387 13.2334L16.8896 13.1484L16.6348 13.0781L16.377 13.0225L16.1162 12.9814ZM14.7217 13.3652L15.1055 13.9277L15.2549 13.8047L15.3896 13.6699L15.5156 13.5264L15.6299 13.3682L15.1758 13.3594L14.7217 13.3652ZM17.3584 13.3623L17.2559 14.042L17.2031 14.2646L17.1592 14.4111L17.1035 14.5518L17.0361 14.6836L16.9746 14.7803L16.8281 14.9502L16.7373 15.0293L16.6172 15.1113L16.4941 15.1787L16.3652 15.2285L16.2275 15.2637L16.0928 15.2812L15.9521 15.2871L15.8145 15.2783L15.6797 15.252L15.5449 15.2139L15.4131 15.1611L15.29 15.0938L15.1729 15.0117L15.0234 15.0967L14.8711 15.167L14.7129 15.2227L14.4668 15.2725L14.2207 15.2783L14.0977 15.2637L13.9775 15.2314L13.8604 15.1875L13.626 15.0586L13.5234 14.9766L13.4385 14.8887L13.3652 14.792L13.3008 14.6865L13.2451 14.5723L13.1807 14.3936L13.1338 14.2061L13.0693 13.8223L13.0254 13.4473L12.6475 13.6465L12.4102 13.8018L12.3018 13.8984L12.2754 14.1797V14.3232L12.2842 14.4668L12.3369 14.748L12.3809 14.8828L12.4365 15.0117L12.5039 15.1377L12.583 15.252L12.6768 15.3604L12.7852 15.457L12.9111 15.5479L13.1689 15.6973L13.3066 15.7529L13.4941 15.8174L13.6846 15.8672L13.8809 15.9023L14.1797 15.9375L14.4844 15.9551L15.082 15.9639L15.6914 15.9463L15.8965 15.9316L16.3037 15.876L16.5029 15.832L16.6963 15.7734L16.8867 15.7031L17.0215 15.6387L17.2822 15.4805L17.4053 15.3838L17.5225 15.2725L17.625 15.1553L17.71 15.0264L17.7832 14.8887L17.8418 14.748L17.8916 14.5986L17.9531 14.291L17.9678 14.1328L17.9795 13.8955L17.9707 13.6611L17.3584 13.3623Z" fill="#311B30"/>
<path d="M17.0596 12.3018L17.1006 12.1846L17.1504 12.0703L17.2119 11.959L17.2822 11.8564L17.3643 11.7627L17.4521 11.6777L17.5518 11.5986L17.6543 11.5342L17.7656 11.4814L17.8828 11.4434L18.0059 11.4199L18.2725 11.4053L18.4102 11.417L18.5391 11.4492L18.668 11.4961L18.7852 11.5576L18.8965 11.6338L18.999 11.7217L19.0898 11.8213L19.166 11.9326L19.2305 12.0527L19.2803 12.1787L19.3125 12.3135L18.9434 11.9121L18.8408 11.8242L18.7324 11.748L18.5713 11.6719L18.4805 11.6455L18.3311 11.625L18.1758 11.6162L18.0703 11.6191L17.8711 11.6514L17.7744 11.6865L17.6865 11.7334L17.6016 11.7949L17.4609 11.918L17.0596 12.3018Z" fill="#F2DDC9"/>
<path d="M6.44238 16.415L6.43652 16.2979L6.44531 16.1836L6.47168 16.0635L6.50977 15.9492L6.55957 15.8408L6.62402 15.7383L6.7002 15.6475L6.78516 15.5684L6.88184 15.501L6.95801 15.4629L7.04004 15.4336L7.12793 15.416L7.60254 15.3926L7.79004 15.6504L7.98633 15.8965L8.19434 16.1338L8.63379 16.585L8.86523 16.7988L9.22266 17.1123L9.58887 17.4141L10.3359 17.9971L10.5059 18.1729L10.6846 18.3311L10.875 18.4717L11.0713 18.6006L11.2764 18.7178L11.4873 18.8232L11.8154 18.9639L12.1523 19.0898L12.4951 19.2041L13.5146 19.5322L13.4326 19.7461L13.2979 20.1855L13.2451 20.4111L13.1924 20.7129L13.1543 21.0176L13.1309 21.3223L13.1162 21.6328L13.1191 22.2451L13.3564 22.3242L13.8369 22.4502L14.0801 22.4941L14.4082 22.541L14.7393 22.5674L15.0732 22.5791L15.4043 22.5732L15.7354 22.5557L16.0664 22.5205L16.292 22.4678L16.4062 22.4297L16.5176 22.3828L16.6465 22.3008L16.6992 22.248L16.7432 22.1895L16.7754 22.1191L16.7959 22.0371L16.8223 21.6621L16.8311 21.2871L16.8252 20.9121L16.7666 19.7842L16.7637 19.5146L17.0654 19.4473L17.3613 19.3652L17.6543 19.2744L17.9443 19.1689L18.2285 19.0518L18.5068 18.9229L18.7793 18.7822L19.0459 18.6299L19.3037 18.4629L19.5527 18.2842L19.793 18.0937L20.0273 17.8916L20.7246 17.3672L21.0674 17.0977L21.3984 16.8135L22.4268 17.2764L22.6816 17.4023L22.9277 17.54L23.083 17.6396L23.3789 17.8652L23.5137 17.9912L23.6396 18.1318L23.7568 18.2871L23.6221 18.5977L23.3965 18.4541L23.2793 18.3867L23.1592 18.3311L22.9453 18.5068L22.8486 18.6064L22.3213 19.2627L22.1309 19.459L22.0254 19.5439L21.9111 19.6201L21.7852 19.6816L21.5391 19.7666L21.4307 19.7842L21.3223 19.79L21.1084 19.7666L21.0029 19.7432L20.8447 19.6934L20.6924 19.6289L20.3965 19.4853L20.335 19.1426L20.1562 19.459L20.083 19.6084L20.0244 19.7578L19.9482 19.9922L19.8926 20.2295L19.8457 20.4727L19.7285 21.2051L19.6787 21.4453L19.4883 22.1426L19.333 22.6025L19.1982 22.8896L19.1162 23.0273L19.0283 23.1562L18.9258 23.2764L18.8086 23.3906L18.6035 23.5195L18.3926 23.6338L18.1729 23.7275L17.7158 23.8828L17.4814 23.9443L16.7754 24.0937L16.2627 24.1641L15.75 24.2197L15.2344 24.2637L14.7158 24.293L14.2002 24.3105L13.6816 24.3164L13.1631 24.3076L12.6475 24.2871L12.1318 24.252L11.6162 24.2051L11.8008 24.3252L12.1846 24.5361L12.3838 24.627L12.5889 24.7061L12.7969 24.7705L12.9756 25.2627L12.75 25.3359L12.5244 25.3945L12.2959 25.4443L10.9102 25.667L10.4531 25.7725L10.2275 25.8428L10.248 25.6406L10.251 25.4385L10.2422 25.2393L10.2129 24.9404L10.0635 24.0469L10.0166 23.6484L9.9668 23.0449L9.94336 22.6436L9.89063 21.0381L9.84375 20.5049L9.80566 20.2383L9.86426 19.5117L9.87012 19.0254L9.85547 18.7852L9.73535 19.0254L9.63281 19.2744L9.51855 19.7197L9.29297 19.585L9.0791 19.4443L8.67188 19.1279L8.28809 18.7852L8.0127 18.5156L7.2041 17.6748L6.92871 17.3994L6.64746 17.1357L6.60352 17.0654L6.53613 16.9102L6.48047 16.6641L6.44238 16.415ZM10.1777 18.7383L10.1631 19.3564V19.9746L10.1748 20.5928L10.2275 21.6621L10.248 21.8848L10.2832 22.1074L10.3184 22.2539L10.3623 22.3945L10.4209 22.5352L10.4473 22.2978L10.4678 21.8232L10.4502 20.7568L10.4678 19.9951V19.5879L10.4531 19.1836L10.4238 18.7793L10.1777 18.7383Z" fill="#F3DDC8"/>
<path d="M23.1533 10.8574L23.4258 10.9395L23.6924 11.0332L23.9561 11.1416L23.874 12.1406L23.8623 12.3896L23.8447 13.1162L23.8271 13.2334L23.7949 13.3477L23.7275 13.4854L23.6748 13.5527L23.6543 13.3564L23.6367 12.9639L23.6426 12.6709L23.7363 11.499L23.751 11.2061L23.625 11.1885L23.5898 11.9854L23.4785 13.5762L22.9805 13.6201L23.0361 13.1602L23.0742 12.7002L23.1006 12.2402L23.1533 10.8574Z" fill="#C57F97"/>
<path d="M8.46094 5.17969L8.68945 4.94238L8.92383 4.71094L9.16699 4.49121L9.41895 4.28027L9.67969 4.08105L9.94922 3.89062L10.2217 3.71191L10.5029 3.54199L10.79 3.38086L11.083 3.23145L11.4551 3.05859L11.8359 2.90625L12.2227 2.76562L12.6152 2.64551L13.0137 2.54004L13.415 2.45215L13.8223 2.38184L14.2295 2.3291L14.6396 2.29687L15.0498 2.2793L15.46 2.28223L15.8701 2.2998L16.1982 2.3291L16.5234 2.37012L16.8457 2.42285L17.168 2.49023L17.4873 2.56641L17.8037 2.65723L18.1143 2.75684L18.4219 2.87402L18.7266 3L19.2803 3.26367L19.5264 3.39844L19.7666 3.54199L19.998 3.69434L20.2236 3.8584L20.4961 4.0752L20.7598 4.30371L21.0117 4.54395L21.2578 4.7959L21.4922 5.05664L21.7148 5.32617L22.1367 5.88281L22.8545 5.92969L23.0918 5.95605L23.3291 5.99414L23.5605 6.0498L23.71 6.09961L23.8564 6.16113L24 6.2373L24.1318 6.32227L24.2549 6.42187L24.3633 6.53613L24.46 6.66211L24.542 6.79687L24.6064 6.94043L24.6562 7.08984L24.6885 7.24512L24.7031 7.40332L24.7061 7.69043L24.6709 8.26758L24.5625 9.41602L24.5508 9.83203L24.5566 9.95801L24.6123 10.2627L24.8174 10.9893L24.8584 11.1709L24.8906 11.4199L24.8994 12.208L24.8877 12.542L24.8584 12.873L24.8232 13.0928L24.7764 13.3066L24.7178 13.5176L24.6592 13.6729L24.5918 13.8223L24.5127 13.9688L24.4219 14.1094L24.3545 14.1943L24.2813 14.2676L24.1992 14.3262L24.0176 14.417L23.7686 14.4961L23.3115 14.6045L23.127 15.1641L23.0244 15.4395L22.8281 15.8906L22.6406 16.2363L22.8398 16.377L23.4727 16.7695L23.8828 17.0449L24.0088 17.1445L24.2461 17.3672L24.3516 17.4902L24.4453 17.625L24.6152 17.9268L24.6855 18.0879L24.75 18.2578L24.7998 18.4336L24.8379 18.6094L24.8643 18.791L24.8789 18.9727L24.876 19.1514L24.8584 19.3271L24.8262 19.5029L24.7764 19.6729L24.709 19.8369L24.6475 19.9541L24.5771 20.0654L24.4922 20.1738L24.3047 20.3613L24.2109 20.4316L24.1084 20.4873L23.8945 20.5723L23.7803 20.6016L23.6045 20.6396L23.0713 20.7246L22.8984 20.7656L22.2568 20.9824L21.542 21.2021L21.3047 21.2842L21.2695 21.3955L21.2373 21.624L21.2344 21.9727L21.249 22.9336L21.2285 23.8945L21.1611 24.8525L21.1084 25.3301L21.041 25.8076L20.9355 26.4111L20.8975 26.5342L20.8506 26.6543L20.792 26.7715L20.6455 26.9854L20.4639 27.1699L20.3613 27.249L20.2529 27.3193L20.1357 27.3809L20.0127 27.4307L19.7666 27.5098L19.5176 27.5771L19.2656 27.627L19.0107 27.665L18.7529 27.6885L18.4951 27.7002H18.2373L17.9795 27.6914L17.6338 27.6592L17.2939 27.6123L16.957 27.5479L16.6699 27.4687L16.3975 27.3545L16.2686 27.2813L16.1484 27.1963L16.0342 27.1025L15.9287 27L15.835 26.8828L15.7354 26.6865L15.5596 26.1006L15.5039 25.9453L15.2666 25.8809L15.1465 25.8662L14.9648 25.8604L14.4141 25.8955L14.2969 26.3174L14.2236 26.5312L14.1387 26.7363L14.0713 26.8682L13.9922 26.9912L13.9014 27.1025L13.7432 27.249L13.5469 27.3662L13.3447 27.4512L13.1396 27.5215L12.9316 27.5771L12.7207 27.6182L12.29 27.668L11.9619 27.6826L11.6367 27.6797L10.9863 27.6445L10.5557 27.583L10.3389 27.5391L10.1279 27.4805L9.9873 27.4336L9.72656 27.3105L9.60352 27.2344L9.48926 27.1465L9.38086 27.0439L9.2959 26.9473L9.22266 26.8447L9.16113 26.7363L9.06445 26.5049L9.0293 26.3848L8.95313 26.0098L8.90625 25.6348L8.74219 23.9795L8.70996 23.4258L8.70117 23.0566L8.70703 22.6846L8.76563 21.6943L8.7627 21.5391L8.74512 21.3838L8.6543 21.2666L8.5459 21.1611L8.03906 20.7422L7.76953 20.499L7.51172 20.2471L7.2627 19.9775L7.02832 19.6992L6.81152 19.4121L6.60645 19.1133L6.41602 18.8027L6.27539 18.5508L6.14648 18.29L6.0293 18.0264L5.9209 17.7568L5.82715 17.4814L5.75977 17.2354L5.7041 16.9834L5.66016 16.6406L5.65137 16.2979L5.66602 16.1279L5.69238 15.9609L5.73047 15.7969L5.78613 15.6357L5.85645 15.4775L6.03516 15.2461L6.2959 14.9883L6.62109 14.6924L6.77344 14.5371L6.57129 14.4199L5.73926 14.0068L5.53711 13.8867L5.44336 13.8135L5.36426 13.7314L5.2998 13.6406L5.25 13.541L5.20898 13.4385L5.17676 13.3271L5.14746 13.1572L5.12402 12.8086L5.13574 12.0498L5.15625 11.4551L5.18262 11.1621L5.22656 10.8691L5.25 10.7637L5.32617 10.5645L5.625 9.99609L5.69824 9.79687L5.71875 9.69141L5.71582 9.41016L5.69238 9.12891L5.53418 8.00977L5.50781 7.72852L5.49609 7.4502L5.49902 7.2627L5.5166 7.0752L5.5459 6.8877L5.58105 6.75L5.62793 6.61816L5.68359 6.49219L5.75391 6.375L5.92383 6.1582L6.12598 5.96777L6.27832 5.85937L6.43652 5.76855L6.60645 5.68945L6.78516 5.62793L6.96387 5.58691L7.2832 5.5459L7.85742 5.50488L8.08594 5.45508L8.25 5.37891L8.32324 5.32617L8.39355 5.26172L8.46094 5.17969ZM8.3584 6.0791L8.12695 6.02637L7.89258 5.98828L7.57617 5.96777L7.41797 5.97656L7.25977 5.99414L7.10742 6.0293L6.95508 6.07617L6.82617 6.12305L6.70605 6.18457L6.58594 6.25781L6.47754 6.33984L6.375 6.43359L6.28125 6.5332L6.19922 6.64453L6.12891 6.76172L6.07031 6.88477L6.02637 7.01367L5.99707 7.14551L5.97656 7.53223V7.77832L6.01758 8.39062L6.12305 9.49512L6.14648 9.9873L6.14355 10.2334L5.93555 10.415L5.83887 10.5117L5.75684 10.6201L5.71289 10.6963L5.67773 10.7783L5.6543 10.8721L5.625 11.0303L5.5957 11.3496L5.59863 12.9053L5.61621 13.0518L5.64844 13.1895L5.68359 13.2773L5.73047 13.3594L5.78906 13.4414L5.87109 13.5176L5.95605 13.582L6.04688 13.6348L6.19336 13.7051L6.34863 13.7578L6.98145 13.9131L7.17773 14.4551L7.28613 14.7217L7.40918 14.9824L7.12207 15.0469L6.84082 15.1348L6.70898 15.1963L6.58594 15.2725L6.44238 15.3984L6.29297 15.5859L6.22266 15.6973L6.16992 15.8145L6.12891 15.9375L6.09961 16.0635L6.08496 16.1953L6.07617 16.3916L6.08789 16.5938L6.14648 16.9834L6.22266 17.2383L6.30762 17.4902L6.40137 17.7363L6.50977 17.9795L6.62695 18.2168L6.79102 18.5068L6.96387 18.7881L7.1543 19.0605L7.35645 19.3242L7.57031 19.5791L7.79297 19.8252L8.02441 20.0625L8.26758 20.2881L8.42871 20.4287L9.11719 20.9209L9.27832 21.0615L9.25195 22.3535L9.24902 23.0039L9.25488 23.6514L9.2959 24.5127L9.32812 24.9434L9.375 25.3711L9.43359 25.7988L9.50684 26.2236L9.53906 26.3379L9.58594 26.4434L9.64746 26.54L9.72363 26.6279L9.80566 26.71L9.99609 26.8447L10.2041 26.9443L10.4443 27.0234L10.6846 27.0879L10.9307 27.1318L11.1797 27.1641L11.4287 27.1787L11.6807 27.1846L12.0586 27.1758L12.4336 27.1494L12.9316 27.041L13.2012 26.9473L13.3975 26.8389L13.4854 26.7715L13.5674 26.6924L13.6377 26.6045L13.7021 26.4727L13.8018 26.2031L13.8604 25.9951L14.001 25.3594L15.9434 25.3623L16.0811 26.0215L16.1279 26.1855L16.1836 26.3438L16.2861 26.5371L16.3477 26.625L16.4209 26.707L16.5059 26.7803L16.6055 26.8477L16.8018 26.9385L17.001 27.0146L17.2061 27.0732L17.4141 27.1201L17.625 27.1523L17.8389 27.1729L18.1611 27.1875L18.4834 27.1846L19.125 27.1494L19.4619 27.082L19.6318 27.0352L19.8018 26.9736L19.9072 26.9238L20.1035 26.8037L20.1914 26.7334L20.2676 26.6514L20.335 26.5635L20.3906 26.4639L20.4316 26.3555L20.458 26.2324L20.5313 25.7871L20.5869 25.3389L20.6309 24.8906L20.6836 23.9912L20.6953 23.5371L20.7041 22.8604L20.7012 20.8271L21.4775 20.7158L21.9023 20.6279L22.2334 20.5195L22.3535 20.4668L22.708 20.2822L22.9512 20.1797L23.4141 20.1621L23.5693 20.1445L23.7656 20.1006L23.8594 20.0625L23.9443 20.0156L24.0293 19.957L24.1084 19.8809L24.1934 19.7754L24.2607 19.6699L24.3105 19.5557L24.3457 19.4385L24.3691 19.3154L24.3779 19.0635L24.3486 18.8057L24.3076 18.6123L24.252 18.4248L24.1172 18.0703L24.0146 17.9121L23.9033 17.7656L23.7773 17.6309L23.6455 17.5078L23.3555 17.2881L23.1211 17.1416L22.1426 16.6055L21.9111 16.4619L22.1016 16.1953L22.2773 15.9258L22.4385 15.6445L22.5879 15.3545L22.6934 15.1172L22.7871 14.877L22.8691 14.6309L22.9424 14.3818L23.001 14.127L23.5811 14.0332L23.7246 13.998L23.8594 13.9482L23.9473 13.9072L24.1055 13.793L24.1729 13.6934L24.2256 13.5879L24.2695 13.4795L24.3164 13.3125L24.3457 13.1367L24.3721 12.7793L24.3926 11.6426L24.3779 11.1211L24.3486 10.8604L24.293 10.7754L24.2285 10.7021L23.918 10.4561L24.085 9.33105L24.1318 8.95313L24.1934 8.19727L24.2344 7.91309L24.2373 7.61426L24.2227 7.46777L24.1963 7.32422L24.1553 7.18359L24.0996 7.05176L24.0264 6.92871L23.9619 6.84375L23.8887 6.76758L23.8037 6.69727L23.5664 6.55371L23.4229 6.49219L23.2793 6.44531L22.9775 6.39551L22.8223 6.38965H22.5908L21.8936 6.44531L21.6885 6.13184L21.4717 5.82422L21.2432 5.52539L21.0029 5.23535L20.748 4.95996L20.4814 4.69629L20.0566 4.32422L19.6055 3.99023L19.3711 3.83789L19.1279 3.69727L18.876 3.56836L18.3164 3.31641L18.0117 3.19922L17.7041 3.09668L17.3906 3.00586L17.0742 2.92676L16.7549 2.85937L16.4326 2.80664L16.1104 2.76562L15.7852 2.73926L15.457 2.72168L15.1289 2.71875L14.8037 2.72754L14.4785 2.74805L14.1533 2.78027L13.8281 2.82715L13.4238 2.89746L13.0254 2.98828L12.6328 3.09668L12.2432 3.22559L11.9355 3.33984L11.6338 3.46582L11.3408 3.60059L11.0508 3.75L10.7637 3.9082L10.4854 4.07812L10.2158 4.25684L9.95215 4.4502L9.69727 4.64941L9.44824 4.86328L9.21094 5.08594L8.98242 5.31738L8.76563 5.56055L8.55762 5.81543L8.3584 6.0791Z" fill="#FDFBF8"/>
<path d="M8.59863 4.79297L8.82715 4.56738L9.06738 4.35059L9.31348 4.14551L9.56543 3.94922L9.82617 3.76172L10.1602 3.54199L10.5059 3.33691L10.8574 3.14648L11.2207 2.97363L11.5898 2.8125L11.9619 2.67187L12.3428 2.54297L12.7295 2.43164L13.1221 2.33789L13.5146 2.25879L13.9102 2.19727L14.3115 2.15039L14.7129 2.12109L15.1113 2.10938L15.5127 2.11523L15.9141 2.13574L16.3125 2.17676L16.708 2.23242L17.1006 2.30566L17.4932 2.39941L17.8008 2.48438L18.1055 2.58105L18.4072 2.69238L18.7061 2.8125L19.3096 3.09668L19.6113 3.26074L19.9072 3.43945L20.1943 3.62695L20.4727 3.8291L20.7422 4.04297L21 4.27148L21.249 4.50879L21.4834 4.76074L21.6152 4.91309L21.9844 5.3877L22.166 5.58398L22.2656 5.6748L22.4795 5.72461L22.6992 5.75977L23.3643 5.83887L23.5811 5.87988L23.7217 5.91797L23.8594 5.9707L24.126 6.10254L24.2461 6.18164L24.3574 6.27246L24.46 6.37207L24.5537 6.4834L24.6357 6.60059L24.7061 6.72363L24.7705 6.85547L24.8203 6.99316L24.8584 7.13086L24.8848 7.27148L24.8994 7.41797L24.9023 7.7168L24.8906 8.01563L24.7852 9.21094L24.7676 9.50977L24.7617 9.81152L24.7734 9.99609L24.8027 10.1807L24.9814 10.9014L25.0166 11.083L25.0576 11.5811L25.0664 11.8945L25.0518 12.5186L25.0312 12.8291L24.999 13.1396L24.9727 13.2979L24.8965 13.6055L24.7822 13.9043L24.709 14.0449L24.624 14.1797L24.5273 14.3057L24.4189 14.4229L24.3281 14.4873L24.1377 14.5898L23.9854 14.6514L23.5166 14.8037L23.2441 15.5186L22.9512 16.2275L23.8594 16.8164L24.1465 17.0332L24.2783 17.1533L24.4043 17.2822L24.5156 17.4199L24.6182 17.5752L24.7178 17.7422L24.8057 17.918L24.8818 18.1025L24.9434 18.293L24.9902 18.4863L25.0254 18.6855L25.043 18.8848L25.0459 19.084L25.0342 19.2832L25.0049 19.4795L24.958 19.6699L24.8936 19.8545L24.832 19.9893L24.7617 20.1182L24.6826 20.2441L24.5889 20.3643L24.4922 20.4609L24.3926 20.54L24.2871 20.6045L24.0586 20.707L23.9385 20.7422L23.751 20.7861L23.1768 20.8916L22.9893 20.9355L22.1572 21.2197L21.8262 21.3135L21.4863 21.3867L21.457 21.7383L21.4424 22.0898V23.4961L21.4336 23.8477L21.3545 24.9609L21.2783 25.7197L21.1992 26.2207L21.1465 26.4697L21.1084 26.6162L21.0527 26.751L20.9854 26.8828L20.9062 27.0088L20.8154 27.123L20.7158 27.2314L20.6045 27.3311L20.4873 27.4189L20.3613 27.501L20.2266 27.5684L20.0918 27.627L19.9512 27.6709L19.6641 27.7441L19.3711 27.8027L19.0781 27.8438L18.7822 27.873L18.4863 27.8877L18.1904 27.8906L17.8916 27.876L17.5986 27.8525L17.3027 27.8145L17.1211 27.7822L16.7549 27.6914L16.5762 27.6299L16.4062 27.5596L16.2393 27.4746L16.0781 27.3779L15.9316 27.2666L15.791 27.1377L15.7061 27.041L15.6357 26.9355L15.5742 26.8271L15.4951 26.6514L15.4336 26.4727L15.3223 26.1064L15.0117 26.0889L14.6982 26.0947L14.584 26.2822L14.3496 26.8477L14.2764 26.9971L14.2178 27.0879L14.1504 27.1758L13.9365 27.3721L13.7959 27.4687L13.6494 27.5508L13.4941 27.6211L13.333 27.6768L13.1689 27.7236L12.9141 27.7793L12.6562 27.8174L12.1465 27.8701L11.584 27.8818L11.2998 27.873L11.0156 27.8525L10.7373 27.8145L10.459 27.7646L10.2539 27.7148L10.0518 27.6533L9.85254 27.583L9.65625 27.498L9.51855 27.4248L9.39551 27.3369L9.28418 27.2344L9.18164 27.123L9.09375 27.0029L9.01465 26.874L8.88867 26.5986L8.83887 26.4521L8.77441 26.1562L8.62793 24.7119L8.51953 23.417L8.50488 23.124L8.50781 22.8311L8.57227 21.6621L8.55762 21.5449L8.49609 21.4189L8.44043 21.3516L8.17969 21.1143L7.9248 20.9092L7.68164 20.6924L7.44434 20.4639L7.21582 20.2266L6.99902 19.9805L6.79395 19.7285L6.59766 19.4648L6.41309 19.1924L6.24316 18.9141L6.08203 18.627L5.93555 18.3369L5.80371 18.0352L5.70996 17.7979L5.62793 17.5547L5.56055 17.3057L5.50781 17.0508L5.47559 16.7988L5.45801 16.5439V16.3506L5.46973 16.1602L5.49609 15.9697L5.53418 15.7793L5.57227 15.6563L5.61914 15.542L5.67773 15.4336L5.78027 15.2783L5.90039 15.1348L6.0293 14.9971L6.42773 14.6016L6.26367 14.4961L5.72754 14.2002L5.55176 14.0947L5.39062 13.9775L5.29102 13.8896L5.20313 13.7959L5.12695 13.6934L5.03613 13.5205L4.98047 13.3125L4.93359 12.832L4.9248 12.5918L4.92188 12.2285L4.93359 11.8652L4.97461 11.1416L5.00977 10.8809L5.04492 10.7549L5.10937 10.5732L5.4375 9.8584L5.50781 9.67676L5.5166 9.49512L5.50195 9.13184L5.46387 8.85937L5.32031 8.04199L5.28223 7.76953L5.26172 7.49707V7.31543L5.27344 7.13379L5.30273 6.94922L5.34375 6.77637L5.40234 6.6123L5.47852 6.45703L5.56934 6.30762L5.67188 6.16992L5.78906 6.03809L5.91504 5.91797L6.0498 5.80957L6.19629 5.70996L6.34863 5.625L6.50684 5.55176L6.66797 5.49023L6.86133 5.4375L7.24805 5.37598L7.83691 5.31152L7.99219 5.2793L8.16211 5.18848L8.25586 5.11816L8.59863 4.79297ZM8.46094 5.17969L8.39355 5.26172L8.32324 5.32617L8.25 5.37891L8.08594 5.45508L7.85742 5.50488L7.2832 5.5459L6.96387 5.58691L6.78516 5.62793L6.60645 5.68945L6.43652 5.76855L6.27832 5.85938L6.12598 5.96777L5.92383 6.1582L5.75391 6.375L5.68359 6.49219L5.62793 6.61816L5.58105 6.75L5.5459 6.8877L5.5166 7.0752L5.49902 7.2627L5.49609 7.4502L5.50781 7.72852L5.53418 8.00977L5.69238 9.12891L5.71582 9.41016L5.71875 9.69141L5.69824 9.79687L5.625 9.99609L5.32617 10.5645L5.25 10.7637L5.22656 10.8691L5.18262 11.1621L5.15625 11.4551L5.13574 12.0498L5.12402 12.8086L5.14746 13.1572L5.17676 13.3271L5.20898 13.4385L5.25 13.541L5.2998 13.6406L5.36426 13.7314L5.44336 13.8135L5.53711 13.8867L5.73926 14.0068L6.57129 14.4199L6.77344 14.5371L6.62109 14.6924L6.2959 14.9883L6.03516 15.2461L5.85645 15.4775L5.78613 15.6357L5.73047 15.7969L5.69238 15.9609L5.66602 16.1279L5.65137 16.2979L5.66016 16.6406L5.7041 16.9834L5.75977 17.2354L5.82715 17.4814L5.9209 17.7568L6.0293 18.0264L6.14648 18.29L6.27539 18.5508L6.41602 18.8027L6.60645 19.1133L6.81152 19.4121L7.02832 19.6992L7.26269 19.9775L7.51172 20.2471L7.76953 20.499L8.03906 20.7422L8.5459 21.1611L8.6543 21.2666L8.74512 21.3838L8.7627 21.5391L8.76563 21.6943L8.70703 22.6846L8.70117 23.0566L8.70996 23.4258L8.74219 23.9795L8.90625 25.6348L8.95312 26.0098L9.0293 26.3848L9.06445 26.5049L9.16113 26.7363L9.22266 26.8447L9.2959 26.9473L9.38086 27.0439L9.48926 27.1465L9.60351 27.2344L9.72656 27.3105L9.9873 27.4336L10.1279 27.4805L10.3389 27.5391L10.5557 27.583L10.9863 27.6445L11.6367 27.6797L11.9619 27.6826L12.29 27.668L12.7207 27.6182L12.9316 27.5771L13.1396 27.5215L13.3447 27.4512L13.5469 27.3662L13.7432 27.249L13.9014 27.1025L13.9922 26.9912L14.0713 26.8682L14.1387 26.7363L14.2236 26.5312L14.2969 26.3174L14.4141 25.8955L14.9648 25.8604L15.1465 25.8662L15.2666 25.8809L15.5039 25.9453L15.5596 26.1006L15.7354 26.6865L15.835 26.8828L15.9287 27L16.0342 27.1025L16.1484 27.1963L16.2686 27.2813L16.3975 27.3545L16.6699 27.4687L16.957 27.5479L17.2939 27.6123L17.6338 27.6592L17.9795 27.6914L18.4951 27.7002L18.7529 27.6885L19.0107 27.665L19.2656 27.627L19.5176 27.5771L19.7666 27.5098L20.0127 27.4307L20.1357 27.3809L20.2529 27.3193L20.3613 27.249L20.5576 27.082L20.7217 26.8828L20.792 26.7715L20.8506 26.6543L20.8975 26.5342L20.9355 26.4111L20.9619 26.2793L21.041 25.8076L21.1084 25.3301L21.1611 24.8525L21.2285 23.8945L21.249 22.9336L21.2344 21.9727L21.2373 21.624L21.2695 21.3955L21.3047 21.2842L21.542 21.2021L22.2568 20.9824L22.8984 20.7656L23.0713 20.7246L23.6045 20.6396L23.7803 20.6016L23.8945 20.5723L24.1084 20.4873L24.2109 20.4316L24.3047 20.3613L24.4922 20.1738L24.5771 20.0654L24.6475 19.9541L24.709 19.8369L24.7764 19.6729L24.8262 19.5029L24.8584 19.3271L24.876 19.1514L24.8789 18.9727L24.8643 18.791L24.8379 18.6094L24.7998 18.4336L24.75 18.2578L24.6855 18.0879L24.6152 17.9268L24.4453 17.625L24.3516 17.4902L24.2461 17.3672L24.0088 17.1445L23.8799 17.0449L23.6807 16.9014L23.0479 16.5088L22.6406 16.2363L22.8281 15.8906L23.0244 15.4395L23.127 15.1641L23.3115 14.6045L23.7686 14.4961L24.0176 14.417L24.1992 14.3262L24.2812 14.2676L24.3545 14.1943L24.4219 14.1094L24.5127 13.9687L24.5918 13.8223L24.6592 13.6729L24.7178 13.5176L24.7764 13.3066L24.8232 13.0928L24.8584 12.873L24.8877 12.542L24.8994 12.208L24.8906 11.4199L24.8584 11.1709L24.8174 10.9893L24.6123 10.2627L24.5566 9.95801L24.5508 9.83203L24.5625 9.41602L24.6709 8.26758L24.7061 7.69043L24.7031 7.40332L24.6885 7.24512L24.6562 7.08984L24.6064 6.94043L24.542 6.79688L24.46 6.66211L24.3633 6.53613L24.2549 6.42187L24.1318 6.32227L24 6.2373L23.8564 6.16113L23.71 6.09961L23.5576 6.0498L23.3291 5.99414L23.0918 5.95605L22.8545 5.92969L22.1367 5.88281L21.7148 5.32617L21.4922 5.05664L21.2578 4.7959L21.0117 4.54395L20.7598 4.30371L20.4961 4.0752L20.2236 3.8584L19.998 3.69434L19.7666 3.54199L19.5264 3.39844L19.2803 3.26367L18.7266 3L18.4219 2.87402L18.1143 2.75684L17.8037 2.65723L17.4873 2.56641L17.168 2.49023L16.8457 2.42285L16.5234 2.37012L16.1982 2.3291L15.8701 2.2998L15.46 2.28223L15.0498 2.2793L14.6396 2.29688L14.2295 2.3291L13.8223 2.38184L13.415 2.45215L13.0137 2.54004L12.6152 2.64551L12.2227 2.76563L11.8359 2.90625L11.4551 3.05859L11.083 3.23145L10.79 3.38086L10.5029 3.54199L10.2217 3.71191L9.94922 3.89063L9.67969 4.08105L9.41895 4.28027L9.16699 4.49121L8.92383 4.71094L8.68945 4.94238L8.46094 5.17969Z" fill="#EAD6D3"/>
<path d="M8.3584 6.0791L8.55762 5.81543L8.76563 5.56055L8.98242 5.31738L9.21094 5.08594L9.44824 4.86328L9.69727 4.64941L9.95215 4.4502L10.2158 4.25684L10.4854 4.07812L10.7637 3.9082L11.0508 3.75L11.3408 3.60059L11.6367 3.46582L11.9355 3.33984L12.2432 3.22559L12.6328 3.09668L13.0254 2.98828L13.4238 2.89746L13.8281 2.82715L14.1533 2.78027L14.4785 2.74805L14.8037 2.72754L15.1289 2.71875L15.457 2.72168L15.7852 2.73926L16.1104 2.76562L16.4326 2.80664L16.7549 2.85937L17.0742 2.92676L17.3906 3.00586L17.7041 3.09668L18.0117 3.19922L18.3164 3.31641L18.876 3.56836L19.1279 3.69727L19.3711 3.83789L19.6055 3.99023L20.0566 4.32422L20.4814 4.69629L20.748 4.95996L21.0029 5.23535L21.2432 5.52539L21.4717 5.82422L21.6885 6.13184L21.8936 6.44531L22.5908 6.38965H22.8223L23.1299 6.41602L23.2793 6.44531L23.4229 6.49219L23.5664 6.55371L23.8037 6.69727L23.8887 6.76758L23.9619 6.84375L24.0264 6.92871L24.0996 7.05176L24.1553 7.18359L24.1963 7.32422L24.2227 7.46777L24.2373 7.61426L24.2344 7.91309L24.1934 8.19727L24.1318 8.95313L24.0059 9.89355L23.918 10.4561L24.2285 10.7021L24.293 10.7754L24.3486 10.8604L24.3779 11.1211L24.3926 11.6426L24.3721 12.7793L24.3457 13.1367L24.3164 13.3125L24.2695 13.4795L24.2256 13.5879L24.1729 13.6934L24.1055 13.793L23.9473 13.9072L23.8594 13.9482L23.7246 13.998L23.5811 14.0332L23.001 14.127L22.9424 14.3818L22.8691 14.6309L22.7871 14.877L22.6934 15.1172L22.5879 15.3545L22.4385 15.6445L22.2773 15.9258L22.1016 16.1953L21.9111 16.4619L22.1426 16.6055L23.1211 17.1416L23.3555 17.2881L23.6455 17.5078L23.7773 17.6309L23.9033 17.7656L24.0146 17.9121L24.1172 18.0703L24.252 18.4248L24.3076 18.6123L24.3486 18.8057L24.3779 19.0635L24.3691 19.3154L24.3457 19.4385L24.3105 19.5557L24.2607 19.6699L24.1934 19.7754L24.1084 19.8809L24.0293 19.957L23.9443 20.0156L23.8594 20.0625L23.7656 20.1006L23.5693 20.1445L23.4141 20.1621L22.9512 20.1797L22.708 20.2822L22.3535 20.4668L22.2334 20.5195L21.9023 20.6279L21.4775 20.7158L20.7012 20.8271L20.7041 22.8604L20.6953 23.5371L20.6631 24.4395L20.6309 24.8906L20.5869 25.3389L20.5313 25.7871L20.4316 26.3555L20.3906 26.4639L20.335 26.5635L20.2676 26.6514L20.1914 26.7334L20.1035 26.8037L19.9072 26.9238L19.6318 27.0352L19.2891 27.1201L19.125 27.1494L18.8086 27.1699L18.4834 27.1846L18.1611 27.1875L17.8389 27.1729L17.625 27.1523L17.4141 27.1201L17.2061 27.0732L17.001 27.0146L16.8018 26.9385L16.6055 26.8477L16.5059 26.7803L16.4209 26.707L16.3477 26.625L16.2305 26.4434L16.1279 26.1855L16.0811 26.0215L15.9434 25.3623L14.001 25.3594L13.8604 25.9951L13.8018 26.2031L13.7021 26.4727L13.6377 26.6045L13.5674 26.6924L13.4854 26.7715L13.3037 26.8975L13.0957 26.9912L12.9316 27.041L12.4336 27.1494L12.0586 27.1758L11.6807 27.1846L11.4287 27.1787L11.1797 27.1641L10.9307 27.1318L10.6846 27.0879L10.4443 27.0234L10.2041 26.9443L9.99609 26.8447L9.89648 26.7803L9.80566 26.71L9.72363 26.6279L9.65039 26.54L9.58594 26.4434L9.53906 26.3379L9.50684 26.2236L9.43359 25.7988L9.375 25.3711L9.32813 24.9434L9.26953 24.082L9.24902 23.0039L9.25195 22.3535L9.27832 21.0615L9.11719 20.9209L8.42871 20.4287L8.26758 20.2881L8.02441 20.0625L7.79297 19.8252L7.57031 19.5791L7.35645 19.3242L7.1543 19.0605L6.96387 18.7881L6.79102 18.5068L6.62695 18.2168L6.50977 17.9795L6.40137 17.7363L6.30762 17.4902L6.22266 17.2383L6.14648 16.9834L6.08789 16.5938L6.07617 16.3916L6.08496 16.1953L6.09961 16.0635L6.12891 15.9375L6.16992 15.8145L6.22266 15.6973L6.29297 15.5859L6.44238 15.3984L6.50977 15.3311L6.58594 15.2725L6.70898 15.1963L6.84082 15.1348L6.98145 15.0879L7.40918 14.9824L7.28613 14.7217L7.17773 14.4551L6.98145 13.9131L6.34863 13.7578L6.19336 13.7051L6.04687 13.6348L5.95605 13.582L5.87109 13.5176L5.78906 13.4414L5.73047 13.3594L5.68359 13.2773L5.64844 13.1895L5.61621 13.0518L5.59863 12.9053L5.5957 11.3496L5.625 11.0303L5.6543 10.8721L5.67773 10.7783L5.71289 10.6963L5.75684 10.6201L5.83887 10.5117L5.93555 10.415L6.14355 10.2334L6.14648 9.9873L6.12598 9.49512L6.01758 8.39062L5.97656 7.77832V7.53223L5.99707 7.14551L6.02637 7.01367L6.07031 6.88477L6.12891 6.76172L6.19922 6.64453L6.28125 6.5332L6.375 6.43359L6.47754 6.33984L6.58594 6.25781L6.70605 6.18457L6.82617 6.12305L6.95508 6.07617L7.10742 6.0293L7.25977 5.99414L7.41797 5.97656L7.57617 5.96777L7.89258 5.98828L8.12695 6.02637L8.3584 6.0791ZM12.2432 3.68555L11.9063 3.80859L11.5781 3.94922L11.2617 4.10742L10.9512 4.28027L10.6494 4.46777L10.3594 4.66992L10.0781 4.88672L9.80859 5.11523L9.54785 5.3584L9.30176 5.61328L9.06445 5.87695L8.83887 6.15527L8.62793 6.44238L8.42871 6.73535L8.24121 7.03711L8.06836 7.35059L7.90723 7.66992L7.76367 7.99219L7.63184 8.32324L7.51465 8.65723L7.40918 9.01172L7.31543 9.37207L7.2334 9.73242L7.16309 10.1016L7.11035 10.4707L7.07227 10.8398L7.0459 11.209L7.03711 11.5811L7.0459 11.9531L7.06934 12.3252L7.11035 12.6914L7.16895 13.0576L7.23047 13.3477L7.30078 13.6348L7.38574 13.9189L7.48242 14.2031L7.59375 14.4814L7.73145 14.7744L7.88379 15.0586L8.11523 15.4219L8.24414 15.5947L8.38477 15.7764L8.53418 15.9463L8.69238 16.1074L8.8623 16.2568L9.09668 16.4473L9.34277 16.6201L9.60059 16.7812L9.86426 16.9277L10.1367 17.0625L10.415 17.1855L10.9834 17.3994L11.2676 17.4932L11.7246 17.6104L12.1816 17.7129L12.6445 17.7979L13.1104 17.8652L13.5791 17.918L14.0479 17.9561L14.5166 17.9795L14.9883 17.9854L15.46 17.9824L15.9287 17.9648L16.3975 17.9355L16.8662 17.8945L17.3467 17.8125L17.8271 17.7158L18.3018 17.6016L18.6563 17.5049L19.0078 17.3936L19.3506 17.2705L19.6934 17.1357L20.0273 16.9863L20.3525 16.8223L20.6719 16.6406L20.9824 16.4443L21.1963 16.2773L21.4014 16.0957L21.5947 15.9023L21.7793 15.6943L21.9492 15.4775L22.1045 15.252L22.21 15.0732L22.3037 14.8916L22.4648 14.5166L22.5293 14.3232L22.5791 14.127L22.6172 13.9248L22.6406 13.7227L22.7256 13.2715L22.793 12.8174L22.8428 12.3574L22.8691 12.0117L22.8809 11.666L22.8838 11.3174L22.8721 10.9717L22.8486 10.626L22.8076 10.2832L22.7578 9.94336L22.6904 9.60645L22.6084 9.26953L22.5117 8.93848L22.3975 8.61328L22.084 7.875L21.8877 7.46484L21.6738 7.05762L21.501 6.75586L21.3193 6.46582L21.1289 6.18164L20.9238 5.90332L20.71 5.63672L20.4844 5.37891L20.2471 5.13574L19.998 4.9043L19.79 4.72852L19.5732 4.56152L19.3477 4.40625L19.1133 4.2627L18.5625 3.96094L18.249 3.81445L17.9297 3.68555L17.6045 3.57129L17.2705 3.47168L16.9365 3.38672L16.5967 3.31934L16.2539 3.26367L15.9082 3.22266L15.5625 3.19629L15.2168 3.18164H14.8711L13.9775 3.25781L13.3857 3.3457L12.876 3.45996L12.4512 3.60059L12.2432 3.68555ZM6.97266 6.50684L6.87012 6.55371L6.77637 6.6123L6.68555 6.68262L6.60645 6.76465L6.5332 6.84961L6.47168 6.94629L6.42187 7.04883L6.38086 7.1543L6.35449 7.2627L6.33984 7.37402V7.48828L6.40137 7.91309L6.50098 8.8623L6.55078 9.74707L6.60352 10.0342L6.68555 10.2598L6.75 10.1309L6.84961 9.86426L6.90234 9.65625L7.01953 9.01758L7.06934 8.80664L7.21875 8.31738L7.32422 8.04199L7.43848 7.76953L8.08301 6.43652L7.70801 6.39844L7.52051 6.39258L7.33301 6.4043L7.21289 6.4248L7.09277 6.45703L6.97266 6.50684ZM22.1162 6.84961L22.5527 7.8252L22.6523 8.07422L22.8223 8.56348L22.9512 9.04395L23.0303 9.41016L23.2383 10.5176L23.5107 10.4121L23.5664 9.94336L23.6982 9.00879L23.7861 8.22656L23.8184 7.59668L23.8096 7.5L23.792 7.40625L23.7627 7.31836L23.7188 7.2334L23.6484 7.13086L23.5664 7.04004L23.4668 6.95801L23.3584 6.89062L23.2441 6.83789L23.0127 6.77051L22.8984 6.75293L22.7871 6.74707L22.6201 6.75879L22.4502 6.78516L22.1162 6.84961ZM6.16699 10.7549L6.14355 11.0332L6.12305 11.5869L6.12598 12.0029L6.18164 13.2539L6.50684 13.2803L6.51562 13.3857L6.94629 13.4238L6.90527 13.1953L6.85547 12.7412L6.83789 12.3955L6.81445 11.0186L6.79395 10.6729L6.48047 10.7051L6.16699 10.7549ZM23.1533 10.8574L23.1006 12.2402L23.0742 12.7002L23.0361 13.1602L22.9805 13.6201L23.4785 13.5762L23.5898 11.9854L23.625 11.1885L23.751 11.2061L23.7363 11.499L23.6426 12.6709L23.6367 12.9639L23.6543 13.3564L23.6748 13.5527L23.7275 13.4854L23.7949 13.3477L23.8271 13.2334L23.8447 13.1162L23.8623 12.3896L23.874 12.1406L23.9561 11.1416L23.6924 11.0332L23.4258 10.9395L23.1533 10.8574ZM6.44238 16.415L6.48047 16.6641L6.53613 16.9102L6.60352 17.0654L6.64746 17.1357L6.7002 17.3262L6.76172 17.5137L6.91992 17.8711L7.11621 18.2109L7.2832 18.457L7.46191 18.6943L7.83691 19.1484L8.32617 19.6611L8.67188 19.9863L8.85059 20.1387L9.03809 20.2822L9.23438 20.4141L9.43945 20.5342L9.51855 19.7197L9.63281 19.2744L9.69141 19.5352L9.73828 19.7988L9.7998 20.3291L9.71191 21.6123L9.69141 22.04L9.68555 22.8955L9.69727 23.3232L9.72363 23.751L9.76172 24.1787L9.77344 24.4717L9.90234 25.6348L9.91699 25.9277L10.0283 26.1797L10.0723 26.2617L10.1836 26.4053L10.248 26.4609L10.3271 26.5049L10.4209 26.5371L10.6875 26.6133L10.96 26.6719L11.2354 26.7158L11.5166 26.7422L11.7949 26.751L12.0732 26.7422L12.2842 26.7217L12.6943 26.6543L12.8965 26.6045L13.0723 26.5254L13.1455 26.4756L13.207 26.417L13.2773 26.3291L13.3389 26.2324L13.3857 26.124L13.4414 25.9541L13.4824 25.7695L13.5879 25.0518L13.7021 24.8818L14.5576 24.8936L14.9854 24.8848L15.6973 24.835L16.6055 24.7061L17.9648 24.4746L18.3047 24.4336L18.0557 24.4922L17.543 24.5859L17.2881 24.6475L16.7842 24.8086L16.2891 24.9932L16.3301 25.1572L16.4355 25.6992L16.4795 25.8779L16.5381 26.0479L16.5879 26.1533L16.6494 26.2529L16.7783 26.3994L16.9248 26.502L17.0156 26.543L17.2207 26.6104L17.4287 26.666L17.6426 26.71L17.8564 26.7393L18.0732 26.7568L18.5068 26.7627L18.9434 26.7188L19.3682 26.6367L19.6816 26.5459L19.7666 26.499L19.8369 26.4434L19.8926 26.376L19.9424 26.2998L19.9775 26.2148L20.0186 26.0801L20.0449 25.9307L20.1094 25.3506L20.2002 24.0117L20.2295 23.3408L20.2559 22.3359L20.2646 21.3281L20.2383 19.3154L20.335 19.1426L20.3965 19.4854L20.6104 20.3584L21.1084 20.3232L21.3633 20.2969L21.7852 20.2236L22.1074 20.1299L22.2656 20.0713L22.415 19.998L22.5586 19.916L22.6934 19.8193L22.8193 19.708L22.9365 19.582L23.0801 19.6377L23.3379 19.7051L23.543 19.7168L23.6426 19.6992L23.7422 19.667L23.8389 19.6113L23.8828 19.5264L23.9121 19.4414L23.9326 19.3506L23.9414 19.2129L23.9326 19.0723L23.9121 18.9316L23.7568 18.2871L23.6397 18.1318L23.5137 17.9912L23.3789 17.8652L23.083 17.6396L22.9277 17.54L22.6816 17.4023L22.4268 17.2764L21.3984 16.8135L21.0674 17.0977L20.7246 17.3672L20.0273 17.8916L19.2568 18.1992L18.8643 18.3369L18.4658 18.4629L18.0674 18.5742L17.6631 18.6738L17.2559 18.7588L16.8457 18.8262L16.4326 18.8789L15.6299 18.9082L14.0244 18.8994L13.7051 18.8848L13.3887 18.8584L13.0723 18.8145L12.4512 18.6943L12.1406 18.6152L11.6836 18.4834L11.2295 18.3311L10.3359 17.9971L9.58887 17.4141L9.22266 17.1123L8.86523 16.7988L8.63379 16.585L8.19434 16.1338L7.98633 15.8965L7.79004 15.6504L7.60254 15.3926L7.12793 15.416L7.04004 15.4336L6.95801 15.4629L6.88184 15.501L6.78516 15.5684L6.7002 15.6475L6.62402 15.7383L6.55957 15.8408L6.50977 15.9492L6.47168 16.0635L6.44531 16.1836L6.43652 16.2979L6.44238 16.415ZM11.5957 17.918L11.3496 17.8506L10.3828 17.5254L10.1367 17.458L10.3477 17.5986L10.5674 17.7246L10.793 17.8359L11.2588 18.0234L11.8623 18.2139L12.2256 18.3135L12.5127 18.3809L12.7969 18.4395L13.0869 18.4834L13.5205 18.5332L13.96 18.5625L14.3965 18.5801H15.7119L16.0605 18.5713L16.4092 18.5449L16.7549 18.5068L17.1006 18.4541L17.4434 18.3896L18.1201 18.2256L18.7852 18.0205L19.0811 17.915L19.3682 17.7979L19.6494 17.666L19.8545 17.5576L20.0537 17.4375L20.2471 17.3086L20.4346 17.168L20.0215 17.3584L19.5996 17.5283L19.1748 17.6807L18.7471 17.8184L18.3105 17.9385L17.8711 18.041L17.4287 18.1289L16.9834 18.1992L16.5352 18.2549L16.084 18.2959L15.6328 18.3223L15.1816 18.334L14.7275 18.3311L14.2764 18.3135L13.8252 18.2813L13.374 18.2344L12.9229 18.1758L12.4775 18.1025L12.0352 18.0176L11.5957 17.918Z" fill="#26182B"/>
<path d="M12.2432 3.68555L12.4512 3.60059L12.876 3.45996L13.3857 3.3457L13.9775 3.25781L14.4258 3.21387L14.8711 3.18164H15.2168L15.5625 3.19629L15.9082 3.22266L16.2539 3.26367L16.5967 3.31934L16.9365 3.38672L17.2705 3.47168L17.6045 3.57129L17.9297 3.68555L18.249 3.81445L18.5625 3.96094L18.8701 4.125L18.9551 4.3916L19.0254 4.66113L19.084 4.93359L19.1133 5.1416L19.1309 5.34668L19.1396 5.55469L19.1309 5.7627L19.1133 5.96777L19.0752 6.16992L19.0225 6.375L18.9521 6.57715H18.6357L17.792 6.39551L17.3701 6.31641L16.6582 6.21973L16.0869 6.17578L15.3721 6.15527L14.6543 6.15234L14.1768 6.16406L13.6992 6.19043L13.2246 6.22852L12.5156 6.32227L11.8125 6.45996L11.4023 6.55957L10.9922 6.67676L10.7227 6.76758L10.459 6.86719L10.1982 6.98145L9.94336 7.10449L9.7002 7.24512L9.46582 7.40039L9.2959 7.52637L9.13477 7.66113L8.98242 7.81055L8.83594 7.96582L8.68945 8.1416L8.42871 8.50781L8.31445 8.69824L8.1709 8.96191L8.04199 9.23438L7.92188 9.50977L7.76074 9.93164L7.61426 10.3594L7.59961 9.84961L7.62305 9.56836L7.67871 9.34863L7.82813 8.94727L7.99219 8.55176L8.17383 8.16504L8.37305 7.78418L8.58691 7.41211L8.81543 7.05176L9.05566 6.69727L9.31348 6.35156L9.58301 6.01758L9.86133 5.69531L10.1543 5.38184L10.4561 5.07715L10.7637 4.80762L11.1738 4.51172L12.2197 3.87598L12.4746 3.70898L12.2432 3.68555Z" fill="#ECB1B7"/>
<path d="M7.51465 8.65723L7.63184 8.32324L7.76367 7.99219L7.90723 7.66992L8.06836 7.35059L8.24121 7.03711L8.42871 6.73535L8.62793 6.44238L8.83887 6.15527L9.06445 5.87695L9.30176 5.61328L9.54785 5.3584L9.80859 5.11523L10.0781 4.88672L10.3594 4.66992L10.6494 4.46777L10.9512 4.28027L11.2617 4.10742L11.5781 3.94922L11.9063 3.80859L12.2432 3.68555L12.4746 3.70898L12.2197 3.87598L11.4316 4.34766L11.1738 4.51172L10.9248 4.68457L10.6084 4.93945L10.4561 5.07715L10.1543 5.38184L9.86133 5.69531L9.58301 6.01758L9.31348 6.35156L9.05566 6.69727L8.81543 7.05176L8.58691 7.41211L8.37305 7.78418L8.17383 8.16504L7.99219 8.55176L7.82813 8.94727L7.67871 9.34863L7.64648 9.45996L7.61133 9.67969L7.60254 10.0195L7.61426 10.3594L7.57617 10.8574L7.54981 11.3613L7.54395 11.7012L7.54981 12.0381L7.59082 12.624L7.62598 12.873L7.72559 13.3623L7.79297 13.6025L7.875 13.8398L7.96875 14.0742L8.08008 14.3057L8.00977 14.5898L7.59375 14.4814L7.48242 14.2031L7.38574 13.9189L7.30078 13.6348L7.23047 13.3477L7.16895 13.0576L7.11035 12.6914L7.06934 12.3252L7.0459 11.9531L7.03711 11.5811L7.0459 11.209L7.07227 10.8398L7.11035 10.4707L7.16309 10.1016L7.2334 9.73242L7.31543 9.37207L7.40918 9.01172L7.51465 8.65723Z" fill="#E5D2CB"/>
<path d="M18.8701 4.125L19.1133 4.2627L19.3477 4.40625L19.5732 4.56152L19.79 4.72852L19.998 4.9043L20.2471 5.13574L20.4844 5.37891L20.71 5.63672L20.9238 5.90332L21.1289 6.18164L21.3193 6.46582L21.501 6.75586L21.6738 7.05762L21.8877 7.46484L22.084 7.875L22.2656 8.29102L22.3975 8.61328L22.5117 8.93848L22.6084 9.26953L22.6904 9.60645L22.7578 9.94336L22.8076 10.2832L22.8486 10.626L22.8721 10.9717L22.8838 11.3174L22.8809 11.666L22.8691 12.0117L22.8428 12.3574L22.793 12.8174L22.7256 13.2715L22.6406 13.7227L22.5732 13.3447L22.6494 12.709L22.6904 12.0645L22.6934 11.7422L22.6846 11.4199L22.6641 11.0977L22.626 10.7783L22.5762 10.4648L22.5264 10.2305L22.3945 9.77051L22.3125 9.54492L22.2188 9.32519L22.1133 9.1084L21.9961 8.89746L21.7207 8.48438L21.5684 8.28809L21.4043 8.10645L21.2285 7.93359L21.0439 7.77246L20.8535 7.62012L20.6543 7.47656L20.4463 7.34473L20.1621 7.18066L19.8691 7.03418L19.5645 6.89941L19.2568 6.7793L18.9463 6.6709L18.6357 6.57715H18.9521L19.0225 6.375L19.0752 6.16992L19.1133 5.96777L19.1309 5.7627L19.1396 5.55469L19.1309 5.34668L19.1133 5.1416L19.084 4.93359L19.0254 4.66113L18.9551 4.3916L18.8701 4.125Z" fill="#CD869C"/>
<path d="M6.97266 6.50684L7.09277 6.45703L7.21289 6.4248L7.33301 6.4043L7.52051 6.39258L7.70801 6.39844L8.08301 6.43652L7.43848 7.76953L7.32422 8.04199L7.21875 8.31738L7.06934 8.80664L7.01953 9.01758L6.90234 9.65625L6.84961 9.86426L6.75 10.1309L6.68555 10.2598L6.60352 10.0342L6.55078 9.74707L6.50098 8.8623L6.40137 7.91309L6.33984 7.48828V7.37402L6.35449 7.2627L6.38086 7.1543L6.42188 7.04883L6.47168 6.94629L6.5332 6.84961L6.60645 6.76465L6.68555 6.68262L6.77637 6.6123L6.87012 6.55371L6.97266 6.50684Z" fill="#F8DAD2"/>
<path d="M22.1162 6.84961L22.4502 6.78516L22.6201 6.75879L22.7871 6.74707L22.8984 6.75293L23.0127 6.77051L23.124 6.7998L23.2441 6.83789L23.3584 6.89062L23.4668 6.95801L23.5664 7.04004L23.6484 7.13086L23.7187 7.2334L23.7627 7.31836L23.792 7.40625L23.8096 7.5L23.8184 7.59668L23.7861 8.22656L23.6982 9.00879L23.5664 9.94336L23.5107 10.4121L23.2383 10.5176L23.0303 9.41016L22.9512 9.04395L22.8223 8.56348L22.6523 8.07422L22.5527 7.8252L22.1162 6.84961Z" fill="#C5839A"/>
<path d="M9.07031 8.53125L9.14941 8.4082L9.32813 8.18848L9.42773 8.08887L9.57129 7.96875L9.72363 7.86035L9.8877 7.76074L10.2275 7.59668L10.4063 7.52637L10.6787 7.43555L10.9512 7.3623L10.8662 7.96582L10.7666 8.56641L10.6523 9.16699L10.5205 9.76172L10.3711 10.3535L10.2041 10.9424L10.1338 11.124L10.04 11.3057L9.97852 11.3877L9.9082 11.4492L9.85547 11.4814L9.79395 11.5049L9.72363 11.5166L9.61816 11.4844L9.52148 11.4434L9.43066 11.3936L9.34863 11.335L9.24902 11.2412L9.16113 11.1357L9.08496 11.0186L8.96484 10.7637L8.88281 10.4883L8.83594 10.2187L8.81543 9.78516L8.8125 9.56836L8.82129 9.35156L8.83594 9.20508L8.89453 8.92676L8.93848 8.79199L8.99707 8.66016L9.07031 8.53125Z" fill="#FDFEFC"/>
<path d="M6.16699 10.7549L6.48047 10.7051L6.79395 10.6729L6.81445 11.0186L6.83789 12.3955L6.85547 12.7412L6.90527 13.1953L6.94629 13.4238L6.51562 13.3857L6.47754 12.9639L6.43066 12L6.38965 11.5752L6.35742 11.3672L6.31055 11.1621L6.24609 10.957L6.16699 10.7549Z" fill="#EAB7BB"/>
<path d="M6.16699 10.7549L6.24609 10.957L6.31055 11.1621L6.35742 11.3672L6.38965 11.5752L6.43066 12L6.47754 12.9639L6.50684 13.2803L6.18164 13.2539L6.12598 12.0029L6.12305 11.5869L6.14355 11.0332L6.16699 10.7549Z" fill="#A0566E"/>
<path d="M11.7305 11.5078L11.8594 11.458L11.9912 11.4229L12.1289 11.4082H12.2637L12.3984 11.4229L12.5332 11.4521L12.6621 11.499L12.7852 11.5576L12.8994 11.6279L13.0049 11.7158L13.0957 11.8096L13.1748 11.9209L13.2627 12.1025L13.3125 12.3105L13.0693 12.0557L12.9375 11.9326L12.7998 11.8242L12.7031 11.7598L12.6006 11.707L12.4951 11.666L12.3838 11.6396L12.2666 11.6279L12.1406 11.6309L12.0117 11.6396L11.8945 11.666L11.7861 11.707L11.5869 11.8301L11.3643 12.0322L10.9922 12.4307L11.083 12.1729L11.1416 12.0498L11.2148 11.9326L11.2969 11.8271L11.3877 11.7275L11.4902 11.6426L11.6045 11.5693L11.7305 11.5078Z" fill="#E2D7D0"/>
<path d="M7.93359 12.1201L8.05664 12.334L8.19141 12.5391L8.33496 12.7412L8.49023 12.9316L8.6543 13.1133L8.83008 13.2832L9.01758 13.4443L9.21387 13.5908L9.42188 13.7256L9.29004 13.7842L9.16699 13.8545L9.0498 13.9336L8.94141 14.0244L8.84473 14.124L8.7627 14.2354L8.70996 14.3262L8.63672 14.5254L8.61328 14.6338L8.51953 14.3232L8.19434 13.3975L8.09473 13.084L8.0127 12.7705L7.97168 12.5566L7.94531 12.3398L7.93359 12.1201Z" fill="#5E4563"/>
<path d="M14.4199 12.958L14.5781 12.8965L14.7393 12.8496L14.9004 12.8232L15.0645 12.8145L15.2314 12.8174L15.3955 12.835L15.5596 12.8672L15.8818 12.958L15.8057 13.0078L15.6475 13.0723L15.5215 13.1016L15.2637 13.1191L14.7861 13.1104L14.6338 13.0693L14.4199 12.958Z" fill="#E9C0B3"/>
<path d="M13.251 13.2598L13.7021 13.1074L14.1621 12.9697L14.2676 13.1982L14.3877 13.418L14.5752 13.6934L14.6807 13.8223L14.7949 13.9424L14.918 14.0537L15.0527 14.1563L15.0469 14.499L15.0205 14.6895L14.9678 14.8213L14.9268 14.877L14.8682 14.9268L14.7949 14.9707L14.6367 15.0059L14.4668 15.0293L14.3525 15.0322L14.124 15.0088L14.0156 14.9854L13.9102 14.9473L13.8105 14.8975L13.7197 14.8389L13.6348 14.7656L13.5615 14.6748L13.4824 14.5312L13.415 14.3818L13.3652 14.2295L13.2949 13.9102L13.2568 13.5L13.251 13.2598Z" fill="#F0DFD1"/>
<path d="M16.1162 12.9814L16.377 13.0225L16.6348 13.0781L16.8896 13.1484L17.1387 13.2334L17.0127 14.0361L16.9805 14.1709L16.8955 14.4229L16.8369 14.54L16.7637 14.6543L16.6758 14.7598L16.6025 14.8301L16.5234 14.8887L16.4385 14.9385L16.3477 14.9736L16.2217 15.0088L16.0898 15.0293L15.958 15.0352L15.8203 15.0293L15.5625 14.9854L15.4951 14.9385L15.4395 14.8857L15.4014 14.8271L15.3516 14.6924L15.3398 14.6162L15.3281 14.1592L15.4482 14.0508L15.5566 13.9365L15.6563 13.8135L15.791 13.6172L15.9082 13.4121L16.1162 12.9814Z" fill="#E6DCD2"/>
<path d="M14.7217 13.3652L15.1758 13.3594L15.6299 13.3682L15.5156 13.5264L15.3896 13.6699L15.2549 13.8047L15.1055 13.9277L14.7217 13.3652Z" fill="#B0577F"/>
<path d="M17.3584 13.3623L17.9707 13.6611L17.9795 13.8955L17.9678 14.1328L17.9268 14.4463L17.8916 14.5986L17.8418 14.748L17.7832 14.8887L17.71 15.0264L17.625 15.1553L17.5225 15.2725L17.4053 15.3838L17.2822 15.4805L17.0215 15.6387L16.8867 15.7031L16.6963 15.7734L16.5029 15.832L16.3037 15.876L15.8965 15.9316L15.3838 15.9609L15.082 15.9639L14.4844 15.9551L14.1797 15.9375L13.8809 15.9023L13.6846 15.8672L13.4941 15.8174L13.3066 15.7529L13.0371 15.627L12.7852 15.457L12.6768 15.3604L12.583 15.252L12.5039 15.1377L12.4365 15.0117L12.3809 14.8828L12.3369 14.748L12.2842 14.4668L12.2754 14.1797L12.3018 13.8984L12.4102 13.8018L12.5244 13.7197L13.0254 13.4473L13.0693 13.8223L13.1338 14.2061L13.1807 14.3936L13.2451 14.5723L13.3008 14.6865L13.3652 14.792L13.4385 14.8887L13.5234 14.9766L13.626 15.0586L13.7432 15.1289L13.8604 15.1875L13.9775 15.2314L14.0977 15.2637L14.2207 15.2783L14.4668 15.2725L14.5898 15.2549L14.7129 15.2227L14.8711 15.167L15.0234 15.0967L15.1729 15.0117L15.29 15.0938L15.4131 15.1611L15.5449 15.2139L15.6797 15.252L15.8145 15.2783L15.9521 15.2871L16.0928 15.2812L16.2275 15.2637L16.3652 15.2285L16.4941 15.1787L16.6172 15.1113L16.7373 15.0293L16.8281 14.9502L16.9746 14.7803L17.0361 14.6836L17.1035 14.5518L17.1592 14.4111L17.2031 14.2646L17.2559 14.042L17.3584 13.3623Z" fill="#E1CDBD"/>
<path d="M22.5732 13.3447L22.6406 13.7227L22.6172 13.9248L22.5791 14.127L22.5293 14.3232L22.4648 14.5166L22.3887 14.707L22.21 15.0732L22.1045 15.252L21.9492 15.4775L21.7793 15.6943L21.5947 15.9023L21.4014 16.0957L21.1963 16.2773L20.9824 16.4443L20.8418 16.1748L21.2314 15.835L21.416 15.6533L21.5918 15.4629L21.7559 15.2637L21.9082 15.0527L22.0166 14.8799L22.1133 14.6982L22.2012 14.5137L22.3125 14.2295L22.4092 13.9365L22.5732 13.3447Z" fill="#9A9FAE"/>
<path d="M9.42188 13.7256L9.63574 13.6582L9.85254 13.6084L10.0693 13.5762L10.2891 13.5615H10.5088L10.7285 13.5732L10.9482 13.5996L11.165 13.6406L11.3818 13.6934L11.5957 13.7578L12.0059 13.916L12.0498 14.5635L11.5576 14.8682L11.2734 15.0146L11.0303 15.0967L10.9307 15.1113H10.7373L10.5908 15.0938L10.4473 15.0645L9.71191 14.8594L9.36914 14.8125L8.84766 14.7832L8.61328 14.6338L8.63672 14.5254L8.70996 14.3262L8.7627 14.2354L8.84473 14.124L8.94141 14.0244L9.0498 13.9336L9.16699 13.8545L9.29004 13.7842L9.42188 13.7256Z" fill="#E79FA6"/>
<path d="M18.2197 13.6875L18.8789 13.6377L19.2129 13.623H19.5439L19.7666 13.6348L19.9834 13.6611L20.2002 13.6992L20.3584 13.7402L20.6689 13.8486L20.8213 13.9219L21.1348 14.1123L21.2813 14.2236L21.4189 14.3438L21.5771 14.5283L21.6475 14.6309L21.6064 14.7773L21.5508 14.915L21.4834 15.0439L21.4043 15.1699L21.2168 15.4014L21.0615 15.5625L20.8945 15.7119L20.4375 15.4863L19.9746 15.2754L19.5088 15.0791L19.0342 14.8945L18.5537 14.7246L18.1846 14.5312L18.2197 13.6875Z" fill="#DC969F"/>
<path d="M8.08008 14.3057L8.21191 14.5576L8.3584 14.8008L8.51953 15.0322L8.69238 15.2549L8.87695 15.4658L9.07324 15.668L9.28125 15.8584L9.49805 16.0371L9.72363 16.2041L9.95801 16.3623L10.2012 16.5088L10.4502 16.6436L10.7051 16.7666L10.9658 16.875L11.2295 16.9746L11.8916 17.1738L12.2871 17.2734L12.6826 17.3613L13.084 17.4375L13.4883 17.499L13.8955 17.5459L14.3027 17.584L14.71 17.6074L15.1172 17.6191L15.5273 17.6162L15.9346 17.6045L16.3447 17.5781L16.749 17.54L17.1533 17.4902L17.5576 17.4258L18.4189 17.2324L18.7061 17.1562L19.2715 16.9805L19.5498 16.8779L19.8223 16.7637L20.0859 16.6377L20.3467 16.5L20.5986 16.3447L20.8418 16.1748L20.9824 16.4443L20.6719 16.6406L20.3525 16.8193L20.0273 16.9863L19.6934 17.1357L19.3506 17.2705L19.0078 17.3936L18.6562 17.5049L18.3018 17.6016L17.8271 17.7158L17.3467 17.8125L16.8662 17.8945L16.3975 17.9355L15.9287 17.9648L15.46 17.9824L14.9883 17.9854L14.5166 17.9795L14.0479 17.9561L13.5791 17.918L13.1104 17.8652L12.6445 17.7979L12.1816 17.7129L11.7246 17.6104L11.2676 17.4932L10.6992 17.2969L10.1367 17.0625L9.86426 16.9277L9.60059 16.7812L9.34277 16.6201L9.09668 16.4473L8.8623 16.2568L8.69238 16.1074L8.53418 15.9463L8.38477 15.7764L8.11523 15.4219L7.99512 15.2432L7.88379 15.0586L7.73144 14.7744L7.59375 14.4814L8.00977 14.5898L8.08008 14.3057Z" fill="#A3B6BC"/>
<path d="M11.0303 15.0967L11.1533 15.0586L11.3877 14.9619L11.5576 14.8682L12.0498 14.5635L12.1377 14.8711L12.1992 15.0205L12.2666 15.167L12.3486 15.3047L12.4395 15.4365L12.5449 15.5566L12.6621 15.665L12.7939 15.7617L12.9814 15.873L13.1748 15.9668L13.374 16.043L13.5762 16.1045L13.7842 16.1514L13.998 16.1895L14.3203 16.2217L14.6455 16.2393L14.9707 16.2451L15.29 16.2422L15.5713 16.2217L16.1455 16.1602L16.4297 16.1104L16.6143 16.0664L16.9746 15.9434L17.1445 15.8643L17.3115 15.7676L17.4697 15.6592L17.5898 15.5625L17.6953 15.457L17.7891 15.3398L17.9531 15.0879L18.0205 14.9531L18.1084 14.7451L18.1846 14.5312L18.5537 14.7246L18.8496 15.1553L18.7646 15.3164L18.6709 15.4717L18.5684 15.6152L18.457 15.7529L18.2988 15.9258L18.1289 16.0869L17.9473 16.2393L17.5635 16.5176L16.7549 17.0186L17.0977 17.168L16.6934 17.2295L16.2861 17.2764L15.876 17.3027L15.4688 17.3174L15.0586 17.3145L14.6484 17.2998L13.8311 17.2324L13.0986 17.1357L12.4424 17.0098L12.1172 16.9277L11.7979 16.8369L11.4814 16.7314L11.1709 16.6113L10.8662 16.4766L10.5674 16.3301L10.1396 16.0781L9.93164 15.9375L9.72949 15.7881L9.55957 15.6416L9.23145 15.3311L9.08496 15.1611L8.99707 15.041L8.84766 14.7832L9.36914 14.8125L9.71191 14.8594L10.4473 15.0645L10.5908 15.0938L10.834 15.1143L11.0303 15.0967Z" fill="#F1DBC4"/>
<path d="M18.5537 14.7246L19.0342 14.8945L19.5088 15.0791L19.9746 15.2754L20.4375 15.4863L20.8945 15.7119L20.6748 15.8789L20.4463 16.0313L20.2148 16.1777L19.9746 16.3096L19.7314 16.4355L19.418 16.5762L19.0986 16.7021L18.7734 16.8135L18.4424 16.9102L18.1084 16.9951L17.7715 17.0654L17.4346 17.124L17.0977 17.168L16.7549 17.0186L17.5635 16.5176L17.9473 16.2393L18.1289 16.0869L18.2988 15.9258L18.457 15.7529L18.5684 15.6152L18.6709 15.4717L18.7646 15.3164L18.8496 15.1553L18.5537 14.7246Z" fill="#DEB6AB"/>
<path d="M6.64746 17.1357L6.92871 17.3994L7.2041 17.6748L8.0127 18.5156L8.47559 18.9609L8.87109 19.2891L9.0791 19.4443L9.29297 19.585L9.51855 19.7197L9.43945 20.5342L9.23438 20.4141L9.03809 20.2822L8.85059 20.1387L8.67188 19.9863L8.32617 19.6611L7.83691 19.1484L7.46191 18.6943L7.2832 18.457L7.01367 18.0439L6.83496 17.6953L6.76172 17.5137L6.7002 17.3262L6.64746 17.1357Z" fill="#DFB8B1"/>
<path d="M11.5957 17.918L12.0352 18.0176L12.4775 18.1025L12.9229 18.1758L13.374 18.2344L13.8252 18.2812L14.2764 18.3135L14.7275 18.3311L15.1816 18.334L15.6328 18.3223L16.084 18.2959L16.5352 18.2549L16.9834 18.1992L17.4287 18.1289L17.8711 18.041L18.3105 17.9385L18.7471 17.8184L19.1748 17.6807L19.5996 17.5283L20.0215 17.3584L20.4346 17.168L20.2471 17.3086L20.0537 17.4375L19.8545 17.5576L19.6494 17.666L19.3682 17.7979L19.0811 17.915L18.7852 18.0205L18.1201 18.2256L17.4434 18.3896L17.1006 18.4541L16.7549 18.5068L16.4092 18.5449L16.0605 18.5713L15.7119 18.5801H14.3965L13.96 18.5625L13.5205 18.5332L13.0869 18.4834L12.7969 18.4395L12.5127 18.3809L12.2256 18.3135L11.8623 18.2139L11.2588 18.0234L10.793 17.8359L10.5674 17.7246L10.3477 17.5986L10.1367 17.458L10.3828 17.5254L11.3496 17.8506L11.5957 17.918Z" fill="#A98F8E"/>
<path d="M16.4326 18.8789L16.8457 18.8262L17.2559 18.7588L17.6631 18.6738L18.0674 18.5742L18.4658 18.4629L18.8643 18.3369L19.2568 18.1992L20.0273 17.8916L19.793 18.0937L19.5527 18.2842L19.3037 18.4629L19.0459 18.6299L18.7793 18.7822L18.5068 18.9229L18.2285 19.0518L17.9443 19.1689L17.6543 19.2744L17.3613 19.3652L17.0654 19.4473L16.7637 19.5146L16.7666 19.7842L16.623 19.459L16.5762 19.3799L16.4824 19.2773L16.377 19.2187L16.2129 19.1807L15.8789 19.1309L15.375 19.1074L14.6865 19.1045L14.3145 19.1279L14.1357 19.1631L14.0186 19.1953L13.7959 19.292L13.6963 19.3564L13.6025 19.4355L13.5146 19.5322L12.1523 19.0898L11.8154 18.9639L11.4873 18.8232L11.2764 18.7178L11.0713 18.6006L10.875 18.4717L10.6846 18.3311L10.5059 18.1729L10.3359 17.9971L11.2295 18.3311L11.6836 18.4834L12.1406 18.6152L12.4512 18.6943L13.0723 18.8145L13.3887 18.8584L13.7051 18.8848L14.0244 18.8994L15.6299 18.9082L16.4326 18.8789Z" fill="#C9A39F"/>
<path d="M21.6504 19.7344L21.7852 19.6816L21.9111 19.6201L22.0254 19.5439L22.1309 19.459L22.3213 19.2627L22.8486 18.6064L22.9453 18.5068L23.1592 18.3311L23.3965 18.4541L23.6221 18.5977L23.7568 18.2871L23.8125 18.5186L23.8037 19.0254L23.6631 19.0459L23.5342 19.0781L23.4111 19.1279L23.2998 19.1924L23.1943 19.2715L23.0977 19.3623L23.0127 19.4648L22.9365 19.582L22.8193 19.708L22.6934 19.8193L22.5586 19.916L22.415 19.998L22.2656 20.0713L21.9492 20.1797L21.6152 20.2559L21.1084 20.3232L20.6104 20.3584L20.3965 19.4854L20.6924 19.6289L20.8447 19.6934L21.1084 19.7666L21.3223 19.79L21.4307 19.7842L21.5391 19.7666L21.6504 19.7344Z" fill="#CFA7A5"/>
<path d="M23.8125 18.5186L23.9121 18.9316L23.9326 19.0723L23.9414 19.2129L23.9326 19.3506L23.9121 19.4414L23.8828 19.5264L23.8389 19.6113L23.7422 19.667L23.6426 19.6992L23.543 19.7168H23.4404L23.2324 19.6846L22.9365 19.582L23.0127 19.4648L23.0977 19.3623L23.1943 19.2715L23.2998 19.1924L23.4111 19.1279L23.5342 19.0781L23.6631 19.0459L23.8037 19.0254L23.8125 18.5186Z" fill="#C19396"/>
<path d="M10.1777 18.7383L10.4238 18.7793L10.4531 19.1836L10.4678 19.5879L10.4502 20.7568L10.4648 21.4688L10.4619 22.0605L10.4209 22.5352L10.3623 22.3945L10.3184 22.2539L10.2832 22.1074L10.248 21.8848L10.2275 21.6621L10.1748 20.5928L10.1631 19.9746V19.3564L10.1777 18.7383Z" fill="#FBF7F0"/>
<path d="M9.63281 19.2744L9.73535 19.0254L9.85547 18.7852L9.87305 19.2686L9.86426 19.5117L9.79981 20.3291L9.73828 19.7988L9.69141 19.5352L9.63281 19.2744Z" fill="#71637B"/>
<path d="M13.5146 19.5322L13.6025 19.4355L13.6963 19.3564L13.7959 19.292L13.9043 19.2393L14.1357 19.1631L14.3145 19.1279L14.502 19.1104L14.6865 19.1045L15.375 19.1074L15.8789 19.1309L16.2129 19.1807L16.377 19.2188L16.4824 19.2773L16.5762 19.3799L16.623 19.459L16.7666 19.7842L16.8252 20.9121L16.8311 21.2871L16.8223 21.6621L16.7959 22.0371L16.7754 22.1191L16.7432 22.1895L16.6992 22.248L16.6465 22.3008L16.5176 22.3828L16.4062 22.4297L16.292 22.4678L16.0664 22.5205L15.7354 22.5557L15.4043 22.5732L15.0732 22.5791L14.7393 22.5674L14.4082 22.541L14.0801 22.4941L13.5937 22.3916L13.1191 22.2451L13.1162 21.6328L13.1309 21.3223L13.1543 21.0176L13.1924 20.7129L13.2451 20.4111L13.2979 20.1855L13.4326 19.7461L13.5146 19.5322ZM13.6611 19.8105L13.582 20.042L13.5146 20.2764L13.418 20.751L13.3594 21.2373L13.333 21.6035L13.3242 21.9668L13.5264 22.043L13.7344 22.1074L13.9424 22.1631L14.1562 22.2041L14.4404 22.2451L14.7275 22.2686L15.0176 22.2773L15.5977 22.2656L15.8848 22.2422L16.0811 22.21L16.1836 22.1836L16.3389 22.1162L16.4385 22.0342L16.4736 21.9844L16.5 21.9229L16.5146 21.8496L16.5322 21.5508L16.5381 21.252L16.5234 20.6543L16.4912 19.9541L16.4531 19.7402L16.418 19.6377L16.3887 19.5762L16.3037 19.4736L16.248 19.4355L16.1865 19.4063L16.1074 19.3857L15.8174 19.3447L15.5215 19.3184L15.2285 19.3096H14.9326L14.2441 19.3506L14.0566 19.4033L13.9687 19.4473L13.8896 19.5L13.8164 19.5645L13.752 19.6377L13.7021 19.7197L13.6611 19.8105Z" fill="#251930"/>
<path d="M13.6611 19.8105L13.7021 19.7197L13.752 19.6377L13.8164 19.5645L13.8896 19.5L13.9688 19.4473L14.0566 19.4033L14.2441 19.3506L14.9326 19.3096H15.2285L15.5215 19.3184L15.8174 19.3447L16.1074 19.3857L16.1865 19.4063L16.251 19.4355L16.3037 19.4736L16.3887 19.5762L16.418 19.6377L16.4531 19.7402L16.4912 19.9541L16.5234 20.6543L16.5381 21.252L16.5322 21.5508L16.5146 21.8496L16.5 21.9229L16.4736 21.9814L16.3916 22.0781L16.2803 22.1484L16.1836 22.1836L16.0811 22.21L15.8848 22.2422L15.3076 22.2773H15.0176L14.7275 22.2686L14.4404 22.2451L14.1563 22.2041L13.9424 22.1631L13.7344 22.1074L13.5264 22.043L13.3242 21.9668L13.333 21.6035L13.3594 21.2373L13.418 20.751L13.5146 20.2764L13.582 20.042L13.6611 19.8105ZM13.7637 20.0391L13.6992 20.3379L13.6436 20.6367L13.6025 20.9385L13.5557 21.3955L13.5234 21.8525L13.8018 21.9258L14.083 21.9844L14.3672 22.0313L14.6543 22.0635L14.9414 22.0811L15.2285 22.0869L15.5156 22.0781L15.8027 22.0547L15.9844 22.0195L16.0752 21.9902L16.2129 21.9199L16.292 21.8379L16.3184 21.7852L16.3359 21.7266L16.3418 21.6563L16.3447 21.3047L16.333 20.9502L16.2686 19.8955L16.2539 19.5439L15.5537 19.5059L14.8506 19.4912L14.6162 19.5L14.1504 19.541L14.0713 19.5615L14.0068 19.5938L13.9541 19.6377L13.9072 19.6934L13.834 19.8252L13.7637 20.0391Z" fill="#938491"/>
<path d="M19.6201 21.6826L19.6787 21.4453L19.7285 21.2051L19.8457 20.4727L19.8926 20.2295L19.9482 19.9922L20.0244 19.7578L20.083 19.6084L20.1562 19.459L20.2383 19.3154L20.2646 21.3281L20.2559 22.3359L20.2295 23.3408L20.2002 24.0117L20.1094 25.3506L19.6494 25.3564L19.1865 25.3506L18.7236 25.3301L18.0352 25.2715L17.3496 25.166L17.8037 24.5361L18.0557 24.4922L18.3047 24.4336L17.9648 24.4746L16.6055 24.7061L15.6973 24.835L14.9854 24.8848L14.5576 24.8936L13.7021 24.8818L13.5879 25.0518L13.1953 24.9023L12.5889 24.7061L12.3838 24.627L12.1846 24.5361L11.9883 24.4336L11.6162 24.2051L12.1318 24.252L12.6475 24.2871L13.1631 24.3076L13.6816 24.3164L14.2002 24.3105L14.7158 24.293L15.2344 24.2637L15.75 24.2197L16.2627 24.1641L16.7754 24.0938L17.4814 23.9443L17.9473 23.8096L18.1729 23.7275L18.3926 23.6338L18.6035 23.5195L18.8086 23.3906L18.9258 23.2764L19.0283 23.1563L19.1162 23.0273L19.1982 22.8896L19.333 22.6025L19.4883 22.1426L19.6201 21.6826Z" fill="#D2A9A6"/>
<path d="M13.7637 20.0391L13.834 19.8252L13.9072 19.6934L13.9541 19.6377L14.0068 19.5937L14.0713 19.5615L14.1504 19.541L14.6162 19.5L14.8506 19.4912L15.5537 19.5059L16.2539 19.5439L16.2686 19.8955L16.333 20.9502L16.3447 21.3047L16.3359 21.7266L16.3184 21.7852L16.2539 21.8818L16.1602 21.9521L16.0752 21.9902L15.9844 22.0195L15.8027 22.0547L15.5156 22.0781L15.2285 22.0869L14.9414 22.0811L14.6543 22.0635L14.3672 22.0313L14.083 21.9844L13.8018 21.9258L13.5234 21.8525L13.5557 21.3955L13.6025 20.9385L13.6436 20.6367L13.6992 20.3379L13.7637 20.0391ZM13.9072 20.2793L13.8018 20.3906L14.0625 20.3291L14.1738 20.4404L14.417 20.6455L14.6836 20.8213L14.8213 20.8975L14.8506 21.8555L15.4482 21.8174L16.04 21.75L16.1133 21.7559L16.0723 20.8887L15.2607 20.6777L15.8437 20.5781L16.1133 20.5928L16.0547 20.3994L15.9287 20.1357L15.832 20.0127L15.7236 19.9395L16.0488 19.9512L15.917 19.8867L15.7822 19.834L15.6445 19.7988L15.3604 19.7607L14.9971 19.7549L14.5576 19.7725L14.2676 19.7695L14.2061 19.7783L14.1563 19.8018L14.0742 19.8779L14.001 20.0098L13.9072 20.2793ZM13.8252 20.6045L13.7783 20.8857L13.749 21.167L13.7344 21.4482L13.7314 21.7324L14.5986 21.876L14.625 21.0029L14.3643 20.8564L14.0977 20.7246L13.8252 20.6045Z" fill="#5B344F"/>
<path d="M13.9072 20.2793L14.001 20.0098L14.0742 19.8779L14.1562 19.8018L14.2061 19.7783L14.2676 19.7695L14.5576 19.7725L14.9971 19.7549L15.3604 19.7607L15.6445 19.7988L15.7822 19.834L15.917 19.8867L16.0488 19.9512L15.7236 19.9395L15.3018 19.9043L14.8799 19.8838L14.6689 19.8867L14.458 19.9043L14.3818 19.916L14.2441 19.9746L14.1533 20.042L13.9072 20.2793Z" fill="#8C5D72"/>
<path d="M13.9072 20.2793L14.1533 20.042L14.2441 19.9746L14.3115 19.9395L14.3818 19.916L14.6689 19.8867L15.0908 19.8896L15.7236 19.9395L15.7822 19.9717L15.873 20.0566L15.9287 20.1357L16.0547 20.3994L15.3076 20.2793L15.0557 20.2471L14.7246 20.2266L14.5576 20.2324L14.3906 20.25L14.2266 20.2822L13.8018 20.3906L13.9072 20.2793Z" fill="#8A3A53"/>
<path d="M14.0625 20.3291L14.2266 20.2822L14.3906 20.25L14.5576 20.2324H14.8887L15.3076 20.2793L16.0547 20.3994L16.1133 20.5928L15.1494 20.5488L15.0176 20.8389L15.5566 20.9121L15.4453 21.0146L15.3516 21.126L15.2725 21.2461L15.2051 21.3779L15.1553 21.5156L15.1172 21.6621L16.04 21.75L15.4482 21.8174L14.8506 21.8555L14.8213 20.8975L14.6836 20.8213L14.417 20.6455L14.1738 20.4404L14.0625 20.3291Z" fill="#E4ABAB"/>
<path d="M9.7998 20.3291L9.80566 20.2383L9.84375 20.5049L9.89063 21.0381L9.94336 22.6436L9.9668 23.0449L10.0166 23.6484L10.0635 24.0469L10.2129 24.9404L10.2422 25.2393L10.251 25.4385L10.248 25.6406L10.2275 25.8428L9.91699 25.9277L9.89941 25.6348L9.77344 24.4717L9.76172 24.1787L9.7207 23.751L9.69727 23.3232L9.68262 22.4678L9.71191 21.6123L9.7998 20.3291Z" fill="#FBF3E8"/>
<path d="M15.1494 20.5488L15.8438 20.5781L15.2607 20.6777L16.0723 20.8887L16.1133 21.7559L15.1172 21.6621L15.1553 21.5156L15.2051 21.3779L15.2725 21.2461L15.3516 21.126L15.4453 21.0146L15.5566 20.9121L15.0176 20.8389L15.1494 20.5488Z" fill="#8A3254"/>
<path d="M13.8252 20.6045L14.0977 20.7246L14.3643 20.8564L14.625 21.0029L14.5986 21.876L13.7314 21.7324L13.7344 21.4482L13.749 21.167L13.7783 20.8857L13.8252 20.6045Z" fill="#B0CCCC"/>
<path d="M16.2891 24.9932L17.0332 24.7236L17.2881 24.6475L17.543 24.5859L17.8037 24.5361L17.3496 25.166L18.0352 25.2715L18.7236 25.3301L19.1865 25.3506L19.6494 25.3564L20.1094 25.3506L20.0449 25.9307L20.0186 26.0801L19.9775 26.2148L19.9424 26.2998L19.8926 26.376L19.8369 26.4434L19.7666 26.499L19.6816 26.5459L19.3682 26.6367L18.9434 26.7188L18.5068 26.7627L18.29 26.7656L17.8564 26.7393L17.6426 26.71L17.4287 26.666L17.2207 26.6104L17.0156 26.543L16.8486 26.4551L16.7197 26.3408L16.6494 26.2529L16.5879 26.1533L16.5381 26.0479L16.4795 25.8779L16.4355 25.6992L16.3301 25.1572L16.2891 24.9932Z" fill="#C48A96"/>
<path d="M12.7969 24.7705L13.1953 24.9023L13.5879 25.0518L13.4824 25.7695L13.4414 25.9541L13.3857 26.124L13.3389 26.2324L13.2773 26.3291L13.207 26.417L13.0723 26.5254L12.9902 26.5693L12.8965 26.6045L12.4893 26.6924L12.0732 26.7422L11.7949 26.751L11.5166 26.7422L11.2354 26.7158L10.96 26.6719L10.6875 26.6133L10.4209 26.5371L10.3271 26.5049L10.248 26.4609L10.1836 26.4053L10.0723 26.2617L10.0283 26.1797L9.91699 25.9277L10.6787 25.7139L11.2559 25.6055L11.9502 25.5059L12.2959 25.4443L12.5244 25.3945L12.75 25.3359L12.9756 25.2627L12.7969 24.7705Z" fill="#C79698"/>
</g>
<defs>
<clipPath id="clip0_732_12945">
<rect width="30" height="30" fill="white"/>
</clipPath>
</defs>
</svg>
