<svg width="83" height="57" viewBox="0 0 83 57" fill="none" xmlns="http://www.w3.org/2000/svg">
<path fill-rule="evenodd" clip-rule="evenodd" d="M35.7945 27.6166C33.571 26.8755 31.1229 27.3108 30.2056 27.6166C29.865 27.7301 29.4969 27.5461 29.3834 27.2055C29.2699 26.8649 29.4539 26.4968 29.7945 26.3833C30.8771 26.0224 33.629 25.5245 36.2056 26.3833C36.5461 26.4968 36.7302 26.8649 36.6167 27.2055C36.5032 27.5461 36.135 27.7301 35.7945 27.6166Z" fill="#222222"/>
<path fill-rule="evenodd" clip-rule="evenodd" d="M51.6656 28.0573C49.8875 26.9905 47.9446 27.3222 47.2414 27.6035C46.9081 27.7368 46.5298 27.5747 46.3965 27.2414C46.2632 26.9081 46.4253 26.5298 46.7586 26.3965C47.7221 26.0111 50.1125 25.6095 52.3344 26.9426C52.6423 27.1273 52.7421 27.5266 52.5574 27.8344C52.3727 28.1422 51.9734 28.242 51.6656 28.0573Z" fill="#222222"/>
<path fill-rule="evenodd" clip-rule="evenodd" d="M31.6777 32.825C30.64 32.8093 29.7034 32.9751 29.1786 33.125C28.8334 33.2236 28.4737 33.0238 28.375 32.6786C28.2764 32.3334 28.4763 31.9737 28.8215 31.875C29.4633 31.6916 30.5267 31.5074 31.6973 31.5251C32.8637 31.5427 34.1995 31.7617 35.3344 32.4427C35.6423 32.6274 35.7421 33.0266 35.5574 33.3345C35.3727 33.6423 34.9734 33.7421 34.6656 33.5574C33.8005 33.0384 32.7197 32.8407 31.6777 32.825Z" fill="#222222"/>
<path fill-rule="evenodd" clip-rule="evenodd" d="M49.2633 33.3249C48.418 33.3097 47.6413 33.4714 47.2056 33.6167C46.865 33.7302 46.4969 33.5461 46.3834 33.2056C46.2699 32.865 46.4539 32.4969 46.7945 32.3834C47.3587 32.1953 48.2821 32.007 49.2867 32.0251C50.2885 32.0432 51.441 32.2682 52.39 32.98C52.6772 33.1954 52.7354 33.6028 52.52 33.89C52.3046 34.1772 51.8972 34.2354 51.61 34.02C50.9591 33.5318 50.1116 33.3402 49.2633 33.3249Z" fill="#222222"/>
<path fill-rule="evenodd" clip-rule="evenodd" d="M41 8C27.3838 8 16.5 18.3802 16.5 31C16.5 43.6198 27.3838 54 41 54C54.6162 54 65.5 43.6198 65.5 31C65.5 18.3802 54.6162 8 41 8ZM13.5 31C13.5 16.5579 25.8974 5 41 5C56.1026 5 68.5 16.5579 68.5 31C68.5 45.4421 56.1026 57 41 57C25.8974 57 13.5 45.4421 13.5 31Z" fill="#222222"/>
<path fill-rule="evenodd" clip-rule="evenodd" d="M68.9574 36.2497C68.6015 36.8567 68.1553 37.5524 67.5786 38.0937L65.5255 35.9063C65.7689 35.6778 66.036 35.3011 66.3693 34.7325C66.474 34.5538 66.6054 34.3189 66.7472 34.0653C66.967 33.6721 67.212 33.2338 67.4223 32.89C68.1416 31.7139 69.3721 30 71.552 30C77.18 30 82.052 34.0921 82.052 39.5C82.052 44.9079 77.18 49 71.552 49C67.9352 49 64.6915 47.3407 62.7893 44.739L65.2111 42.9683C66.5183 44.7563 68.8403 46 71.552 46C75.8651 46 79.052 42.9286 79.052 39.5C79.052 36.0714 75.8651 33 71.552 33C71.1581 33 70.7088 33.2663 69.9816 34.4553C69.7728 34.7967 69.6106 35.0893 69.436 35.4046C69.295 35.659 69.1458 35.9282 68.9574 36.2497Z" fill="#222222"/>
<path fill-rule="evenodd" clip-rule="evenodd" d="M13.5946 36.2497C13.9505 36.8567 14.3967 37.5524 14.9734 38.0937L17.0265 35.9063C16.7831 35.6778 16.516 35.3011 16.1827 34.7325C16.078 34.5538 15.9466 34.3189 15.8048 34.0653C15.585 33.6721 15.34 33.2338 15.1297 32.89C14.4104 31.7139 13.1799 30 11 30C5.37198 30 0.499994 34.0921 0.499994 39.5C0.499994 44.9079 5.37198 49 11 49C14.6168 49 17.8605 47.3407 19.7627 44.739L17.3409 42.9683C16.0337 44.7563 13.7117 46 11 46C6.68689 46 3.49999 42.9286 3.49999 39.5C3.49999 36.0714 6.68689 33 11 33C11.3939 33 11.8432 33.2663 12.5704 34.4553C12.7792 34.7967 12.9414 35.0893 13.116 35.4046C13.257 35.659 13.4062 35.9282 13.5946 36.2497Z" fill="#222222"/>
<path fill-rule="evenodd" clip-rule="evenodd" d="M72.1607 36.6085C73.7715 37.1061 75.1616 37.8385 75.9678 38.376C76.3124 38.6058 76.4056 39.0714 76.1758 39.4161C75.946 39.7607 75.4804 39.8538 75.1358 39.6241C74.442 39.1616 73.1821 38.494 71.7179 38.0416C71.0893 37.8474 70.4375 37.6973 69.7867 37.6167C70.7379 38.2168 71.747 39.2133 72.7226 41.1646C72.9078 41.5351 72.7577 41.9856 72.3872 42.1708C72.0167 42.3561 71.5662 42.2059 71.381 41.8354C70.4383 39.9502 69.535 39.1935 68.8047 38.7762C68.4959 38.5997 68.2144 38.4803 67.9165 38.3538C67.8373 38.3202 67.7569 38.2861 67.6746 38.2503C67.3069 38.0905 66.8793 37.8882 66.5214 37.5304C66.3304 37.3393 66.2569 37.0602 66.329 36.7998C66.4011 36.5394 66.6077 36.338 66.8699 36.2724C68.656 35.8259 70.557 36.113 72.1607 36.6085Z" fill="#222222"/>
<path fill-rule="evenodd" clip-rule="evenodd" d="M10.3911 36.6085C8.7803 37.1061 7.39018 37.8385 6.58396 38.376C6.23931 38.6058 6.14618 39.0714 6.37594 39.4161C6.60571 39.7607 7.07136 39.8538 7.41601 39.6241C8.10978 39.1616 9.36966 38.494 10.8339 38.0416C11.4624 37.8474 12.1143 37.6973 12.7651 37.6167C11.8138 38.2168 10.8048 39.2133 9.82916 41.1646C9.64392 41.5351 9.79409 41.9856 10.1646 42.1708C10.5351 42.3561 10.9856 42.2059 11.1708 41.8354C12.1134 39.9502 13.0168 39.1935 13.7471 38.7762C14.0559 38.5997 14.3374 38.4803 14.6353 38.3538C14.7145 38.3202 14.7948 38.2861 14.8771 38.2503C15.2449 38.0905 15.6725 37.8882 16.0303 37.5304C16.2214 37.3393 16.2949 37.0602 16.2228 36.7998C16.1506 36.5394 15.944 36.338 15.6819 36.2724C13.8958 35.8259 11.9947 36.113 10.3911 36.6085Z" fill="#222222"/>
<path fill-rule="evenodd" clip-rule="evenodd" d="M38.9216 6.75406C39.3335 6.7107 39.7026 7.00949 39.7459 7.42143C39.9195 9.07003 39.9193 11.7014 39.3581 14.296C38.801 16.8716 37.6591 19.5541 35.4302 21.1144C35.0908 21.3519 34.6232 21.2694 34.3856 20.93C34.1481 20.5907 34.2306 20.1231 34.57 19.8855C36.341 18.6458 37.3658 16.4116 37.892 13.9789C38.4141 11.5652 38.414 9.09651 38.2542 7.57845C38.2108 7.16651 38.5096 6.79742 38.9216 6.75406Z" fill="#222222"/>
<path fill-rule="evenodd" clip-rule="evenodd" d="M38.5841 6.87592C38.9287 6.64616 39.3944 6.73929 39.6241 7.08393C41.0314 9.19486 43.402 14.8233 41.7212 20.706C41.6074 21.1043 41.1923 21.3349 40.794 21.2211C40.3958 21.1073 40.1651 20.6922 40.2789 20.2939C41.7982 14.9766 39.6354 9.80506 38.376 7.91598C38.1463 7.57134 38.2394 7.10568 38.5841 6.87592Z" fill="#222222"/>
<path fill-rule="evenodd" clip-rule="evenodd" d="M38.3192 7.18564C38.4928 6.80955 38.9384 6.64539 39.3145 6.81897C41.7116 7.92533 46.2502 11.9705 46.2502 19.4999C46.2502 19.9142 45.9144 20.2499 45.5002 20.2499C45.086 20.2499 44.7502 19.9142 44.7502 19.4999C44.7502 12.6293 40.6221 9.07455 38.6859 8.18091C38.3098 8.00733 38.1456 7.56173 38.3192 7.18564Z" fill="#222222"/>
<path fill-rule="evenodd" clip-rule="evenodd" d="M38.263 7.3618C38.3393 6.95468 38.7312 6.68652 39.1384 6.76286C42.0523 7.30923 48.2299 10.4892 50.7185 18.7845C50.8375 19.1812 50.6124 19.5994 50.2156 19.7184C49.8189 19.8374 49.4008 19.6123 49.2818 19.2155C46.9704 11.5108 41.2813 8.69079 38.8619 8.23717C38.4548 8.16083 38.1866 7.76892 38.263 7.3618Z" fill="#222222"/>
<path fill-rule="evenodd" clip-rule="evenodd" d="M58.7341 8.92043C59.0733 9.04527 59.4138 9.17056 59.7565 9.29519C60.1458 9.43674 60.3466 9.86707 60.205 10.2563C60.0635 10.6456 59.6331 10.8464 59.2439 10.7049C58.8936 10.5775 58.549 10.4508 58.2086 10.3257C55.8468 9.45724 53.6879 8.66345 51.2467 8.23887C48.4785 7.75742 45.3308 7.75143 41.172 8.73C40.7687 8.82487 40.365 8.57492 40.2701 8.17172C40.1752 7.76852 40.4252 7.36475 40.8284 7.26988C45.1696 6.24841 48.5219 6.24245 51.5037 6.76106C54.088 7.21052 56.3817 8.05467 58.7341 8.92043Z" fill="#222222"/>
<path fill-rule="evenodd" clip-rule="evenodd" d="M57.2414 5.11906C58.0931 5.17455 58.8665 5.22494 59.529 5.25042C59.9429 5.26634 60.2655 5.61478 60.2496 6.02869C60.2337 6.44259 59.8852 6.76523 59.4713 6.74931C58.7395 6.72116 57.9266 6.66797 57.0509 6.61066C55.2434 6.49239 53.1683 6.35661 50.9857 6.38732C47.7656 6.43263 44.4842 6.84641 41.8356 8.17075C41.4651 8.35599 41.0146 8.20582 40.8293 7.83534C40.6441 7.46485 40.7943 7.01435 41.1648 6.82911C44.1161 5.35344 47.668 4.93386 50.9646 4.88747C53.2031 4.85597 55.4044 4.99938 57.2414 5.11906Z" fill="#222222"/>
<path fill-rule="evenodd" clip-rule="evenodd" d="M49.9929 2.92017C53.6135 2.39746 57.031 2.49801 59.0931 2.75576C59.5041 2.80714 59.7956 3.18198 59.7442 3.593C59.6929 4.00401 59.318 4.29556 58.907 4.24418C56.969 4.00193 53.6865 3.90248 50.2072 4.40478C46.7181 4.90848 43.1164 6.00524 40.4634 8.08971C40.1377 8.34562 39.6662 8.28904 39.4103 7.96334C39.1544 7.63763 39.211 7.16614 39.5367 6.91023C42.4837 4.5947 46.3819 3.44147 49.9929 2.92017Z" fill="#222222"/>
<path fill-rule="evenodd" clip-rule="evenodd" d="M22.2509 2.46434C22.2706 2.0506 22.6219 1.73116 23.0357 1.75086C24.8331 1.83646 27.8313 2.19326 31.0419 2.98429C34.2448 3.77341 37.7197 5.00916 40.4269 6.88337C40.7675 7.11915 40.8524 7.58636 40.6167 7.92692C40.3809 8.26749 39.9137 8.35243 39.5731 8.11666C37.0803 6.39087 33.8052 5.20996 30.6831 4.44074C27.5688 3.67344 24.6669 3.33024 22.9643 3.24917C22.5506 3.22946 22.2312 2.87809 22.2509 2.46434Z" fill="#222222"/>
<path fill-rule="evenodd" clip-rule="evenodd" d="M39.4009 7.24332C33.4876 6.45488 24.3903 6.91445 20.565 7.24708C20.1524 7.28296 19.7887 6.97753 19.7529 6.56487C19.717 6.15222 20.0224 5.7886 20.4351 5.75272C24.2764 5.41869 33.5125 4.94492 39.5992 5.75648C40.0097 5.81122 40.2982 6.18844 40.2435 6.59902C40.1887 7.0096 39.8115 7.29807 39.4009 7.24332Z" fill="#222222"/>
<path fill-rule="evenodd" clip-rule="evenodd" d="M39.3617 8.73711C33.1403 7.57058 25.3468 9.22957 22.2258 10.2151C21.8308 10.3399 21.4095 10.1208 21.2848 9.72581C21.16 9.33082 21.3791 8.9095 21.7741 8.78477C24.9865 7.77034 33.0597 6.02933 39.6382 7.2628C40.0453 7.33914 40.3134 7.73106 40.2371 8.13817C40.1608 8.54529 39.7689 8.81345 39.3617 8.73711Z" fill="#222222"/>
<path fill-rule="evenodd" clip-rule="evenodd" d="M50.7158 0.77625C50.8394 1.17161 50.619 1.59227 50.2237 1.71582C48.9415 2.1165 46.9281 2.94123 45.1007 4.09641C43.2454 5.26928 41.7263 6.69251 41.2115 8.23713C41.0805 8.63009 40.6557 8.84246 40.2628 8.71147C39.8698 8.58048 39.6575 8.15574 39.7884 7.76279C40.4736 5.7074 42.3712 4.0473 44.2992 2.82851C46.2552 1.59202 48.3918 0.716742 49.7763 0.284096C50.1716 0.160547 50.5923 0.380892 50.7158 0.77625Z" fill="#222222"/>
<path fill-rule="evenodd" clip-rule="evenodd" d="M28.7647 0.852813C28.8459 0.446644 29.2411 0.183231 29.6472 0.264465C30.966 0.528222 33.0185 1.1788 34.9593 2.28595C36.8903 3.38755 38.8066 4.99651 39.6965 7.22136C39.8503 7.60595 39.6633 8.04242 39.2787 8.19626C38.8941 8.35009 38.4576 8.16303 38.3038 7.77844C37.5937 6.00329 36.01 4.61225 34.216 3.58885C32.4318 2.571 30.5343 1.97158 29.3531 1.73534C28.9469 1.6541 28.6835 1.25898 28.7647 0.852813Z" fill="#222222"/>
<path d="M50.5 34.5C50.5 35.6046 49.8284 36.5 49 36.5C48.1716 36.5 47.5 35.6046 47.5 34.5C47.5 33.3954 48.1716 32.5 49 32.5C49.8284 32.5 50.5 33.3954 50.5 34.5Z" fill="#222222"/>
<path fill-rule="evenodd" clip-rule="evenodd" d="M40.7027 35.2064C40.333 35.2763 39.9683 35.5269 39.7476 35.7475C39.611 35.8842 39.3893 35.8842 39.2527 35.7475C39.116 35.6108 39.116 35.3892 39.2527 35.2525C39.532 34.9731 40.0172 34.6237 40.5726 34.5186C40.857 34.4648 41.1681 34.4739 41.4749 34.5995C41.7827 34.7255 42.0593 34.9577 42.2914 35.3058C42.3986 35.4667 42.3551 35.684 42.1943 35.7912C42.0335 35.8984 41.8162 35.855 41.7089 35.6941C41.541 35.4423 41.3676 35.312 41.2097 35.2473C41.0509 35.1823 40.8808 35.1727 40.7027 35.2064Z" fill="#222222"/>
<path fill-rule="evenodd" clip-rule="evenodd" d="M39.1132 37.8367C39.7592 37.4646 40.5046 37.35 41.0001 37.35C41.3591 37.35 41.6501 37.641 41.6501 38C41.6501 38.359 41.3591 38.65 41.0001 38.65C40.6623 38.65 40.1577 38.7353 39.762 38.9632C39.3987 39.1725 39.1501 39.4791 39.1501 40C39.1501 40.0146 39.1537 40.0718 39.2605 40.1701C39.3703 40.2711 39.5473 40.3722 39.7681 40.4458C39.9868 40.5187 40.2073 40.5508 40.3788 40.5456C40.3897 40.5453 40.4 40.5448 40.4098 40.5442C40.5317 40.4822 40.6603 40.4281 40.7945 40.3833C41.0805 40.288 41.3945 40.4018 41.553 40.6583C41.7115 40.9147 41.6729 41.2464 41.4597 41.4596C41.2847 41.6346 41.0678 41.7331 40.855 41.7868C40.7477 41.8576 40.6561 41.9383 40.583 42.0218C40.4413 42.1837 40.4048 42.3124 40.4005 42.3649C40.4056 42.3678 40.4121 42.3711 40.4203 42.3747C40.5236 42.4206 40.8044 42.4762 41.3726 42.3626C41.7246 42.2922 42.0671 42.5205 42.1375 42.8725C42.2079 43.2245 41.9796 43.5669 41.6276 43.6374C40.9458 43.7737 40.3516 43.7668 39.8924 43.5627C39.379 43.3346 39.1001 42.8847 39.1001 42.375C39.1001 42.1209 39.1682 41.8756 39.278 41.6517C38.9613 41.5371 38.6396 41.3653 38.3803 41.1268C38.0965 40.8657 37.8501 40.4854 37.8501 40C37.8501 38.9209 38.4348 38.2274 39.1132 37.8367ZM40.3848 42.3543C40.3849 42.3543 40.3853 42.3547 40.386 42.3554C40.3852 42.3547 40.3848 42.3544 40.3848 42.3543Z" fill="#222222"/>
<path d="M32.5 34C32.5 35.1046 31.8284 36 31 36C30.1716 36 29.5 35.1046 29.5 34C29.5 32.8954 30.1716 32 31 32C31.8284 32 32.5 32.8954 32.5 34Z" fill="#222222"/>
<path d="M37.1864 29.3011C37.1864 32.6781 32.8898 37.2292 27.5916 37.2292C22.2934 37.2292 18 32.6781 18 29.3011C18 25.9241 22.2934 25 27.5916 25C32.8898 25 37.1864 25.9241 37.1864 29.3011Z" fill="#FF6A78"/>
<path fill-rule="evenodd" clip-rule="evenodd" d="M19.4037 27.766C19.0572 28.1669 18.8591 28.657 18.8591 29.3011C18.8591 30.6603 19.7538 32.428 21.3833 33.8926C22.9894 35.3361 25.1896 36.3702 27.5917 36.3702C29.9938 36.3702 32.195 35.336 33.8019 33.8925C35.4323 32.4278 36.3275 30.6601 36.3275 29.3011C36.3275 28.6571 36.1294 28.1672 35.7827 27.7662C35.4212 27.3483 34.8591 26.9836 34.0735 26.6882C32.4876 26.0916 30.2173 25.859 27.5917 25.859C24.966 25.859 22.6967 26.0917 21.1116 26.6881C20.3265 26.9836 19.7648 27.3481 19.4037 27.766ZM20.5065 25.0802C22.3928 24.3704 24.9192 24.141 27.5917 24.141C30.2642 24.141 32.7914 24.3704 34.6784 25.0801C35.6292 25.4378 36.4724 25.9374 37.0822 26.6425C37.7066 27.3646 38.0456 28.2565 38.0456 29.3011C38.0456 31.319 36.7924 33.5154 34.95 35.1705C33.084 36.8468 30.4877 38.0882 27.5917 38.0882C24.6956 38.0882 22.1001 36.8467 20.2349 35.1704C18.3932 33.5151 17.1411 31.3188 17.1411 29.3011C17.1411 28.2567 17.4797 27.3648 18.1038 26.6427C18.7132 25.9375 19.556 25.4379 20.5065 25.0802Z" fill="#222222"/>
<path d="M62.9833 29.3011C62.9833 32.6781 58.6866 37.2292 53.3884 37.2292C48.0903 37.2292 43.7969 32.6781 43.7969 29.3011C43.7969 25.9241 48.0903 25 53.3884 25C58.6866 25 62.9833 25.9241 62.9833 29.3011Z" fill="#6DBBEE"/>
<path fill-rule="evenodd" clip-rule="evenodd" d="M45.2003 27.766C44.8538 28.1669 44.6558 28.657 44.6558 29.3011C44.6558 30.6603 45.5504 32.428 47.1799 33.8926C48.786 35.3361 50.9862 36.3702 53.3883 36.3702C55.7905 36.3702 57.9916 35.336 59.5985 33.8925C61.229 32.4278 62.1242 30.6601 62.1242 29.3011C62.1242 28.6571 61.926 28.1672 61.5793 27.7662C61.2178 27.3483 60.6557 26.9836 59.8702 26.6882C58.2842 26.0916 56.014 25.859 53.3883 25.859C50.7627 25.859 48.4933 26.0917 46.9083 26.6881C46.1232 26.9836 45.5615 27.3481 45.2003 27.766ZM46.3032 25.0802C48.1894 24.3704 50.7158 24.141 53.3883 24.141C56.0609 24.141 58.588 24.3704 60.475 25.0801C61.4259 25.4378 62.269 25.9374 62.8788 26.6425C63.5033 27.3646 63.8422 28.2565 63.8422 29.3011C63.8422 31.319 62.5891 33.5154 60.7466 35.1705C58.8807 36.8468 56.2844 38.0882 53.3883 38.0882C50.4922 38.0882 47.8967 36.8467 46.0315 35.1704C44.1898 33.5151 42.9377 31.3188 42.9377 29.3011C42.9377 28.2567 43.2764 27.3648 43.9005 26.6427C44.5099 25.9375 45.3526 25.4379 46.3032 25.0802Z" fill="#222222"/>
<path fill-rule="evenodd" clip-rule="evenodd" d="M43.8165 29.1711H37.0532V27.4531H43.8165V29.1711Z" fill="#222222"/>
<path d="M33.3747 30.2017C33.4129 30.1886 33.454 30.1818 33.4955 30.1818C33.5371 30.1818 33.5782 30.1885 33.6164 30.2016C33.6545 30.2147 33.689 30.2338 33.7177 30.2579C33.7463 30.282 33.7686 30.3105 33.7831 30.3416C33.7976 30.3728 33.804 30.406 33.802 30.4393C33.8 30.4725 33.7896 30.5051 33.7715 30.535C33.7533 30.5649 33.7277 30.5916 33.6963 30.6134C33.6649 30.6351 33.6283 30.6516 33.5887 30.6617L25.9921 32.9349C25.9543 32.9462 25.9141 32.9514 25.8739 32.9502C25.8336 32.9491 25.794 32.9415 25.7573 32.9281C25.7206 32.9147 25.6876 32.8956 25.6602 32.8719C25.6328 32.8483 25.6114 32.8205 25.5973 32.7903C25.5833 32.76 25.5768 32.7278 25.5783 32.6955C25.5798 32.6632 25.5892 32.6315 25.606 32.6021C25.6228 32.5728 25.6466 32.5463 25.6761 32.5243C25.7057 32.5023 25.7403 32.4852 25.7781 32.4739L33.3747 30.2017ZM21.2373 31.9381C21.1604 31.9593 21.076 31.9551 21.0029 31.9265C20.9298 31.8979 20.8739 31.8472 20.8475 31.7856C20.8211 31.7239 20.8263 31.6564 20.862 31.5978C20.8978 31.5392 20.9611 31.4944 21.0381 31.4732L33.397 28.0654C33.4351 28.0549 33.4754 28.0505 33.5156 28.0525C33.5558 28.0545 33.5951 28.0628 33.6313 28.077C33.6675 28.0911 33.6999 28.1109 33.7266 28.1351C33.7532 28.1592 33.7737 28.1874 33.7868 28.2179C33.7999 28.2484 33.8053 28.2807 33.8028 28.313C33.8003 28.3452 33.7899 28.3767 33.7722 28.4057C33.7545 28.4347 33.7299 28.4606 33.6997 28.482C33.6695 28.5034 33.6343 28.5198 33.5962 28.5303L21.2373 31.9381Z" fill="#FFAEB6"/>
<path d="M59.3747 30.2017C59.4129 30.1886 59.454 30.1818 59.4955 30.1818C59.5371 30.1818 59.5782 30.1885 59.6164 30.2016C59.6545 30.2147 59.689 30.2338 59.7177 30.2579C59.7463 30.282 59.7686 30.3105 59.7831 30.3416C59.7976 30.3728 59.804 30.406 59.802 30.4393C59.8 30.4725 59.7896 30.5051 59.7715 30.535C59.7533 30.5649 59.7277 30.5916 59.6963 30.6134C59.6649 30.6351 59.6283 30.6516 59.5887 30.6617L51.9921 32.9349C51.9158 32.9577 51.8313 32.9552 51.7573 32.9281C51.6833 32.901 51.6257 32.8514 51.5973 32.7903C51.569 32.7291 51.5721 32.6615 51.606 32.6021C51.6399 32.5428 51.7018 32.4967 51.7781 32.4739L59.3747 30.2017ZM47.2373 31.9381C47.1604 31.9593 47.076 31.9551 47.0029 31.9265C46.9298 31.8979 46.8739 31.8472 46.8475 31.7856C46.8211 31.7239 46.8263 31.6564 46.862 31.5978C46.8978 31.5392 46.9611 31.4944 47.0381 31.4732L59.397 28.0654C59.4351 28.0549 59.4754 28.0505 59.5156 28.0525C59.5558 28.0545 59.5951 28.0628 59.6313 28.077C59.6675 28.0911 59.6999 28.1109 59.7266 28.1351C59.7532 28.1592 59.7737 28.1874 59.7868 28.2179C59.7999 28.2484 59.8053 28.2807 59.8028 28.313C59.8003 28.3452 59.7899 28.3767 59.7722 28.4057C59.7545 28.4347 59.7299 28.4606 59.6997 28.482C59.6695 28.5034 59.6343 28.5198 59.5962 28.5303L47.2373 31.9381Z" fill="#AEDBFF"/>
</svg>
