<svg width="83" height="58" viewBox="0 0 83 58" fill="none" xmlns="http://www.w3.org/2000/svg">
<path fill-rule="evenodd" clip-rule="evenodd" d="M35.7945 28.1166C33.571 27.3755 31.1229 27.8108 30.2056 28.1166C29.865 28.2301 29.4969 28.0461 29.3834 27.7055C29.2699 27.3649 29.4539 26.9968 29.7945 26.8833C30.8771 26.5224 33.629 26.0245 36.2056 26.8833C36.5461 26.9968 36.7302 27.3649 36.6167 27.7055C36.5032 28.0461 36.135 28.2301 35.7945 28.1166Z" fill="#222222"/>
<path fill-rule="evenodd" clip-rule="evenodd" d="M51.6656 28.5573C49.8875 27.4905 47.9446 27.8222 47.2414 28.1035C46.9081 28.2368 46.5298 28.0747 46.3965 27.7414C46.2632 27.4081 46.4253 27.0298 46.7586 26.8965C47.7221 26.5111 50.1125 26.1095 52.3344 27.4426C52.6423 27.6273 52.7421 28.0266 52.5574 28.3344C52.3727 28.6422 51.9734 28.742 51.6656 28.5573Z" fill="#222222"/>
<path fill-rule="evenodd" clip-rule="evenodd" d="M31.6777 33.325C30.64 33.3093 29.7034 33.4751 29.1786 33.625C28.8334 33.7236 28.4737 33.5238 28.375 33.1786C28.2764 32.8334 28.4763 32.4737 28.8215 32.375C29.4633 32.1916 30.5267 32.0074 31.6973 32.0251C32.8637 32.0427 34.1995 32.2617 35.3344 32.9427C35.6423 33.1274 35.7421 33.5266 35.5574 33.8345C35.3727 34.1423 34.9734 34.2421 34.6656 34.0574C33.8005 33.5384 32.7197 33.3407 31.6777 33.325Z" fill="#222222"/>
<path fill-rule="evenodd" clip-rule="evenodd" d="M49.2633 33.8249C48.418 33.8097 47.6413 33.9714 47.2056 34.1167C46.865 34.2302 46.4969 34.0461 46.3834 33.7056C46.2699 33.365 46.4539 32.9969 46.7945 32.8834C47.3587 32.6953 48.2821 32.507 49.2867 32.5251C50.2885 32.5432 51.441 32.7682 52.39 33.48C52.6772 33.6954 52.7354 34.1028 52.52 34.39C52.3046 34.6772 51.8972 34.7354 51.61 34.52C50.9591 34.0318 50.1116 33.8402 49.2633 33.8249Z" fill="#222222"/>
<path fill-rule="evenodd" clip-rule="evenodd" d="M41 8.5C27.3838 8.5 16.5 18.8802 16.5 31.5C16.5 44.1198 27.3838 54.5 41 54.5C54.6162 54.5 65.5 44.1198 65.5 31.5C65.5 18.8802 54.6162 8.5 41 8.5ZM13.5 31.5C13.5 17.0579 25.8974 5.5 41 5.5C56.1026 5.5 68.5 17.0579 68.5 31.5C68.5 45.9421 56.1026 57.5 41 57.5C25.8974 57.5 13.5 45.9421 13.5 31.5Z" fill="#222222"/>
<path fill-rule="evenodd" clip-rule="evenodd" d="M68.9574 36.7497C68.6015 37.3567 68.1553 38.0524 67.5786 38.5937L65.5255 36.4063C65.7689 36.1778 66.036 35.8011 66.3693 35.2325C66.474 35.0538 66.6054 34.8189 66.7472 34.5653C66.967 34.1721 67.212 33.7338 67.4223 33.39C68.1416 32.2139 69.3721 30.5 71.552 30.5C77.18 30.5 82.052 34.5921 82.052 40C82.052 45.4079 77.18 49.5 71.552 49.5C67.9352 49.5 64.6915 47.8407 62.7893 45.239L65.2111 43.4683C66.5183 45.2563 68.8403 46.5 71.552 46.5C75.8651 46.5 79.052 43.4286 79.052 40C79.052 36.5714 75.8651 33.5 71.552 33.5C71.1581 33.5 70.7088 33.7663 69.9816 34.9553C69.7728 35.2967 69.6106 35.5893 69.436 35.9046C69.295 36.159 69.1458 36.4282 68.9574 36.7497Z" fill="#222222"/>
<path fill-rule="evenodd" clip-rule="evenodd" d="M13.5946 36.7497C13.9505 37.3567 14.3967 38.0524 14.9734 38.5937L17.0265 36.4063C16.7831 36.1778 16.516 35.8011 16.1827 35.2325C16.078 35.0538 15.9466 34.8189 15.8048 34.5653C15.585 34.1721 15.34 33.7338 15.1297 33.39C14.4104 32.2139 13.1799 30.5 11 30.5C5.37198 30.5 0.499994 34.5921 0.499994 40C0.499994 45.4079 5.37198 49.5 11 49.5C14.6168 49.5 17.8605 47.8407 19.7627 45.239L17.3409 43.4683C16.0337 45.2563 13.7117 46.5 11 46.5C6.68689 46.5 3.49999 43.4286 3.49999 40C3.49999 36.5714 6.68689 33.5 11 33.5C11.3939 33.5 11.8432 33.7663 12.5704 34.9553C12.7792 35.2967 12.9414 35.5893 13.116 35.9046C13.257 36.159 13.4062 36.4282 13.5946 36.7497Z" fill="#222222"/>
<path fill-rule="evenodd" clip-rule="evenodd" d="M72.1607 37.1085C73.7715 37.6061 75.1616 38.3385 75.9678 38.876C76.3124 39.1058 76.4056 39.5714 76.1758 39.9161C75.946 40.2607 75.4804 40.3538 75.1358 40.1241C74.442 39.6616 73.1821 38.994 71.7179 38.5416C71.0893 38.3474 70.4375 38.1973 69.7867 38.1167C70.7379 38.7168 71.747 39.7133 72.7226 41.6646C72.9078 42.0351 72.7577 42.4856 72.3872 42.6708C72.0167 42.8561 71.5662 42.7059 71.381 42.3354C70.4383 40.4502 69.535 39.6935 68.8047 39.2762C68.4959 39.0997 68.2144 38.9803 67.9165 38.8538C67.8373 38.8202 67.7569 38.7861 67.6746 38.7503C67.3069 38.5905 66.8793 38.3882 66.5214 38.0304C66.3304 37.8393 66.2569 37.5602 66.329 37.2998C66.4011 37.0394 66.6077 36.838 66.8699 36.7724C68.656 36.3259 70.557 36.613 72.1607 37.1085Z" fill="#222222"/>
<path fill-rule="evenodd" clip-rule="evenodd" d="M10.3911 37.1085C8.7803 37.6061 7.39018 38.3385 6.58396 38.876C6.23931 39.1058 6.14618 39.5714 6.37594 39.9161C6.60571 40.2607 7.07136 40.3538 7.41601 40.1241C8.10978 39.6616 9.36966 38.994 10.8339 38.5416C11.4624 38.3474 12.1143 38.1973 12.7651 38.1167C11.8138 38.7168 10.8048 39.7133 9.82916 41.6646C9.64392 42.0351 9.79409 42.4856 10.1646 42.6708C10.5351 42.8561 10.9856 42.7059 11.1708 42.3354C12.1134 40.4502 13.0168 39.6935 13.7471 39.2762C14.0559 39.0997 14.3374 38.9803 14.6353 38.8538C14.7145 38.8202 14.7948 38.7861 14.8771 38.7503C15.2449 38.5905 15.6725 38.3882 16.0303 38.0304C16.2214 37.8393 16.2949 37.5602 16.2228 37.2998C16.1506 37.0394 15.944 36.838 15.6819 36.7724C13.8958 36.3259 11.9947 36.613 10.3911 37.1085Z" fill="#222222"/>
<path fill-rule="evenodd" clip-rule="evenodd" d="M38.9216 7.25406C39.3335 7.2107 39.7026 7.50949 39.7459 7.92143C39.9195 9.57003 39.9193 12.2014 39.3581 14.796C38.801 17.3716 37.6591 20.0541 35.4302 21.6144C35.0908 21.8519 34.6232 21.7694 34.3856 21.43C34.1481 21.0907 34.2306 20.6231 34.57 20.3855C36.341 19.1458 37.3658 16.9116 37.892 14.4789C38.4141 12.0652 38.414 9.59651 38.2542 8.07845C38.2108 7.66651 38.5096 7.29742 38.9216 7.25406Z" fill="#222222"/>
<path fill-rule="evenodd" clip-rule="evenodd" d="M38.5841 7.37592C38.9287 7.14616 39.3944 7.23929 39.6241 7.58393C41.0314 9.69486 43.402 15.3233 41.7212 21.206C41.6074 21.6043 41.1923 21.8349 40.794 21.7211C40.3958 21.6073 40.1651 21.1922 40.2789 20.7939C41.7982 15.4766 39.6354 10.3051 38.376 8.41598C38.1463 8.07134 38.2394 7.60568 38.5841 7.37592Z" fill="#222222"/>
<path fill-rule="evenodd" clip-rule="evenodd" d="M38.3192 7.68564C38.4928 7.30955 38.9384 7.14539 39.3145 7.31897C41.7116 8.42533 46.2502 12.4705 46.2502 19.9999C46.2502 20.4142 45.9144 20.7499 45.5002 20.7499C45.086 20.7499 44.7502 20.4142 44.7502 19.9999C44.7502 13.1293 40.6221 9.57455 38.6859 8.68091C38.3098 8.50733 38.1456 8.06173 38.3192 7.68564Z" fill="#222222"/>
<path fill-rule="evenodd" clip-rule="evenodd" d="M38.263 7.8618C38.3393 7.45468 38.7312 7.18652 39.1384 7.26286C42.0523 7.80923 48.2299 10.9892 50.7185 19.2845C50.8375 19.6812 50.6124 20.0994 50.2156 20.2184C49.8189 20.3374 49.4008 20.1123 49.2818 19.7155C46.9704 12.0108 41.2813 9.19079 38.8619 8.73717C38.4548 8.66083 38.1866 8.26892 38.263 7.8618Z" fill="#222222"/>
<path fill-rule="evenodd" clip-rule="evenodd" d="M58.7341 9.42043C59.0733 9.54527 59.4138 9.67056 59.7565 9.79519C60.1458 9.93674 60.3466 10.3671 60.205 10.7563C60.0635 11.1456 59.6331 11.3464 59.2439 11.2049C58.8936 11.0775 58.549 10.9508 58.2086 10.8257C55.8468 9.95724 53.6879 9.16345 51.2467 8.73887C48.4785 8.25742 45.3308 8.25143 41.172 9.23C40.7687 9.32487 40.365 9.07492 40.2701 8.67172C40.1752 8.26852 40.4252 7.86475 40.8284 7.76988C45.1696 6.74841 48.5219 6.74245 51.5037 7.26106C54.088 7.71052 56.3817 8.55467 58.7341 9.42043Z" fill="#222222"/>
<path fill-rule="evenodd" clip-rule="evenodd" d="M57.2414 5.61906C58.0931 5.67455 58.8665 5.72494 59.529 5.75042C59.9429 5.76634 60.2655 6.11478 60.2496 6.52869C60.2337 6.94259 59.8852 7.26523 59.4713 7.24931C58.7395 7.22116 57.9266 7.16797 57.0509 7.11066C55.2434 6.99239 53.1683 6.85661 50.9857 6.88732C47.7656 6.93263 44.4842 7.34641 41.8356 8.67075C41.4651 8.85599 41.0146 8.70582 40.8293 8.33534C40.6441 7.96485 40.7943 7.51435 41.1648 7.32911C44.1161 5.85344 47.668 5.43386 50.9646 5.38747C53.2031 5.35597 55.4044 5.49938 57.2414 5.61906Z" fill="#222222"/>
<path fill-rule="evenodd" clip-rule="evenodd" d="M49.9929 3.42017C53.6135 2.89746 57.031 2.99801 59.0931 3.25576C59.5041 3.30714 59.7956 3.68198 59.7442 4.093C59.6929 4.50401 59.318 4.79556 58.907 4.74418C56.969 4.50193 53.6865 4.40248 50.2072 4.90478C46.7181 5.40848 43.1164 6.50524 40.4634 8.58971C40.1377 8.84562 39.6662 8.78904 39.4103 8.46334C39.1544 8.13763 39.211 7.66614 39.5367 7.41023C42.4837 5.0947 46.3819 3.94147 49.9929 3.42017Z" fill="#222222"/>
<path fill-rule="evenodd" clip-rule="evenodd" d="M22.2509 2.96434C22.2706 2.5506 22.6219 2.23116 23.0357 2.25086C24.8331 2.33646 27.8313 2.69326 31.0419 3.48429C34.2448 4.27341 37.7197 5.50916 40.4269 7.38337C40.7675 7.61915 40.8524 8.08636 40.6167 8.42692C40.3809 8.76749 39.9137 8.85243 39.5731 8.61666C37.0803 6.89087 33.8052 5.70996 30.6831 4.94074C27.5688 4.17344 24.6669 3.83024 22.9643 3.74917C22.5506 3.72946 22.2312 3.37809 22.2509 2.96434Z" fill="#222222"/>
<path fill-rule="evenodd" clip-rule="evenodd" d="M39.4009 7.74332C33.4876 6.95488 24.3903 7.41445 20.565 7.74708C20.1524 7.78296 19.7887 7.47753 19.7529 7.06487C19.717 6.65222 20.0224 6.2886 20.4351 6.25272C24.2764 5.91869 33.5125 5.44492 39.5992 6.25648C40.0097 6.31122 40.2982 6.68844 40.2435 7.09902C40.1887 7.5096 39.8115 7.79807 39.4009 7.74332Z" fill="#222222"/>
<path fill-rule="evenodd" clip-rule="evenodd" d="M39.3617 9.23711C33.1403 8.07058 25.3468 9.72957 22.2258 10.7151C21.8308 10.8399 21.4095 10.6208 21.2848 10.2258C21.16 9.83082 21.3791 9.4095 21.7741 9.28477C24.9865 8.27034 33.0597 6.52933 39.6382 7.7628C40.0453 7.83914 40.3134 8.23106 40.2371 8.63817C40.1608 9.04529 39.7689 9.31345 39.3617 9.23711Z" fill="#222222"/>
<path fill-rule="evenodd" clip-rule="evenodd" d="M50.7158 1.27625C50.8394 1.67161 50.619 2.09227 50.2237 2.21582C48.9415 2.6165 46.9281 3.44123 45.1007 4.59641C43.2454 5.76928 41.7263 7.19251 41.2115 8.73713C41.0805 9.13009 40.6557 9.34246 40.2628 9.21147C39.8698 9.08048 39.6575 8.65574 39.7884 8.26279C40.4736 6.2074 42.3712 4.5473 44.2992 3.32851C46.2552 2.09202 48.3918 1.21674 49.7763 0.784096C50.1716 0.660547 50.5923 0.880892 50.7158 1.27625Z" fill="#222222"/>
<path fill-rule="evenodd" clip-rule="evenodd" d="M28.7647 1.35281C28.8459 0.946644 29.2411 0.683231 29.6472 0.764465C30.966 1.02822 33.0185 1.6788 34.9593 2.78595C36.8903 3.88755 38.8066 5.49651 39.6965 7.72136C39.8503 8.10595 39.6633 8.54242 39.2787 8.69626C38.8941 8.85009 38.4576 8.66303 38.3038 8.27844C37.5937 6.50329 36.01 5.11225 34.216 4.08885C32.4318 3.071 30.5343 2.47158 29.3531 2.23534C28.9469 2.1541 28.6835 1.75898 28.7647 1.35281Z" fill="#222222"/>
<path d="M50.5 35C50.5 36.1046 49.8284 37 49 37C48.1716 37 47.5 36.1046 47.5 35C47.5 33.8954 48.1716 33 49 33C49.8284 33 50.5 33.8954 50.5 35Z" fill="#222222"/>
<path fill-rule="evenodd" clip-rule="evenodd" d="M40.7027 35.7064C40.333 35.7763 39.9683 36.0269 39.7476 36.2475C39.611 36.3842 39.3893 36.3842 39.2527 36.2475C39.116 36.1108 39.116 35.8892 39.2527 35.7525C39.532 35.4731 40.0172 35.1237 40.5726 35.0186C40.857 34.9648 41.1681 34.9739 41.4749 35.0995C41.7827 35.2255 42.0593 35.4577 42.2914 35.8058C42.3986 35.9667 42.3551 36.184 42.1943 36.2912C42.0335 36.3984 41.8162 36.355 41.7089 36.1941C41.541 35.9423 41.3676 35.812 41.2097 35.7473C41.0509 35.6823 40.8808 35.6727 40.7027 35.7064Z" fill="#222222"/>
<path fill-rule="evenodd" clip-rule="evenodd" d="M39.1132 38.3367C39.7592 37.9646 40.5046 37.85 41.0001 37.85C41.3591 37.85 41.6501 38.141 41.6501 38.5C41.6501 38.859 41.3591 39.15 41.0001 39.15C40.6623 39.15 40.1577 39.2353 39.762 39.4632C39.3987 39.6725 39.1501 39.9791 39.1501 40.5C39.1501 40.5146 39.1537 40.5718 39.2605 40.6701C39.3703 40.7711 39.5473 40.8722 39.7681 40.9458C39.9868 41.0187 40.2073 41.0508 40.3788 41.0456C40.3897 41.0453 40.4 41.0448 40.4098 41.0442C40.5317 40.9822 40.6603 40.9281 40.7945 40.8833C41.0805 40.788 41.3945 40.9018 41.553 41.1583C41.7115 41.4147 41.6729 41.7464 41.4597 41.9596C41.2847 42.1346 41.0678 42.2331 40.855 42.2868C40.7477 42.3576 40.6561 42.4383 40.583 42.5218C40.4413 42.6837 40.4048 42.8124 40.4005 42.8649C40.4056 42.8678 40.4121 42.8711 40.4203 42.8747C40.5236 42.9206 40.8044 42.9762 41.3726 42.8626C41.7246 42.7922 42.0671 43.0205 42.1375 43.3725C42.2079 43.7245 41.9796 44.0669 41.6276 44.1374C40.9458 44.2737 40.3516 44.2668 39.8924 44.0627C39.379 43.8346 39.1001 43.3847 39.1001 42.875C39.1001 42.6209 39.1682 42.3756 39.278 42.1517C38.9613 42.0371 38.6396 41.8653 38.3803 41.6268C38.0965 41.3657 37.8501 40.9854 37.8501 40.5C37.8501 39.4209 38.4348 38.7274 39.1132 38.3367ZM40.3848 42.8543C40.3849 42.8543 40.3853 42.8547 40.386 42.8554C40.3852 42.8547 40.3848 42.8544 40.3848 42.8543Z" fill="#222222"/>
<path d="M32.5 34.5C32.5 35.6046 31.8284 36.5 31 36.5C30.1716 36.5 29.5 35.6046 29.5 34.5C29.5 33.3954 30.1716 32.5 31 32.5C31.8284 32.5 32.5 33.3954 32.5 34.5Z" fill="#222222"/>
<path fill-rule="evenodd" clip-rule="evenodd" d="M35.7945 28.6166C33.571 27.8755 31.1229 28.3108 30.2056 28.6166C29.865 28.7301 29.4969 28.5461 29.3834 28.2055C29.2699 27.8649 29.4539 27.4968 29.7945 27.3833C30.8771 27.0224 33.629 26.5245 36.2056 27.3833C36.5461 27.4968 36.7302 27.8649 36.6167 28.2055C36.5032 28.5461 36.135 28.7301 35.7945 28.6166Z" fill="#222222"/>
<path fill-rule="evenodd" clip-rule="evenodd" d="M51.6656 29.0573C49.8875 27.9905 47.9446 28.3222 47.2414 28.6035C46.9081 28.7368 46.5298 28.5747 46.3965 28.2414C46.2632 27.9081 46.4253 27.5298 46.7586 27.3965C47.7221 27.0111 50.1125 26.6095 52.3344 27.9426C52.6423 28.1273 52.7421 28.5266 52.5574 28.8344C52.3727 29.1422 51.9734 29.242 51.6656 29.0573Z" fill="#222222"/>
<path fill-rule="evenodd" clip-rule="evenodd" d="M31.6777 33.825C30.64 33.8093 29.7034 33.9751 29.1786 34.125C28.8334 34.2236 28.4737 34.0238 28.375 33.6786C28.2764 33.3334 28.4763 32.9737 28.8215 32.875C29.4633 32.6916 30.5267 32.5074 31.6973 32.5251C32.8637 32.5427 34.1995 32.7617 35.3344 33.4427C35.6423 33.6274 35.7421 34.0266 35.5574 34.3345C35.3727 34.6423 34.9734 34.7421 34.6656 34.5574C33.8005 34.0384 32.7197 33.8407 31.6777 33.825Z" fill="#222222"/>
<path fill-rule="evenodd" clip-rule="evenodd" d="M49.2633 34.3249C48.418 34.3097 47.6413 34.4714 47.2056 34.6167C46.865 34.7302 46.4969 34.5461 46.3834 34.2056C46.2699 33.865 46.4539 33.4969 46.7945 33.3834C47.3587 33.1953 48.2821 33.007 49.2867 33.0251C50.2885 33.0432 51.441 33.2682 52.39 33.98C52.6772 34.1954 52.7354 34.6028 52.52 34.89C52.3046 35.1772 51.8972 35.2354 51.61 35.02C50.9591 34.5318 50.1116 34.3402 49.2633 34.3249Z" fill="#222222"/>
<path fill-rule="evenodd" clip-rule="evenodd" d="M41 9C27.3838 9 16.5 19.3802 16.5 32C16.5 44.6198 27.3838 55 41 55C54.6162 55 65.5 44.6198 65.5 32C65.5 19.3802 54.6162 9 41 9ZM13.5 32C13.5 17.5579 25.8974 6 41 6C56.1026 6 68.5 17.5579 68.5 32C68.5 46.4421 56.1026 58 41 58C25.8974 58 13.5 46.4421 13.5 32Z" fill="#222222"/>
<path fill-rule="evenodd" clip-rule="evenodd" d="M68.9574 37.2497C68.6015 37.8567 68.1553 38.5524 67.5786 39.0937L65.5255 36.9063C65.7689 36.6778 66.036 36.3011 66.3693 35.7325C66.474 35.5538 66.6054 35.3189 66.7472 35.0653C66.967 34.6721 67.212 34.2338 67.4223 33.89C68.1416 32.7139 69.3721 31 71.552 31C77.18 31 82.052 35.0921 82.052 40.5C82.052 45.9079 77.18 50 71.552 50C67.9352 50 64.6915 48.3407 62.7893 45.739L65.2111 43.9683C66.5183 45.7563 68.8403 47 71.552 47C75.8651 47 79.052 43.9286 79.052 40.5C79.052 37.0714 75.8651 34 71.552 34C71.1581 34 70.7088 34.2663 69.9816 35.4553C69.7728 35.7967 69.6106 36.0893 69.436 36.4046C69.295 36.659 69.1458 36.9282 68.9574 37.2497Z" fill="#222222"/>
<path fill-rule="evenodd" clip-rule="evenodd" d="M13.5946 37.2497C13.9505 37.8567 14.3967 38.5524 14.9734 39.0937L17.0265 36.9063C16.7831 36.6778 16.516 36.3011 16.1827 35.7325C16.078 35.5538 15.9466 35.3189 15.8048 35.0653C15.585 34.6721 15.34 34.2338 15.1297 33.89C14.4104 32.7139 13.1799 31 11 31C5.37198 31 0.499994 35.0921 0.499994 40.5C0.499994 45.9079 5.37198 50 11 50C14.6168 50 17.8605 48.3407 19.7627 45.739L17.3409 43.9683C16.0337 45.7563 13.7117 47 11 47C6.68689 47 3.49999 43.9286 3.49999 40.5C3.49999 37.0714 6.68689 34 11 34C11.3939 34 11.8432 34.2663 12.5704 35.4553C12.7792 35.7967 12.9414 36.0893 13.116 36.4046C13.257 36.659 13.4062 36.9282 13.5946 37.2497Z" fill="#222222"/>
<path fill-rule="evenodd" clip-rule="evenodd" d="M72.1607 37.6085C73.7715 38.1061 75.1616 38.8385 75.9678 39.376C76.3124 39.6058 76.4056 40.0714 76.1758 40.4161C75.946 40.7607 75.4804 40.8538 75.1358 40.6241C74.442 40.1616 73.1821 39.494 71.7179 39.0416C71.0893 38.8474 70.4375 38.6973 69.7867 38.6167C70.7379 39.2168 71.747 40.2133 72.7226 42.1646C72.9078 42.5351 72.7577 42.9856 72.3872 43.1708C72.0167 43.3561 71.5662 43.2059 71.381 42.8354C70.4383 40.9502 69.535 40.1935 68.8047 39.7762C68.4959 39.5997 68.2144 39.4803 67.9165 39.3538C67.8373 39.3202 67.7569 39.2861 67.6746 39.2503C67.3069 39.0905 66.8793 38.8882 66.5214 38.5304C66.3304 38.3393 66.2569 38.0602 66.329 37.7998C66.4011 37.5394 66.6077 37.338 66.8699 37.2724C68.656 36.8259 70.557 37.113 72.1607 37.6085Z" fill="#222222"/>
<path fill-rule="evenodd" clip-rule="evenodd" d="M10.3911 37.6085C8.7803 38.1061 7.39018 38.8385 6.58396 39.376C6.23931 39.6058 6.14618 40.0714 6.37594 40.4161C6.60571 40.7607 7.07136 40.8538 7.41601 40.6241C8.10978 40.1616 9.36966 39.494 10.8339 39.0416C11.4624 38.8474 12.1143 38.6973 12.7651 38.6167C11.8138 39.2168 10.8048 40.2133 9.82916 42.1646C9.64392 42.5351 9.79409 42.9856 10.1646 43.1708C10.5351 43.3561 10.9856 43.2059 11.1708 42.8354C12.1134 40.9502 13.0168 40.1935 13.7471 39.7762C14.0559 39.5997 14.3374 39.4803 14.6353 39.3538C14.7145 39.3202 14.7948 39.2861 14.8771 39.2503C15.2449 39.0905 15.6725 38.8882 16.0303 38.5304C16.2214 38.3393 16.2949 38.0602 16.2228 37.7998C16.1506 37.5394 15.944 37.338 15.6819 37.2724C13.8958 36.8259 11.9947 37.113 10.3911 37.6085Z" fill="#222222"/>
<path fill-rule="evenodd" clip-rule="evenodd" d="M38.9216 7.75406C39.3335 7.7107 39.7026 8.00949 39.7459 8.42143C39.9195 10.07 39.9193 12.7014 39.3581 15.296C38.801 17.8716 37.6591 20.5541 35.4302 22.1144C35.0908 22.3519 34.6232 22.2694 34.3856 21.93C34.1481 21.5907 34.2306 21.1231 34.57 20.8855C36.341 19.6458 37.3658 17.4116 37.892 14.9789C38.4141 12.5652 38.414 10.0965 38.2542 8.57845C38.2108 8.16651 38.5096 7.79742 38.9216 7.75406Z" fill="#222222"/>
<path fill-rule="evenodd" clip-rule="evenodd" d="M38.5841 7.87592C38.9287 7.64616 39.3944 7.73929 39.6241 8.08393C41.0314 10.1949 43.402 15.8233 41.7212 21.706C41.6074 22.1043 41.1923 22.3349 40.794 22.2211C40.3958 22.1073 40.1651 21.6922 40.2789 21.2939C41.7982 15.9766 39.6354 10.8051 38.376 8.91598C38.1463 8.57134 38.2394 8.10568 38.5841 7.87592Z" fill="#222222"/>
<path fill-rule="evenodd" clip-rule="evenodd" d="M38.3192 8.18564C38.4928 7.80955 38.9384 7.64539 39.3145 7.81897C41.7116 8.92533 46.2502 12.9705 46.2502 20.4999C46.2502 20.9142 45.9144 21.2499 45.5002 21.2499C45.086 21.2499 44.7502 20.9142 44.7502 20.4999C44.7502 13.6293 40.6221 10.0745 38.6859 9.18091C38.3098 9.00733 38.1456 8.56173 38.3192 8.18564Z" fill="#222222"/>
<path fill-rule="evenodd" clip-rule="evenodd" d="M38.263 8.3618C38.3393 7.95468 38.7312 7.68652 39.1384 7.76286C42.0523 8.30923 48.2299 11.4892 50.7185 19.7845C50.8375 20.1812 50.6124 20.5994 50.2156 20.7184C49.8189 20.8374 49.4008 20.6123 49.2818 20.2155C46.9704 12.5108 41.2813 9.69079 38.8619 9.23717C38.4548 9.16083 38.1866 8.76892 38.263 8.3618Z" fill="#222222"/>
<path fill-rule="evenodd" clip-rule="evenodd" d="M58.7341 9.92043C59.0733 10.0453 59.4138 10.1706 59.7565 10.2952C60.1458 10.4367 60.3466 10.8671 60.205 11.2563C60.0635 11.6456 59.6331 11.8464 59.2439 11.7049C58.8936 11.5775 58.549 11.4508 58.2086 11.3257C55.8468 10.4572 53.6879 9.66345 51.2467 9.23887C48.4785 8.75742 45.3308 8.75143 41.172 9.73C40.7687 9.82487 40.365 9.57492 40.2701 9.17172C40.1752 8.76852 40.4252 8.36475 40.8284 8.26988C45.1696 7.24841 48.5219 7.24245 51.5037 7.76106C54.088 8.21052 56.3817 9.05467 58.7341 9.92043Z" fill="#222222"/>
<path fill-rule="evenodd" clip-rule="evenodd" d="M57.2414 6.11906C58.0931 6.17455 58.8665 6.22494 59.529 6.25042C59.9429 6.26634 60.2655 6.61478 60.2496 7.02869C60.2337 7.44259 59.8852 7.76523 59.4713 7.74931C58.7395 7.72116 57.9266 7.66797 57.0509 7.61066C55.2434 7.49239 53.1683 7.35661 50.9857 7.38732C47.7656 7.43263 44.4842 7.84641 41.8356 9.17075C41.4651 9.35599 41.0146 9.20582 40.8293 8.83534C40.6441 8.46485 40.7943 8.01435 41.1648 7.82911C44.1161 6.35344 47.668 5.93386 50.9646 5.88747C53.2031 5.85597 55.4044 5.99938 57.2414 6.11906Z" fill="#222222"/>
<path fill-rule="evenodd" clip-rule="evenodd" d="M49.9929 3.92017C53.6135 3.39746 57.031 3.49801 59.0931 3.75576C59.5041 3.80714 59.7956 4.18198 59.7442 4.593C59.6929 5.00401 59.318 5.29556 58.907 5.24418C56.969 5.00193 53.6865 4.90248 50.2072 5.40478C46.7181 5.90848 43.1164 7.00524 40.4634 9.08971C40.1377 9.34562 39.6662 9.28904 39.4103 8.96334C39.1544 8.63763 39.211 8.16614 39.5367 7.91023C42.4837 5.5947 46.3819 4.44147 49.9929 3.92017Z" fill="#222222"/>
<path fill-rule="evenodd" clip-rule="evenodd" d="M22.2509 3.46434C22.2706 3.0506 22.6219 2.73116 23.0357 2.75086C24.8331 2.83646 27.8313 3.19326 31.0419 3.98429C34.2448 4.77341 37.7197 6.00916 40.4269 7.88337C40.7675 8.11915 40.8524 8.58636 40.6167 8.92692C40.3809 9.26749 39.9137 9.35243 39.5731 9.11666C37.0803 7.39087 33.8052 6.20996 30.6831 5.44074C27.5688 4.67344 24.6669 4.33024 22.9643 4.24917C22.5506 4.22946 22.2312 3.87809 22.2509 3.46434Z" fill="#222222"/>
<path fill-rule="evenodd" clip-rule="evenodd" d="M39.4009 8.24332C33.4876 7.45488 24.3903 7.91445 20.565 8.24708C20.1524 8.28296 19.7887 7.97753 19.7529 7.56487C19.717 7.15222 20.0224 6.7886 20.4351 6.75272C24.2764 6.41869 33.5125 5.94492 39.5992 6.75648C40.0097 6.81122 40.2982 7.18844 40.2435 7.59902C40.1887 8.0096 39.8115 8.29807 39.4009 8.24332Z" fill="#222222"/>
<path fill-rule="evenodd" clip-rule="evenodd" d="M39.3617 9.73711C33.1403 8.57058 25.3468 10.2296 22.2258 11.2151C21.8308 11.3399 21.4095 11.1208 21.2848 10.7258C21.16 10.3308 21.3791 9.9095 21.7741 9.78477C24.9865 8.77034 33.0597 7.02933 39.6382 8.2628C40.0453 8.33914 40.3134 8.73106 40.2371 9.13817C40.1608 9.54529 39.7689 9.81345 39.3617 9.73711Z" fill="#222222"/>
<path fill-rule="evenodd" clip-rule="evenodd" d="M50.7158 1.77625C50.8394 2.17161 50.619 2.59227 50.2237 2.71582C48.9415 3.1165 46.9281 3.94123 45.1007 5.09641C43.2454 6.26928 41.7263 7.69251 41.2115 9.23713C41.0805 9.63009 40.6557 9.84246 40.2628 9.71147C39.8698 9.58048 39.6575 9.15574 39.7884 8.76279C40.4736 6.7074 42.3712 5.0473 44.2992 3.82851C46.2552 2.59202 48.3918 1.71674 49.7763 1.2841C50.1716 1.16055 50.5923 1.38089 50.7158 1.77625Z" fill="#222222"/>
<path fill-rule="evenodd" clip-rule="evenodd" d="M28.7647 1.85281C28.8459 1.44664 29.2411 1.18323 29.6472 1.26446C30.966 1.52822 33.0185 2.1788 34.9593 3.28595C36.8903 4.38755 38.8066 5.99651 39.6965 8.22136C39.8503 8.60595 39.6633 9.04242 39.2787 9.19626C38.8941 9.35009 38.4576 9.16303 38.3038 8.77844C37.5937 7.00329 36.01 5.61225 34.216 4.58885C32.4318 3.571 30.5343 2.97158 29.3531 2.73534C28.9469 2.6541 28.6835 2.25898 28.7647 1.85281Z" fill="#222222"/>
<path d="M50.5 35.5C50.5 36.6046 49.8284 37.5 49 37.5C48.1716 37.5 47.5 36.6046 47.5 35.5C47.5 34.3954 48.1716 33.5 49 33.5C49.8284 33.5 50.5 34.3954 50.5 35.5Z" fill="#222222"/>
<path fill-rule="evenodd" clip-rule="evenodd" d="M40.7027 36.2064C40.333 36.2763 39.9683 36.5269 39.7476 36.7475C39.611 36.8842 39.3893 36.8842 39.2527 36.7475C39.116 36.6108 39.116 36.3892 39.2527 36.2525C39.532 35.9731 40.0172 35.6237 40.5726 35.5186C40.857 35.4648 41.1681 35.4739 41.4749 35.5995C41.7827 35.7255 42.0593 35.9577 42.2914 36.3058C42.3986 36.4667 42.3551 36.684 42.1943 36.7912C42.0335 36.8984 41.8162 36.855 41.7089 36.6941C41.541 36.4423 41.3676 36.312 41.2097 36.2473C41.0509 36.1823 40.8808 36.1727 40.7027 36.2064Z" fill="#222222"/>
<path fill-rule="evenodd" clip-rule="evenodd" d="M39.1132 38.8367C39.7592 38.4646 40.5046 38.35 41.0001 38.35C41.3591 38.35 41.6501 38.641 41.6501 39C41.6501 39.359 41.3591 39.65 41.0001 39.65C40.6623 39.65 40.1577 39.7353 39.762 39.9632C39.3987 40.1725 39.1501 40.4791 39.1501 41C39.1501 41.0146 39.1537 41.0718 39.2605 41.1701C39.3703 41.2711 39.5473 41.3722 39.7681 41.4458C39.9868 41.5187 40.2073 41.5508 40.3788 41.5456C40.3897 41.5453 40.4 41.5448 40.4098 41.5442C40.5317 41.4822 40.6603 41.4281 40.7945 41.3833C41.0805 41.288 41.3945 41.4018 41.553 41.6583C41.7115 41.9147 41.6729 42.2464 41.4597 42.4596C41.2847 42.6346 41.0678 42.7331 40.855 42.7868C40.7477 42.8576 40.6561 42.9383 40.583 43.0218C40.4413 43.1837 40.4048 43.3124 40.4005 43.3649C40.4056 43.3678 40.4121 43.3711 40.4203 43.3747C40.5236 43.4206 40.8044 43.4762 41.3726 43.3626C41.7246 43.2922 42.0671 43.5205 42.1375 43.8725C42.2079 44.2245 41.9796 44.5669 41.6276 44.6374C40.9458 44.7737 40.3516 44.7668 39.8924 44.5627C39.379 44.3346 39.1001 43.8847 39.1001 43.375C39.1001 43.1209 39.1682 42.8756 39.278 42.6517C38.9613 42.5371 38.6396 42.3653 38.3803 42.1268C38.0965 41.8657 37.8501 41.4854 37.8501 41C37.8501 39.9209 38.4348 39.2274 39.1132 38.8367ZM40.3848 43.3543C40.3849 43.3543 40.3853 43.3547 40.386 43.3554C40.3852 43.3547 40.3848 43.3544 40.3848 43.3543Z" fill="#222222"/>
<path d="M32.5 35C32.5 36.1046 31.8284 37 31 37C30.1716 37 29.5 36.1046 29.5 35C29.5 33.8954 30.1716 33 31 33C31.8284 33 32.5 33.8954 32.5 35Z" fill="#222222"/>
<path d="M41.0001 26.4556C41.9626 26.4071 43.3626 26.147 45.2013 25.6754C47.2925 25.1388 50.0675 25 53.3075 25C57.1499 25 60.2049 25.1582 62.4874 25.4794L62.5049 25.4823C64.5711 25.7802 65.9586 26.8166 65.9749 28.6497C65.9899 30.4818 66.1249 30.6487 65.5699 31.1785C65.0161 31.7074 64.9824 32.344 64.8249 32.7768C63.6336 36.0451 60.3687 37.589 56.2662 37.6453L51.4062 37.6084C48.05 37.5434 44.7063 35.9781 43.2001 32.9117C42.6626 31.8151 42.4626 30.9029 42.0151 30.3983C41.7176 30.0635 41.3776 29.8801 41.0001 29.8501C40.6213 29.8801 40.2826 30.0636 39.9851 30.3993C39.5376 30.9029 39.3376 31.8161 38.8001 32.9107C37.2939 35.9772 33.9502 37.5434 30.5939 37.6074L25.734 37.6463C21.6315 37.588 18.3665 36.0451 17.1753 32.7768C17.0178 32.344 16.9841 31.7074 16.4303 31.1785C15.8766 30.6497 16.0103 30.4818 16.0253 28.6497C16.0416 26.8156 17.4291 25.7802 19.4953 25.4823L19.5128 25.4794C21.7953 25.1591 24.8502 25 28.6927 25C31.9327 25 34.7076 25.1388 36.7989 25.6754C38.6376 26.147 40.0376 26.4071 41.0001 26.4556Z" fill="#FFDB99"/>
<path d="M53.3075 25.9703C57.1499 25.9703 60.2049 26.1285 62.4874 26.4497L62.5049 26.4526C64.5711 26.7505 65.9586 26.8165 65.9749 28.6496C65.9899 30.4817 66.1249 31.619 65.5699 32.1489C65.0161 32.6777 64.9824 33.3143 64.8249 33.7471C63.6336 37.0154 60.3687 38.5593 56.2662 38.6156L51.4062 38.5788C48.05 38.5137 44.7063 36.9485 43.2001 33.882C42.6626 32.7855 42.4626 31.8733 42.0151 31.3687C41.7176 31.0339 41.3776 30.8505 41.0001 30.8204C40.6213 30.8505 40.2826 31.0339 39.9851 31.3696C39.5376 31.8733 39.3376 32.7864 38.8001 33.881C37.2939 36.9475 33.9502 38.5137 30.5939 38.5778L25.734 38.6166C21.6315 38.5584 18.3665 37.0154 17.1753 33.7471C17.0178 33.3143 16.9841 32.6777 16.4303 32.1489C15.8766 31.62 16.0103 30.4817 16.0253 28.6496C16.0416 26.8156 17.4291 26.7505 19.4953 26.4526L19.5128 26.4497C21.7953 26.1295 24.8502 25.9703 28.6927 25.9703C31.9327 25.9703 34.7076 26.1091 36.7989 26.6457C38.6376 27.1174 40.0376 27.3774 41.0001 27.4259L41.2301 27.4114C42.1801 27.3357 43.5051 27.0814 45.2013 26.6448C47.2925 26.1091 50.0675 25.9703 53.3075 25.9703Z" fill="#FFB21C"/>
<path d="M65.9761 28.8816L65.9748 28.6487C65.9898 30.4827 66.1248 31.62 65.5698 32.1489C65.0161 32.6778 64.9824 33.3144 64.8249 33.7472C63.7099 36.8049 60.7786 38.3537 57.0462 38.5866L52.4025 38.5856L51.4062 38.5788C48.05 38.5138 44.7063 36.9485 43.2 33.8821C42.6625 32.7855 42.4625 31.8733 42.0151 31.3687C41.7538 31.0757 41.4626 30.899 41.1401 30.8389L41.0001 30.8204L40.8601 30.8398C40.5376 30.8981 40.2463 31.0757 39.9851 31.3697C39.5376 31.8733 39.3376 32.7865 38.8001 33.8811C37.2938 36.9476 33.9501 38.5138 30.5939 38.5778L29.5964 38.5856L24.954 38.5866C21.2215 38.3537 18.2903 36.8049 17.1753 33.7472C17.0178 33.3144 16.984 32.6778 16.4303 32.1489C15.9003 31.6424 15.999 30.5798 16.0228 28.8835L65.9761 28.8816Z" fill="#FFA500"/>
<path d="M38.8003 33.8811C37.2941 36.9475 33.9504 38.5138 30.5942 38.5778L29.5954 38.5856L24.9542 38.5866C21.2217 38.3537 18.2905 36.8049 17.1755 33.7472C17.0755 33.4755 17.0255 33.1203 16.863 32.7641L39.2841 32.7622C39.1491 33.1028 38.9966 33.4803 38.8003 33.8811ZM64.8251 33.7472C63.7101 36.8049 60.7802 38.3537 57.0464 38.5866L52.4027 38.5856L51.4065 38.5788C48.0503 38.5138 44.7065 36.9485 43.2003 33.882C43.0229 33.5131 42.8616 33.1396 42.7166 32.7622L65.1364 32.7632C64.9739 33.1193 64.9239 33.4735 64.8251 33.7462V33.7472Z" fill="#FF9700"/>
<path d="M30.594 38.5788L29.5953 38.5856H24.9416L24.6166 38.5614C21.9216 38.3324 19.6716 37.3959 18.2654 35.6754H37.5702C35.834 37.5599 33.2177 38.5284 30.5953 38.5788H30.594ZM57.0588 38.5856H52.4026L51.4063 38.5788C48.7826 38.5274 46.1664 37.5599 44.4302 35.6744H63.735C62.2725 37.4648 59.8988 38.4061 57.06 38.5856H57.0588Z" fill="#FF8200"/>
<path d="M20.7464 27.2319C22.7151 27.0378 25.1714 26.9408 28.1151 26.9408C31.2038 26.9408 33.7563 27.1543 35.7713 27.5813C36.2614 27.6852 36.7193 27.8653 37.1171 28.1108C37.5148 28.3563 37.8442 28.662 38.0851 29.0093C38.326 29.3566 38.4735 29.7383 38.5186 30.1312C38.5637 30.5241 38.5055 30.9201 38.3475 31.295L37.375 33.6036C36.8833 34.7701 35.9293 35.7862 34.6492 36.5067C33.3692 37.2271 31.8286 37.6151 30.2476 37.6152H25.5864C23.7983 37.6149 22.0666 37.13 20.69 36.2442C19.3134 35.3583 18.3784 34.1272 18.0464 32.7632L17.5339 30.6603C17.439 30.2701 17.4479 29.869 17.56 29.4815C17.6722 29.0941 17.8853 28.7285 18.1862 28.4074C18.4871 28.0863 18.8695 27.8163 19.3098 27.6142C19.75 27.412 20.2389 27.2819 20.7464 27.2319Z" fill="#FF6A78"/>
<path d="M61.2873 27.2319C59.3186 27.0378 56.8624 26.9408 53.9199 26.9408C50.8737 26.9408 48.3774 27.1591 46.4324 27.5968C45.949 27.7053 45.4986 27.8884 45.1081 28.1349C44.7176 28.3815 44.3951 28.6865 44.1597 29.0319C43.9244 29.3772 43.7809 29.7559 43.738 30.1452C43.6951 30.5345 43.7536 30.9265 43.91 31.2979L44.8725 33.5851C45.3631 34.7505 46.315 35.7658 47.5926 36.4865C48.8702 37.2072 50.4082 37.5964 51.9874 37.5987L56.5799 37.6055C58.33 37.6083 60.0263 37.1358 61.375 36.2699C62.7237 35.404 63.6398 34.1992 63.9648 32.8641L64.501 30.6603C64.596 30.2701 64.5871 29.869 64.4749 29.4815C64.3628 29.0941 64.1497 28.7285 63.8488 28.4074C63.5478 28.0863 63.1655 27.8163 62.7252 27.6142C62.2849 27.412 61.796 27.2819 61.2886 27.2319H61.2873Z" fill="#6DBBEE"/>
<path d="M38.1377 31.7927L37.3752 33.6035C37.2127 33.9917 36.9989 34.3604 36.7427 34.7039H18.9916C18.5325 34.105 18.2126 33.4481 18.0466 32.7631L17.8091 31.7927H38.1377Z" fill="#F45D6B"/>
<path d="M64.2247 31.7927L63.9647 32.864C63.8075 33.5117 63.5095 34.1339 63.0835 34.7039H45.5211C45.2551 34.3494 45.0381 33.974 44.8736 33.5841L44.1187 31.7927H64.2247Z" fill="#4BB0F2"/>
<path d="M28.1151 26.9408C31.2038 26.9408 33.7563 27.1543 35.7712 27.5813C36.2614 27.6852 36.7193 27.8653 37.117 28.1108C37.5148 28.3563 37.8441 28.662 38.0851 29.0093C38.326 29.3566 38.4735 29.7383 38.5186 30.1312C38.5637 30.5241 38.5055 30.9201 38.3475 31.295L38.1375 31.7928H17.8101L17.5351 30.6603C17.4402 30.2701 17.4491 29.869 17.5613 29.4815C17.6734 29.0941 17.8865 28.7285 18.1874 28.4074C18.4883 28.0863 18.8707 27.8163 19.311 27.6142C19.7513 27.412 20.2402 27.2819 20.7476 27.2319C22.7151 27.0378 25.1726 26.9408 28.1151 26.9408Z" fill="#F14E5D"/>
<path d="M53.9199 26.9408C56.8636 26.9408 59.3199 27.0378 61.2886 27.2319C61.796 27.2819 62.2849 27.412 62.7252 27.6142C63.1655 27.8163 63.5479 28.0863 63.8488 28.4074C64.1497 28.7285 64.3628 29.0941 64.475 29.4815C64.5871 29.869 64.596 30.2701 64.5011 30.6603L64.2236 31.7928H44.1187L43.91 31.2979C43.9036 31.2818 43.8973 31.2656 43.8912 31.2494L43.8725 31.2028C43.7355 30.8355 43.6931 30.4509 43.7477 30.0709C43.8022 29.6909 43.9526 29.323 44.1904 28.9881C44.4281 28.6533 44.7484 28.3581 45.1331 28.1193C45.5179 27.8806 45.9594 27.703 46.4325 27.5968C48.3775 27.1601 50.8737 26.9408 53.9199 26.9408Z" fill="#44A9EB"/>
<path d="M20.8251 27.7132C20.4025 27.7551 19.9953 27.8637 19.6287 28.0322C19.262 28.2007 18.9436 28.4257 18.6931 28.6933C18.4426 28.9609 18.2652 29.2654 18.1718 29.5881C18.0784 29.9109 18.0711 30.2451 18.1502 30.5701L18.6614 32.673C18.9663 33.9259 19.8252 35.0569 21.0897 35.8706C22.3543 36.6844 23.9451 37.1298 25.5876 37.13H30.2488C31.6982 37.1299 33.1105 36.7742 34.284 36.1137C35.4574 35.4532 36.3319 34.5216 36.7825 33.4522L37.755 31.1446C37.8869 30.8321 37.9355 30.5021 37.8981 30.1746C37.8606 29.8471 37.7378 29.529 37.537 29.2395C37.3363 28.9499 37.0619 28.6951 36.7304 28.4905C36.3989 28.2858 36.0173 28.1356 35.6088 28.049C33.6525 27.6356 31.1538 27.426 28.1163 27.426C25.1976 27.426 22.7664 27.5221 20.8264 27.7132H20.8251ZM20.7464 27.2319C22.7151 27.0378 25.1714 26.9408 28.1151 26.9408C31.2038 26.9408 33.7563 27.1543 35.7713 27.5813C36.2614 27.6852 36.7193 27.8653 37.1171 28.1108C37.5148 28.3563 37.8442 28.662 38.0851 29.0093C38.326 29.3566 38.4735 29.7383 38.5186 30.1312C38.5637 30.5241 38.5055 30.9201 38.3475 31.295L37.375 33.6036C36.8833 34.7701 35.9293 35.7862 34.6492 36.5067C33.3692 37.2271 31.8286 37.6151 30.2476 37.6152H25.5864C23.7983 37.6149 22.0666 37.13 20.69 36.2442C19.3134 35.3583 18.3784 34.1272 18.0464 32.7632L17.5339 30.6603C17.439 30.2701 17.4479 29.869 17.56 29.4815C17.6722 29.0941 17.8853 28.7285 18.1862 28.4074C18.4871 28.0863 18.8695 27.8163 19.3098 27.6142C19.75 27.412 20.2389 27.2819 20.7464 27.2319Z" fill="#E93142"/>
<path d="M61.4275 27.7132C61.8504 27.7549 62.2579 27.8633 62.6248 28.0317C62.9917 28.2001 63.3104 28.4251 63.5612 28.6927C63.812 28.9602 63.9896 29.2649 64.0831 29.5877C64.1767 29.9106 64.1841 30.2449 64.105 30.5701L63.5663 32.7826C63.2692 34.0047 62.4316 35.1079 61.1983 35.9017C59.965 36.6954 58.4133 37.1299 56.8113 37.13H52.0064C50.5567 37.1301 49.1441 36.7745 47.9705 36.114C46.7968 35.4534 45.9221 34.5218 45.4714 33.4522L44.4989 31.1446C44.3671 30.8321 44.3185 30.502 44.356 30.1745C44.3936 29.8469 44.5165 29.5287 44.7173 29.2392C44.9182 28.9496 45.1928 28.6948 45.5244 28.4902C45.856 28.2856 46.2377 28.1355 46.6464 28.049C48.6014 27.6356 51.1001 27.426 54.1376 27.426C57.0576 27.426 59.4875 27.5221 61.4275 27.7132ZM61.5063 27.2319C59.5375 27.0378 57.0813 26.9408 54.1376 26.9408C51.0501 26.9408 48.4964 27.1543 46.4814 27.5813C45.9912 27.6852 45.5334 27.8653 45.1356 28.1108C44.7378 28.3563 44.4085 28.662 44.1676 29.0093C43.9266 29.3566 43.7792 29.7383 43.734 30.1312C43.6889 30.5241 43.7472 30.9201 43.9052 31.295L44.8777 33.6036C45.3694 34.7703 46.3236 35.7865 47.6039 36.5069C48.8842 37.2274 50.4251 37.6153 52.0064 37.6152H56.8113C58.5587 37.6151 60.2511 37.1412 61.5965 36.2756C62.9418 35.4099 63.8556 34.2068 64.18 32.8738L64.7187 30.6603C64.8137 30.2701 64.8048 29.869 64.6926 29.4815C64.5805 29.0941 64.3674 28.7285 64.0665 28.4074C63.7656 28.0863 63.3832 27.8163 62.9429 27.6142C62.5026 27.412 62.0137 27.2819 61.5063 27.2319Z" fill="#0089E5"/>
<path d="M33.4401 31.1107C33.4789 31.0976 33.5207 31.0907 33.563 31.0905C33.6053 31.0903 33.6472 31.0968 33.6862 31.1096C33.7252 31.1223 33.7604 31.1411 33.7898 31.1647C33.8191 31.1884 33.842 31.2164 33.857 31.2471C33.872 31.2778 33.8788 31.3106 33.877 31.3434C33.8752 31.3762 33.8649 31.4084 33.8466 31.438C33.8283 31.4676 33.8024 31.4941 33.7706 31.5157C33.7387 31.5373 33.7016 31.5537 33.6613 31.5638L25.9401 33.8385C25.9017 33.8497 25.8608 33.855 25.8198 33.854C25.7787 33.8531 25.7384 33.8458 25.7009 33.8327C25.6635 33.8196 25.6297 33.8009 25.6016 33.7776C25.5735 33.7544 25.5515 33.7271 25.537 33.6973C25.5225 33.6675 25.5157 33.6357 25.517 33.6038C25.5182 33.572 25.5276 33.5406 25.5445 33.5116C25.5614 33.4825 25.5855 33.4563 25.6154 33.4345C25.6453 33.4126 25.6805 33.3956 25.7189 33.3843L33.4401 31.1107ZM21.0902 32.8739C21.0119 32.8951 20.9261 32.8914 20.8514 32.8634C20.7767 32.8355 20.7194 32.7857 20.6921 32.7249C20.6647 32.6642 20.6696 32.5975 20.7055 32.5395C20.7415 32.4816 20.8057 32.4371 20.8839 32.4159L33.4476 29.002C33.4863 28.9915 33.5273 28.987 33.5683 28.9888C33.6093 28.9906 33.6494 28.9986 33.6864 29.0125C33.7233 29.0263 33.7564 29.0456 33.7838 29.0694C33.8111 29.0932 33.8322 29.1209 33.8457 29.1509C33.8592 29.181 33.865 29.2129 33.8627 29.2447C33.8604 29.2765 33.85 29.3076 33.8322 29.3363C33.8144 29.365 33.7895 29.3907 33.7589 29.412C33.7283 29.4332 33.6926 29.4495 33.6538 29.46L21.0902 32.8739Z" fill="#FFAEB6"/>
<path d="M59.6898 31.1107C59.7286 31.0976 59.7704 31.0907 59.8127 31.0905C59.8551 31.0903 59.897 31.0968 59.936 31.1096C59.9749 31.1223 60.0102 31.1411 60.0395 31.1647C60.0689 31.1884 60.0918 31.2164 60.1068 31.2471C60.1218 31.2778 60.1286 31.3106 60.1268 31.3434C60.125 31.3762 60.1146 31.4084 60.0963 31.438C60.078 31.4676 60.0522 31.4941 60.0203 31.5157C59.9885 31.5373 59.9513 31.5537 59.9111 31.5638L52.1899 33.8385C52.1123 33.8612 52.0263 33.8592 51.9507 33.8327C51.8751 33.8062 51.8161 33.7575 51.7868 33.6973C51.7574 33.6371 51.7601 33.5702 51.7942 33.5116C51.8283 33.4529 51.8911 33.4071 51.9687 33.3843L59.6898 31.1107ZM47.3399 32.8739C47.2617 32.8951 47.1758 32.8914 47.1011 32.8634C47.0265 32.8355 46.9692 32.7857 46.9418 32.7249C46.9145 32.6642 46.9193 32.5975 46.9553 32.5395C46.9913 32.4816 47.0555 32.4371 47.1337 32.4159L59.6973 29.002C59.7361 28.9915 59.7771 28.987 59.8181 28.9888C59.859 28.9906 59.8992 28.9986 59.9361 29.0125C59.9731 29.0263 60.0062 29.0456 60.0335 29.0694C60.0609 29.0932 60.0819 29.1209 60.0955 29.1509C60.109 29.181 60.1148 29.2129 60.1125 29.2447C60.1101 29.2765 60.0998 29.3076 60.082 29.3363C60.0642 29.365 60.0392 29.3907 60.0086 29.412C59.978 29.4332 59.9423 29.4495 59.9036 29.46L47.3399 32.8739Z" fill="#AEDBFF"/>
</svg>
