<svg width="1101" height="1024" viewBox="0 0 1101 1024" fill="none" xmlns="http://www.w3.org/2000/svg">
<path d="M437.7 200L440.1 196.2L442.9 192.9L446.1 190.2L449.6 187.9L453.4 185.9L457.5 184.2L463.9 182.3L470.4 180.9L483.2 179L477.1 184.4L473.6 186.7L468.1 189.7L462.2 192.3L449.9 196.5L437.7 200Z" fill="#E1D0C4"/>
<path d="M291.9 333.8L302 307.5L307.6 294.5L313.8 281.6L318.2 273.2L328 257.2L333.5 249.5L339.3 242.2L345.5 235.3L355.7 225.6L367 216.9L357 239.6L348.1 256.6L343.4 266.4L339.1 276.3L333.1 291.4L322.6 322.3L304.5 380.7L299.2 400.8L296.2 417.1L295.2 425.3L294.6 433.5V441.8L295.1 450L296.2 458.2L298 466.4L302.4 479.2L306.3 487.5L311.3 495.1L314.2 498.4L317.5 501.5L321 504.2L325 506.4L329.4 508.2L322.5 473.6L337.2 478.6L344.5 480.6L359.3 483.7L366.8 484.6L354.7 486L348.2 488L343.6 490.5L341.6 492.2L339.9 494.3L338.4 496.8L337.8 506.2L337.1 544.1L336.4 553.5L330.4 550.4L319.1 543.1L313.8 539L307 533.1L300.7 526.7L294.8 519.9L289.3 512.7L284.4 505.1L280 497.3L276.1 489.2L272.8 480.9L270.1 472.3L268.6 463.5L267.6 454.6L267 445.8V436.9L267.4 428.1L269.2 410.5L270.8 401.7L273.2 390.1L276.2 378.6L283.5 355.9L291.9 333.8Z" fill="#E1D0C4"/>
<path d="M763.3 233.9L768.6 239.7L778 251.9L782.3 258.3L787.6 267L792.4 276.1L796.9 285.3L803.2 299.5L808.9 313.9L824.7 356.6L829.2 370.7L832 380.2L836.4 399.4L838.1 409.1L839.3 418.9L840.1 428.7L840.3 438.5L840 448.3L839.1 458.2L837.8 465.6L836 472.7L833.6 479.6L830.8 486.3L827.5 492.9L823.9 499.2L819.8 505.3L815.4 511.2L805.5 522.2L794.6 532.1L786.7 538.1L778.6 543.6L770.2 548.5L768 533V529.1L769.1 522.9L771.4 518.1L786.2 499.8L794.1 489.4L796.9 485L802 475.5L804.2 470.5L805.9 465.4L807.3 460.2L808.5 453.1L809.1 446L809.3 438.7L808.4 424.1L807.5 416.8L803.7 395.4L791.9 347.8L785.7 324.1L779.1 300.5L772 277.1L763.3 250.6L762.6 243.9L763.3 233.9Z" fill="#E1D0C4"/>
<path d="M187.9 467.3L186.7 465.9L186 464.6L185.7 463.2L186.2 460.4L188.3 457.1L190.1 455.6L192.2 454.5L194.1 453.9H195.5L197.6 455L198.4 456L198.9 457.5L200 465L204.6 487.8L205.4 497.2L204.5 504.3L203.5 507.8L202 511.1L199.9 514.3L197.1 489.7L195.5 481.8L192.6 474.3L190.5 470.7L187.9 467.3Z" fill="#E1D0C4"/>
<path d="M187.9 485.4L186.3 485.7L184.9 485.5L183.6 484.9L181.5 482.8L179.9 479L179.5 476.5L179.7 474L180.5 471.9L181.3 470.7L182.4 469.8L183.9 469.2L185.7 471.3L187.1 473.9L188.1 476.8L188.6 479.7V482.7L187.9 485.4Z" fill="#E1D0C4"/>
<path d="M129.6 490L128.7 488.7L128.4 487.5V486.4L129.1 484.7L130.4 483.2L132 482.1L133.9 481.4L135.8 481.1L137.5 481.5L138.4 482.2L139.1 483.1L139.6 484.6L129.6 490Z" fill="#E1D0C4"/>
<path d="M751.9 496.9L754.1 494L756.3 502.5L757.3 513.4L756.9 539.9L756.8 569.9L757.1 663.5L756.7 686.9L756 710.2L754.6 733.6L748.5 734.9L742.4 735.7L730 736.3L608.7 735.5L554.2 735.3L475.4 735.9L402 735.3L377.6 735.6L353.2 736.3L356.6 730.7L358 719.7L365 724L422.7 725.4L494.9 725.5L581.5 725.1L689.2 725.8L710.6 725.7L724.9 725.3L739.2 724.4L753.5 723.2L740.5 718.8L740.7 533L740 517.4L738.1 501.9L741.2 502.1L743.8 501.9L746.2 501.3L748.3 500.3L750.2 498.8L751.9 496.9Z" fill="#E1D0C4"/>
<path d="M208.9 658L211.1 648.6L215.9 632.4L221.2 620.1L224.5 614.2L228.1 608.7L232.2 603.6L235.6 600.1L239.3 596.9L243.3 593.9L247.6 591.3L248.3 601.2L249.5 610.9L251.2 620.6L253 627.8L255.2 634.9L257.7 641.7L260.7 648.5L264.1 655L268 661.2L272.3 667.2L284.5 682.2L276.9 687.9L269.6 693.9L262.6 700.3L242.1 720L249 735.1L233.1 734.3L236.9 730.9L231.4 720.5L227.7 714.3L219.4 702.4L222.9 699L226 695.3L228.7 691.4L231 687.3L232.7 683L233.8 678.5L234.3 675.1V671.5L234 667.9L233.1 664.2L208.9 658Z" fill="#E1D0C4"/>
<path d="M257.8 622L261.7 614.9L263.4 621.8L267.9 635.1L273.7 647.9L277.1 654L284.9 665.6L289.2 671.1L298.8 681.3L304.1 686.1L296.9 681.5L290 676.3L281.5 668.7L277.5 664.5L271.7 654.3L266.3 643.9L263.1 636.8L260.2 629.5L257.8 622Z" fill="#E1D0C4"/>
<path d="M145.2 666.9L164.7 666.5L174.5 666.7L183.4 667.6L192.4 668.1L201.3 668.2L228.2 667.1L224 669.6L219.8 671.6L215.5 673.1L206.5 674.9L194.7 675.5L166.2 673.9L159.4 673.8L162.1 682.9L195.8 681.4L206.9 680.5L221.8 678.5L229.1 677.1L223.3 690.2L215.8 688.8L208.2 687.9L200.7 687.3L189.3 687L155 687.6L145.7 698.6L144.2 679.2L160.6 673L145.2 666.9Z" fill="#E1D0C4"/>
<path d="M842.9 744.3L882.6 732.1L892.7 729.5L902.8 727.4L916.5 725.7L923.5 725.4L927.1 728.6L899.7 734.6L892.9 736.5L886.3 738.8L882.1 740.6L874.2 745.2L870.7 748.1L867.4 751.4L864.4 755.2L883.9 752.1L881.9 758.3L854.3 757.2L842.9 744.3Z" fill="#E1D0C4"/>
<path d="M131.9 779L145.3 785.7V859.8L145.6 878.3L146.4 896.8L131.2 897L131.5 808.5L131.9 779Z" fill="#E1D0C4"/>
<path d="M252.6 220.4L254.3 214.3L256.4 208.4L258.9 202.7L261.7 197.2L264.9 191.9L269.3 185.5L274.1 179.6L279.4 174L285.2 168.7L291.3 163.8L297.6 159.4L304.3 155.4L311.3 151.8L318.5 148.7L325.8 146.1L333.3 143.9L340.9 142.3L348.7 141.1L356.4 140.5H364.1L371.8 141L379.5 142.1L387 143.7L394.4 146L405.2 150.6L411.6 154.7L416.1 158.3L420.2 162.2L428.1 170.6L437.9 167L447.8 163.7L457.8 160.9L467.9 158.5L481.6 155.7L495.3 153.5L509.2 151.8L523.1 150.6L550.8 149.2L566 149.3L581.2 150L596.4 151.1L611.6 152.8L626.6 155L641.5 157.9L652.6 160.6L663.6 163.7L674.4 167.2L685.2 171.2L689.9 165.8L694.8 161L700.1 156.6L705.7 152.8L711.6 149.4L717.7 146.5L724 144.1L730.5 142.1L737.1 140.6L743.8 139.5L750.7 138.8L757.6 138.6L764.5 138.8L771.4 139.4L778.2 140.4L785.1 141.9L791.8 143.7L798.3 146L804.7 148.6L810.9 151.6L816.9 155L822.6 158.7L828 162.8L833.2 167.2L838.2 172.3L842.8 177.7L847 183.4L850.8 189.5L854.2 195.9L857.1 202.4L859.6 209.1L861.6 215.9L863.1 223L864.1 230L864.6 237.1V244.2L864 251.3L862.8 258.3L861.1 265.2L858.7 272L856 278.3L852.8 284.3L849.1 289.9L844.9 295.3L840.3 300.3L835.4 304.9L830.1 309.2L824.5 313.1L818.7 316.6L825.4 333.5L831.8 350.7L839.3 373.9L842.5 385.7L845.1 397.6L847.2 409.6L848.7 421.6L849.3 430.6L849.5 439.8L849.2 448.9L848.5 458.2L847.6 464.5L846.3 470.7L844.5 476.8L839.8 488.7L837 494.4L832.4 502.8L827.3 510.9L834.8 523.3L838.2 529.6L841 536.2L842.5 540.7L843.4 545.5L843.9 550.6L841.4 548.9L837.6 544.9L835.4 541.3L828.1 526L825.9 522.7L824.1 520.7L822 519L819.5 517.5L823.2 524.7L826.4 532.1L829 539.7L831.2 547.4L832.9 555.2L834.1 563.1L834.9 571L835.2 579L835.1 587L834.5 595L833.4 602.9L832 610.9L830.1 618.7L827.8 626.4L825 633.9L818.8 648.8L815.2 655.9L811.3 662.8L802.5 676L790.2 691.8L782.4 700.9L789.3 695.4L795.8 689.5L801.9 683.2L807.5 676.5L812.7 669.4L817.5 662.1L821.9 654.5L825.8 646.5L829.3 638.4L832.4 630.1L835 621.7L837.1 613L838.8 604.3L840 595.6L840.7 586.8L841 577.9L840.7 569.1L840 560.3L838.8 551.7L837.1 543.1L840.2 544.7L842.5 546.5L844.3 548.5L845.6 550.9L846.6 553.5L847.2 556.3L848.6 574L848.9 581.3L848.4 595.7L847.5 602.8L845.8 612.2L843.5 621.5L840.6 630.7L837.3 639.6L833.5 648.4L829.2 657.1L824.6 665.5L814.3 681.7L826.5 683L838.7 683.8L887.9 684.8L900.2 685.5L912.4 686.7L914.1 687.4L915.5 688.4L916.5 689.7L917.6 691.9L919.9 703L920.8 705.4L926.3 708.7L931.4 712.5L936.1 716.7L944.7 726L948.6 731L954.2 738.9L969.5 763.2L970.8 791.3L971 805.3L970.3 868.8L970.6 889.9L969.9 899.7L969.6 901.3L968.2 903.8L967.1 904.6L965.7 905.1L963.7 905.2L902.8 905.9H781.1L780.9 908.3L781.2 916.4L780.9 919L780.2 921.3L779.3 922.5L778.1 923.7L776.3 924.7L769.2 925.9L754.7 926.4L340 925.9L332.9 925.4L326 924.4L319.1 922.8L319.6 904.7L189.1 904.9L123.8 904.1L123.5 873.8L123.7 813.2L123.6 783L123.3 778.8L123.6 774.9L124.4 771.2L125.6 767.6L129 760.9L132.2 756.1L146.9 737.4L149.9 732.6L149.5 705.6L146.6 704.4L144.2 703L142.3 701.4L140.8 699.7L139.3 697.1L138.2 694.2L137.7 691V684.2L138.1 680.5L142 659.9L147.6 660.1L158.6 661.6L164 662.9L169.3 664.6L174.5 666.7L164.7 666.5L145.2 666.9L160.6 673L144.2 679.2L145.7 698.6L166.4 700.8L176.9 701.3H187.4L197.8 700.7L210.3 699.5L212.3 699L216.7 696.6L219.1 694.7L223.3 690.2L229.1 677.1L221.8 678.5L206.9 680.5L195.8 681.4L162.1 682.9L159.4 673.8L166.2 673.9L194.7 675.5L206.5 674.9L215.5 673.1L219.8 671.6L224 669.6L233.1 664.2L234 667.9L234.3 671.5V675.1L233.9 678.5L232.7 683L231 687.3L228.7 691.4L226 695.3L222.9 699L219.4 702.4L227.7 714.3L231.4 720.5L234.6 727L226.2 729.7L217.8 731.9L209.2 733.6L200.6 734.8L192 735.6L183.3 735.9L165.8 735.4L157.1 734.5L130.1 772.3L188.5 772.7L421.8 771.3L480.2 771.7L488.8 744.5L450.8 744.8L374.7 744.3L360.7 744L356 743.5L351.4 742.7L346.9 741.3L344.7 738.9L340.9 733.5L334 720.4L331.4 716.2L323.5 714.9L307.4 713.4L295.3 713L283.2 713.1L256.8 713.9L255 714.3L253.7 715.1L251.7 717.4L251 719L250 724.4L249.4 732.9L249 735.1L245.4 727.6L242.1 720L262.6 700.3L269.6 693.9L276.9 687.9L284.5 682.2L277.2 672.9L277.5 664.5L281.5 668.7L290 676.3L296.9 681.5L304.1 686.1L298.8 681.3L289.2 671.1L284.9 665.6L277.1 654L273.7 647.9L267.9 635.1L263.4 621.8L261.7 614.9L261.4 615.7L260.5 595.9V586.3L260.9 576.6L262.5 564L263.9 557.8L265.7 551.7L268 545.7L272.3 537.1L277.9 528.8L279.5 526L280.7 523.1L281.4 518.9L281.2 516.6L275.4 524.9L273.9 526.4L272.3 527.4L270.8 527.8L269.8 527.6L267.7 525.8L271.2 521.5L275 517.6L279.2 514.1L275.4 507.8L272 501.3L269.1 494.8L266.5 488.2L264.4 481.4L262.2 472.8L260.5 464L259.4 455.2L258.7 446.3L258.6 437.3L258.8 428.3L259.5 419.4L260.6 410.4L262.6 398.5L265.2 386.8L268.3 375.4L275.6 354.8L279.6 344.7L292.9 314.8L288 312L283.4 308.9L279.1 305.5L271.2 297.7L264.6 289.1L261.7 284.4L258.3 277.9L255.5 271.1L253.2 264.1L251.5 256.9L250.5 249.7L250 242.3L250.1 236.8L251.4 225.8L252.6 220.4ZM694.4 175.2L708.3 163.4L713.1 159.9L720 155.8L723.7 154.2L729.9 152.2L736.1 150.6L742.3 149.5L748.7 148.9L755 148.7L761.4 148.9L767.7 149.6L774 150.7L786.3 154.1L798 159L803.7 162L809.1 165.3L814.3 169L819.3 172.9L824 177.3L828.3 181.8L832.4 186.7L836.1 191.9L839.4 197.3L842.3 202.9L844.8 208.8L848.5 220.7L849.8 226.3L850.6 232L851 237.7L850.6 249L848.8 260.3L846.8 267.6L844.2 274.8L841.1 281.8L837.5 288.6L833.4 295L828.9 301.2L836.5 293.2L842.9 284.3L846.5 277.8L849.5 271.2L851.9 264.2L853.8 257.1L855 249.8L855.7 242.5V235.1L855.1 227.8L853.9 220.6L850.9 210L848.8 204.9L842.9 193.3L838.9 187.2L834.4 181.4L829.4 176L824.1 171L818.3 166.4L812.2 162.3L805.8 158.7L799.1 155.6L792.3 152.9L785.2 150.8L770.5 147.9L762.9 147.1L755.1 146.9L749.2 147.2L737.8 148.8L732.1 150.1L726.6 151.8L721.2 153.9L716.1 156.4L711.2 159.3L706.5 162.6L702.2 166.4L698.1 170.5L694.4 175.2ZM259.9 240.9V246.7L260.4 252.3L261.2 257.9L262.5 263.4L264.2 268.8L266.3 274L268.7 279.1L271.5 284L274.7 288.7L278.2 293.2L282 297.4L286.1 301.3L281.8 296.1L278 290.7L274.7 285L271.9 279.1L269.5 273L267.6 266.8L266.1 260.4L265.2 253.9L264.7 247.4L264.6 240.8L265.1 234.2L266 227.6L267.4 220.9L269.3 214.4L271.7 208.3L274.6 202.3L278 196.6L281.7 191.2L285.9 186.1L290.4 181.3L295.2 176.7L300.4 172.5L305.8 168.7L311.4 165.1L317.3 161.9L323.4 159.1L329.6 156.7L336 154.7L342.4 153.1L349 151.9L355.5 151.2L362.1 150.9L368.7 151.1L375.2 151.7L381.7 152.8L388.1 154.5L394.3 156.6L400.3 159.2L406.2 162.5L412 166.2L407.5 162.3L402.8 159L397.8 156.3L392.5 154L387.1 152.3L381.5 150.9L370 149.4L364.1 149.2L355.4 149.3L341.1 150.6L335.5 151.6L324.4 154.6L317.2 157.4L310.3 160.7L303.6 164.6L297.2 169L291.2 173.8L285.6 179L280.3 184.7L275.7 190.7L271.5 197.1L266.3 207.3L262.5 218L261.2 223.6L260.4 229.2L259.9 235V240.9ZM367 216.9L361.2 221.1L350.5 230.3L345.5 235.3L339.3 242.2L333.5 249.5L328 257.2L318.2 273.2L313.8 281.6L307.6 294.5L302 307.5L283.5 355.9L276.2 378.6L273.2 390.1L270.8 401.7L269.2 410.5L267.4 428.1L267 436.9V445.8L267.6 454.6L268.6 463.5L270.1 472.3L272.8 480.9L276.1 489.2L280 497.3L284.4 505.1L289.3 512.7L294.8 519.9L300.7 526.7L307 533.1L313.8 539L319.1 543.1L330.4 550.4L336.4 553.5L337.1 544.1L337.8 506.2L338.4 496.8L339.9 494.3L341.6 492.2L343.6 490.5L348.2 488L350.7 487L358.8 485.4L366.8 484.6L545.3 485.4L547.3 462L529.5 461.2L525.1 460.5L521 459.1L518.4 457.9L516 456.2L513.8 454L512.4 451.1L511.6 448L511.4 444.8L511.8 441.6L513.3 437.6L515.8 434.3L517.5 433L525.7 429.3L532 427.3L538.5 425.8L545.2 424.9L551.9 424.5L558.6 424.6L565.4 425.2L572 426.2L581 428.5L586 431.2L590.4 435L592.2 437.3L593.6 439.7L594.4 442.2L594.8 444.8L594.7 446.7L593.3 450.6L589.7 455.3L587.3 457.4L584.7 459L578.9 461.1L575.7 461.6L570.9 462.1L556.6 462.6L556.2 485.6L714.1 484.9L719.9 485.6L743.3 487.3L749.1 488.1L751 494.1L744 493.1L729.9 492.4L662.2 492.6L522.9 492.4L374.1 493.2L360.1 493.8L346.1 494.9L345.5 529.8L345.3 564.6L346 716.9L346.2 721.1L347.3 726.6L349.5 731.4L351.3 733.6L353.6 735.7L353.2 736.3L377.6 735.6L402 735.3L475.4 735.9L554.2 735.3L608.7 735.5L730 736.3L742.4 735.7L748.5 734.9L754.6 733.6L756 710.2L756.7 686.9L757.1 663.5L756.8 569.9L756.9 539.9L757.4 520L756.9 506.9L755.4 498.2L754.1 494L758 489.6L760.7 493L762.8 496.5L764.3 500.2L766.1 508.1L766.5 512.2L766.6 518.4L765.7 537.7V544L766.2 550L770.3 549.1L770.2 548.5L778.6 543.6L786.7 538.1L794.6 532.1L800.2 527.3L810.6 516.8L815.4 511.2L819.8 505.3L823.9 499.2L827.5 492.9L830.8 486.3L833.6 479.6L836 472.7L837.8 465.6L839.1 458.2L840 448.3L840.3 438.5L840.1 428.7L839.3 418.9L838.1 409.1L836.4 399.4L832 380.2L829.2 370.7L824.7 356.6L808.9 313.9L803.2 299.5L796.9 285.3L792.4 276.1L787.6 267L782.3 258.3L773.5 245.7L768.6 239.7L756.5 226.8L749.4 220.2L741.8 214L733.9 208.3L725.7 202.9L717.2 197.9L704.3 190.9L691.1 184.5L680.4 179.8L669.6 175.7L658.7 172L647.6 168.9L636.3 166.2L625 163.9L613.6 162L602.1 160.5L586.7 159.2L571.3 158.4L555.8 158.2L540.3 158.6L524.9 159.4L509.7 160.6L496.9 162.3L484.1 164.5L471.3 167.2L458.7 170.4L446.3 174.1L434 178.4L425 182L407.4 190.2L398.9 194.8L390.5 199.8L382.5 205.1L374.6 210.8L367 216.9ZM523.4 443.7L529.6 444.2H535.8L554.3 443.5L563.2 444L569.2 445.2L573.9 445.7L577.3 445L578.7 444.1L580 442.6L581.2 440.5L576.7 438.7L566.8 435.7L561.7 434.7L551.4 433.8L546.3 434.1L541.3 434.8L536.4 436.1L532.9 437.4L529.6 439.1L526.5 441.2L523.4 443.7ZM263.4 708.1L275.6 706.6L287.9 705.5L300.2 705L285.3 691.8L277.6 696.5L263.4 708.1ZM800 701L813.4 701.4L826.8 701.5L867 701.1L884.2 701.8L887.7 701.5L891 700.6L894 699.1L896.9 697L899.7 694.1L891.9 692.9L876.2 691.6L864.4 691.3L828.8 691.4L816.5 691.8L809.6 692.6L805 694.5L803 696L801.4 698.1L800 701ZM153.4 705L154.5 729.3L184.8 731.3L192.5 731.4L200.1 731.1L205.1 730.5L214.7 728.2L219.3 726.5L223.7 724.2L228 721.3L221.3 713.1L215.1 704.6L204.9 705.6L184.3 706.7H174L163.7 706.1L153.4 705ZM802.8 709.2L811.4 717.1L837.9 740.2L847.8 736.6L867.8 730.6L883 726.9L929 716.8L925.3 714.2L921.3 712.1L918.5 711L915.6 710.3L912.5 710L894.3 709.4L876 709.1L802.8 709.2ZM764.8 711.7L763.6 726.1L762.8 729.6L760.5 734.9L759.1 736.9L755.1 740.8L752.5 742.4L749.8 743.5L745.4 744.6L740.8 745.1L731.6 745.3L649.2 745L608 744L615.6 770.7L735.8 771.8L855.9 772.5L852.3 766.1L844.1 754.1L839.6 748.4L833.1 741.2L826.3 734.4L819 727.9L803.7 716L795.7 710.4L790.6 709.8H785.4L764.8 711.7ZM920.6 722.8L923.5 725.4L909.7 726.4L902.8 727.4L892.7 729.5L872.7 735L842.9 744.3L854.3 757.2L881.9 758.3L879.8 764.2L870 766L860.2 768.2L862.7 769.6L867.9 771.3L876.1 772.1L884.5 772.3L963.2 771.2L961.5 764.8L958 757.5L955.5 753.4L937.3 727.4L934.7 724.5L932.7 722.9L930.7 721.8L928.5 721.1H925L920.6 722.8ZM499.7 744L496.6 743.8L483.1 787.7L480 798.8L477.5 810L482.9 811.6L488.4 812.7L493.9 813.4L502.3 813.8H542L570.9 814.1L594.9 813.9L614.1 812.5L612.6 800.9L610.5 789.3L605.2 766.3L599.5 743.4L588.5 743.3L591.7 759.7L595.4 775.9L599.4 791.9L603.9 807.9L491.5 807.5L493.4 800.8L527.7 801.7L596.4 801.6L594 792L587.7 762.7L586 756.3L581.8 744L540.7 743.3L520.1 743.5L499.7 744ZM131.9 779L131.5 808.5L131.2 897L282.4 896.8L826.4 897.8H962.4L962.6 808.4L963 778.6L886 779.3L674.4 778.2L616.6 778.5L624.8 812.3L619.3 816.5L616.4 818.3L613.4 819.8L609 820.8L591.1 821.6L560.2 822L513.8 821.6L495.8 821.1L485.8 820.1L478.3 818L474.8 816.4L471.4 814.3L468.1 811.7L477.5 778.7L190.2 779.5L132.7 779.4L131.9 779ZM329 905.8L325.7 917.6L549.9 918.2L774.2 917.8L772.9 905L698.9 905.3L427.6 904.8L329 905.8Z" fill="#2D0D14"/>
<path d="M446.2 391.2L448.8 390L450.5 389.9L453 390.2L455.4 391.1L456.8 392L458.7 394.2L459 395.6L458.9 397L457.1 400.6L454.3 403.7L452.5 404.8L448.7 406.1L446.7 406.2L444.7 405.8L442.6 404.9L441.7 402.3L441.3 399.7L441.7 396.4L443.3 393.4L446.2 391.2Z" fill="#2D0D14"/>
<path d="M649.6 391.2L651.3 390.1L652.9 389.5L655.8 389.6L658.4 391.1L659.9 392.8L661 394.9L661.5 398L660.8 401.2L659.9 402.6L656.7 405.7L655 406.6L653.4 407L651.7 406.8L650.1 406.3L648.7 405.3L646.4 402.5L645.2 399L645.5 395.5L646.3 393.9L647.6 392.4L649.6 391.2Z" fill="#2D0D14"/>
<path d="M538 634L533.6 629.4L530.8 624.6L529.7 621.2L529.2 617.7V614.2L529.7 610.7L530.6 607.3L532 603.9L535.9 597.5L541.1 591.8L547.3 587.3L546.1 592.5L545.4 597.7L545.2 602.8L545.3 608L547.8 608.5L550.1 608.4L552.1 607.8L554 606.9L557.6 604.1L566.8 593.7L576.4 607.1L570.2 610.5L562 613.1L556.9 614.1L546.5 615.4L536.7 607.4L535.3 625.9L547.5 624.2L554.3 624L559.3 625L561.6 626.1L563.7 627.7L565.8 630L559 631.7L552 632.8L538 634Z" fill="#2D0D14"/>
<path d="M358 719.7L368.5 718.9L389.8 718.2L437.6 718.8L501.3 718.5L740.5 718.8L753.5 723.2L739.2 724.4L724.9 725.3L710.7 725.7L689.2 725.8L581.5 725.1L494.9 725.5L422.7 725.4L365 724L358 719.7Z" fill="#2D0D14"/>
<path d="M233.1 734.3L247.1 735.2L237.4 748.2L227.1 760.8L229.6 747.4L233.1 734.3Z" fill="#2D0D14"/>
<path d="M358.1 840.9L361.5 839.9L365.1 839.3L379.6 838.9L439.8 839.1L620.6 838.6L680.8 838.7L741.1 839.3L743.7 840.5L745.8 842.1L747.5 844L748.7 846.3L749.6 848.7L750 851.3V854L749.6 856.5L748.8 859L747.7 861.3L746.1 863.2L744.2 864.9L742.1 866.1L739.5 866.7L736.5 866.8L362.5 866.6L360 866.1L357.8 865.1L355.8 863.6L354.1 861.9L352.7 859.8L350.9 855.1L350.6 852.7V850.2L351.2 847.9L352.1 845.7L353.5 843.8L355.5 842.2L358.1 840.9ZM360.5 847.6L358.8 851.3L358.7 852.7L359.6 855.2L360.6 856.2L362.4 857.4L364.8 858.3L369.9 859.1L435.7 858.5L496.8 858.4L680 858.9L741.1 858.8L740.8 846.8L670.9 845.5L635.9 845.4L478.4 846.3L415 846.2L382.2 845.8L367.7 846.7L360.5 847.6Z" fill="#2D0D14"/>
<path d="M694.4 175.2L698.1 170.5L702.2 166.4L706.5 162.6L711.2 159.3L716.1 156.4L721.2 153.9L726.6 151.8L732.1 150.1L737.8 148.8L749.2 147.2L755.1 146.9L762.9 147.1L770.5 147.9L778 149.3L785.2 150.8L792.3 152.9L799.1 155.6L805.8 158.7L812.2 162.3L818.3 166.4L824.1 171L829.4 176L834.4 181.4L838.9 187.2L842.9 193.3L848.8 204.9L850.9 210L853.9 220.6L855.1 227.8L855.7 235.1V242.5L855 249.8L853.8 257.1L851.9 264.2L849.5 271.2L846.5 277.8L842.9 284.3L839.9 288.9L832.9 297.3L828.9 301.2L833.4 295L837.5 288.6L841.1 281.8L844.2 274.8L846.8 267.6L848.8 260.3L849.9 254.7L851 243.4V237.7L850.6 232L849.8 226.3L848.5 220.7L844.8 208.8L842.3 202.9L839.4 197.3L836.1 191.9L832.4 186.7L828.3 181.8L824 177.3L819.3 172.9L814.3 169L809.1 165.3L803.7 162L792.2 156.3L780.2 152.2L774 150.7L767.7 149.6L761.4 148.9L755 148.7L748.7 148.9L742.3 149.5L736.1 150.6L729.9 152.2L723.7 154.2L720 155.8L713.1 159.9L708.2 163.4L694.4 175.2Z" fill="#FDFDFD"/>
<path d="M259.9 240.9V235L260.4 229.2L261.2 223.6L262.5 218L266.3 207.3L271.5 197.1L275.7 190.7L280.3 184.7L285.6 179L291.2 173.8L297.2 169L303.6 164.6L310.3 160.7L317.2 157.4L324.4 154.6L335.5 151.6L341.1 150.6L355.4 149.3L364.1 149.2L370 149.4L381.5 150.9L387.1 152.3L392.5 154L397.8 156.3L402.8 159L407.5 162.3L412 166.2L406.2 162.5L400.3 159.2L394.3 156.6L388.1 154.5L381.7 152.8L375.2 151.7L368.7 151.1L362.1 150.9L355.5 151.2L349 151.9L342.4 153.1L336 154.7L329.6 156.7L323.4 159.1L317.3 161.9L311.4 165.1L305.8 168.7L300.4 172.5L295.2 176.7L290.4 181.3L285.9 186.1L281.7 191.2L278 196.6L274.6 202.3L271.7 208.3L269.3 214.4L267.4 220.9L266 227.6L265.1 234.2L264.6 240.8L264.7 247.4L265.2 253.9L266.1 260.4L267.6 266.8L269.5 273L271.9 279.1L274.7 285L278 290.7L281.8 296.1L286.1 301.3L282 297.4L278.2 293.2L274.7 288.7L271.5 284L268.7 279.1L266.3 274L264.2 268.8L262.5 263.4L261.2 257.9L260.4 252.3L259.9 246.7V240.9Z" fill="#FDFDFD"/>
<path d="M367 216.9L374.6 210.8L382.5 205.1L390.5 199.8L398.9 194.8L416.1 185.9L434 178.4L446.3 174.1L458.7 170.4L471.3 167.2L484.1 164.5L496.9 162.3L509.7 160.6L524.9 159.4L540.3 158.6L555.8 158.2L571.3 158.4L586.7 159.2L602.1 160.6L613.6 162L625 163.9L636.3 166.2L647.6 168.9L658.7 172L669.6 175.7L680.4 179.8L691.1 184.5L704.3 190.9L717.2 197.9L725.7 202.9L733.9 208.3L741.8 214L749.4 220.2L756.5 226.8L763.3 233.9L762.6 243.9L763.3 250.6L772 277.1L779.1 300.5L785.7 324.1L791.9 347.8L803.7 395.4L805.7 405.9L808.4 424.1L809.3 438.7L809.1 446L808.5 453.1L807.3 460.2L805.9 465.4L804.2 470.5L802 475.5L799.4 480.4L794.1 489.4L786.2 499.8L776.1 511.9L771.4 518.1L770.1 520.5L768.5 525.3L768 529.1V533L768.4 536.9L770.3 549.1L766.2 550L765.7 544V537.7L766.6 518.4L766.1 508.1L764.3 500.2L762.8 496.5L760.7 493L758 489.6L762.4 488L766.5 486.1L770.5 483.8L774.3 481.1L777.7 478L780.8 474.7L783.5 471L785.6 467.1L787.2 462.9L788.6 456.3L788.7 452.8L788.4 449.1L787.4 443.7L784.4 433.4L782.4 428.5L779.3 422.1L775.7 415.9L771.7 409.9L765.2 401.2L758.2 392.9L750.9 384.9L743.6 377.2L734.2 368.4L724.1 359.9L717.1 354.5L709.8 349.5L702.4 345L696.6 341.9L684.7 336.8L678.5 334.8L672.3 333.3L665.9 332.2L659.4 331.7H652.6L648 332L643.4 332.9L638.9 334.3L634.7 336.3L630.7 338.7L627 341.5L623.7 344.8L620.8 348.4L618.4 352.3L617 355.5L615.1 362.2L614.7 365.8L614.4 373.1L614.6 380.2L615.2 387.3L616.4 394.3L618 401.3L620 408.1L622.5 414.7L625.4 421.2L628.7 427.5L632.4 433.6L636.4 439.5L640.8 445.1L645.5 450.4L650.5 455.5L655.8 460.2L661.4 464.6L667.3 468.6L673.4 472.2L679.7 475.5L686.2 478.3L692.9 480.7L699.8 482.6L706.8 484L714.1 484.9L556.2 485.6L556.5 462.6L570.9 462.1L575.7 461.6L578.9 461.1L584.7 459L587.3 457.4L589.7 455.3L591.9 452.7L594.2 448.7L594.8 444.8L594.4 442.2L593.6 439.7L592.2 437.3L588.4 433L583.5 429.6L578.4 427.6L571.9 426.2L565.4 425.2L558.6 424.6L551.9 424.5L545.2 424.9L538.5 425.8L532 427.3L525.7 429.3L519.5 431.9L515.8 434.3L513.3 437.6L511.8 441.6L511.4 444.8L511.6 448L512.4 451.1L513.8 454L516 456.2L518.4 457.9L521 459.1L525.1 460.5L529.5 461.2L547.3 462L545.3 485.4L366.8 484.6L359.3 483.7L351.9 482.3L337.2 478.6L350.1 479.5L363 479.9H375.9L401.6 478.7L414.5 477.5L420.7 475.9L426.6 473.9L432.3 471.4L437.7 468.4L442.8 465L447.8 461.3L452.5 457.3L457 452.9L462.6 446.7L467.9 440.1L472.7 433.2L481.4 418.8L485.1 411.6L489.1 400.5L491.9 388.4L492.7 382.3L492.9 376.2L492.8 371.6L491.5 362.8L490.2 358.5L488.6 354.4L486.6 350.5L484 346.7L481 343.2L477.8 340.2L474.5 337.7L470.9 335.6L467.3 333.9L462.1 332.1L456.8 330.9L451.3 330.3H445.7L440.1 330.7L434.6 331.6L423.8 334.5L418.7 336.5L409.5 340.9L400.5 345.8L391.9 351.2L383.6 357.2L375.6 363.6L368 370.5L360.8 377.7L353.9 385.3L347.4 393.3L341.3 401.5L335.6 410L330.3 418.7L327.3 424.4L324.9 430.2L323.1 436.1L321.8 442.3L321 448.5L320.7 454.8L320.8 461.1L321.4 467.4L329.4 508.2L325 506.4L321 504.2L317.5 501.5L314.2 498.4L311.3 495.1L308.7 491.4L304.2 483.4L302.4 479.2L298 466.4L296.2 458.2L295.1 450L294.6 441.8V433.5L295.2 425.3L296.2 417.1L299.2 400.8L304.5 380.7L322.6 322.3L333.1 291.4L339.1 276.3L343.4 266.4L348.1 256.6L357 239.6L367 216.9ZM517 179.6L528 178L538.9 176.9L549.9 176.4H560.9L572 176.8L583 177.7L581.5 176.2L578.1 174.1L575.3 173.2L572.3 172.7L560 172L543.2 171.9L533.8 172.6L526.7 174.3L523.3 175.6L520.1 177.4L517 179.6ZM614.2 175.6V180.2L623 181.3L631.6 182.9L640.1 185.1L648.4 187.9L656.5 191.1L664.4 195L662.4 191.6L660 188.7L657.4 186.4L651.2 182.6L647.8 181.2L642.4 179.5L636.7 178.4L614.2 175.6ZM437.7 200L456.1 194.5L462.2 192.3L468.1 189.7L473.6 186.7L477.1 184.4L483.2 179L470.4 180.9L463.9 182.3L457.5 184.2L453.4 185.9L449.6 187.9L446.1 190.2L442.9 192.9L440.1 196.2L437.7 200ZM522.9 396L546.2 396.4L569.5 397.7L572.7 401.4L576.2 404.6L578.8 406.3L581.6 407.7L584.8 408.8L579.4 396.4L582 390.3L576.4 390.9L565.3 391.1L540.3 389L529.2 388.5L527.2 389.1L525.5 390L524.3 391.4L523.4 393.4L522.9 396Z" fill="#FDFDFD"/>
<path d="M441.6 386.5L445.7 384.6L448 384.2L452.6 384.3L454.9 384.9L457.1 385.7L461 388.2L462.6 389.8L463.9 391.7L464.8 393.9L465 396.8L464.8 399.5L464 402.2L462.7 404.7L461.2 407L457 410.9L452 413.6L449.4 414.4L446.7 414.7L444 414.6L441.4 414L438.9 412.8L436.5 411L434.6 409L433.4 407L432.7 404.8L432.4 400.2L432.9 397.8L434.8 393.4L436.2 391.3L437.8 389.5L441.6 386.5ZM446.2 391.2L443.3 393.4L441.7 396.4L441.3 399.7L441.7 402.3L442.6 404.9L444.7 405.8L446.7 406.2L448.7 406.1L452.5 404.8L454.3 403.7L457.1 400.6L458.9 397L459 395.6L458.7 394.2L456.8 392L455.4 391.1L453 390.2L450.5 389.9L448.8 390L446.2 391.2Z" fill="#FDFDFD"/>
<path d="M645.7 387.1L647.8 385.4L650.1 384.2L652.5 383.5L655 383.4L657.5 383.6L659.9 384.3L662.3 385.4L666.3 388.4L667.9 390.4L669.1 392.5L669.9 394.8L670.1 397.3L669.8 399.9L668.1 405.5L666.7 408L664.9 410.2L662.6 411.9L660.2 413.3L657.4 414.2L654.6 414.7L651.8 414.6L649.1 414.1L646.5 413.1L644.2 411.5L642.1 409.2L640.4 406.8L639.4 404.3L639 401.7L639.1 399L639.6 396.4L640.7 393.7L642 391.3L645.7 387.1ZM649.6 391.2L647.6 392.4L646.3 393.9L645.5 395.5L645.2 399L646.4 402.5L648.7 405.3L650.1 406.3L651.7 406.8L653.4 407L655 406.6L656.7 405.7L659.9 402.6L660.8 401.2L661.5 398L661 394.9L659.9 392.8L658.4 391.1L655.8 389.6L652.9 389.5L651.3 390.1L649.6 391.2Z" fill="#FDFDFD"/>
<path d="M523.4 443.7L526.5 441.2L529.6 439.1L532.9 437.4L536.4 436.1L541.3 434.8L546.3 434.1L551.4 433.8L556.6 434.1L566.8 435.7L571.9 437.1L581.2 440.5L580 442.6L578.7 444.1L577.3 445L575.7 445.5L572 445.6L563.2 444L554.3 443.5L535.8 444.2H529.6L523.4 443.7Z" fill="#FDFDFD"/>
<path d="M430.1 492.9L522.9 492.4L662.2 492.6L729.9 492.4L744 493.1L751 494.1L751.9 496.9L750.2 498.8L748.3 500.3L746.2 501.3L743.8 501.9L741.2 502.1L738.1 501.9L662.4 501.1L586.6 500.8L510.8 501L435.1 501.9L359.3 503.3L359.9 536.8L359.8 637.5L360.1 671L360.9 704.6L358 719.7L356.6 730.7L353.6 735.7L351.3 733.6L349.5 731.4L348.2 729.1L346.6 723.9L346 716.9L345.3 564.6L345.5 529.8L346.1 494.9L360.1 493.8L374.1 493.2L430.1 492.9Z" fill="#FDFDFD"/>
<path d="M215.9 601.4L227.2 598.4L222.4 605.3L218.1 612.5L214.2 619.8L210.7 627.4L204.9 643L200.5 659.3L200.2 651.2L200.6 647.3L201.7 641.5L203.3 635.7L207.3 624.4L209.7 620.9L213.3 613.5L214.6 609.6L215.4 605.6L215.9 601.4Z" fill="#FDFDFD"/>
<path d="M588.5 743.3L599.5 743.4L605.2 766.3L610.5 789.3L612.6 800.9L614.1 812.5L604.5 813.4L585.3 814.1L502.3 813.8L493.9 813.4L488.4 812.7L482.9 811.6L477.5 810L480 798.8L483.1 787.7L496.6 743.8L510.1 744.7L501.5 772.7L491.4 807.5L603.9 807.9L599.4 791.9L595.4 775.9L591.7 759.7L588.5 743.3Z" fill="#FDFDFD"/>
<path d="M517 179.6L520.1 177.4L523.3 175.6L526.7 174.3L533.8 172.6L543.2 171.9L560 172L572.3 172.7L575.3 173.2L578.1 174.1L581.5 176.2L583 177.7L572 176.8L560.9 176.4H549.9L538.9 176.9L528 178L517 179.6Z" fill="#8B8989"/>
<path d="M614.2 175.6L636.7 178.4L642.4 179.5L647.8 181.2L651.2 182.6L657.4 186.4L660 188.7L662.4 191.6L664.4 195L656.5 191.1L648.4 187.9L640.1 185.1L631.6 182.9L623 181.3L614.2 180.2V175.6Z" fill="#8B8989"/>
<path d="M522.9 396L523.4 393.4L524.3 391.4L525.5 390L527.2 389.1L529.2 388.5L540.3 389L565.3 391.1L576.4 390.9L582 390.3L579.4 396.4L584.8 408.8L581.6 407.7L578.8 406.3L576.2 404.6L572.7 401.4L569.5 397.7L546.2 396.4L522.9 396Z" fill="#8B8989"/>
<path d="M129.6 490L139.6 484.6L143.6 487L147.2 489.8L150.3 493L153.1 496.5L157.9 504.3L169.7 529.3L166.9 531.7L163.7 533.6L156.8 536.1L149.6 537.8L139.4 507.9L135.6 498.1L129.9 495L132.3 502.6L140.8 524.9L143.8 535L144.8 540.2L138.3 533.7L132.9 526.2L130 520.8L127.7 515.2L125.9 509.3L124.7 503.2L124.1 497.1L124.2 491L129.6 490Z" fill="#8B8989"/>
<path d="M183.4 488.6L189.3 495L191.9 498.6L194.1 502.3L196.1 507.7L196.6 510.4L196.7 513.2L196.3 516.1L194.9 521.6L194 523.6L192.9 525.1L191.5 526.4L187.9 528.3L175.4 531.7L175 518.3L177.4 515.5L179.2 512.5L180.6 509.4L181.9 504.4L182.7 499.1L183.4 488.6Z" fill="#8B8989"/>
<path d="M359.3 503.3L435.1 501.9L510.8 501L586.6 500.8L662.4 501.1L738.1 501.9L740 517.4L740.7 533L740.5 718.8L501.3 718.5L437.6 718.8L389.8 718.2L368.5 718.9L358 719.7L360.9 704.6L360.1 671L359.8 637.5L359.9 536.8L359.3 503.3ZM538 634L552 632.8L559 631.7L565.8 630L563.7 627.7L561.6 626.1L559.3 625L554.3 624L547.5 624.2L535.3 625.9L536.7 607.4L546.5 615.4L556.9 614.1L562 613.1L570.2 610.5L576.4 607.1L566.8 593.7L560 601.6L555.8 605.7L552.1 607.8L550.1 608.4L547.8 608.5L545.3 608L545.2 602.8L545.4 597.7L546.1 592.5L547.3 587.3L541.1 591.8L535.9 597.5L532 603.9L530.6 607.3L529.6 610.7L529.2 614.2V617.7L529.7 621.2L530.8 624.6L532 627L535.6 631.7L538 634Z" fill="#8B8989"/>
<path d="M125.8 572L126.3 567.8L127.4 564.1L128.8 560.8L130.8 557.7L133.1 554.8L135.7 552.3L141.7 547.9L150.4 543.6L155.9 541.5L166.7 538.4L179.5 537.5L192.4 537.1L201.1 537.2L209.7 537.7L218.2 538.6L226.7 540L235 541.9L243.2 544.5L245.8 545.6L247.9 547L249.6 548.7L250.9 550.8L251.9 553.3L252.5 556.3L245.6 554.5L231.6 551.8L221 550.7L210.3 550.1L188.8 550L167.4 550.5L163.4 550.7L155.6 552.1L150 554L144.6 556.4L134 562L138.8 568.7L145.9 575.9L150.7 579.7L160.9 586.5L129.6 584.1L126.8 588.7L126 580.3L125.8 572Z" fill="#8B8989"/>
<path d="M143.1 562.8L147.9 561L157.7 558.5L167.8 557.4L172.9 557.3L179.1 578.1L166.1 575.2L157.8 572.4L150 568.4L146.5 565.8L143.1 562.8Z" fill="#8B8989"/>
<path d="M194.5 556.8L213.1 556.9L222.3 557.5L237.6 559.3L249.6 562L248.6 575L248 579.3L245.9 587.7L233.7 592.8L216.9 592.6L221.7 590L241.3 581L246 578.3L245.4 575.7L244.4 573.4L243.1 571.3L240.5 568.5L237.5 566L230.6 562L223.6 558.7L230.3 577.8L220.3 578.2L200.4 577.9L194.5 556.8Z" fill="#8B8989"/>
<path d="M163.1 596.3L181.3 595.6L190.3 595.7L199.4 596.4L193.1 615.3L187.4 634.5L182.6 633.8L179.5 625.8L176.1 618.1L172.2 610.6L167.9 603.4L163.1 596.3Z" fill="#8B8989"/>
<path d="M181.1 639.1L185.9 654.9L187.6 658.6L189.8 662.1L208 664.7L208.9 658L233.1 664.2L228.2 667.1L210.3 667.9L192.4 668.1L183.4 667.6L174.5 666.7L169.3 664.6L164 662.9L158.6 661.6L147.6 660.1L142 659.9L159.6 658.7L184 656.4L181.1 639.1Z" fill="#8B8989"/>
<path d="M155 687.6L189.3 687L200.7 687.3L208.2 687.9L215.8 688.8L223.3 690.2L219.1 694.7L216.7 696.6L214.1 698.2L210.3 699.5L197.8 700.7L187.4 701.3H176.9L166.4 700.8L145.7 698.6L155 687.6Z" fill="#8B8989"/>
<path d="M499.7 744L520.1 743.5L540.7 743.3L581.8 744L586 756.3L587.7 762.7L594 792L596.4 801.6L527.7 801.7L493.4 800.8L501.5 772.7L510.1 744.7L499.7 744Z" fill="#8B8989"/>
<path d="M887.6 750.9L902.3 749.6L909.7 748.7L916.9 747.3L926.3 744.4L930.8 742.4L931 745.3L930.6 747.6L929.6 749.4L928.2 750.8L926.3 751.9L917.6 753.9L907.3 755.2L899.1 754.8L895.1 754L891.3 752.7L887.6 750.9Z" fill="#8B8989"/>
<path d="M418.8 336.5L429.1 332.9L434.6 331.6L440.1 330.7L445.7 330.3H451.3L456.8 330.9L462.1 332.1L467.3 333.9L470.9 335.6L474.5 337.7L477.8 340.2L481 343.2L484 346.7L486.6 350.5L488.6 354.4L490.2 358.5L492.3 367.2L492.8 371.6L492.9 376.2L492.7 382.3L491.9 388.4L489.1 400.5L485.1 411.6L477.2 426L472.7 433.2L467.9 440.1L462.6 446.7L457 452.9L452.5 457.3L447.8 461.3L442.8 465L437.7 468.4L432.3 471.4L426.6 473.9L420.7 475.9L414.5 477.5L388.8 479.5L375.9 479.9H363L350.1 479.5L337.2 478.6L322.5 473.6L321.4 467.4L320.8 461.1L320.7 454.8L321 448.5L321.8 442.3L323.1 436.1L324.9 430.2L327.3 424.4L330.3 418.7L335.6 410L341.3 401.5L347.4 393.3L353.9 385.3L360.8 377.7L368 370.5L375.6 363.6L383.6 357.2L391.9 351.2L400.5 345.8L409.5 340.9L418.8 336.5ZM441.6 386.5L437.8 389.5L434.8 393.4L433.7 395.5L432.4 400.2L432.3 402.5L432.7 404.8L433.4 407L434.6 409L436.5 411L438.9 412.8L441.4 414L444 414.6L446.7 414.7L449.4 414.4L452 413.6L454.6 412.4L459.2 409.1L461.2 407L462.7 404.7L464 402.2L464.8 399.5L465 396.8L464.8 393.9L463.9 391.7L462.6 389.8L461 388.2L457.1 385.7L454.9 384.9L452.6 384.3L448 384.2L445.7 384.6L441.6 386.5Z" fill="#39292C"/>
<path d="M614.7 365.8L615.1 362.2L617 355.5L618.4 352.3L620.8 348.4L623.7 344.8L627 341.5L630.7 338.7L634.7 336.3L638.9 334.3L643.4 332.9L648 332L652.6 331.7H659.4L665.9 332.2L672.3 333.3L678.5 334.8L684.7 336.8L696.6 341.9L702.4 345L709.8 349.5L717.1 354.5L724.1 359.9L734.2 368.4L743.6 377.2L750.9 384.9L758.2 392.9L765.2 401.2L771.7 409.9L775.7 415.9L779.3 422.1L782.4 428.5L786.1 438.5L787.4 443.7L788.4 449.1L788.6 456.3L787.2 462.9L785.6 467.1L783.5 471L780.8 474.7L777.7 478L774.3 481.1L770.5 483.8L766.5 486.1L762.4 488L758 489.6L754.1 494L751.9 496.9L749.1 488.1L737.4 486.8L719.9 485.6L706.8 484L699.8 482.6L692.9 480.7L686.2 478.3L679.7 475.5L673.4 472.2L667.3 468.6L661.4 464.6L655.8 460.2L650.5 455.5L645.5 450.4L640.8 445.1L636.4 439.5L632.4 433.6L628.7 427.5L625.4 421.2L622.5 414.7L620 408.1L618 401.3L616.4 394.3L615.2 387.3L614.6 380.2L614.4 373.1L614.7 365.8ZM645.7 387.1L642 391.3L640.7 393.7L639.6 396.4L639.1 399L639 401.7L639.4 404.3L640.4 406.8L642.1 409.2L644.2 411.5L646.5 413.1L649.1 414.1L651.8 414.6L654.6 414.7L657.5 414.2L660.2 413.3L662.6 411.9L664.9 410.2L666.7 408L668.1 405.5L669.8 399.9L670.1 397.3L669.9 394.8L669.1 392.5L667.9 390.4L666.3 388.4L662.3 385.4L659.9 384.3L657.5 383.6L655 383.4L652.5 383.5L650.1 384.2L647.8 385.4L645.7 387.1Z" fill="#39292C"/>
<path d="M192 446.3L194.7 446.6L197.2 447.3L199.4 448.5L203.3 452L204.9 454.2L207.1 457.9L210.2 466L211.2 470L212.2 477L210.1 479.1L211.4 503.2L210.8 511.2L210.1 515.2L205.7 519.3L201.7 523.6L197.9 528.1L215.1 531.7L217.3 509L217.9 497.7L218 486.3L222.8 488L224.2 497.3L224 509.1L222.7 530.4L228.5 532.1L251.3 540.5L257.1 542L264 530.4L269.2 537.3L266.2 540L263.6 542.8L261.4 545.8L259.7 549L257.8 553.5L256.4 558.2L255.4 563.2L254.6 570.9L254.3 594.7L254 602.4L253.2 609.7L261.5 615L257.8 622L260.2 629.5L263.1 636.8L266.3 643.9L271.7 654.3L277.5 664.5L277.2 672.9L272.3 667.2L268 661.2L264.1 655L260.7 648.5L257.7 641.7L255.2 634.9L253 627.8L251.2 620.6L249.5 610.9L248.3 601.2L247.6 591.3L243.3 593.9L239.3 596.9L235.6 600.1L232.2 603.6L228.1 608.7L224.5 614.2L221.2 620.1L215.9 632.4L213.8 638.8L211.1 648.6L208.9 658L208 664.7L189.8 662.1L187.6 658.6L185.9 654.9L181.1 639.1L184 656.4L177.1 657.1L168.8 636.1L163 624.8L157.4 616.7L154.1 613.1L150.4 609.7L146.3 606.8L152.4 599.8L159.3 609L163.1 613.4L167.2 617.5L165.2 613.3L160.2 605.5L151.4 594.8L138.4 593.8L134.3 592.9L131.7 591.9L129.2 590.5L126.8 588.7L129.6 584.1L160.9 586.5L150.7 579.7L145.9 575.9L138.8 568.7L134 562L144.6 556.4L150 554L155.6 552.1L163.4 550.7L167.4 550.5L188.8 550L210.3 550.1L221 550.7L231.6 551.8L245.6 554.5L252.5 556.3L251.9 553.3L250.9 550.8L249.6 548.7L247.9 547L245.8 545.6L243.2 544.5L235 541.9L226.7 540L218.2 538.6L209.7 537.7L201.1 537.2L192.4 537.1L179.5 537.5L166.7 538.4L155.9 541.5L150.4 543.6L145.1 546L138.6 550L133.1 554.8L130.8 557.7L128.8 560.8L127.4 564.1L126.3 567.8L125.8 572L124.1 569.6L123 567.4L122 563.2V560.4L122.6 557.7L123.7 555.1L127.1 550.3L129.4 548.2L134.5 544.7L137.4 543.3L129.8 530.2L126.3 523.4L123.3 516.4L121.7 511.6L120.6 506.7L120 501.8L120.1 494.5L121.9 486.8L122.7 484.2L124.1 481.6L125.9 479.2L128 477.2L131.3 475.4L134.8 475L136.7 475.4L138.6 476.4L145.8 481.1L152 487L157.4 493.7L159.6 497.4L163.4 505.1L172.8 493.7L175 518.3L175.4 531.7L184.8 529.3L189.8 527.5L192.9 525.1L194 523.6L194.9 521.6L196.2 516.1L196.7 513.2L196.6 510.4L195.3 505L191.9 498.6L186.4 491.6L176.4 481L174.3 492.4L168.6 497.2L174 476.3L177.8 464.6L179.8 460.3L184.2 453.4L189.1 448.5L192 446.3ZM187.9 467.3L190.5 470.7L192.6 474.3L195.5 481.8L197.1 489.7L199.9 514.3L202 511.1L203.5 507.8L204.5 504.3L205.4 497.2L204.6 487.8L200 465L198.9 457.5L198.4 456L197.6 455L195.5 453.9H194.1L192.2 454.5L190.1 455.6L188.3 457.1L186.2 460.4L185.7 463.2L186 464.6L186.7 465.9L187.9 467.3ZM187.9 485.4L188.6 482.7V479.7L188.1 476.8L187.1 473.9L185.7 471.3L183.9 469.2L182.4 469.8L181.3 470.7L180.5 471.9L179.7 474L179.5 476.5L179.9 479L181.5 482.8L183.6 484.9L184.9 485.5L186.3 485.7L187.9 485.4ZM129.6 490L124.2 491L124.1 497.1L124.7 503.2L125.9 509.3L127.7 515.2L130 520.8L132.9 526.2L135.5 530.1L141.4 537.1L144.8 540.2L143.8 535L140.8 524.9L132.3 502.6L129.9 495L135.6 498.1L139.4 507.9L149.6 537.8L156.8 536.1L163.7 533.6L166.9 531.7L169.7 529.3L157.9 504.3L153.1 496.5L150.3 493L147.2 489.8L143.6 487L139.6 484.6L139.1 483.1L138.4 482.2L137.5 481.5L135.8 481.1L133.9 481.4L132 482.1L130.4 483.2L129.1 484.7L128.4 486.4V487.5L128.7 488.7L129.6 490ZM143.1 562.8L146.5 565.8L150 568.4L157.8 572.4L166.1 575.2L179.1 578.1L172.9 557.3L167.8 557.4L157.7 558.5L147.9 561L143.1 562.8ZM194.5 556.8L200.4 577.9L220.3 578.2L230.3 577.8L223.6 558.7L234.1 563.9L237.5 566L240.5 568.5L243.1 571.3L244.4 573.4L245.4 575.7L246 578.3L241.3 581L221.7 590L216.9 592.6L233.7 592.8L245.9 587.7L248 579.3L248.6 575L249.6 562L237.6 559.3L222.3 557.5L213.1 556.9L194.5 556.8ZM163.1 596.3L167.9 603.4L172.2 610.6L176.1 618.1L179.5 625.8L182.6 633.8L187.4 634.5L193.1 615.3L199.4 596.4L190.3 595.7L181.3 595.6L163.1 596.3ZM215.9 601.4L215.4 605.6L214.6 609.6L213.3 613.5L209.7 620.9L207.3 624.4L203.3 635.7L201.7 641.5L200.6 647.3L200.2 651.2L200.5 659.3L204.9 643L210.7 627.4L214.2 619.8L218.1 612.5L222.4 605.3L227.2 598.4L215.9 601.4Z" fill="#39292C"/>
<path d="M864.4 755.2L867.4 751.4L870.7 748.1L874.2 745.2L882.1 740.6L886.3 738.8L892.9 736.5L899.7 734.6L927.1 728.6L930.4 732.4L933.4 736.5L936.1 740.7L940.4 749.8L942.1 754.6L935.4 756.4L921.6 759.2L911.2 760.7L879.8 764.2L883.9 752.1L864.4 755.2ZM887.6 750.9L891.3 752.7L895.1 754L899.1 754.8L907.3 755.2L911.5 754.8L923.6 752.6L926.3 751.9L928.2 750.8L929.6 749.4L930.6 747.6L931 745.3L930.8 742.4L926.3 744.4L916.9 747.3L909.7 748.7L902.3 749.6L887.6 750.9Z" fill="#39292C"/>
<path d="M263.4 708.1L277.6 696.5L285.3 691.8L300.2 705L287.9 705.5L275.6 706.6L263.4 708.1Z" fill="#E7997D"/>
<path d="M800 701L801.4 698.1L803 696L805 694.5L809.6 692.6L812.3 692.1L828.8 691.4L864.4 691.3L876.2 691.6L891.9 692.9L899.7 694.1L896.9 697L894 699.1L891 700.6L887.7 701.5L884.2 701.8L867 701.1L813.4 701.4L800 701Z" fill="#E7997D"/>
<path d="M153.4 705L163.7 706.1L174 706.7H184.3L194.6 706.3L215.1 704.6L221.3 713.1L228 721.3L223.7 724.2L219.3 726.5L214.7 728.2L205.1 730.5L200.1 731.1L192.5 731.4L184.8 731.3L154.5 729.3L153.4 705Z" fill="#E7997D"/>
<path d="M802.8 709.2L876 709.1L894.3 709.4L912.5 710L915.6 710.3L918.5 711L921.3 712.1L925.3 714.2L929 716.8L883 726.9L867.8 730.6L847.8 736.6L837.9 740.2L811.4 717.1L802.8 709.2Z" fill="#E7997D"/>
<path d="M249 735.1L249.4 732.9L250 724.4L251 719L252.6 716.1L255 714.3L256.8 713.9L259 713.8L295.3 713L307.4 713.4L323.5 714.9L331.4 716.2L334 720.4L340.9 733.5L344.7 738.9L346.9 741.3L351.4 742.7L356 743.5L360.7 744L374.7 744.3L450.8 744.8L488.8 744.5L480.2 771.7L421.8 771.3L188.5 772.7L130.1 772.3L157.1 734.5L165.8 735.4L183.3 735.9L192 735.6L200.6 734.8L209.2 733.6L217.8 731.9L226.2 729.7L234.6 727L236.9 730.9L233.1 734.3L229.6 747.4L227.1 760.8L237.4 748.2L247.1 735.2L249 735.1Z" fill="#E7997D"/>
<path d="M764.8 711.7L785.4 709.8H790.6L795.7 710.4L803.7 716L819 727.9L826.3 734.4L833.1 741.2L839.6 748.4L844.1 754.1L852.3 766.1L855.9 772.5L735.8 771.8L615.6 770.7L608 744L649.2 745L731.6 745.3L740.8 745.1L745.4 744.6L749.8 743.5L752.5 742.4L755.1 740.8L759.1 736.9L760.5 734.9L762.8 729.6L763.6 726.1L764.8 711.7Z" fill="#E7997D"/>
<path d="M920.6 722.8L925 721.1H928.5L930.7 721.8L932.7 722.9L934.7 724.5L937.3 727.4L955.5 753.4L958 757.5L961.5 764.8L963.2 771.2L884.5 772.3L876.1 772.1L867.9 771.3L862.7 769.6L860.2 768.2L870 766L879.8 764.2L911.2 760.7L921.6 759.2L935.4 756.4L942.1 754.6L938.4 745.2L933.4 736.5L930.4 732.4L927.1 728.6L920.6 722.8Z" fill="#E7997D"/>
<path d="M132.7 779.4H247.6L477.5 778.7L468.1 811.7L471.4 814.3L474.8 816.4L478.3 818L485.8 820.1L495.8 821.1L513.8 821.6L560.2 822L591.1 821.6L609 820.8L613.4 819.8L616.4 818.3L619.3 816.5L624.8 812.3L616.6 778.5L674.4 778.2L886 779.3L963 778.6L962.6 808.4L962.4 897.8H826.4L282.4 896.8H146.4L145.7 878.3L145.3 859.8V785.7L132.7 779.4ZM358.1 840.9L355.5 842.2L353.5 843.8L352.1 845.7L351.2 847.9L350.6 850.2V852.7L350.9 855.1L352.7 859.8L354.1 861.9L355.8 863.6L357.8 865.1L360 866.1L362.5 866.6L736.5 866.8L739.5 866.7L742.1 866.1L744.2 864.9L746.1 863.2L747.7 861.3L748.8 859L749.6 856.5L750 854V851.3L749.6 848.7L748.7 846.3L747.5 844L745.8 842.1L743.7 840.5L741.1 839.3L680.8 838.7L620.6 838.6L439.8 839.1L379.6 838.9L365.1 839.3L361.5 839.9L358.1 840.9Z" fill="#E7997D"/>
<path d="M360.5 847.6L367.7 846.7L382.2 845.8L415 846.2L478.4 846.3L635.9 845.4L670.9 845.5L740.8 846.8L741.1 858.8L680 858.9L496.8 858.4L435.7 858.5L369.9 859.1L364.8 858.3L362.4 857.4L360.6 856.2L359.6 855.2L358.7 852.7L358.8 851.3L360.5 847.6Z" fill="#E7997D"/>
<path d="M329 905.8L427.6 904.8L698.9 905.3L772.9 905L774.2 917.8L549.9 918.2L325.7 917.6L329 905.8Z" fill="#E7997D"/>
</svg>
