<svg width="1024" height="1024" viewBox="0 0 1024 1024" fill="none" xmlns="http://www.w3.org/2000/svg">
<g clip-path="url(#clip0_732_12715)">
<path d="M638 438.9L642.1 438.1L650.2 437.6L654.2 438L658.1 438.8L661.9 440L665.5 441.6L668.9 443.8L672.3 446.5L665.8 445.5L659.4 444.9L653 444.8L646.7 445.2L640.4 446.2L634.1 447.9L638 438.9Z" fill="#FCFAF8"/>
<path d="M388.7 449.9L389.2 446.4L390.1 443.2L391.4 440.3L393 437.6L394.9 435.2L397.1 433.1L399.6 431.3L402.4 429.8L408.4 427.9L415.2 427.5L409 433.7L402.6 439.4L395.8 444.9L388.7 449.9Z" fill="#FCFAF7"/>
<path d="M416.4 704.8L430.1 703.7L443.9 703L457.6 702.8L498.9 703.2L502.7 728.6L504.3 741.4L505.4 754.2L505.8 762.7L505.7 771.3L505.3 779.9L502.6 782.1L499.8 783.9L496.8 785.3L492.1 786.9L487.2 788L482.1 788.7L466.9 790L450.7 790.4L434.2 790L423.4 788.6L418.2 787.4L413 785.8L408 783.7L403.2 781.2L401.4 778.3L400.2 775.4L399.3 772.3L398.6 767.6V762.6L399 757.7L401.2 743.1L405.1 727.9L408.3 717.9L412.2 710.2L416.4 704.8ZM416.7 714L405.8 756.2L405.2 763L405.8 768.6L407.9 771.7L410.2 774.3L412.9 776.3L419.1 779.1L427.9 781.2L443.7 783.6L452.2 783.2L475.2 780.5L477.2 783.4L486.3 778.1L496.9 780.6L497.6 773.9L497.9 760.4L495.4 720L491 717.8L486.4 716.2L481.7 714.9L472.1 713.6L459.8 713.4L429.8 715.1H422.6L416.7 714Z" fill="#301B30"/>
<path d="M673.6 628.8L680.3 625.3L686.7 621.5L692.9 617.3L698.8 612.9L706.4 606.5L713.7 599.8L720.7 592.6L730.8 581.5L740.3 570.1L749.6 576.4L758.6 583.2L767.5 590.5L780 602.3L791.4 615.1L796.6 621.8L801.4 628.8L805.8 636L809.8 643.5L813.4 651.2L816.4 659.1L818.9 667.2L820.8 675.6L820.4 687.9L819.5 700.3L818 712.7L816.1 725L813.5 737.1L810.3 749L807.4 757.8L804.1 766.5L800.5 774.9L796.3 783.2L791.8 791.2L786.7 798.9L781.2 806.4L775.1 813.6L772.1 817L768.9 820L761.9 825.1L754.1 829.1L741.8 833.7L729.2 837.4L734.5 845.4L720.7 843.4L707 843.3L665.4 846.8L657.1 846.9L648.7 846.4L651.4 829.5L655.5 795.8L657 778.9L658.5 756.3L659.4 733.7L659.8 711L659.7 688.3L658.4 640.9L658.8 639.2L659.6 637.8L661.4 635.9L663.7 634.3L671.5 630.3L673.6 628.8Z" fill="#F3DDC8"/>
<path d="M429.5 244.6L458.1 241.1L472.4 239.8L486.9 239L501.3 238.5L515.7 238.6L530.1 239.1L544.4 240L558.7 241.6L573 243.7L587.1 246.3L601.2 249.6L614.3 253.7L626.7 259.2L634.6 263.6L642.3 268.5L649.6 273.9L656.6 279.7L663.3 285.9L669.8 292.4L675.9 299.3L687.1 313.6L688.7 320.7L672.7 311.1L676.2 351.4L677.5 371.5L678.4 405.1L677.8 432L666.1 427.1L659.9 425L653.7 423.3L649.5 422.6L645.3 422.4L638.1 423.1L632.2 425.2L629.2 426.9L626.1 428.9L621 433.5L619 436.1L616.6 439.9L614.7 444L613.2 448.3L611.3 457.3L610.4 468.9L610.5 475.7L606 472.7L601.4 470.2L596.6 468.1L586.5 464.9L573.5 462.5L565.5 461.6L549.7 460.2L539.5 459.9L522.3 460.4L508.7 462.1L502 463.4L495.4 465.1L488.9 467.2L482.6 469.8L476.5 472.8L470.6 476.3L468.2 456.7L465.7 446.1L462.4 438.2L460.2 434.5L457.5 431.1L454.3 427.9L450.5 424.4L446.4 421.4L442 418.9L437.3 416.9L432.4 415.4L427.4 414.4L422.3 414H417.3L412.2 414.5L407.2 415.6L402.5 417.2L397.9 419.3L393.5 421.9L389.5 425.1L382.6 432.3L379.9 435.9L377.5 439.7L375.5 443.7L373.2 449.2L371.4 454.9L370.1 460.9L368.6 469.9L365.8 497.2L388.3 501.7L379.9 500.9H368.4L356.8 501.1L345.2 501.7L333.6 502.9L326 504.1L318.5 505.7L311 507.7L303.8 510.1L296.7 513.1L289.7 516.6L285.3 519.3L281.3 522.2L277.6 525.5L272.4 531L267.7 536.9L259 549.1L238.9 531.1L229.3 521.6L220.1 511.6L214.3 504.7L203.6 490.3L198.8 482.7L194.4 474.8L190.4 466.7L191.9 455.6L194 444.6L196.7 433.8L199.9 423.2L203.7 412.8L208 402.5L212.8 392.5L218.1 382.7L223.8 373.2L229.9 363.9L236.5 354.8L243.4 346L250.8 337.5L258.4 329.4L266.3 321.5L274.6 314L283.2 306.7L292 299.9L301 293.4L310.2 287.3L319.2 281.5L328.4 276.2L337.9 271.2L347.5 266.8L357.4 262.7L367.3 259L377.4 255.7L387.7 252.8L401.5 249.4L415.5 246.7L429.5 244.6ZM619.4 364.1L615.5 366.9L614.1 368.6L612.4 371.5L609.9 378.1L607 388.3L621.4 388.9L631.7 388.6L636.4 387.7L639.4 386.7L641.9 385.3L644.2 383.5L645.6 382L647.8 377.7L648.5 374.9L647.7 371.7L646.4 368.9L644.6 366.5L642.4 364.4L639.9 362.8L637.1 361.6L634.1 360.8L631.1 360.5L628 360.6L625 361.2L622.1 362.4L619.4 364.1Z" fill="#786C81"/>
<path d="M421.4 697.3L447.5 696L460.6 695.9L473.7 696.2L486.8 696.9L499.8 698.2L502.3 701.4L504.4 704.7L506 708.3L508.4 715.7L509.2 719.7L509.9 725.7L511.7 750.2L512.6 756L513.5 770.4V774.2L513.1 777.7L512.5 779.9L510.4 783.7L508.9 785.3L506.9 786.5L497.5 789.5L490.6 791.1L483.7 792.2L473.1 793.3L462.5 793.8L441.3 794.1L433.6 793.7L420.4 792.5L410.2 790.3L405.2 788.7L400.5 786.6L395.9 784L394.9 776.6L394.4 769.1L394.3 761.6L394.8 754L395.7 746.5L397 739.1L400.8 724.5L403.3 717.4L406.2 711L409.9 704.8L412.2 702.1L414.8 699.9L419 697.9L421.4 697.3ZM416.4 704.8L412.2 710.2L408.3 717.9L405.1 727.9L401.2 743.1L399 757.7L398.6 762.6V767.6L399.3 772.3L400.2 775.4L401.4 778.3L403.2 781.2L408 783.7L413 785.8L418.2 787.4L428.8 789.4L442.4 790.3L450.7 790.4L466.9 790L476.9 789.2L487.2 788L492.1 786.9L496.8 785.3L499.8 783.9L502.6 782.1L505.3 779.9L505.7 771.3L505.8 762.7L505.4 754.2L504.3 741.4L502.7 728.6L498.9 703.2L457.6 702.8L443.9 703L430.1 703.7L416.4 704.8Z" fill="#919EA9"/>
<path d="M312 105.3L322 100.1L332.3 95.4L342.6 91.1L353.1 87.2L363.8 83.8L374.6 80.9L385.5 78.3L396.5 76.2L407.6 74.5L418.8 73.3L430 72.5L441.2 72.1L452.5 72L463.7 72.5L475 73.3L489 74.8L502.8 77L516.6 79.8L530.3 83.2L543.8 87.3L557 91.9L570 97L598.4 109.9L607.4 113.1L614.7 114.3L618.4 114.2L622.2 113.6L650.6 105.2L663.2 101.8L675.8 98.9L684.3 97.3L701.3 95L709.8 94.5L718.4 94.4L726.9 94.8L735.3 95.7L743.8 97.3L752.3 99.4L756.7 101.1L760.8 103L764.5 105.3L767.9 108L773.9 114.3L778.9 121.6L781.5 126.9L783.8 132.4L785.6 138.1L787 144L788.7 155.7L790 172.5L790.7 189.5V206.4L790.2 223.4L789.3 236.9L788 250.4L786.3 263.9L784.1 277.2L779.4 299.6L778 308.7L776.4 327.2L775.9 345.7L773.1 342.7L770.9 339.6L769.3 336.5L768.1 333.1L767.2 329.6L766.8 326L766.7 320.6L767.2 315L769.1 303.7L773.8 281L777.6 257.2L779 245.1L780.2 229.1L780.8 213V196.8L780.2 180.7L779.1 164.6L776.7 143.7L774.1 134L772.2 129.2L770 124.7L767.3 120.5L764.3 116.5L760.9 113L757.1 109.9L754 107.9L750.6 106.3L747 105.1L743.2 104.1L734.8 102.8L726.4 102L718 101.6L709.7 101.7L693.1 103L676.6 105.9L665.7 108.5L655 111.6L644.3 115.2L633.8 119.2L613.3 127.9L604.2 122.1L595 116.7L585.6 111.7L576.1 107L566.3 102.7L553.9 97.9L541.3 93.6L528.6 89.9L515.6 86.8L502.5 84.2L489.4 82.3L476.2 80.9L462.8 80.1L449.5 79.8L436.2 80.1L422.9 81L409.6 82.5L396.5 84.5L383.4 87.1L370.5 90.3L357.7 94L349.2 97L332.8 104L324.8 108L314.4 113.9L304.3 120.2L282.9 134.7L278.9 136.9L273.3 139.1L267.5 139.9L264.4 139.7L247.2 136.1L233 133.6L213.8 131.2L204.2 130.5L194.6 130.3L185.1 130.6L175.6 131.5L168.6 132.5L161.5 134L154.6 135.8L147.6 138.1L143 140L138.7 142.4L134.7 145.2L131 148.4L127.6 151.9L124.6 155.7L121.9 159.9L119.6 164.2L117.6 168.7L114.8 178.1L112.6 194.1L111.7 205.3L111.4 216.4L112 238.8L112.9 249.9L114.9 266.6L117.3 283.2L123.8 319.9L123.9 323.4L123.6 326.8L121.9 333.4L120.6 336.7L107.1 363.5L103.7 371.9L100.9 380.4L98.7 389.2L97.2 398L96.3 407L96 413.7L96.6 427.2L97.4 433.9L98.8 441.3L100.7 448.5L110.8 476.8L113 484L114.8 491.2L116.2 501.1L116.6 515.7L117.5 525.2L118.9 534.8L120.9 544.2L123.5 553.4L126.7 562.4L129.5 569.1L136.1 581.8L139.9 587.8L144 593.7L148.5 599.2L153.4 604.5L162.4 612.9L179 624.8L182.8 628.1L186.4 631.6L189.4 635.6L193.4 648.7L201 685.7L207.8 712.9L217.8 746.8L233.8 797.5L238.7 814.5L243 831.6L244.9 840.4L246.1 849.2L248.9 884.8L250.1 893.7L251.8 902.4L253.9 906.8L256.3 910.8L259.1 914.4L262.2 917.7L269.3 923.5L273.2 925.9L283 930.6L288.9 932.7L301.2 935.8L313.3 937.5L324.8 938.2L336.6 938.6L348.4 938.4L360.1 937.6L367.9 936.7L375.6 935.3L383.1 933.6L390.6 931.4L397.8 928.6L405 925.4L409.2 922.8L412.8 919.9L415.9 916.7L418.6 913.2L421 909.4L423 905.3L425.5 899L429.1 885.4L433.6 865.1L447.4 863.6L454.5 863.3L461.4 863.6L466 864.2L470.4 865.3L474.9 866.9L478 874.9L480.4 885.7L482.8 899L484.4 905.3L485.8 909.4L487.6 913.2L489.7 916.9L493.8 921.7L499.5 925.9L506.3 929.7L513.2 933L520.3 935.8L527.6 938.1L535.1 940.1L542.6 941.6L550.2 942.7L558 943.5L568.3 943.9L578.7 943.8L589 943.1L599.3 941.9L609.4 940.2L619.3 938.2L624.7 936.5L629.7 934.4L634.3 931.9L638.7 928.9L642.8 925.6L646.6 922L651.9 916.1L656.8 909.7L661.5 903L674.4 882.6L677.2 896.7L679.9 906L681.6 910.5L683.7 914.7L686.2 918.6L689.2 922.2L691.7 924.5L694.5 926.6L697.7 928.5L701.4 930L710.2 933L719.2 935.5L728.4 937.6L737.7 939.2L747.1 940.3L756.5 940.9L765.9 941L775.4 940.6L784.8 939.8L794.1 938.4L803.2 936.6L812.3 934.2L817 932.6L821.2 930.6L825.1 928.3L828.6 925.6L831.9 922.6L837.7 915.7L840.2 911.8L843.1 906.4L845.6 900.8L849.5 888.9L852.1 877L859.8 832.3L862 817.3L865.5 787.1L866.6 772L867.3 756.8L867.5 741.7L866.7 719.1L864.4 696.6L862.7 685.5L860.4 674.3L857.7 663.3L854.6 652.2L874.7 632.4L881.1 625.4L887.1 618.2L892.6 610.6L895.9 605.4L898.9 599.8L906.5 582.1L911 570L914.9 557.7L918.4 545.2L921.4 532.6L923.9 519.9L925.8 507.1L927.3 494.2L928.2 481.3L928.7 468.4L928.6 455.5L928 442.5L927 429.6L925.3 416.8L923.2 404L920.6 391.4L918.2 382.3L915.4 373.1L913.2 367.2L910.6 361.4L907.7 355.9L902.4 348.1L899.3 344.5L895.9 341.2L892.1 338L888.1 335.2L883.9 332.8L879.5 330.7L873.4 328.4L867.2 326.8L860.8 325.7L854.2 325.2H847.7L841.2 325.8L834.7 326.9L828.5 328.6L822.4 330.7L812.3 336L786.2 353.5L779 358.1L781.7 352.7L784.9 347.8L788.4 343.2L792.4 339.1L796.7 335.2L801.3 331.8L806.2 328.7L811.4 325.9L816.7 323.6L822.2 321.6L827.9 320L839.7 317.9L851.5 317.4L863.4 318.4L869.2 319.4L874.9 320.9L880.5 322.8L885.9 325L891 327.7L895.9 330.7L900.6 334.2L904.9 338L908.9 342.2L912.5 346.8L915.7 351.9L919.3 359L922.4 366.2L925 373.6L929.3 388.7L933 408.1L934.7 419.8L936.7 444.9L937.1 470.1L936.7 482.8L935.8 495.4L934.5 507.9L932.8 520.4L930.6 532.8L927.9 545.1L924.7 557.3L921 569.4L917 580.7L912.5 591.9L909.2 599.2L901.7 613.4L897.4 620.1L892.7 626.6L887.6 632.8L874.1 648.2L868.3 656.6L868.7 663.6L869.5 670.5L874.2 698.2L875.1 705.1L876.2 726.6L876.4 741.2L876.2 755.6L875.5 770.1L874.1 789.4L872.1 808.6L869.6 827.8L866.5 847L859.4 885L857.6 892.9L855.3 900.9L853.4 906.1L848.8 916L845.9 920.7L842.7 925L839 929L836 931.7L829.2 936.3L818.5 940.9L811.5 943.3L804.5 945.3L797.3 947L787.7 948.6L777.9 949.6L768.1 950.1L758.2 950L748.4 949.5L738.6 948.5L728.8 947.1L719.2 945.4L705 942.2L700.7 940.6L696.6 938.6L688.9 933.5L680.3 925.8L675.5 920.7L666.5 910.1L653.9 926.1L646 934.2L638.8 939.6L635 941.8L630.9 943.7L626.4 945.1L616.5 947.7L606.4 949.7L596.1 951L585.9 951.8L575.6 952L565.2 951.7L554.9 950.9L544.7 949.7L534.6 948.1L527 946.4L519.3 944.3L511.8 941.8L504.5 938.6L499.9 936.1L491.3 930.2L487.4 926.8L483.8 923L480.6 918.7L478.3 914.3L476.4 909.8L474.9 905.1L473.1 898L469.3 876.1L442.7 875.1L437.9 893.7L434 906.1L431.5 912L429.6 915.8L424.8 922.6L421.9 925.6L418.6 928.3L414.9 930.8L408.3 934.2L401.5 937.1L394.6 939.5L387.5 941.5L373.1 944.4L362.1 945.8L351 946.6L328.9 947.1L313.7 946.1L305.8 945L298 943.6L290.4 941.7L283 939.4L277.5 937.2L272.3 934.8L267.3 932L262.5 928.8L258 925.3L253.8 921.3L250 916.9L246.4 912L244.3 907.3L242.7 902.4L241.5 897.5L240.3 889.9L238.3 858.9L237.3 851.3L235.5 840.2L230.8 818.5L226.4 802.3L221.6 786.4L205.9 738.7L200.9 722.7L196.3 706.6L190.4 682L185.4 656.7L182.4 645.7L180.5 640.3L176.9 636.2L168.8 629L151.6 615.6L142.7 606.7L138.1 601.3L130 589.9L125.3 581.8L121.1 573.4L117.5 564.7L114.4 555.9L111.8 546.8L109.8 537.6L108.2 528.3L107.1 518.9L106.2 503.9L104.5 492.8L102.3 484.7L91.6 452.6L89.4 444.5L87.6 433.4L87 416.7L87.3 405.6L87.8 398.2L90 383.6L91.7 376.4L93.9 369.3L96.6 362.4L99.2 356.4L108.1 338.6L110.7 332.5L112.9 326.2L112.8 319.1L112.2 312L111.2 304.9L106 276.8L102.4 243.7L101.5 230.5L101.2 217.3L101.4 208.5L102 199.8L103.1 191.2L104.8 182.7L107 174.2L109.9 165.9L112.1 160.8L114.7 156.2L117.7 151.8L121.2 147.7L125 144L129.1 140.6L133.6 137.5L138.2 134.8L143.1 132.5L148.1 130.5L158.4 127.6L169.4 125.9L180.5 124.8L191.5 124.4L213.7 124.9L224.8 125.8L262.1 130.1L266.2 130L270 129.4L277.5 127L281.1 125.2L286.3 122.1L306.8 108.1L312 105.3Z" fill="#ECD9D8"/>
<path d="M289.6 148.6L298.5 141.8L307.6 135.5L317 129.7L326.6 124.3L336.5 119.3L346.6 114.8L356.9 110.8L367.4 107.2L378.1 104.1L388.8 101.5L399.7 99.3L410.6 97.6L421.7 96.4L432.7 95.7L443.7 95.4L465.4 95.7L475.8 96.2L486.2 97.2L496.5 98.6L506.8 100.5L516.9 102.9L527 105.6L537 108.7L550.1 113.4L562.9 118.7L575.6 124.6L588 131L600.1 137.9L612 145.2L634.6 135.9L646.1 131.7L657.7 127.9L669.5 124.4L681.3 121.4L693.3 118.9L705.4 116.9L717.5 115.4L727.4 115.9L732.3 116.7L740.3 119.1L746.1 122.1L748.7 124.1L751 126.4L753.1 129L755.5 133.1L757.3 137.4L759.9 146.4L761.9 155.6L763.2 169.4L763.9 183.1L764.1 196.9L763.7 210.6L762.7 224.4L761.3 238.1L759.3 251.7L756.8 265.2L753.8 278.7L750.4 292L746.5 305.2L742.1 318.3L745.9 329.3L750.2 340.1L768.4 382.9L772.5 393.8L776.1 404.8L779.9 419.8L781.2 427.5L782.3 447.2L782.5 457.1L782.2 467L781.5 476.9L780.3 486.7L777.4 501.2L775.4 508.3L771.5 520L769.6 524.4L756.8 547.7L753.6 554.1L756 557.3L761.4 563L770.9 570.2L780.8 576.7L784.3 568.4L787.3 559.9L789.9 551.4L792.2 542.8L794.6 531.2L796.5 519.4L797.8 507.6L798.7 495.7L799.1 483.7L798.7 459.8L797 436.1L796.2 429.2L791 400.7L790.3 393.6L790.1 388.9L790.4 384.3L791.1 379.7L792.3 375.3L794 370.9L796.4 366.5L798.9 362.5L801.6 358.8L804.6 355.5L807.9 352.6L815.3 347.6L823.4 343.9L829.1 342.2L835 341.1L841 340.5H847.1L853 341.2L858.9 342.4L863.3 343.7L871.5 347.2L879 352.1L882.4 355L885.5 358.3L888.4 361.9L891.9 367.5L895 373.3L897.8 379.2L900.1 385.2L902.7 393.4L904.8 401.8L906.4 410.4L908.2 423.4L909.5 436.5L911.6 462.5L910 488.9L908.7 502.3L906.9 515.6L904.6 528.7L901.8 541.8L899.3 551.5L896.3 561L893 570.3L889.2 579.5L884.9 588.5L880.1 597.2L874.7 605.6L868.8 613.8L863.3 620.2L851.3 632L832.1 648.5L839.2 670.8L842.2 682.1L844.8 693.6L846.9 705.1L848.6 716.7L849.7 728.3L850.3 740V751.8L848.6 776.2L846.4 800.6L844.4 816.8L842.1 833L839.3 849.1L836 865.1L832.2 881L827.7 896.7L826.5 899.7L823.3 904.8L821.3 906.9L818.3 909.4L815 911.5L811.4 913.3L805.6 915.4L799.6 917L787.9 919.4L777.1 920.2L758.8 920.6L744.2 919.6L737 918.7L729.9 917.3L722.9 915.5L716 913.2L709.3 910.4L702.8 907L700.6 903.9L698.7 900.7L697.2 897.2L695.5 891.8L693.7 880.4L692.2 863.3L671 863.2L649.7 863.6L648 869.1L643.7 887.4L642 893.4L639.9 899L638.2 902.6L636.1 905.9L633.6 908.8L629.1 912.5L623.2 915.2L615.7 917.5L608.2 919.4L600.5 920.9L592.7 922L584.9 922.6L569.3 922.8L561.5 922.4L551.1 921.1L540.8 919.3L530.7 916.9L520.1 913.2L515 910.8L510.3 907.9L507.4 905.6L504.8 903L502.4 900.1L501.3 894.8L500.7 889.5L500.4 884.2L501 852L457.5 848L435.7 846.3L413.9 845.3L412.1 878.3L410.2 889L407.2 897.4L403.7 900.6L396 906L391.9 908.1L386.2 910.6L380.3 912.5L374.1 914L361.5 915.9L355.2 916.5L336.4 917.1L312.7 916.3L299.6 914.5L289.5 911.8L284.6 909.9L280 907.5L275.5 904.7L273.3 902.8L271.6 900.7L270.4 898.4L269.1 894.7L268.3 890.7L267.2 878.4L262.8 844.4L260.1 829.5L256.9 814.7L253.3 800L249.2 785.4L244.7 770.9L234.4 741.2L229.6 725.7L225.1 710.1L221.1 694.4L217.5 678.6L214.5 662.6L212.1 646.6L209.7 628L208.8 625.9L207.5 624.1L205.1 621.6L181.8 605.2L174.8 599.5L168.1 593.4L161.9 586.9L156.1 580.1L152.1 574.7L148.4 569L145.2 563.1L142.2 557L137.3 545L135.4 538.9L133.1 529.6L131.4 520.1L130.1 510.6L127.4 481.8L117.2 450.9L114.3 440.4L112.7 433.3L111.6 426.3L110.9 419.2L110.8 413.8L111.1 408.5L111.8 403L114.5 390.4L116.6 383.5L119.2 376.8L125.5 363.8L129.1 357.5L140.8 339.2L141.1 335.8L140.9 329.1L137 309.1L133.9 289.5L131.2 269.8L129.8 256.7L128.8 243.5L128.2 230.3L128.1 217L128.5 203.9L129.6 190.7L130.3 186.1L132.8 177.2L134.5 172.9L136.7 168.9L139.1 165.1L142 161.6L145.2 158.4L148.8 155.7L151.7 154L158.1 151.4L161.7 150.5L170.5 149.2L188.3 147.7L197.2 147.5L209.1 147.9L220.9 148.8L232.7 150.4L244.5 152.4L256.1 155L269.9 158.6L271.9 158.9L273.9 158.7L276.7 157.8L279.5 156.3L289.6 148.6ZM346.8 131L326.9 143L307.5 155.7L295.2 165L289.3 170L295.7 186L280.2 182.3L249.6 173.2L239.2 170.9L228.7 169.1L218.1 167.7L207.4 166.8L196.8 166.3L175.4 166.4L164.7 167.1L180.2 185.9L196.2 204.3L228.7 240.6L221.5 235.8L214.6 230.6L208.2 225L198.9 216.1L189.9 206.8L163.7 178.1L154.6 169.1L154 175.9L152 180.6L150.5 185.3L149.5 190.3L149.1 195.3L148.6 209.5L148.5 223.6L149 237.7L149.9 251.8L151.3 265.9L153.2 279.9L155.4 293.8L158.1 307.7L164.7 335.2L172.7 362.3L176.1 353.9L191.7 320.9L195.1 312.5L193.9 310L205.1 312.2L200.1 325.4L197.9 332L196 338.8L191.8 347.1L188 355.6L184.6 364.5L181.8 373.5L179.5 382.6L177.7 391.9L176.4 401.2L175.8 410.6V419.9L176.3 427L177.1 433.9L178.3 440.8L179.9 447.7L178.7 450.2L190.4 466.7L194.4 474.8L198.8 482.7L203.6 490.3L208.8 497.6L220.1 511.6L229.3 521.6L238.9 531.1L259 549.1L281.1 563.2L293.9 570L304.7 574.4L314.8 579.2L324.9 583.5L335.2 587.3L345.7 590.7L359.8 594.5L374.1 597.8L388.6 600.5L403.2 602.6L417.9 604.3L432.6 605.6L454.7 607L476.6 608L522.1 605.2L537.4 603.8L567.8 600.2L582.9 597.8L597.9 594.9L612.7 591.5L634.7 585.4L656.1 577.9L666.7 573.5L677 568.7L687.2 563.5L697.2 557.8L706.9 554.2L711.5 552L718.3 548.2L724.8 543.9L737.3 534.8L741.5 531L745.2 526.9L748.5 522.6L751.3 518.1L754.6 511.7L757.3 505L759.4 498L762.4 483.6L763.3 476.2L764.1 465.2L764.5 454.5L763.3 444L761.7 433.6L759.5 423.4L756.9 413.2L750.6 393.2L745.1 378.4L727.1 334.7L722.8 320.9L717.9 307.3L714.2 298.3L710.1 289.6L705.7 281L700.8 272.7L695.3 264.8L689.4 257.2L697.9 252.8L713 274.9L729 296.4L732.8 281.7L736.1 266.8L739.1 251.8L741.5 236.8L743.4 221.7L744.7 206.5L745.2 195.1L745.3 183.7L745 172.3L744.3 161L741.3 146.9L740.1 143.5L738.4 140.5L735.4 137L733.4 135.6L728.8 134L724.1 133L719.4 132.6L714.6 132.7L705.1 133.8L681.3 139.6L661.8 145.1L652.2 148.4L642.8 152.2L633.6 156.3L627.1 157.6L620.8 159.5L608.4 164L595.8 155.5L582.8 147.4L574 142.4L564.9 137.8L555.6 133.6L548.4 131.5L533.8 128.1L528.4 125.5L522.9 123.3L517.3 121.5L508.7 119.2L482.4 114.3L453 112.7L438.3 113.2L430.4 112.8L422.6 113L414.8 113.6L399.4 116L391.8 117.7L369.2 124L346.8 131ZM809.3 374.2L808 378.9L807.1 383.6L806.9 388.4L807 393.2L808.3 402.8L815.1 431.3L815.9 446.5L816.3 461.7V477L815.8 492.2L814.8 507.4L813.1 522.5L811.5 533.8L809.5 545.1L807 556.2L804.2 567.4L798.5 580.6L795.9 587.4L793.7 594.3L795.7 598.5L800.6 606.5L804.9 612.1L818.3 628.4L823.9 626L829.2 623.3L834.1 620.2L838.8 616.7L844.7 611.5L850.1 605.9L855.1 599.8L859.7 593.3L863.9 586.7L867.7 579.8L872.7 567.2L877.1 554.4L880.8 541.5L884 528.5L886.5 515.3L888.6 502L890 488.6L890.9 475.2L891.3 461.7L891.2 448.2L890.6 434.8L889.5 421.3L887 408.9L883.9 396.7L881.3 388.7L878.3 380.8L874.8 373.1L871.2 369.8L867.3 366.8L862.8 364.1L858.2 361.9L853.3 360.1L848.3 358.8L843.2 358L838.2 357.8L833.2 358.1L829.5 358.8L826.1 359.8L819.6 363L816.6 365.1L814 367.6L811.5 370.6L809.3 374.2ZM129 427.7L130.7 436.4L132.8 445L135.4 453.4L138.3 461.8L145.3 477.9L153.8 493.4L163.6 508.1L174.5 522L182.5 530.7L190.8 538.9L199.7 546.7L208.2 553.6L216.9 560.1L225.9 566.2L235.2 572L247.8 579.2L260.7 585.8L273.9 591.9L287.4 597.4L301.1 602.5L314.9 607L328.9 611.2L342.9 614.9L357 618.2L373.2 621.5L389.3 624.3L405.6 626.5L421.9 628.2L438.3 629.4L454.6 630L471 630.2L487.4 630L503.9 629.2L520.2 628.1L536.5 626.5L565.9 622.9L578.9 620.9L591.9 618.5L604.8 615.6L617.6 612.2L630.2 608.3L642.7 603.8L654.8 598.8L666.8 593.2L675.5 588.6L684.1 583.7L692.4 578.4L700.6 572.8L676.5 582.9L652.2 592.5L639.8 596.6L615.5 603.2L603.7 605.9L591.8 608.2L573.9 611.2L519.9 619L509.8 618.7L497.2 619.6L483.9 621L472.2 621.4L463.4 621L428.3 618L419.6 617.7L392.2 614.1L378.5 611.8L364.9 609.1L351.5 605.8L338.2 602.1L328.3 599L309 591.6L289.2 582.6L279.3 577.3L269.5 571.7L259.9 565.6L250.7 559.1L241.7 552.3L233 545.1L224.6 537.5L216.6 529.5L208.9 521.3L201.7 512.7L194.7 503.8L188.2 494.5L182.2 485L176.6 475.3L171.4 465.2L167.8 456.8L164.7 448.3L162.2 439.7L158.1 422.1L154.5 399.7L149 359.4L145.3 364.3L138.9 374.6L133.9 385.8L131.9 391.5L130.4 397.4L129.2 403.4L128.5 409.4L128.2 415.5L128.4 421.6L129 427.7ZM144.8 506.2L145.9 515.1L147.6 523.9L149.8 532.6L154.4 545.3L160.3 557.3L163.8 563L167.6 568.5L171.8 573.7L176.4 578.8L182.4 584.7L188.7 590.3L195.1 595.5L201.9 600.5L211.1 606.6L220.7 612.3L230.6 617.5L251 626.8L261.4 631L277.2 636.8L293 642.1L312.1 647.6L331.4 652.7L344.4 655.7L357.4 658.2L370.5 660.4L383.7 662.1L396.9 663.1L410.2 663.5L423.4 665.2L436.5 666.4L449.7 667.2L462.9 667.4L476.1 667.2L489.2 666.5L502.4 665.4L515.5 663.9L541.7 659.7L554.6 657.1L567.5 654.1L584.6 649.6L601.5 644.6L618.1 639L642.8 628.9L654.9 623.3L666.8 617.2L674.5 612.8L682 608L689.2 602.9L696.2 597.4L702.8 591.5L709.1 585.2L699.7 589.6L662.8 608.7L653.3 612.8L640.8 617.7L628.2 622.1L615.5 626.1L602.7 629.6L589.8 632.7L563.7 637.8L550.6 639.8L533 642L515.3 643.7L497.6 644.9L462.1 646L444.4 646.1L428 644.9L411.6 643.3L395.3 641.2L379 638.6L362.9 635.5L346.9 631.8L323.1 625.2L311.4 621.4L285 611.8L270.4 605.9L256 599.4L245.4 594.1L235 588.4L224.8 582.4L214.9 576L205.2 569.2L195.9 562L187 554.2L178.4 546.1L172.3 539.8L166.7 533.3L144.8 506.2ZM673.6 628.8L671.5 630.3L663.7 634.3L661.4 635.9L659.6 637.8L658.8 639.2L658.4 640.9L659.7 688.3L659.8 711L659.4 733.7L658.5 756.3L657 778.9L655.5 795.8L651.4 829.5L648.7 846.4L657.1 846.9L665.4 846.8L707 843.3L720.7 843.4L731.7 845L705.5 855.6L710.1 886.6L714.9 892.1L717.6 894.7L720.4 897L724.7 899.2L735.3 901.6L743.6 902.9L752 903.7L760.4 904.2L768.8 904.1L777.2 903.6L785.5 902.6L793.7 901L803.4 898.5L804.8 897.9L807.2 895.5L808.3 893.5L811.7 885.1L815.9 870.1L819.6 855L822.6 839.8L825.1 824.5L827.3 809.2L829 793.7L831.1 770.5L832.7 747.3L831.8 729.1L830.2 710.8L828.8 701.8L826.9 692.9L823.2 681.3L820.8 675.6L818.9 667.2L816.4 659.1L813.4 651.2L809.8 643.5L805.8 636L801.4 628.8L796.6 621.8L791.4 615.1L780 602.3L767.5 590.5L758.6 583.2L749.6 576.4L740.3 570.1L730.8 581.5L720.7 592.6L713.7 599.8L706.4 606.5L698.8 612.9L692.9 617.3L686.7 621.5L680.3 625.3L673.6 628.8ZM228.8 633.8L230.3 646.5L232.3 659L234.7 671.4L240.8 695.9L249.8 726.3L267.4 780.6L272.9 798.8L277.8 817.1L280.6 829.4L283 841.8L285 854.2L286.5 866.8L287.3 879.5L287.5 892.3L291 891.4L296.2 894L301.5 896L306.9 897.5L318.2 899.2L323.9 899.6L341 899.7L355 898.9L362 898L369 896.7L373.5 895.4L382.1 892L386.1 889.7L389.9 887L393.4 883.8L395.8 876.7L397.5 869.4L398.6 862L399.1 854.5L399.2 847L398.8 839.5L392.2 832.4L377 819.9L369 812.5L361.4 804.8L354.1 796.8L347.1 788.5L340.4 779.9L334.3 771L328.5 761.7L323.3 752.2L331.7 760L364.3 793.5L372.8 801.4L378.8 806.3L384.9 810.7L391.4 814.8L401.6 820L412.8 823.9L424 826.3L435.2 828.3L446.5 829.8L463.6 831.4L480.7 832.4L516.7 833.6L519.8 834.7L521.9 836L528.1 840.6L525.1 843.5L522.7 846.4L520.8 849.5L518.3 856.3L517.6 859.9L517 865.4V871.1L517.7 893.9L521.1 893.4L526.2 896.4L531.5 898.9L536.9 901L542.4 902.7L549.9 904.4L557.5 905.5L565.3 906H573.1L580.9 905.5L588.7 904.6L604 901.8L614.4 899.1L616.9 897.9L619 896.3L620.8 894.4L623.5 889.6L626.2 881.5L628 873.4L635.1 830.1L640.7 786.6L642.9 764.8L644.6 742.9L645.8 721.1L646.6 699.2L647.9 680.1L647.8 661.1L647.1 651.6L646 642.1L619.1 652.7L605.4 657.4L591.5 661.8L577.6 665.7L563.6 669.1L549.4 671.9L535.1 674.2L510 677.2L488.6 678.8L472.5 679.2H456.4L408 678.6L391.9 678.8L345.6 670.2L315 663.3L299.8 659.3L284.7 654.9L269.8 650L255.1 644.5L228.8 633.8Z" fill="#25182B"/>
<path d="M346.8 131L380.5 120.7L399.4 116L414.8 113.6L422.6 113L430.4 112.8L438.3 113.2L419.6 116.1L443.3 151.2L448.9 160.2L454.1 169.4L457.2 175.8L462.4 189L465.7 199.2L468.4 209.6L473.2 230.4L513.8 232.1L478.3 232.9L460.5 233.8L442.7 235.1L431 236.4L419.2 238.1L407.5 240.3L397.4 208.7L389.8 187.9L385.6 177.7L381.1 167.6L376 157.8L368.7 145.3L366.7 142.7L364.3 140.5L360.3 137.6L355.9 135.2L346.8 131Z" fill="#94879B"/>
<path d="M438.3 113.2L453 112.7L482.4 114.3L491.9 132.6L496.3 142L500.3 151.5L503.8 161.2L507 171L509.6 180.9L511.7 190.9L513.2 201.1L514.3 216.4L513.8 232.1L473.2 230.4L468.4 209.6L465.7 199.2L462.4 189L457.2 175.8L454.1 169.4L448.9 160.2L443.3 151.2L419.6 116.1L438.3 113.2Z" fill="#EEDAC8"/>
<path d="M482.4 114.3L508.7 119.2L517.3 121.5L523 123.3L528.4 125.5L533.8 128.1L539.3 140.4L547.3 161.3L552.4 178.5L554.4 187.2L555.9 196L557 204.8L557.5 213.7V222.7L556.9 231.8L513.8 232.1L514.3 216.4L513.2 201.1L511.7 190.9L509.6 180.9L507 171L503.8 161.2L500.3 151.5L496.3 142L491.9 132.6L482.4 114.3Z" fill="#A599A6"/>
<path d="M533.8 128.1L548.4 131.5L555.6 133.6L542.9 131.4L547.8 142.4L552.4 153.4L556.4 164.7L560 176.1L562.9 187.7L565.3 199.4L566.6 208.2L567.4 217.1L567.8 226.1V235.2L554.5 233.4L541.1 232L556.9 231.8L557.5 222.7V213.7L557 204.8L555.9 196L554.4 187.2L550 169.9L544.3 152.9L539.3 140.4L533.8 128.1Z" fill="#7B6172"/>
<path d="M289.3 170L295.2 165L307.5 155.7L326.9 143L346.8 131L355.9 135.2L360.3 137.6L364.3 140.5L366.7 142.7L368.7 145.3L376 157.8L381.1 167.6L385.6 177.7L393.7 198.2L407.5 240.3L394.8 243L382.3 246.4L369.9 250.2L357.6 254.7L345.5 259.6L333.8 265.1L322.2 271.1L310.9 277.6L299.9 284.5L289.2 292L278.9 299.8L268.9 308.2L259.3 316.9L250.1 326.1L241.4 335.7L233 345.7L225.2 356.1L217.9 366.9L211.2 378L204.9 389.5L203 376.8L196 338.8L197.9 332L207.1 306.1L209.6 300.2L212.5 294.7L215.8 289.4L219.6 284.4L223.8 279.7L228.4 275.4L235.6 269.8L237.1 268L238.2 266.2L238.9 264.3L239.3 261.5L239.2 258.7L238.5 255.7L236.2 250.1L231.6 243.6L196.2 204.3L180.2 185.9L164.7 167.1L175.4 166.4L196.8 166.3L207.4 166.8L218.1 167.7L228.7 169.1L239.2 170.9L249.6 173.2L280.2 182.3L295.7 186L289.3 170Z" fill="#F3DDC9"/>
<path d="M542.9 131.4L555.6 133.6L564.9 137.8L574 142.4L582.8 147.4L595.8 155.5L608.4 164L620.8 159.5L627.1 157.6L641.2 155L632.7 176.1L631.1 181.6L630.1 187.1L629.8 190.8L629.9 194.6L631.8 207.7L641.4 253.6L629.6 252.2L609.4 245.3L599.1 242.1L588.8 239.3L578.4 237L567.8 235.2V226.1L567.4 217.1L566.6 208.2L565.3 199.4L562.9 187.7L560 176.1L556.4 164.7L552.4 153.4L547.8 142.4L542.9 131.4Z" fill="#F4E0CE"/>
<path d="M691.1 137.3L705.1 133.8L714.6 132.7L719.4 132.6L724.1 133L728.8 134L733.4 135.6L737.1 138.7L738.4 140.5L740.1 143.5L742.1 150.5L744.3 161L738.6 149.7L718 193.8L712.6 204.7L699.6 228.8L697.6 233.4L696.5 236.6L695.6 243L695.7 246.2L696.5 249.4L697.9 252.8L689.4 257.2L679.2 244.8L674.5 238.2L668 228.2L662 217.7L656.3 207.1L651.1 196.3L669.5 178.1L678.4 168.6L686.8 158.8L697.1 145.1L701.8 137.8L691.1 137.3Z" fill="#715B7B"/>
<path d="M633.6 156.3L642.8 152.2L652.2 148.4L671.5 142.2L691.1 137.3L701.8 137.8L692.1 152.1L686.8 158.8L678.4 168.6L669.5 178.1L651.1 196.3L656.3 207.1L662 217.7L668 228.2L674.5 238.2L679.2 244.8L695.3 264.8L700.8 272.7L705.7 281L710.1 289.6L714.2 298.3L717.9 307.3L722.8 320.9L727.1 334.7L727.4 363.1L721.9 351.9L716 340.8L709.6 330L702.7 319.4L695.4 309.2L687.6 299.4L681.4 292.3L674.9 285.5L668.1 279.1L661.1 272.9L653.7 267.2L646 261.8L638 256.8L629.6 252.2L641.4 253.6L631.8 207.7L629.9 194.6L629.8 190.8L630.1 187.1L631.1 181.6L632.7 176.1L641.2 155L633.6 156.3Z" fill="#D8B2AC"/>
<path d="M706.7 215.4L712.6 204.7L718 193.8L738.6 149.7L744.3 161L745 172.3L745.3 183.7L745.2 195.1L744.7 206.5L743.4 221.7L741.5 236.8L739.1 251.8L736.1 266.8L732.8 281.7L729 296.4L713 274.9L705.3 264L697.9 252.8L696.5 249.4L695.7 246.2L695.6 243L696.5 236.6L699.6 228.8L706.7 215.4Z" fill="#A390A1"/>
<path d="M154 175.9L154.6 169.1L163.7 178.1L189.9 206.8L198.9 216.1L208.2 225L214.6 230.6L221.5 235.8L228.7 240.6L231.6 243.6L236.2 250.1L238.5 255.7L239.2 258.7L239.3 261.5L238.9 264.3L238.2 266.2L237.1 268L235.6 269.8L228.4 275.4L223.8 279.7L219.6 284.4L215.8 289.4L212.5 294.7L209.6 300.2L207.1 306.1L205.1 312.2L193.9 310L188.9 301.8L184.6 293.5L180.9 285L177.7 276.2L174.8 267.4L172.4 258.4L169.2 244.7L160.9 203.1L157.8 189.4L154 175.9Z" fill="#8E8196"/>
<path d="M154 175.9L157.8 189.4L160.9 203.1L169.2 244.7L172.4 258.4L174.8 267.4L177.7 276.2L180.9 285L184.6 293.5L188.9 301.8L195.1 312.5L191.7 320.9L179.9 345.6L176.1 353.9L172.7 362.3L164.7 335.2L158.1 307.7L155.4 293.8L153.2 279.9L151.3 265.9L149.9 251.8L149 237.7L148.5 223.6L148.6 209.5L149.1 195.3L149.5 190.3L150.5 185.3L152 180.6L154 175.9Z" fill="#F6E9DA"/>
<path d="M407.5 240.3L419.2 238.1L431 236.4L442.7 235.1L460.5 233.8L478.3 232.9L527.5 231.9L541.1 232L554.5 233.4L578.4 237L588.8 239.3L609.4 245.3L629.6 252.2L638 256.8L646 261.8L653.7 267.2L661.1 272.9L668.1 279.1L674.9 285.5L681.4 292.3L687.6 299.4L695.4 309.2L702.7 319.4L709.6 330L716 340.8L721.9 351.9L727.4 363.1L730.7 372.9L736.6 392.6L739 402.6L740.9 412.7L742.4 422.8L743.6 438.1L743.3 453.6L742.2 461.1L739.1 475.8L733.1 497.6L719.1 491.7L711.9 489.2L704.6 487.4L699.7 486.6L694.6 486.2H689.5L689.3 478L688.6 469.8L687.5 461.7L684.7 449.8L680.4 438.2L682.1 424.6L683.3 410.9L684 397.2L684.3 383.4L691.4 411.7L695.4 425.7L705.3 411.1L708.3 406L710.9 400.8L713 395.4L714.6 387.8L714.9 383.8V377.3L714.3 370.9L713.1 364.6L711.6 358.4L709.6 352.4L707.2 346.4L701.4 334.9L698.1 329.3L692.8 321.2L681.6 306.3L669.8 292.4L663.3 285.9L656.6 279.7L649.6 273.9L642.3 268.5L634.6 263.6L626.7 259.2L620.6 256.3L607.8 251.5L601.2 249.6L587.1 246.3L573 243.7L558.7 241.6L544.4 240L530.1 239.1L515.7 238.5H501.3L486.9 239L472.4 239.8L443.8 242.7L415.5 246.7L401.5 249.4L387.7 252.8L377.4 255.7L367.3 259L357.4 262.7L347.5 266.8L337.9 271.2L328.4 276.2L319.2 281.5L301 293.4L292 299.9L283.2 306.7L274.6 314L266.3 321.5L258.4 329.4L250.8 337.5L243.4 346L236.5 354.8L229.9 363.9L223.8 373.2L218.1 382.7L212.8 392.5L208 402.5L203.7 412.8L199.9 423.2L196.7 433.8L194 444.6L191.9 455.6L190.4 466.7L178.7 450.2L189 428.6L204.9 389.5L211.2 378L217.9 366.9L225.2 356.1L233 345.7L241.4 335.7L250.1 326.1L259.3 316.9L268.9 308.2L278.9 299.8L289.2 292L299.9 284.5L310.9 277.6L322.2 271.1L333.8 265.1L345.5 259.6L357.6 254.7L369.9 250.2L382.3 246.4L394.8 243L407.5 240.3Z" fill="#493852"/>
<path d="M672.7 311.1L688.7 320.7L687.1 313.6L692.8 321.2L701.4 334.9L707.2 346.4L709.6 352.4L711.6 358.4L713.1 364.6L714.3 370.9L714.9 377.3V383.8L714.6 387.8L713 395.4L710.9 400.8L708.3 406L702.1 416.1L695.4 425.7L691.4 411.7L684.3 383.4L684 397.2L683.3 410.9L682.1 424.6L680.4 438.2L677.8 432L678.4 405.1L677.5 371.5L676.2 351.4L672.7 311.1Z" fill="#61516B"/>
<path d="M727.1 334.7L745.1 378.4L753.9 403.2L759.5 423.4L761.7 433.6L763.3 444L764.5 454.5L743.3 453.6L743.6 445.8L743.2 430.4L742.4 422.8L740.9 412.7L739 402.6L736.6 392.6L733.8 382.7L727.4 363.1L727.1 334.7Z" fill="#CF9DA9"/>
<path d="M179.9 447.7L178.3 440.8L176.3 427L175.8 419.9V410.6L176.4 401.2L177.7 391.9L179.5 382.6L181.8 373.5L184.6 364.5L188 355.6L191.8 347.1L196 338.8L203 376.8L204.9 389.5L189 428.6L179.9 447.7Z" fill="#D5A9AA"/>
<path d="M809.3 374.2L811.5 370.6L814 367.6L816.6 365.1L819.6 363L826.1 359.8L829.5 358.8L833.2 358.1L838.2 357.8L843.2 358L848.3 358.8L853.3 360.1L858.2 361.9L862.8 364.1L867.3 366.8L871.2 369.8L874.8 373.1L867 376.6L842.9 385.6L837.6 387.8L827.5 393.1L825.5 395.4L824.1 397.7L823.3 400.2L822.8 402.7V408.2L825.4 424.9H846.6L867.8 424.4L850.4 426.4L841.7 427L819.8 427.1L815.1 431.3L809.9 410L807.5 398L806.9 388.4L807.1 383.6L808 378.9L809.3 374.2Z" fill="#E8D7CF"/>
<path d="M129 427.7L128.4 421.6L128.2 415.5L128.5 409.4L129.2 403.4L130.4 397.4L131.9 391.5L133.9 385.8L138.9 374.6L145.3 364.3L149 359.4L156.6 413.2L158.1 422.1L162.2 439.7L164.7 448.3L167.8 456.8L171.4 465.2L176.6 475.3L182.2 485L188.2 494.5L194.7 503.8L201.7 512.7L208.9 521.3L216.6 529.5L224.7 537.5L233 545.1L241.7 552.3L250.7 559.1L259.9 565.6L269.5 571.7L279.3 577.3L289.2 582.6L299.5 587.4L318.6 595.5L338.2 602.1L351.5 605.8L364.9 609.1L378.5 611.8L392.2 614.1L419.6 617.7L428.3 618L463.4 621L472.2 621.4L483.9 621L504.8 618.9L514.8 618.7L519.9 619L552.8 624.4L536.5 626.5L520.2 628.1L503.9 629.2L487.4 630L471 630.2L454.6 630L438.3 629.4L421.9 628.2L405.6 626.5L389.3 624.3L373.2 621.5L357 618.2L342.9 614.9L328.9 611.2L314.9 607L301.1 602.5L287.4 597.4L273.9 591.9L260.7 585.8L247.8 579.2L235.2 572L225.9 566.2L216.9 560.1L208.2 553.6L199.7 546.7L190.8 538.9L182.5 530.7L174.5 522L168.9 515.1L158.5 500.9L149.4 485.7L145.3 477.9L138.3 461.8L135.4 453.4L132.8 445L130.7 436.4L129 427.7Z" fill="#DFDDD1"/>
<path d="M619.4 364.1L622.1 362.4L625 361.2L628 360.6L631.1 360.5L634.1 360.8L637.1 361.6L639.9 362.8L642.4 364.4L644.6 366.5L646.4 368.9L647.7 371.7L648.5 374.9L647.8 377.7L645.6 382L644.2 383.5L641.9 385.3L639.4 386.7L636.4 387.7L631.7 388.6L621.4 388.9L607 388.3L609.9 378.1L612.4 371.5L614.1 368.6L615.5 366.9L619.4 364.1Z" fill="#2E1430"/>
<path d="M874.8 373.1L878.3 380.8L881.3 388.7L883.9 396.7L887 408.9L889.5 421.3L867.8 424.4L846.6 424.9H825.4L822.8 408.2V402.7L823.3 400.2L824.1 397.7L825.5 395.4L827.5 393.1L837.6 387.8L842.9 385.6L867 376.6L874.8 373.1Z" fill="#968098"/>
<path d="M385.9 428.8L389.5 425.1L393.5 421.9L397.9 419.3L402.5 417.2L407.2 415.6L412.2 414.5L417.3 414H422.3L427.4 414.4L432.4 415.4L437.3 416.9L442 418.9L446.4 421.4L450.5 424.4L457.5 431.1L460.2 434.5L462.4 438.2L464.2 442L466.9 450.3L468.2 456.7L470.6 476.3L453.6 491.4L447.6 495.8L443.3 498.5L438.8 500.6L434 502.4L429 503.6L423.9 504.3L418.9 504.6L411.2 504.5L403.5 503.9L388.3 501.7L365.8 497.2L368.6 469.9L370.1 460.9L371.4 454.9L373.2 449.2L375.4 443.7L377.5 439.7L379.9 435.9L382.6 432.3L385.9 428.8ZM388.7 449.9L395.8 444.9L402.6 439.4L409 433.7L415.2 427.5H411.7L405.3 428.7L399.6 431.3L397.1 433.1L394.9 435.2L393 437.6L391.4 440.3L390.1 443.2L389.2 446.4L388.7 449.9Z" fill="#2E192F"/>
<path d="M629.2 426.9L632.2 425.2L638.1 423.1L641.2 422.6L645.3 422.4L649.5 422.6L653.7 423.3L659.9 425L666.1 427.1L677.8 432L682.7 444L686.3 455.7L687.5 461.7L688.6 469.8L689.3 478L689.5 486.2L668.4 490.7L657.7 492.6L647 494L640.4 492L634.1 489.5L627.9 486.6L622 483.2L610.5 475.7L610.4 468.9L611.3 457.3L613.2 448.3L614.7 444L616.6 439.9L619 436.1L621 433.5L626.1 428.9L629.2 426.9ZM638 438.9L634.1 447.9L640.4 446.2L646.7 445.2L653 444.8L659.4 444.9L665.8 445.5L672.3 446.5L668.9 443.8L665.5 441.6L661.9 440L658.1 438.8L654.2 438L650.2 437.6L642.1 438.1L638 438.9Z" fill="#2C1A30"/>
<path d="M819.8 427.1L832.9 427.2L834.6 439.6L835.8 452.1L836.5 464.6L836.7 477.1L836.5 489.6L835.8 502.1L834.7 514.6L833.1 527L831.1 539.4L828.7 551.7L825.9 563.8L822.7 575.9L805.9 575.3L804.2 567.4L807 556.2L809.5 545.1L811.5 533.8L813.1 522.5L814.8 507.4L815.8 492.2L816.3 477V461.7L815.9 446.5L815.1 431.3L819.8 427.1Z" fill="#F9F0E3"/>
<path d="M867.8 424.4L889.5 421.3L890.6 434.8L891.2 448.2L891.3 461.7L890.9 475.2L890 488.6L888.6 502L886.5 515.3L884 528.5L880.8 541.5L877.1 554.4L872.7 567.2L867.7 579.8L860.2 581.1L845 582.5L837.4 582.6L829.7 582.3L822.2 581.6L814.6 580.5L807.1 579L805.9 575.3L822.7 575.9L825.9 563.8L828.7 551.7L831.1 539.4L833.1 527L834.7 514.6L835.8 502.1L836.5 489.6L836.7 477.1L836.5 464.6L835.8 452.1L834.6 439.6L832.9 427.2L850.4 426.4L867.8 424.4Z" fill="#F2DAC7"/>
<path d="M743.3 453.6L764.5 454.5L764.1 465.2L763.3 476.2L762.4 483.6L759.4 498L757.3 505L754.6 511.7L751.3 518.1L748.5 522.6L745.2 526.9L741.5 531L737.3 534.8L724.8 543.9L718.3 548.2L706.9 554.2L697.2 557.8L674.5 557.3L690.5 534.5L660 531.4L661 515L663.3 498.5L647 494L657.7 492.6L668.4 490.7L689.5 486.2H694.6L699.7 486.6L704.6 487.4L711.9 489.2L719.1 491.7L733.1 497.6L739.1 475.8L742.2 461.1L743.3 453.6Z" fill="#D6939C"/>
<path d="M470.6 476.3L476.5 472.8L482.6 469.8L488.9 467.2L495.4 465.1L502 463.4L508.7 462.1L522.3 460.4L539.5 459.9L549.7 460.2L565.5 461.6L581.4 463.8L586.5 464.9L596.6 468.1L601.4 470.2L606 472.7L622 483.2L627.9 486.6L634.1 489.5L640.4 492L663.3 498.5L661 515L659.7 520.2L658 525.1L656 529.7L653.6 534.1L649.9 539.7L645.8 544.8L641.2 549.6L636.1 553.9L630.8 558L625.1 561.7L613.1 568.2L606.8 571L597.3 574.6L587.8 577.7L573.6 581.4L559.5 584.6L545.2 587.1L530.8 589L516.4 590.4L501.9 591.3L487.4 591.6L472.9 591.4L458.4 590.8L443.9 589.7L429.4 588.2L415 586.2L400.6 583.8L386.4 581.1L358.1 574.6L377.7 564.1L387.2 558.3L390.1 556.1L395 551L396.8 548.1L398.2 544.7L399.1 541L399.6 537.4L399.4 534.2L398.6 531.2L395.6 525.6L393.6 523L379.6 508.8L379.9 500.9L388.3 501.7L403.5 503.9L411.2 504.5L418.9 504.6L423.9 504.3L429 503.6L434 502.4L438.8 500.6L443.3 498.5L447.6 495.8L453.6 491.4L470.6 476.3ZM506.8 474.4L524.2 486.1L533.3 491.5L531.7 502.7L531 505.4L528.8 509.3L527.4 510.6L522.7 513.7L516.7 516.5L513.6 517.3L509.3 518L505 518.2L500.5 517.9L493.9 517L487.3 515.4L474.5 511.7L478.9 518.5L481.4 521.8L484.2 524.8L488.4 526L492.6 526.8L496.7 527.1L503 527L509.3 526.2L515.6 525.1L534.1 520.6L538.9 521.4L557.6 526.7L562.4 527.5L568.8 527.7L574.7 527.1L579.1 525.9L582 524.2L584.6 522L589.3 516.7L593.4 511L570.7 517.7L566.1 518.4H559.9L554.2 517.2L549.6 514.8L545.9 511.3L544.5 509.2L543.5 506.9L543.1 504.4L543.2 498.7L543.7 496L545.8 491.2L549.2 487L552.2 484.2L562.4 476.2L565.6 473.4L568.3 470.4L544.9 468L531.7 467.9L521.5 469.2L516.5 470.4L511.6 472.2L506.8 474.4Z" fill="#F4DBC7"/>
<path d="M506.8 474.4L511.6 472.2L516.5 470.4L521.5 469.2L531.7 467.9L544.9 468L568.3 470.4L565.6 473.4L562.4 476.2L552.2 484.2L549.2 487L545.8 491.2L543.7 496L543.2 498.7L543.1 504.4L543.5 506.9L544.5 509.2L547.6 513.2L551.9 516.2L556.7 517.9L563 518.6L570.7 517.7L593.4 511L589.3 516.7L584.6 522L582 524.2L579.1 525.9L574.7 527.1L568.8 527.7L562.4 527.5L557.6 526.7L538.9 521.4L534.1 520.6L515.6 525.1L509.3 526.2L503 527L496.7 527.1L492.6 526.8L488.4 526L484.2 524.8L481.4 521.8L478.9 518.5L474.5 511.7L487.3 515.4L493.9 517L500.5 517.9L505 518.2L509.3 518L513.6 517.3L516.7 516.5L522.7 513.7L527.4 510.6L528.8 509.3L531 505.4L531.7 502.7L533.3 491.5L524.2 486.1L506.8 474.4Z" fill="#2F1D31"/>
<path d="M289.7 516.6L296.7 513.1L303.8 510.1L311 507.7L318.5 505.7L326 504.1L333.6 502.9L345.2 501.7L356.8 501.1L379.9 500.9L379.6 508.8L390.2 519.3L395.6 525.6L398.6 531.2L399.4 534.2L399.6 537.4L399.1 541L398.2 544.7L396.8 548.1L395 551L390.1 556.1L382.6 561.3L368.2 569.2L357.7 571L336.6 573.7L326 574.4L315.3 574.7L304.7 574.4L293.9 570L281.1 563.2L259 549.1L267.7 536.9L272.4 531L277.6 525.5L281.3 522.2L285.3 519.3L289.7 516.6Z" fill="#E79FA8"/>
<path d="M144.8 506.2L166.7 533.3L172.3 539.8L178.4 546.1L187 554.2L195.9 562L205.2 569.2L214.9 576L224.8 582.4L235 588.4L245.4 594.1L256 599.4L270.4 605.9L285 611.8L311.4 621.4L335 628.7L346.9 631.8L362.9 635.5L379 638.6L395.3 641.2L411.6 643.3L428 644.9L444.4 646.1L450.9 647.9L463.6 652.4L469.8 655.1L475.8 658.3L481.6 661.8L410.2 663.5L396.9 663.1L383.7 662.1L370.5 660.4L357.4 658.2L344.4 655.7L331.4 652.7L312.1 647.6L293 642.1L277.2 636.8L261.4 631L240.7 622.3L230.6 617.5L220.7 612.3L211.1 606.6L201.9 600.5L195.1 595.5L188.7 590.3L182.4 584.7L171.8 573.7L167.6 568.5L163.8 563L160.3 557.3L154.4 545.3L149.8 532.6L147.6 523.9L145.9 515.1L144.8 506.2Z" fill="#DCA8B2"/>
<path d="M587.8 577.7L597.3 574.6L606.8 571L613.1 568.2L625.1 561.7L630.8 558L636.1 553.9L641.2 549.6L645.8 544.8L649.9 539.7L653.6 534.1L656 529.7L658 525.1L659.7 520.2L661 515L660 531.4L690.5 534.5L674.5 557.3L697.2 557.8L687.2 563.5L677 568.7L666.7 573.5L656.1 577.9L645.5 581.8L623.8 588.6L612.7 591.5L597.9 594.9L582.9 597.8L567.8 600.2L537.4 603.8L499.2 606.8L476.6 608L454.7 607L432.6 605.6L417.9 604.3L403.2 602.6L388.6 600.5L374.1 597.8L359.8 594.5L345.7 590.7L335.2 587.3L324.9 583.5L314.8 579.2L304.7 574.4L315.3 574.7L326 574.4L336.6 573.7L347.2 572.5L368.2 569.2L358.1 574.6L386.4 581.1L400.6 583.8L429.4 588.2L443.9 589.7L458.4 590.8L472.9 591.4L487.4 591.6L501.9 591.3L516.4 590.4L530.8 589L545.2 587.1L559.5 584.6L573.6 581.4L587.8 577.7Z" fill="#D5ACA9"/>
<path d="M793.7 594.3L795.9 587.4L798.5 580.6L804.2 567.4L805.9 575.3L807.1 579L814.6 580.5L822.2 581.6L829.7 582.3L837.4 582.6L852.6 582L867.7 579.8L863.9 586.7L859.7 593.3L855.1 599.8L850.1 605.9L844.7 611.5L838.8 616.7L834.1 620.2L829.2 623.3L823.9 626L818.3 628.4L804.9 612.1L800.6 606.5L795.7 598.5L793.7 594.3Z" fill="#CBA1A7"/>
<path d="M627.3 600.1L639.8 596.6L652.2 592.5L676.5 582.9L700.6 572.8L692.4 578.4L684.1 583.7L675.5 588.6L666.8 593.2L654.8 598.8L642.7 603.8L630.2 608.3L617.6 612.2L604.8 615.6L591.9 618.5L578.9 620.9L565.9 622.9L552.8 624.4L519.9 619L573.9 611.2L591.8 608.2L603.7 605.9L615.5 603.2L627.3 600.1Z" fill="#ABAEAC"/>
<path d="M653.3 612.8L662.8 608.7L672.1 604.1L699.7 589.6L709.1 585.2L702.8 591.5L696.2 597.4L689.2 602.9L682 608L674.5 612.8L666.8 617.2L654.9 623.3L642.8 628.9L618.1 639L601.5 644.6L584.6 649.6L567.5 654.1L554.6 657.1L528.6 662L502.4 665.4L489.2 666.5L476.1 667.2L462.9 667.4L449.7 667.2L436.5 666.4L423.4 665.2L410.2 663.5L481.6 661.8L475.8 658.3L469.8 655.1L463.6 652.4L457.3 650L444.4 646.1L479.8 645.7L497.6 644.9L515.3 643.7L533 642L550.6 639.8L563.7 637.8L589.8 632.7L602.7 629.6L615.5 626.1L628.2 622.1L640.8 617.7L653.3 612.8Z" fill="#A2A2A3"/>
<path d="M228.8 633.8L255.1 644.5L259.8 658.6L264.1 672.8L267.9 687.1L273.2 708.7L296.1 816.6L299 830.9L302.1 849.9L303.1 859.5L303.7 869.1V878.7L303.2 888.5L287.5 892.3L287.3 879.5L286.5 866.8L285 854.2L283 841.8L280.6 829.4L277.8 817.1L272.9 798.8L267.4 780.6L249.8 726.3L240.8 695.9L234.7 671.4L232.3 659L230.3 646.5L228.8 633.8Z" fill="#FBF1E3"/>
<path d="M520.7 675.9L535.1 674.2L549.4 671.9L563.6 669.1L577.6 665.7L591.5 661.8L605.4 657.4L619.1 652.7L646 642.1L647.1 651.6L647.8 661.1L648 670.6L647.9 680.1L646.6 699.2L645.8 721.1L644.6 742.9L642.9 764.8L640.7 786.6L638.1 808.4L631.7 851.7L628 873.4L626.2 881.5L623.5 889.6L622.3 892.2L619 896.3L616.9 897.9L614.4 899.1L604 901.8L588.7 904.6L580.9 905.5L573.1 906H565.3L557.5 905.5L549.9 904.4L542.4 902.7L536.9 901L531.5 898.9L526.2 896.4L521.1 893.4L531.5 891.9L542 889.6L547 887.9L551.7 885.7L554.6 883.8L557.3 881.6L564.9 873.1L573.9 860.8L578 854.4L582.9 845.5L587.4 836.3L591.5 826.9L595.1 817.4L601.5 798.1L608.8 769.5L611.9 755.1L614.7 740.6L617 726L618.9 711.4L620.3 696.7L621 682L621.2 667.3L594.8 673.6L568.5 680.5L542.4 687.8L516.4 695.7L505.7 690.3L502 688.9L498.2 687.9L494.3 687.3L484 686.8L473.7 686.7L442.7 687.3L422.2 686.8L411.9 685.9L391.9 678.8L408 678.6L472.5 679.2L499.3 678.2L520.7 675.9Z" fill="#D1A6A3"/>
<path d="M255.1 644.5L269.8 650L284.7 654.9L299.8 659.3L330.2 666.9L345.6 670.2L391.9 678.8L411.9 685.9L404.5 694.9L398.7 704.6L395.5 711.3L392.8 718.3L390.6 725.5L388.9 732.9L387.6 740.3L386.6 747.9L385.7 759.4L385.5 770.9L386.2 793.6L400.5 797.6L415 801.1L424.8 803.1L434.7 804.6L444.6 805.8L454.5 806.4L464.4 806.5L474.3 806L481.6 805.2L489 804L496.3 802.5L503.5 800.4L512.4 796.9L515.2 795.3L517.7 793.4L519.8 791.2L521 789.5L522.3 785.5L523.1 775.4L523.4 765.4L523.1 755.4L522.1 740.5L520.4 725.5L516.4 695.7L542.4 687.8L568.5 680.5L594.8 673.6L621.2 667.3L621 682L620.3 696.7L618.9 711.4L617 726L614.7 740.6L611.9 755.1L608.8 769.5L601.5 798.1L595.1 817.4L591.5 826.9L587.4 836.3L582.9 845.5L578 854.4L569.6 867.1L559.9 878.9L557.3 881.6L554.6 883.8L551.7 885.7L547 887.9L542 889.6L531.5 891.9L517.7 893.9L517 871.1V865.4L517.6 859.9L518.3 856.3L520.8 849.5L522.7 846.4L525.1 843.5L528.1 840.6L521.9 836L519.8 834.7L516.7 833.6L480.7 832.4L463.6 831.4L446.6 829.8L435.2 828.3L424 826.3L412.9 823.9L401.6 820L391.4 814.8L384.9 810.7L378.8 806.3L372.8 801.4L364.3 793.5L331.7 760L323.3 752.2L328.5 761.7L334.3 771L340.4 779.9L347.1 788.5L354.1 796.8L361.4 804.8L369 812.5L377 819.9L375.2 825.6L368.9 848.5L366.9 854.1L364.5 859.4L361.5 864.5L352.9 870.8L348.3 873.4L341.2 876.8L333.8 879.6L326.2 882.1L303.2 888.5L303.7 878.7V869.1L303.1 859.5L300.7 840.4L299 830.9L273.2 708.7L267.9 687.1L264.1 672.8L259.8 658.6L255.1 644.5Z" fill="#F3DBC6"/>
<path d="M820.8 675.6L825.2 687L826.9 692.9L828.8 701.8L830.2 710.8L831.1 719.9L832.7 747.3L831.1 770.5L829 793.7L827.3 809.2L825.1 824.5L822.6 839.8L819.6 855L815.9 870.1L811.7 885.1L808.3 893.5L807.2 895.5L805.9 897.1L803.4 898.5L801.8 898.8L795.6 898.5L783.3 897L774.2 895.2L747 889L737.8 887.3L728.7 886.2L722.5 885.9L716.4 886L710.1 886.6L705.5 855.6L731.7 845L734.5 845.4L729.2 837.4L741.8 833.7L754.1 829.1L758.1 827.2L765.5 822.7L768.9 820L772.1 817L781.2 806.4L786.7 798.9L791.8 791.2L796.3 783.2L800.5 774.9L804.1 766.5L807.4 757.8L810.3 749L813.5 737.1L816.1 725L818 712.7L819.5 700.3L820.4 687.9L820.8 675.6Z" fill="#D1A6A6"/>
<path d="M411.9 685.9L422.2 686.8L432.4 687.3L473.7 686.7L484 686.8L494.3 687.3L498.2 687.9L502 688.9L509.3 692L516.4 695.7L520.4 725.5L522.1 740.5L523.1 755.4L523.4 765.4L523.1 775.4L522.3 785.5L521.8 787.6L519.8 791.2L517.7 793.4L515.2 795.3L509.4 798.2L503.5 800.4L496.3 802.5L489 804L481.6 805.2L474.3 806L464.4 806.5L454.5 806.4L444.6 805.8L434.7 804.6L424.8 803.1L415 801.1L400.5 797.6L386.2 793.6L385.5 770.9L385.7 759.4L386.6 747.9L387.6 740.3L388.9 732.9L390.6 725.5L392.8 718.3L395.5 711.3L398.7 704.6L404.5 694.9L411.9 685.9ZM421.4 697.3L419 697.9L414.8 699.9L412.2 702.1L409.9 704.8L406.2 711L403.3 717.4L400.8 724.5L397 739.1L395.7 746.5L394.8 754L394.3 761.6L394.4 769.1L394.9 776.6L395.9 784L400.5 786.6L405.2 788.7L410.2 790.3L420.4 792.5L425.7 793.1L441.3 794.1L462.5 793.8L473.1 793.3L483.7 792.2L490.6 791.1L497.5 789.5L504.3 787.6L506.9 786.5L508.9 785.3L510.4 783.7L512.5 779.9L513.5 774.2V770.4L512.6 756L511.1 744.1L509.9 725.7L508.4 715.7L506 708.3L504.4 704.7L502.3 701.4L499.8 698.2L486.8 696.9L473.7 696.2L460.6 695.9L447.5 696L421.4 697.3Z" fill="#352537"/>
<path d="M416.7 714L430.6 716.6L446.7 718.8L458.8 719.7L471 720.2L495.4 720L497.9 760.4L497.6 773.9L496.9 780.6L493.6 752.2L464.9 751.7L475 765.4L480.4 771.9L486.3 778.1L477.2 783.4L453.8 749L491 738.7L482 735.5L473 732.8L463.8 730.5L454.5 728.8L445.1 727.6L435.7 726.9L426.2 726.7L416.7 727.1L436.7 742.8L441.3 747.1L445.5 751.9L447.1 755.1L449.2 761.9L450.1 767.2L452.2 783.2L443.7 783.6L442.5 765.1L440.9 759.3L438.5 755L434.5 750.9L430.2 747.4L425.5 744.2L410.9 735.6L416.7 714Z" fill="#632448"/>
<path d="M422.6 715.1H429.8L459.8 713.4L467.2 713.3L472.1 713.6L481.7 714.9L486.4 716.2L491 717.8L495.4 720L483.2 720.2L458.8 719.7L446.7 718.8L430.6 716.6L422.6 715.1Z" fill="#CC8099"/>
<path d="M416.7 727.1L426.2 726.7L435.7 726.9L445.1 727.6L454.5 728.8L463.8 730.5L473 732.8L482 735.5L491 738.7L453.8 749L475.2 780.5L452.2 783.2L450.1 767.2L449.2 761.9L447.1 755.1L445.5 751.9L441.3 747.1L436.7 742.8L416.7 727.1Z" fill="#DAA1AC"/>
<path d="M410.9 735.6L425.5 744.2L430.2 747.4L434.5 750.9L438.5 755L440.9 759.3L442.5 765.1L443.7 783.6L427.9 781.2L419.1 779.1L412.9 776.3L410.2 774.3L407.9 771.7L405.8 768.6L405.3 765.8V760.3L406.7 752L410.1 739.7L410.9 735.6Z" fill="#C9D0D8"/>
<path d="M464.9 751.7L493.6 752.2L496.9 780.6L486.3 778.1L480.4 771.9L475 765.4L464.9 751.7Z" fill="#9E3A69"/>
<path d="M377 819.9L392.2 832.4L395.6 835.8L398.8 839.5L399.2 847L399.1 854.5L398.6 862L397.5 869.4L395.8 876.7L393.4 883.8L389.9 887L386.1 889.7L382.1 892L373.5 895.4L369 896.7L362 898L347.9 899.4L332.5 899.7L323.9 899.6L312.5 898.5L306.9 897.5L301.5 896L296.2 894L291 891.4L318.5 884.3L333.8 879.6L341.2 876.8L348.3 873.4L357.3 867.9L361.5 864.5L364.5 859.4L366.9 854.1L368.9 848.5L375.2 825.6L377 819.9Z" fill="#C69DA0"/>
<path d="M710.1 886.6L716.4 886L722.5 885.9L728.7 886.2L737.8 887.3L747 889L774.2 895.2L783.3 897L795.6 898.5L801.8 898.8L793.7 901L785.5 902.6L777.2 903.6L768.8 904.1L760.4 904.2L752 903.7L743.6 902.9L735.3 901.6L727.2 899.9L722.4 898.3L717.6 894.7L710.1 886.6Z" fill="#BE8D95"/>
</g>
<defs>
<clipPath id="clip0_732_12715">
<rect width="1024" height="1024" fill="white"/>
</clipPath>
</defs>
</svg>
